<svg id="Calque_28" data-name="Calque 28" xmlns="http://www.w3.org/2000/svg" viewBox="0 0 319.71 208.65"><defs><style>.cls-1{fill:#ededed;}.cls-2{fill:#272c5f;}.cls-3{fill:#714673;}.cls-4{fill:#9a4055;}.cls-5{fill:#1d3d8f;}.cls-6{fill:#b33b40;}.cls-7{fill:#1e3d8b;}.cls-8{fill:#944255;}.cls-9{fill:#0a4793;}.cls-10{fill:#58467f;}.cls-11{fill:#7f446a;}.cls-12{fill:#c53529;}.cls-13{fill:#b33a40;}.cls-14{fill:#9a4056;}.cls-15{font-size:20.43px;fill:#1d1d1b;font-family:Poppins-Medium, Poppins;font-weight:500;}</style></defs><rect class="cls-1" width="319.71" height="208.65" rx="18.77"/><polygon class="cls-2" points="60.78 68.99 60.78 101.72 53 101.72 53 82.17 51.95 84.93 45.6 101.72 39.43 101.72 33.04 84.93 31.99 82.17 31.99 101.72 24.21 101.72 24.21 68.99 33.5 68.99 39.91 84.93 41.96 90.02 42.41 91.15 45.08 84.93 51.63 68.99 60.78 68.99"/><polygon class="cls-3" points="131.19 56.5 131.19 62.33 120.1 67 120.1 61.6 131.19 56.5"/><rect class="cls-3" x="122" y="68.97" width="7.76" height="32.8"/><rect class="cls-4" x="169.39" y="68.97" width="7.76" height="32.8"/><path class="cls-5" d="M247.24,621.71c9.11-1.24,12.38-19.5-4.67-19.53H229.49V635h7.88V622.24h2.09l6.8,12.74H255Zm-4.67-4.82h-5.2V609h5.2C248.21,609,247.88,616.89,242.57,616.89Z" transform="translate(-137.78 -533.21)"/><path class="cls-6" d="M336.09,601.74a16.86,16.86,0,1,0,16.54,16.85A16.69,16.69,0,0,0,336.09,601.74Zm0,26.71c-4.94,0-8.94-4.41-8.94-9.86s4-9.85,8.94-9.85,9,4.41,9,9.85S341,628.45,336.09,628.45Z" transform="translate(-137.78 -533.21)"/><polygon class="cls-7" points="74.44 75.22 74.44 81.98 84.97 81.98 84.97 87.88 74.44 87.88 74.44 95.13 86.6 95.13 86.6 101.77 66.66 101.77 66.66 84.93 66.66 68.99 86.6 68.99 86.6 75.22 74.44 75.22"/><path class="cls-8" d="M286.38,602.18H273.49V635h12.89C308.14,635,308.14,602.18,286.38,602.18Zm.5,25.55h-5.56V609h5.56C297.09,609,297.09,627.73,286.88,627.73Z" transform="translate(-137.78 -533.21)"/><circle class="cls-9" cx="226.97" cy="106.08" r="1.75"/><circle class="cls-9" cx="235.69" cy="106.17" r="1.21"/><circle class="cls-9" cx="244.3" cy="106.17" r="0.93"/><circle class="cls-9" cx="227.99" cy="96.76" r="1.88"/><circle class="cls-9" cx="237.08" cy="96.76" r="1.54"/><circle class="cls-9" cx="246.13" cy="96.57" r="1.32"/><circle class="cls-9" cx="252.54" cy="106.17" r="0.9"/><circle class="cls-9" cx="255.1" cy="96.92" r="1.43"/><circle class="cls-10" cx="262" cy="90.54" r="1.65"/><circle class="cls-9" cx="251.36" cy="88.28" r="1.85"/><circle class="cls-10" cx="259.36" cy="82.33" r="1.94"/><circle class="cls-9" cx="247.04" cy="80.4" r="2.19"/><circle class="cls-9" cx="240.9" cy="87.91" r="1.9"/><circle class="cls-9" cx="231.16" cy="87.76" r="2.16"/><circle class="cls-9" cx="236.07" cy="79.77" r="2.52"/><circle class="cls-11" cx="269.95" cy="78.2" r="1.97"/><circle class="cls-11" cx="270.61" cy="85.59" r="1.86"/><circle class="cls-9" cx="242.75" cy="73.17" r="2.85"/><circle class="cls-10" cx="250.64" cy="67.89" r="2.92"/><circle class="cls-10" cx="254.98" cy="75.15" r="2.56"/><circle class="cls-11" cx="264.23" cy="72.02" r="2.41"/><circle class="cls-11" cx="259.49" cy="64.27" r="3.4"/><circle class="cls-12" cx="287.94" cy="66.05" r="3.16"/><circle class="cls-13" cx="278.63" cy="63.32" r="3.38"/><circle class="cls-14" cx="268.96" cy="62.88" r="3.36"/><circle class="cls-14" cx="274.66" cy="71.42" r="2.63"/><circle class="cls-13" cx="283.57" cy="73.34" r="2.34"/><circle class="cls-12" cx="290.88" cy="78.75" r="2.43"/><circle class="cls-14" cx="280.17" cy="81.6" r="2.14"/><circle class="cls-12" cx="296.44" cy="70.36" r="3.05"/><circle class="cls-12" cx="301.96" cy="78.29" r="2.72"/><text class="cls-15" transform="translate(73.73 147.81)">COMING SOON</text></svg>