<svg id="LOGO_meridio" data-name="LOGO meridio" xmlns="http://www.w3.org/2000/svg" viewBox="0 0 94.42 94.42"><defs><style>.cls-1{fill:#f6f6f6;}.cls-2{fill:#0a4793;}.cls-3{fill:#58467f;}.cls-4{fill:#7f446a;}.cls-5{fill:#c53529;}.cls-6{fill:#b33a40;}.cls-7{fill:#9a4056;}</style></defs><circle class="cls-1" cx="47.21" cy="47.21" r="47.21"/><circle class="cls-2" cx="8.58" cy="61.1" r="1.75"/><circle class="cls-2" cx="17.3" cy="61.2" r="1.21"/><circle class="cls-2" cx="25.91" cy="61.2" r="0.93"/><circle class="cls-2" cx="9.61" cy="51.78" r="1.88"/><circle class="cls-2" cx="18.69" cy="51.78" r="1.54"/><circle class="cls-2" cx="27.74" cy="51.6" r="1.32"/><circle class="cls-2" cx="34.16" cy="61.2" r="0.9"/><circle class="cls-2" cx="36.72" cy="51.94" r="1.43"/><circle class="cls-3" cx="43.61" cy="45.56" r="1.65"/><circle class="cls-2" cx="32.97" cy="43.3" r="1.85"/><circle class="cls-3" cx="40.98" cy="37.36" r="1.94"/><circle class="cls-2" cx="28.65" cy="35.42" r="2.19"/><circle class="cls-2" cx="22.51" cy="42.93" r="1.9"/><circle class="cls-2" cx="12.77" cy="42.79" r="2.16"/><circle class="cls-2" cx="17.69" cy="34.8" r="2.52"/><circle class="cls-4" cx="51.56" cy="33.22" r="1.97"/><circle class="cls-4" cx="52.22" cy="40.61" r="1.86"/><circle class="cls-2" cx="24.36" cy="28.2" r="2.85"/><circle class="cls-3" cx="32.26" cy="22.91" r="2.92"/><circle class="cls-3" cx="36.59" cy="30.17" r="2.56"/><circle class="cls-4" cx="45.84" cy="27.05" r="2.41"/><circle class="cls-4" cx="41.1" cy="19.29" r="3.4"/><circle class="cls-5" cx="69.55" cy="21.07" r="3.16"/><circle class="cls-6" cx="60.24" cy="18.34" r="3.38"/><circle class="cls-7" cx="50.57" cy="17.91" r="3.36"/><circle class="cls-7" cx="56.28" cy="26.44" r="2.63"/><circle class="cls-6" cx="65.18" cy="28.36" r="2.34"/><circle class="cls-5" cx="72.49" cy="33.77" r="2.43"/><circle class="cls-7" cx="61.78" cy="36.63" r="2.14"/><circle class="cls-5" cx="78.05" cy="25.38" r="3.05"/><circle class="cls-5" cx="83.57" cy="33.32" r="2.72"/></svg>