<svg id="LOGO_meridio" data-name="LOGO meridio" xmlns="http://www.w3.org/2000/svg" viewBox="0 0 79.47 48.32"><defs><style>.cls-1{fill:#0a4793;}.cls-2{fill:#58467f;}.cls-3{fill:#7f446a;}.cls-4{fill:#c53529;}.cls-5{fill:#b33a40;}.cls-6{fill:#9a4056;}</style></defs><circle class="cls-1" cx="1.75" cy="46.56" r="1.75"/><circle class="cls-1" cx="10.48" cy="46.65" r="1.21"/><circle class="cls-1" cx="19.09" cy="46.65" r="0.93"/><circle class="cls-1" cx="2.78" cy="37.24" r="1.88"/><circle class="cls-1" cx="11.86" cy="37.24" r="1.54"/><circle class="cls-1" cx="20.91" cy="37.06" r="1.32"/><circle class="cls-1" cx="27.33" cy="46.65" r="0.9"/><circle class="cls-1" cx="29.89" cy="37.4" r="1.43"/><circle class="cls-2" cx="36.78" cy="31.02" r="1.65"/><circle class="cls-1" cx="26.14" cy="28.76" r="1.85"/><circle class="cls-2" cx="34.15" cy="22.81" r="1.94"/><circle class="cls-1" cx="21.83" cy="20.88" r="2.19"/><circle class="cls-1" cx="15.69" cy="28.39" r="1.9"/><circle class="cls-1" cx="5.94" cy="28.24" r="2.16"/><circle class="cls-1" cx="10.86" cy="20.26" r="2.52"/><circle class="cls-3" cx="44.73" cy="18.68" r="1.97"/><circle class="cls-3" cx="45.39" cy="26.07" r="1.86"/><circle class="cls-1" cx="17.53" cy="13.66" r="2.85"/><circle class="cls-2" cx="25.43" cy="8.37" r="2.92"/><circle class="cls-2" cx="29.76" cy="15.63" r="2.56"/><circle class="cls-3" cx="39.01" cy="12.5" r="2.41"/><circle class="cls-3" cx="34.28" cy="4.75" r="3.4"/><circle class="cls-4" cx="62.72" cy="6.53" r="3.16"/><circle class="cls-5" cx="53.42" cy="3.8" r="3.38"/><circle class="cls-6" cx="43.75" cy="3.36" r="3.36"/><circle class="cls-6" cx="49.45" cy="11.9" r="2.63"/><circle class="cls-5" cx="58.35" cy="13.82" r="2.34"/><circle class="cls-4" cx="65.67" cy="19.23" r="2.43"/><circle class="cls-6" cx="54.95" cy="22.08" r="2.14"/><circle class="cls-4" cx="71.22" cy="10.84" r="3.05"/><circle class="cls-4" cx="76.74" cy="18.77" r="2.72"/></svg>