<svg id="LOGO_meridio_nanterre" data-name="LOGO meridio nanterre" xmlns="http://www.w3.org/2000/svg" viewBox="0 0 280.48 72.09"><defs><style>.cls-1{font-size:16.84px;fill:#262c5f;font-family:Poppins-Medium, Poppins;font-weight:500;}.cls-2{fill:#272c5f;}.cls-3{fill:#714673;}.cls-4{fill:#9a4055;}.cls-5{fill:#1d3d8f;}.cls-6{fill:#b33b40;}.cls-7{fill:#1e3d8b;}.cls-8{fill:#944255;}.cls-9{fill:#0a4793;}.cls-10{fill:#58467f;}.cls-11{fill:#7f446a;}.cls-12{fill:#c53529;}.cls-13{fill:#b33a40;}.cls-14{fill:#9a4056;}</style></defs><text class="cls-1" transform="translate(122.88 62.3) scale(1.06 1)">France</text><polygon class="cls-2" points="36.57 12.5 36.57 45.22 28.79 45.22 28.79 25.67 27.75 28.43 21.4 45.22 15.22 45.22 8.83 28.43 7.78 25.67 7.78 45.22 0 45.22 0 12.5 9.29 12.5 15.7 28.43 17.75 33.52 18.21 34.66 20.88 28.43 27.43 12.5 36.57 12.5"/><polygon class="cls-3" points="106.98 0 106.98 5.83 95.89 10.5 95.89 5.11 106.98 0"/><rect class="cls-3" x="97.79" y="12.47" width="7.76" height="32.8"/><rect class="cls-4" x="145.19" y="12.47" width="7.76" height="32.8"/><path class="cls-5" d="M254.79,637.3c9.11-1.24,12.39-19.5-4.66-19.53H237.05v32.8h7.87V637.83H247l6.81,12.74h8.75Zm-4.66-4.82h-5.21v-7.93h5.21C255.76,624.55,255.44,632.48,250.13,632.48Z" transform="translate(-169.55 -605.3)"/><path class="cls-6" d="M343.65,617.33a16.86,16.86,0,1,0,16.53,16.85A16.69,16.69,0,0,0,343.65,617.33Zm0,26.71c-4.94,0-8.95-4.41-8.95-9.86s4-9.85,8.95-9.85,9,4.41,9,9.85S348.59,644,343.65,644Z" transform="translate(-169.55 -605.3)"/><polygon class="cls-7" points="50.23 18.72 50.23 25.48 60.77 25.48 60.77 31.38 50.23 31.38 50.23 38.63 62.39 38.63 62.39 45.27 42.46 45.27 42.45 28.43 42.45 12.5 62.39 12.5 62.39 18.72 50.23 18.72"/><path class="cls-8" d="M293.94,617.77H281.05v32.8h12.89C315.7,650.57,315.7,617.77,293.94,617.77Zm.5,25.55h-5.56V624.55h5.56C304.65,624.55,304.65,643.32,294.44,643.32Z" transform="translate(-169.55 -605.3)"/><circle class="cls-9" cx="202.76" cy="49.59" r="1.75"/><circle class="cls-9" cx="211.48" cy="49.68" r="1.21"/><circle class="cls-9" cx="220.09" cy="49.68" r="0.93"/><circle class="cls-9" cx="203.79" cy="40.26" r="1.88"/><circle class="cls-9" cx="212.87" cy="40.26" r="1.54"/><circle class="cls-9" cx="221.92" cy="40.08" r="1.32"/><circle class="cls-9" cx="228.34" cy="49.68" r="0.9"/><circle class="cls-9" cx="230.9" cy="40.43" r="1.43"/><circle class="cls-10" cx="237.79" cy="34.05" r="1.65"/><circle class="cls-9" cx="227.15" cy="31.78" r="1.85"/><circle class="cls-10" cx="235.16" cy="25.84" r="1.94"/><circle class="cls-9" cx="222.84" cy="23.9" r="2.19"/><circle class="cls-9" cx="216.69" cy="31.41" r="1.9"/><circle class="cls-9" cx="206.95" cy="31.27" r="2.16"/><circle class="cls-9" cx="211.87" cy="23.28" r="2.52"/><circle class="cls-11" cx="245.74" cy="21.71" r="1.97"/><circle class="cls-11" cx="246.4" cy="29.09" r="1.86"/><circle class="cls-9" cx="218.54" cy="16.68" r="2.85"/><circle class="cls-10" cx="226.44" cy="11.4" r="2.92"/><circle class="cls-10" cx="230.77" cy="18.65" r="2.56"/><circle class="cls-11" cx="240.02" cy="15.53" r="2.41"/><circle class="cls-11" cx="235.28" cy="7.78" r="3.4"/><circle class="cls-12" cx="263.73" cy="9.55" r="3.16"/><circle class="cls-13" cx="254.43" cy="6.83" r="3.38"/><circle class="cls-14" cx="244.75" cy="6.39" r="3.36"/><circle class="cls-14" cx="250.46" cy="14.92" r="2.63"/><circle class="cls-13" cx="259.36" cy="16.84" r="2.34"/><circle class="cls-12" cx="266.67" cy="22.26" r="2.43"/><circle class="cls-14" cx="255.96" cy="25.11" r="2.14"/><circle class="cls-12" cx="272.23" cy="13.86" r="3.05"/><circle class="cls-12" cx="277.75" cy="21.8" r="2.72"/></svg>