<svg id="LOGO_meridio_nanterre" data-name="LOGO meridio nanterre" xmlns="http://www.w3.org/2000/svg" viewBox="0 0 190.64 73.66"><defs><style>.cls-1{font-size:17.93px;fill:#262c5f;font-family:Poppins-Medium, Poppins;font-weight:500;}.cls-2{fill:#272c5f;}.cls-3{fill:#714673;}.cls-4{fill:#9a4055;}.cls-5{fill:#1d3d8f;}.cls-6{fill:#b33b40;}.cls-7{fill:#1e3d8b;}.cls-8{fill:#944255;}</style></defs><text class="cls-1" transform="translate(122.88 63.23) scale(1.06 1)">France</text><polygon class="cls-2" points="36.57 12.5 36.57 45.22 28.79 45.22 28.79 25.67 27.75 28.43 21.4 45.22 15.22 45.22 8.83 28.43 7.78 25.67 7.78 45.22 0 45.22 0 12.5 9.29 12.5 15.7 28.43 17.75 33.52 18.21 34.66 20.88 28.43 27.43 12.5 36.57 12.5"/><polygon class="cls-3" points="106.98 0 106.98 5.83 95.89 10.5 95.89 5.11 106.98 0"/><rect class="cls-3" x="97.79" y="12.47" width="7.76" height="32.8"/><rect class="cls-4" x="145.19" y="12.47" width="7.76" height="32.8"/><path class="cls-5" d="M287.56,470.3c9.12-1.23,12.39-19.5-4.66-19.52H269.82v32.8h7.87V470.84h2.09l6.81,12.74h8.75Zm-4.66-4.81h-5.21v-7.93h5.21C288.54,457.56,288.21,465.49,282.9,465.49Z" transform="translate(-202.32 -438.31)"/><path class="cls-6" d="M376.42,450.33A16.86,16.86,0,1,0,393,467.19,16.7,16.7,0,0,0,376.42,450.33Zm0,26.72c-4.94,0-8.94-4.42-8.94-9.86s4-9.85,8.94-9.85,8.95,4.41,8.95,9.85S381.36,477.05,376.42,477.05Z" transform="translate(-202.32 -438.31)"/><polygon class="cls-7" points="50.23 18.72 50.23 25.48 60.77 25.48 60.77 31.38 50.23 31.38 50.23 38.63 62.39 38.63 62.39 45.27 42.46 45.27 42.45 28.43 42.45 12.5 62.39 12.5 62.39 18.72 50.23 18.72"/><path class="cls-8" d="M326.71,450.78H313.82v32.8h12.89C348.47,483.58,348.47,450.78,326.71,450.78Zm.5,25.55h-5.56V457.56h5.56C337.42,457.56,337.42,476.33,327.21,476.33Z" transform="translate(-202.32 -438.31)"/></svg>