<svg xmlns="http://www.w3.org/2000/svg" viewBox="0 0 191.48936 191.48936"><defs><style>.cls-1{font-size:25.32958px;fill:#f1f2f2;font-family:Creditverse;}.cls-2{fill:#ef473c;}.cls-3{fill:#dd3029;}.cls-4{fill:#c32927;}.cls-5{fill:#f15f59;}.cls-6{fill:#88413b;}.cls-7{fill:#70302c;}.cls-8{fill:#5e2624;}.cls-9{fill:#984942;}.cls-10{fill:#fedebf;}.cls-11{fill:#f5cca6;}.cls-12{fill:none;}</style></defs><g id="Calque_7" data-name="Calque 7"><text class="cls-1" transform="translate(13.7045 82.71273)">cocooning</text><path class="cls-2" d="M937.8791-2338.20994a5.18978,5.18978,0,0,0,.19042-.6406,5.86586,5.86586,0,0,0,.13117-.65415l.04113-.32875c.01157-.10713.02977-.23022.03008-.31309l.02-.55033.019-.54874c-.00511-.18857-.01464-.37744-.02416-.56634l-.0303-.5676c-.01843-.18948-.05276-.38349-.07914-.57528l-.0888-.57849c-.04321-.19462-.09353-.38889-.14208-.58217-.05129-.1926-.09-.38693-.152-.5811l-.20278-.57682a9.52314,9.52314,0,0,0-.49332-1.13285,5.73532,5.73532,0,0,0-.30149-.54471l-.32216-.5366a13.43239,13.43239,0,0,0-3.42229-3.46395c-.14435-.10053-.28962-.19939-.435-.294a21.33879,21.33879,0,0,0-3.57265-1.86135c-.87112-.35269-1.745-.65323-2.62251-.919q.18657-.27146.36867-.53793.23841-.35147.47033-.69142c.05-.07686.10907-.16178.17187-.2533,2.51954-3.72,4.24641-6.47694,4.74528-7.28155.05279-.07889.10328-.15937.14985-.2425,2.6741-4.774-6.0403-14.73965-19.46415-22.25892s-26.47387-9.74477-29.148-4.97079c-.05182.09252-.09789.1877-.14122.2841-2.16485,4.34694-4.05317,8.3488-5.69744,12.02975-.1076.24563-.217.49027-.32447.7316l-.00754.01761c-13.86481,31.33233-9.75883,39.10574-8.37406,40.64832a1.74387,1.74387,0,0,0,.37174.3328l.00178.001.0008.00262c1.6108,2.82727,5.54588,6.32284,10.67585,9.19635,5.13175,2.87451,10.16974,4.40514,13.423,4.30025l.00177.001c3.35831.11289,7.38848-2.2429,11.56062-5.86482q1.48735-.06559,2.96786-.13858c2.548-.13066,5.09082-.30137,7.635-.52812,1.27059-.123,2.54467-.244,3.81713-.40745,1.27224-.15479,2.547-.33876,3.82272-.56156.45682-.07843.91371-.16119,1.37258-.25155q1.229-.24239,2.45972-.54942a30.58593,30.58593,0,0,0,3.83906-1.21667,15.85327,15.85327,0,0,0,3.77916-2.06087,9.19256,9.19256,0,0,0,1.7227-1.65487A7.85182,7.85182,0,0,0,937.8791-2338.20994Zm-25.68493,2.6319c3.49741-3.91039,6.8878-8.243,9.85785-12.28985.128-.00859.25737-.01561.38786-.01936.53267-.01624,1.07548-.00939,1.61586.02237a17.22994,17.22994,0,0,1,3.15687.47478c.24658.07039.50411.12942.74419.21145l.36382.11638.35.13271c.24007.082.45457.18909.68274.2841.2209.09973.429.2141.639.32517a6.83589,6.83589,0,0,1,2.00132,1.66072,5.28261,5.28261,0,0,1,.98136,2.26277c.02046.10759.04722.21215.06136.32274l.02717.33862.03159.3389-.0052.35105-.0044.3537a.88793.88793,0,0,1-.01047.134l-.0127.11744a1.45019,1.45019,0,0,1-.043.225,1.16825,1.16825,0,0,1-.05975.21782,2.596,2.596,0,0,1-.47233.84322,4.46243,4.46243,0,0,1-.87289.80894c-.14054.10266-.28809.20136-.44357.29779a11.87989,11.87989,0,0,1-2.17124,1.01033c-.49586.18111-1.01595.33552-1.55085.47509-.52961.14253-1.08169.25935-1.63288.37452-1.11278.22011-2.26032.37048-3.42142.49574-1.65345.16416-3.34041.244-5.039.25831q-1.03635.00948-2.07984-.01348C914.25086-2335.46742,913.223-2335.51479,912.19417-2335.578Z" transform="translate(-807.1705 2492.24008)"/><path class="cls-3" d="M938.06952-2338.85054a5.86586,5.86586,0,0,0,.13117-.65415l.04113-.32875c.01157-.10713.02977-.23022.03008-.31309l.02-.55033.019-.54874c-.00511-.18857-.01464-.37744-.02416-.56634l-.0303-.5676c-.01843-.18948-.05276-.38349-.07914-.57528l-.0888-.57849c-.04321-.19462-.09353-.38889-.14208-.58217-.05129-.1926-.09-.38693-.152-.5811l-.20278-.57682a9.52314,9.52314,0,0,0-.49332-1.13285,5.73532,5.73532,0,0,0-.30149-.54471l-.32216-.5366a13.43239,13.43239,0,0,0-3.42229-3.46395c-.14435-.10053-.28962-.19939-.435-.294a3.4323,3.4323,0,0,0-.89556.11234,2.271,2.271,0,0,0-1.1108.64073,2.05773,2.05773,0,0,0-.06792,2.11419c1.04525,2.34225,4.16379,3.746,4.3628,6.25664a4.40883,4.40883,0,0,1-.60919,2.36821c-.52808,1.00864-1.4764,2.02224-2.65656,1.83972a2.07137,2.07137,0,0,1-.46929-.134,11.87989,11.87989,0,0,1-2.17124,1.01033c-.49586.18111-1.01595.33552-1.55085.47509-.52961.14253-1.08169.25935-1.63288.37452-1.11278.22011-2.26032.37048-3.42142.49574-1.65345.16416-3.34041.244-5.039.25831-.89989.60593-1.70181,1.10282-.53314,2.45883,1.377,1.60166,3.84894,2.05984,5.81605,2.27455.719.07939,1.45444.14173,2.18385.23132q1.229-.24239,2.45972-.54942a30.58593,30.58593,0,0,0,3.83906-1.21667,15.85327,15.85327,0,0,0,3.77916-2.06087,9.19256,9.19256,0,0,0,1.7227-1.65487,7.85182,7.85182,0,0,0,1.25628-2.25918A5.18978,5.18978,0,0,0,938.06952-2338.85054Zm-7.949,3.97437c-.93438,1.12781-3.02054,1.46165-4.436,1.67319a17.33527,17.33527,0,0,1-4.97693.114c-.9866-.13569-.68648-1.4769.14271-1.54872,1.58559-.13732,3.16995-.22042,4.73069-.50634,1.3235-.24244,2.89249-.84371,4.26391-.61721A.53929.53929,0,0,1,930.12052-2334.87617Zm5.66364-8.07319c-.46092-.83456-.734-1.76134-1.17742-2.608-.47464-.90619-1.26991-1.557-1.77-2.42112a.73585.73585,0,0,1,.82566-1.0913c2.22555.66811,3.88749,4.17553,2.8083,6.12914A.40469.40469,0,0,1,935.78416-2342.94936Zm-3.15721,7.05551a.61222.61222,0,1,1,.59827-1.06807A.61222.61222,0,1,1,932.627-2335.89385Zm3.8041-4.92657a.00477.00477,0,1,1,.00465-.00832A.00477.00477,0,1,1,936.43105-2340.82042Z" transform="translate(-807.1705 2492.24008)"/><path class="cls-4" d="M916.82228-2332.9748c-1.16867-1.356-.36675-1.8529.53314-2.45883q-1.03635.00948-2.07984-.01348c-1.02472-.02031-2.05256-.06768-3.08141-.13093a79.74075,79.74075,0,0,1-6.9873,6.99637q1.48735-.06559,2.96786-.13858c2.548-.13066,5.09082-.30137,7.635-.52812,1.27059-.123,2.54467-.244,3.81713-.40745,1.27224-.15479,2.547-.33876,3.82272-.56156.45682-.07843.91371-.16119,1.37258-.25155-.72941-.08959-1.46485-.15193-2.18385-.23132C920.67122-2330.915,918.19932-2331.37314,916.82228-2332.9748Z" transform="translate(-807.1705 2492.24008)"/><path class="cls-4" d="M922.43988-2347.88725c.53267-.01624,1.07548-.00939,1.61586.02237a17.22994,17.22994,0,0,1,3.15687.47478c.24658.07039.50411.12942.74419.21145l.36382.11638.35.13271c.24007.082.45457.18909.68274.2841.2209.09973.429.2141.639.32517a6.83589,6.83589,0,0,1,2.00132,1.66072,5.28261,5.28261,0,0,1,.98136,2.26277c.02046.10759.04722.21215.06136.32274l.02717.33862.03159.3389-.0052.35105-.0044.3537a.88793.88793,0,0,1-.01047.134l-.0127.11744a1.45019,1.45019,0,0,1-.043.225,1.16825,1.16825,0,0,1-.05975.21782,2.596,2.596,0,0,1-.47233.84322,4.46243,4.46243,0,0,1-.87289.80894c-.14054.10266-.28809.20136-.44357.29779a2.07137,2.07137,0,0,0,.46929.134c1.18016.18252,2.12848-.83108,2.65656-1.83972a4.40883,4.40883,0,0,0,.60919-2.36821c-.199-2.51062-3.31755-3.91439-4.3628-6.25664a2.05773,2.05773,0,0,1,.06792-2.11419,2.271,2.271,0,0,1,1.1108-.64073,3.4323,3.4323,0,0,1,.89556-.11234,21.33879,21.33879,0,0,0-3.57265-1.86135c-.87112-.35269-1.745-.65323-2.62251-.919-1.3034,1.89693-2.77626,3.98607-4.37019,6.15793C922.18-2347.87648,922.30939-2347.8835,922.43988-2347.88725Z" transform="translate(-807.1705 2492.24008)"/><path class="cls-5" d="M888.78171-2378.68233a64.55659,64.55659,0,0,0,14.39855,10.679q1.44772.81095,2.88582,1.53824a4.14148,4.14148,0,0,0,.03442-1.78364,2.09061,2.09061,0,0,0-.06784-.27834c-.04332-.02251-.087-.04645-.13033-.06911-.19413-.10146-.38856-.20507-.58309-.30906-.11159-.05967-.22288-.11819-.33464-.17873q-.45816-.248-.91748-.50472c-9.07665-5.08422-15.72128-11.35609-17.11958-15.70744a3.82055,3.82055,0,0,1,.09876-3.09986c2.18464-3.90015,13.3456-1.79992,24.9293,4.6886,11.58547,6.48951,19.20632,14.90977,17.02168,18.80992a3.8205,3.8205,0,0,1-2.59178,1.70341c-.13163.032-.26781.06049-.407.08648-.04095.00765-.08376.01372-.12535.02083-.1008.01727-.20244.03378-.30695.048-.04881.00661-.099.01207-.14856.018-.10177.01223-.20464.02353-.30971.033-.05065.00454-.10206.00843-.1535.01231q-.16436.01249-.33366.02065c-.04832.00229-.09672.0045-.14567.00626q-.18566.00672-.37739.0081c-.04008.00033-.07973.00106-.12021.001q-.22749,0-.46284-.00711l-.05375-.00123c-.54872-.01817-1.12819-.06488-1.7351-.1393l-.0596-.00776q-.26394-.033-.53453-.073c-.04284-.00631-.08619-.01318-.12929-.01975q-.23625-.03619-.47725-.07735-.08831-.01512-.1772-.031-.2158-.03842-.43532-.08105c-.07527-.01453-.15041-.029-.2263-.04427-.12507-.0252-.25146-.052-.37823-.07912-.0978-.02086-.19525-.04138-.294-.06338-.08426-.01884-.16971-.03914-.25466-.05884-.13639-.03145-.27229-.0624-.41046-.09605-.31152.046-.64971.06166-.94435.11054a3.227,3.227,0,0,0-1.84115,1.12033,33.10661,33.10661,0,0,0,11.14332,1.95353c1.422,1.22936,2.20326,2.9005.72635,5.02573,2.51954-3.72,4.24641-6.47694,4.74528-7.28155.05279-.07889.10328-.15937.14985-.2425,2.6741-4.774-6.0403-14.73965-19.46415-22.25892s-26.47387-9.74477-29.148-4.97079c-.05182.09252-.09789.1877-.14122.2841-2.16485,4.34694-4.05317,8.3488-5.69744,12.02975C878.84313-2379.84124,882.02232-2384.27768,888.78171-2378.68233Z" transform="translate(-807.1705 2492.24008)"/><path class="cls-3" d="M921.13166-2363.16782c-.04284-.00631-.08618-.01315-.12929-.01975C921.04547-2363.181,921.08882-2363.17413,921.13166-2363.16782Z" transform="translate(-807.1705 2492.24008)"/><path class="cls-3" d="M919.30807-2363.50033c-.09783-.02093-.19519-.04128-.294-.06338C919.11282-2363.54171,919.21027-2363.52119,919.30807-2363.50033Z" transform="translate(-807.1705 2492.24008)"/><path class="cls-3" d="M920.52512-2363.26492q-.08829-.01515-.1772-.031Q920.43679-2363.28009,920.52512-2363.26492Z" transform="translate(-807.1705 2492.24008)"/><path class="cls-3" d="M918.34891-2363.7186c.13817.03365.27407.0646.41046.09605-.136-.0315-.27165-.06249-.40946-.09615Z" transform="translate(-807.1705 2492.24008)"/><path class="cls-3" d="M919.9126-2363.37694c-.07529-.01461-.15039-.02895-.2263-.04427C919.76219-2363.406,919.83733-2363.39147,919.9126-2363.37694Z" transform="translate(-807.1705 2492.24008)"/><path class="cls-3" d="M905.90233-2368.59619c-.19395-.10136-.38847-.205-.58309-.30906C905.51377-2368.80126,905.7082-2368.69765,905.90233-2368.59619Z" transform="translate(-807.1705 2492.24008)"/><path class="cls-3" d="M925.56618-2363.03879c-.04876.00664-.099.01205-.14856.018C925.46721-2363.02672,925.51737-2363.03218,925.56618-2363.03879Z" transform="translate(-807.1705 2492.24008)"/><path class="cls-3" d="M904.9846-2369.084q-.45833-.2482-.91748-.50472Q904.52644-2369.33142,904.9846-2369.084Z" transform="translate(-807.1705 2492.24008)"/><path class="cls-3" d="M923.51464-2362.94655l-.05375-.00123Z" transform="translate(-807.1705 2492.24008)"/><path class="cls-3" d="M925.10791-2362.9878c-.05066.00458-.10208.00842-.1535.01231C925.00585-2362.97937,925.05726-2362.98326,925.10791-2362.9878Z" transform="translate(-807.1705 2492.24008)"/><path class="cls-3" d="M925.99848-2363.10759c-.04095.00765-.0838.01371-.12535.02083C925.91472-2363.09387,925.95753-2363.09994,925.99848-2363.10759Z" transform="translate(-807.1705 2492.24008)"/><path class="cls-3" d="M924.09769-2362.94048c-.04008.00033-.07974.001-.12021.001C924.018-2362.93942,924.05761-2362.94015,924.09769-2362.94048Z" transform="translate(-807.1705 2492.24008)"/><path class="cls-3" d="M921.72579-2363.08708l-.0596-.00776Z" transform="translate(-807.1705 2492.24008)"/><path class="cls-3" d="M891.3103-2385.45475a1.76319,1.76319,0,0,1,.42906-.85653,1.908,1.908,0,0,1,.844-.39908c3.63034-.984,7.58094.0009,11.28082,1.07923a2.05016,2.05016,0,0,1,1.10485.597,1.036,1.036,0,0,1,.149.26923,2.32594,2.32594,0,0,1,.09073.96633c-.05079.8854-.13911,1.772-.26391,2.65335,1.429.675,2.88159,1.42184,4.34119,2.23943a67.29542,67.29542,0,0,1,7.472,4.84116,17.808,17.808,0,0,0,1.63189.93567c.5129.24134,1.17311.49977,1.80106.80342a5.26365,5.26365,0,0,1,1.62892,1.10256,3.02462,3.02462,0,0,1,.57969,2.09289,16.89959,16.89959,0,0,1,4.00591,5.936,3.8205,3.8205,0,0,0,2.59178-1.70341c2.18464-3.90015-5.43621-12.32041-17.02168-18.80992-11.5837-6.48852-22.74466-8.58875-24.9293-4.6886a3.82055,3.82055,0,0,0-.09876,3.09986,12.99592,12.99592,0,0,1,4.35816-.14447Z" transform="translate(-807.1705 2492.24008)"/><path class="cls-3" d="M924.62075-2362.95484c-.0483.0023-.09674.00449-.14567.00626C924.524-2362.95034,924.57243-2362.95255,924.62075-2362.95484Z" transform="translate(-807.1705 2492.24008)"/><path class="cls-5" d="M880.66594-2341.90912q5.26581-9.25967,10.53161-18.51928c1.04324-1.83448,2.11222-3.75784,2.16752-5.89133.09086-3.50553-6.43174-14.03411-10.78016-11.17273-2.12343,1.39731-3.24922,6.11829-4.15184,8.31041a101.73926,101.73926,0,0,0-3.85229,11.15692,102.18819,102.18819,0,0,0-2.78837,13.17712,10.72407,10.72407,0,0,0-.04151,3.98683,4.29983,4.29983,0,0,0,2.48768,3.09633,4.15253,4.15253,0,0,0,3.97125-.84712A11.23756,11.23756,0,0,0,880.66594-2341.90912Z" transform="translate(-807.1705 2492.24008)"/><path class="cls-3" d="M869.54309-2336.218a4.62975,4.62975,0,0,0-.37174-.3328A1.74387,1.74387,0,0,0,869.54309-2336.218Z" transform="translate(-807.1705 2492.24008)"/><path class="cls-3" d="M922.052-2347.86789c1.59393-2.17186,3.06679-4.261,4.37019-6.15793q.18657-.27146.36867-.53793s1.36977-4.20361-4.07267-3.83046c-5.44338.37485-16.06,21.107-27.715,27.56411-.20759.11534-.41415.22469-.6198.33241a18.23646,18.23646,0,0,1-10.73905,2.17838c-6.08346-.72661-10.85134-4.69956-14.09873-7.89513,1.6108,2.82727,5.54588,6.32284,10.67585,9.19635,5.13175,2.87451,10.16974,4.40514,13.423,4.30025l.00177.001c3.35831.11289,7.38848-2.2429,11.56062-5.86482a79.74075,79.74075,0,0,0,6.9873-6.99637C915.69158-2339.48843,919.082-2343.821,922.052-2347.86789Z" transform="translate(-807.1705 2492.24008)"/><path class="cls-5" d="M929.845-2335.76128c-1.37142-.2265-2.94041.37477-4.26391.61721-1.56074.28592-3.1451.369-4.73069.50634-.82919.07182-1.12931,1.413-.14271,1.54872a17.33527,17.33527,0,0,0,4.97693-.114c1.41541-.21154,3.50157-.54538,4.436-1.67319A.53929.53929,0,0,0,929.845-2335.76128Z" transform="translate(-807.1705 2492.24008)"/><path class="cls-5" d="M933.22522-2336.96192a.61222.61222,0,1,0-.59827,1.06807A.61222.61222,0,1,0,933.22522-2336.96192Z" transform="translate(-807.1705 2492.24008)"/><path class="cls-5" d="M936.47069-2342.94063c1.07919-1.95361-.58275-5.461-2.8083-6.12914a.73585.73585,0,0,0-.82566,1.0913c.5001.86417,1.29537,1.51493,1.77,2.42112.4434.84665.7165,1.77343,1.17742,2.608A.40469.40469,0,0,0,936.47069-2342.94063Z" transform="translate(-807.1705 2492.24008)"/><path class="cls-5" d="M936.43105-2340.82042a.00477.00477,0,1,0,.00465-.00832A.00477.00477,0,1,0,936.43105-2340.82042Z" transform="translate(-807.1705 2492.24008)"/><path class="cls-6" d="M922.39959-2369.13011a5.253,5.253,0,0,1-.09533.82661,8.0048,8.0048,0,0,1-.69455,1.92526c-.03058.06285-.06118.12568-.09254.18813a.772.772,0,0,1-.82518.39433,22.67471,22.67471,0,0,1-11.85485-5.75327.7693.7693,0,0,1-.06328-1.10177q.12474-.13272.25583-.25973a8.39152,8.39152,0,0,1,2.1651-1.51752,8.55,8.55,0,0,1,2.1766-.7276,4.99216,4.99216,0,0,1,3.38664,1.091,67.29542,67.29542,0,0,0-7.472-4.84116c-1.4596-.81759-2.91215-1.56444-4.34119-2.23943a28.061,28.061,0,0,1-.85653,3.98932c-.07253.24631-.14637.49218-.22624.7356a1.094,1.094,0,0,1-1.361.67975,27.114,27.114,0,0,1-11.83877-6.75373,1.16752,1.16752,0,0,1-.1902-.26169,1.08894,1.08894,0,0,1-.08076-.86462l.00688-.017c.20916-.6.7199-1.10227.90749-1.803a12.99592,12.99592,0,0,0-4.35816.14447c1.3983,4.35135,8.04293,10.62322,17.11958,15.70744q.459.25708.91748.50472c.11176.06054.223.11906.33464.17873.19462.104.38914.2077.58309.30906.04335.02266.087.0466.13033.06911a2.09061,2.09061,0,0,1,.06784.27834,4.14148,4.14148,0,0,1-.03442,1.78364c-.01537.05885-.03038.11759-.04927.1775-1.02961,3.2711-3.36276,6.48935-5.26919,9.29987-.5167.76595-1.0212,1.86427-.3215,2.53808.20335.197.47739.30891.69989.48817a2.34186,2.34186,0,0,1,.55709,2.25016c-.5451,3.29556-2.958,6.03433-4.00293,9.13515a8.66,8.66,0,0,0-.48407,2.56063,2.60054,2.60054,0,0,0,.74238,2.13764,2.10513,2.10513,0,0,0,1.82253.33694,4.25042,4.25042,0,0,0,1.61141-.90439,17.64413,17.64413,0,0,0,3.754-4.69256c3.44588-5.75235,5.69-12.18,9.32251-17.81249.09445-.1481.18978-.29353.286-.44066a9.254,9.254,0,0,1,.82841-1.09667,3.227,3.227,0,0,1,1.84115-1.12033c.29464-.04888.63283-.06459.94435-.11054l.001-.0001c.13781.03366.27341.06465.40946.09615.085.0197.1704.04.25466.05884.09885.0221.19621.04245.294.06338.12677.02716.25316.05392.37823.07912.07591.01532.151.02966.2263.04427q.21945.04252.43532.08105.08889.01584.1772.031.24113.04137.47725.07735c.04311.0066.08645.01344.12929.01975q.27066.04.53453.073l.0596.00776c.60691.07442,1.18638.12113,1.7351.1393l.05375.00123q.23523.007.46284.00711c.04047,0,.08013-.00071.12021-.001q.19143-.00166.37739-.0081c.04893-.00177.09737-.004.14567-.00626q.16944-.00809.33366-.02065c.05142-.00389.10284-.00773.1535-.01231.10507-.00945.20794-.02075.30971-.033.04956-.006.0998-.01137.14856-.018.10451-.01419.20615-.0307.30695-.048.04155-.00712.0844-.01318.12535-.02083.13921-.026.27539-.05443.407-.08648A16.89959,16.89959,0,0,0,922.39959-2369.13011Z" transform="translate(-807.1705 2492.24008)"/><path class="cls-7" d="M918.34991-2363.7187c.13781.03366.27341.06465.40946.09615.085.0197.1704.04.25466.05884.09885.0221.19621.04245.294.06338.12677.02716.25316.05392.37823.07912.07591.01532.151.02966.2263.04427q.21945.04252.43532.08105.08889.01584.1772.031.24113.04137.47725.07735c.04311.0066.08645.01344.12929.01975q.27066.04.53453.073l.0596.00776c.60691.07442,1.18638.12113,1.7351.1393l.05375.00123q.23523.007.46284.00711c.04047,0,.08013-.00071.12021-.001q.19143-.00166.37739-.0081c.04893-.00177.09737-.004.14567-.00626q.16944-.00809.33366-.02065c.05142-.00389.10284-.00773.1535-.01231.10507-.00945.20794-.02075.30971-.033.04956-.006.0998-.01137.14856-.018.10451-.01419.20615-.0307.30695-.048.04155-.00712.0844-.01318.12535-.02083.13921-.026.27539-.05443.407-.08648a16.89959,16.89959,0,0,0-4.00591-5.936,5.253,5.253,0,0,1-.09533.82661,8.0048,8.0048,0,0,1-.69455,1.92526c.36273.21936.72363.4414,1.08378.66309a3.56886,3.56886,0,0,1,.96871.76386,1.10649,1.10649,0,0,1,.21335,1.12275,1.077,1.077,0,0,1-.97774.52539,3.2881,3.2881,0,0,1-1.168-.27512,60.77732,60.77732,0,0,1-6.94454-3.25158,31.8014,31.8014,0,0,1-7.1616-4.71721,1.2787,1.2787,0,0,1-.35454-.4617c-.3482-.95994.813-1.01772,1.76059-.90179a8.39152,8.39152,0,0,1,2.1651-1.51752,8.55,8.55,0,0,1,2.1766-.7276,4.99216,4.99216,0,0,1,3.38664,1.091,67.29542,67.29542,0,0,0-7.472-4.84116c-1.4596-.81759-2.91215-1.56444-4.34119-2.23943a28.061,28.061,0,0,1-.85653,3.98932,6.59037,6.59037,0,0,1,1.80422,1.65549.61053.61053,0,0,1,.1628.46182.54626.54626,0,0,1-.28753.31256,4.69079,4.69079,0,0,1-2.85372.49684c-2.91472-.29226-5.44179-2.16323-7.7856-3.95867q-1.55124-1.18826-3.10244-2.37652a12.9689,12.9689,0,0,1-2.8688-2.7013.517.517,0,0,1-.108-.231c-.02962-.28573.38007-.37685.67054-.31767.21455.04372.4442.10587.67844.17682.20916-.6.7199-1.10227.90749-1.803a12.99592,12.99592,0,0,0-4.35816.14447c1.3983,4.35135,8.04293,10.62322,17.11958,15.70744q.459.25708.91748.50472c.11176.06054.223.11906.33464.17873.19462.104.38914.2077.58309.30906.04335.02266.087.0466.13033.06911A56.42918,56.42918,0,0,0,918.34991-2363.7187Z" transform="translate(-807.1705 2492.24008)"/><path class="cls-8" d="M920.692-2365.79578a22.67471,22.67471,0,0,1-11.85485-5.75327.7693.7693,0,0,1-.06328-1.10177q.12474-.13272.25583-.25973c-.94762-.11593-2.10879-.05815-1.76059.90179a1.2787,1.2787,0,0,0,.35454.4617,31.8014,31.8014,0,0,0,7.1616,4.71721,60.77732,60.77732,0,0,0,6.94454,3.25158,3.2881,3.2881,0,0,0,1.168.27512,1.077,1.077,0,0,0,.97774-.52539,1.10649,1.10649,0,0,0-.21335-1.12275,3.56886,3.56886,0,0,0-.96871-.76386c-.36015-.22169-.721-.44373-1.08378-.66309-.03058.06285-.06118.12568-.09254.18813A.772.772,0,0,1,920.692-2365.79578Z" transform="translate(-807.1705 2492.24008)"/><path class="cls-8" d="M902.50106-2375.74057a27.114,27.114,0,0,1-11.83877-6.75373,1.16752,1.16752,0,0,1-.1902-.26169,1.08894,1.08894,0,0,1-.08076-.86462l.00688-.017c-.23424-.071-.46389-.1331-.67844-.17682-.29047-.05918-.70016.03194-.67054.31767a.517.517,0,0,0,.108.231,12.9689,12.9689,0,0,0,2.8688,2.7013q1.55122,1.18824,3.10244,2.37652c2.34381,1.79544,4.87088,3.66641,7.7856,3.95867a4.69079,4.69079,0,0,0,2.85372-.49684.54626.54626,0,0,0,.28753-.31256.61053.61053,0,0,0-.1628-.46182,6.59037,6.59037,0,0,0-1.80422-1.65549c-.07253.24631-.14637.49218-.22624.7356A1.094,1.094,0,0,1,902.50106-2375.74057Z" transform="translate(-807.1705 2492.24008)"/><path class="cls-9" d="M908.49513-2365.93111c-1.43046.35366-1.82089,2.804-2.45691,3.90036a30.27361,30.27361,0,0,0-2.44054,4.47709,1.07574,1.07574,0,0,0,.02907,1.08113c.34276.39627.9913.20732,1.4087-.07654,2.21559-1.50677,2.85135-4.52256,4.951-6.17519a6.24846,6.24846,0,0,0,.8865-.73524C912.00217-2364.75162,909.78469-2366.24993,908.49513-2365.93111Z" transform="translate(-807.1705 2492.24008)"/><path class="cls-7" d="M910.916-2357.48431a96.11419,96.11419,0,0,0-4.4649,8.99219,23.63984,23.63984,0,0,1-5.81188,8.111,2.01573,2.01573,0,0,1-2.02191.59141c-.73123-.33752-.87258-1.271-.90852-2.0428-.01092-.23993-.02244-.49106-.0286-.74362a8.66,8.66,0,0,0-.48407,2.56063,2.60054,2.60054,0,0,0,.74238,2.13764,2.10513,2.10513,0,0,0,1.82253.33694,4.25042,4.25042,0,0,0,1.61141-.90439,17.64413,17.64413,0,0,0,3.754-4.69256c3.44588-5.75235,5.69-12.18,9.32251-17.81249a5.67842,5.67842,0,0,0-1.3103.78681A10.39314,10.39314,0,0,0,910.916-2357.48431Z" transform="translate(-807.1705 2492.24008)"/><path class="cls-10" d="M904.0883-2377.15592a28.061,28.061,0,0,0,.85653-3.98932c.1248-.88135.21312-1.768.26391-2.65335a2.32594,2.32594,0,0,0-.09073-.96633,1.036,1.036,0,0,0-.149-.26923,2.05016,2.05016,0,0,0-1.10485-.597c-3.69988-1.07833-7.65048-2.06321-11.28082-1.07923a1.908,1.908,0,0,0-.844.39908,1.76319,1.76319,0,0,0-.42906.85653l-.0046.01414c-.18759.70075-.69833,1.203-.90749,1.803l-.00688.017a1.08894,1.08894,0,0,0,.08076.86462,1.16752,1.16752,0,0,0,.1902.26169,27.114,27.114,0,0,0,11.83877,6.75373,1.094,1.094,0,0,0,1.361-.67975C903.94193-2376.66374,904.01577-2376.90961,904.0883-2377.15592Z" transform="translate(-807.1705 2492.24008)"/><path class="cls-10" d="M921.60971-2366.37824a8.0048,8.0048,0,0,0,.69455-1.92526,5.253,5.253,0,0,0,.09533-.82661,3.02462,3.02462,0,0,0-.57969-2.09289,5.26365,5.26365,0,0,0-1.62892-1.10256c-.62795-.30365-1.28816-.56208-1.80106-.80342a17.808,17.808,0,0,1-1.63189-.93567,4.99216,4.99216,0,0,0-3.38664-1.091,8.55,8.55,0,0,0-2.1766.7276,8.39152,8.39152,0,0,0-2.1651,1.51752q-.13083.12714-.25583.25973a.7693.7693,0,0,0,.06328,1.10177,22.67471,22.67471,0,0,0,11.85485,5.75327.772.772,0,0,0,.82518-.39433C921.54853-2366.25256,921.57913-2366.31539,921.60971-2366.37824Z" transform="translate(-807.1705 2492.24008)"/><path class="cls-11" d="M905.118-2384.76492a3.734,3.734,0,0,1-1.72067,1.93128,1.66183,1.66183,0,0,1-.8921.36555,1.88817,1.88817,0,0,1-.73613-.21347,37.21647,37.21647,0,0,0-8.52659-2.62385,2.26611,2.26611,0,0,0-1.5431.09486,1.83524,1.83524,0,0,0-.62848.75136,9.06341,9.06341,0,0,0-.59885,1.7032,1.16752,1.16752,0,0,0,.1902.26169,27.114,27.114,0,0,0,11.83877,6.75373,1.094,1.094,0,0,0,1.361-.67975c.07987-.24342.15371-.48929.22624-.7356a28.061,28.061,0,0,0,.85653-3.98932c.1248-.88135.21312-1.768.26391-2.65335A2.32594,2.32594,0,0,0,905.118-2384.76492Z" transform="translate(-807.1705 2492.24008)"/><path class="cls-11" d="M921.8199-2371.223a5.26365,5.26365,0,0,0-1.62892-1.10256,1.05147,1.05147,0,0,0,.08577.201c.21764.41029.5126.85958.36762,1.28312a.91277.91277,0,0,1-.77469.54714,2.59131,2.59131,0,0,1-1.01582-.13417,13.66609,13.66609,0,0,1-4.82-2.488,5.75238,5.75238,0,0,0-2.44469-1.47863,2.25322,2.25322,0,0,0-.39435-.033,8.39152,8.39152,0,0,0-2.1651,1.51752q-.13083.12714-.25583.25973a.7693.7693,0,0,0,.06328,1.10177,22.67471,22.67471,0,0,0,11.85485,5.75327.772.772,0,0,0,.82518-.39433c.03136-.06245.062-.12528.09254-.18813a8.0048,8.0048,0,0,0,.69455-1.92526,5.253,5.253,0,0,0,.09533-.82661A3.02462,3.02462,0,0,0,921.8199-2371.223Z" transform="translate(-807.1705 2492.24008)"/></g><g id="Calque_4" data-name="Calque 4"><rect class="cls-12" width="191.48936" height="191.48936"/></g></svg>