<svg xmlns="http://www.w3.org/2000/svg" viewBox="0 0 191.48936 191.48936"><defs><style>.cls-1{isolation:isolate;}.cls-2{font-size:35.86265px;fill:#f1f2f2;font-family:Creditverse;}.cls-3{fill:#dadcdb;}.cls-4{fill:#4e4e4e;}.cls-5,.cls-8{fill:#ccc;}.cls-5,.cls-9{mix-blend-mode:multiply;}.cls-6{fill:#ea3e3d;}.cls-7,.cls-9{fill:#e6e6e5;}.cls-7,.cls-8{mix-blend-mode:overlay;}.cls-10{fill:#1a1a1a;}.cls-11,.cls-12{fill:none;}.cls-11{stroke:#1a1a1a;stroke-linecap:round;stroke-linejoin:round;stroke-width:56.6323px;}</style></defs><g class="cls-1"><g id="Calque_6" data-name="Calque 6"><text class="cls-2" transform="translate(7.44219 106.019)">cozy</text><path class="cls-3" d="M979.42266-2204.524a4.75481,4.75481,0,0,0-3.49571.31906l6.382,1.67739A4.75307,4.75307,0,0,0,979.42266-2204.524Z" transform="translate(-821.35859 2280.01802)"/><path class="cls-4" d="M937.09738-2154.542c-.06055.07124-.34158.37961-.61449-.23262-.0444-.09963,5.73193-8.54163,5.73193-8.54163l1.84709.48547Z" transform="translate(-821.35859 2280.01802)"/><path class="cls-4" d="M941.25374-2156.66416c-.06035.07113-.31112.34494-.79056-.158-.10472-.10986,4.89925-5.66682,4.89925-5.66682l.64612.16982Z" transform="translate(-821.35859 2280.01802)"/><path class="cls-5" d="M941.25374-2156.66416c-.06035.07113-.31112.34494-.79056-.158-.10472-.10986,4.89925-5.66682,4.89925-5.66682l.64612.16982Z" transform="translate(-821.35859 2280.01802)"/><path class="cls-4" d="M982.43882-2146.30174c-.20034.54577-.47342.55831-.62021.51973a.52791.52791,0,0,1-.24831-.3l-1.312-7.23531.64612.16982S982.44785-2146.32634,982.43882-2146.30174Z" transform="translate(-821.35859 2280.01802)"/><path class="cls-4" d="M984.241-2142.03745l-2.036-10.76819,1.84713.48548.75079,10.17436C984.79353-2141.78555,984.30237-2141.72974,984.241-2142.03745Z" transform="translate(-821.35859 2280.01802)"/><path class="cls-6" d="M986.84033-2154.58235a1.68626,1.68626,0,0,1-2.05717,1.20087l-.0133-.0035-.003-.00079-42.66494-11.21364a1.68622,1.68622,0,0,1-1.20082-2.05716l.0907-.3451,45.93924,12.07422Z" transform="translate(-821.35859 2280.01802)"/><path class="cls-6" d="M950.144-2212.91963h39.37112a1.533,1.533,0,0,1,1.533,1.533v57.54347a1.533,1.533,0,0,1-1.533,1.533H950.144a1.533,1.533,0,0,1-1.533-1.533v-57.54351a1.533,1.533,0,0,1,1.533-1.533Z" transform="translate(2012.86448 1590.19048) rotate(-75.27399)"/><path class="cls-7" d="M1004.14324-2193.95044l-10.00805,38.078,9.442-37.6a1.53489,1.53489,0,0,0-1.09306-1.8725l-55.0873-15.10535,55.65331,14.62738A1.53489,1.53489,0,0,1,1004.14324-2193.95044Z" transform="translate(-821.35859 2280.01802)"/><path class="cls-4" d="M938.11826-2172.68274l8.9817-34.173a1.53469,1.53469,0,0,1,1.87229-1.09293l41.13711,10.81208-9.76106,37.13822-41.1371-10.81208A1.53469,1.53469,0,0,1,938.11826-2172.68274Z" transform="translate(-821.35859 2280.01802)"/><path class="cls-5" d="M980.34846-2159.99826l-41.13733-10.81215a1.53488,1.53488,0,0,1-1.09306-1.8725l8.98166-34.17286-7.1416,33.51165a1.53488,1.53488,0,0,0,1.09306,1.8725Z" transform="translate(-821.35859 2280.01802)"/><path class="cls-6" d="M992.55918-2158.374a1.53469,1.53469,0,0,1-1.87229,1.09294l-9.16612-2.40913,9.76106-37.13823,9.16611,2.40913a1.53469,1.53469,0,0,1,1.09294,1.87229Z" transform="translate(-821.35859 2280.01802)"/><path class="cls-7" d="M1001.54071-2192.547l-8.98167,34.17285,7.65511-33.89478a1.53489,1.53489,0,0,0-1.09306-1.8725l-7.839-2.68708,9.1656,2.409A1.5349,1.5349,0,0,1,1001.54071-2192.547Z" transform="translate(-821.35859 2280.01802)"/><path class="cls-3" d="M978.10551-2167.50777c-1.19655,1.89107-3.19043,2.35-7.35164,1.69408a113.86366,113.86366,0,0,1-22.42054-5.74528c-3.932-1.52577-5.12007-2.914-5.23227-5.149-.1353-2.696,1.17356-8.08757,2.32892-12.48342s2.66665-9.73419,4.11006-12.01521c1.19667-1.891,3.06064-2.48486,7.22022-1.81927a142.39888,142.39888,0,0,1,22.39695,5.86527c3.95079,1.47665,5.27519,2.91922,5.38728,5.15424.13539,2.696-1.17345,8.08747-2.32883,12.48336S979.549-2169.78881,978.10551-2167.50777Z" transform="translate(-821.35859 2280.01802)"/><path class="cls-8" d="M978.10552-2167.50774c2.34116-3.83949,4.89034-20.80658,4.755-23.50285-.11208-2.23472-1.93151-4.08171-5.87047-5.58912-5.545-2.122-9.80265-4.75746-20.23-6.426a142.47009,142.47009,0,0,1,22.3972,5.86494c3.95046,1.477,5.27531,2.91909,5.38719,5.15459.13554,2.69548-1.17377,8.08721-2.32916,12.4832S979.54911-2169.789,978.10552-2167.50774Z" transform="translate(-821.35859 2280.01802)"/><path class="cls-3" d="M994.57517-2187.9316a2.98169,2.98169,0,0,1-.37291-.12679l3.91935-3.70912a2.9398,2.9398,0,0,1,.06829,1.72583A2.963,2.963,0,0,1,994.57517-2187.9316Z" transform="translate(-821.35859 2280.01802)"/><path class="cls-3" d="M997.95782-2192.72524l-4.48079,4.24046a1.6492,1.6492,0,0,1-.55608-.58853l4.48008-4.24033Z" transform="translate(-821.35859 2280.01802)"/><path class="cls-3" d="M996.07961-2193.6556a2.98138,2.98138,0,0,1,.373.12682l-3.91955,3.70981a2.94323,2.94323,0,0,1-.06792-1.72734A2.96255,2.96255,0,0,1,996.07961-2193.6556Z" transform="translate(-821.35859 2280.01802)"/><path class="cls-3" d="M995.35127-2180.95752a2.963,2.963,0,0,1-4.18477-.0794,2.98527,2.98527,0,0,1-.25247-.30244l5.27713-1.12742A2.93927,2.93927,0,0,1,995.35127-2180.95752Z" transform="translate(-821.35859 2280.01802)"/><path class="cls-3" d="M990.51669-2182.08089a1.525,1.525,0,0,1-.16855-.79193l6.03235-1.28925.16919.79227Z" transform="translate(-821.35859 2280.01802)"/><path class="cls-3" d="M991.246-2185.22174a2.93855,2.93855,0,0,1,2.10843-.82641,2.9402,2.9402,0,0,1,2.0757.90641,2.9793,2.9793,0,0,1,.25249.30238l-5.27762,1.12791A2.94294,2.94294,0,0,1,991.246-2185.22174Z" transform="translate(-821.35859 2280.01802)"/><circle class="cls-3" cx="172.57807" cy="56.79994" r="1.22405"/><path class="cls-5" d="M992.79791-2222.77044a1.21942,1.21942,0,0,0,.82759.73646,1.224,1.224,0,0,0,1.49466-.87316,1.22207,1.22207,0,0,0-.23357-1.08255,1.21632,1.21632,0,0,1,.04535.759,1.22411,1.22411,0,0,1-1.49543.87295A1.21629,1.21629,0,0,1,992.79791-2222.77044Z" transform="translate(-821.35859 2280.01802)"/><path class="cls-7" d="M992.75255-2223.52942a1.21956,1.21956,0,0,0,.25155,1.10315,1.2146,1.2146,0,0,1-.03547-.733,1.22394,1.22394,0,0,1,1.49465-.87315,1.208,1.208,0,0,1,.62276.39348,1.22321,1.22321,0,0,0-.83826-.76265A1.22393,1.22393,0,0,0,992.75255-2223.52942Z" transform="translate(-821.35859 2280.01802)"/><circle class="cls-3" cx="151.20523" cy="54.56303" r="1.22405"/><rect class="cls-4" x="988.50402" y="-2178.29879" width="6.92882" height="0.71534" transform="translate(-1342.40109 1956.32252) rotate(14.72601)"/><path class="cls-9" d="M970.75359-2165.81336a113.85559,113.85559,0,0,1-22.4202-5.74564c-3.93183-1.52559-5.12031-2.91427-5.23239-5.149-.13534-2.69627,1.17376-8.08722,2.32916-12.4832s2.66638-9.73472,4.10976-12.0152C948.11739-2190.5985,954.98169-2171.906,970.75359-2165.81336Z" transform="translate(-821.35859 2280.01802)"/><path class="cls-5" d="M996.45264-2193.52878l-3.174,2.41374a.31714.31714,0,0,1-.50845-.26873,2.95228,2.95228,0,0,1,.73028-1.73652,2.66808,2.66808,0,0,0-.96739,3.30132Z" transform="translate(-821.35859 2280.01802)"/><path class="cls-5" d="M995.68262-2184.83936l-4.42228.66426a.28111.28111,0,0,1-.302-.38268,2.61942,2.61942,0,0,1,.8203-1.07237c-.735.14921-1.32233,1.25237-1.37364,1.9187Z" transform="translate(-821.35859 2280.01802)"/><path class="cls-7" d="M997.401-2193.31364l.11.21049a.497.497,0,0,1-.085.57764l-3.949,4.04073,4.48079-4.24046Z" transform="translate(-821.35859 2280.01802)"/><path class="cls-7" d="M990.34814-2182.87282l5.46416-.88249a.61356.61356,0,0,1,.54.18033l.19739.20518-.16919-.79227Z" transform="translate(-821.35859 2280.01802)"/><path class="cls-5" d="M990.914-2181.33936l4.15946-.51152a.26936.26936,0,0,1,.26438.406,3.56689,3.56689,0,0,1-1.14819,1.17653,2.75239,2.75239,0,0,0,2.00148-2.19846Z" transform="translate(-821.35859 2280.01802)"/><path class="cls-8" d="M948.97225-2207.94867l38.253,11.066a1.79211,1.79211,0,0,1,1.24706,2.12943l-8.1239,34.75494,9.7609-37.13833Z" transform="translate(-821.35859 2280.01802)"/><path class="cls-5" d="M986.84033-2154.58235l-41.8948-10.67926a.58416.58416,0,0,0-.3978,1.09239,23.09161,23.09161,0,0,0,3.69427,1.18362l-6.14009-1.61381a1.52091,1.52091,0,0,1-1.11012-2.40226l45.93924,12.07422S987.54592-2154.78095,986.84033-2154.58235Z" transform="translate(-821.35859 2280.01802)"/><path class="cls-5" d="M943.62575-2162.3117l-.22728-.003a2.10177,2.10177,0,0,0-1.716.85017l-5.09748,6.87834-.10215-.18849,5.73193-8.54163,1.84709.48547Z" transform="translate(-821.35859 2280.01802)"/><path class="cls-5" d="M984.07692-2151.98359h0a1.03552,1.03552,0,0,0-.89081,1.14966l1.0549,8.79648-2.036-10.76819,1.84713.48548Z" transform="translate(-821.35859 2280.01802)"/><path class="cls-7" d="M979.42266-2204.524a5.74732,5.74732,0,0,0-2.79982.502l-.69589-.1829A4.02334,4.02334,0,0,1,979.42266-2204.524Z" transform="translate(-821.35859 2280.01802)"/><path class="cls-5" d="M979.42266-2204.524c.73724.19377,1.99432,1.33795,1.89007,1.73461l.99623.26184C982.11467-2203.04,981.4791-2203.98354,979.42266-2204.524Z" transform="translate(-821.35859 2280.01802)"/><path class="cls-5" d="M971.42547-2225.00754a1.21944,1.21944,0,0,0,.8276.73646,1.224,1.224,0,0,0,1.49466-.87316,1.222,1.222,0,0,0-.23358-1.08255,1.21625,1.21625,0,0,1,.04536.759,1.22412,1.22412,0,0,1-1.49544.87295A1.21629,1.21629,0,0,1,971.42547-2225.00754Z" transform="translate(-821.35859 2280.01802)"/><path class="cls-7" d="M971.38012-2225.76652a1.21953,1.21953,0,0,0,.25155,1.10315,1.21457,1.21457,0,0,1-.03548-.733,1.224,1.224,0,0,1,1.49466-.87316,1.20792,1.20792,0,0,1,.62275.39348,1.22318,1.22318,0,0,0-.83825-.76265A1.22393,1.22393,0,0,0,971.38012-2225.76652Z" transform="translate(-821.35859 2280.01802)"/><path class="cls-7" d="M988.70874-2179.16768l5.92966,1.78512a.81578.81578,0,0,1,.53453.51085l.05519.15716.18184-.69184Z" transform="translate(-821.35859 2280.01802)"/><path class="cls-5" d="M988.70874-2179.16768l.03022.13057a.78181.78181,0,0,0,.54115.57377l5.948,1.74879-6.70122-1.76129Z" transform="translate(-821.35859 2280.01802)"/><path class="cls-5" d="M992.26269-2154.77941l-55.65332-14.62738a1.53314,1.53314,0,0,1-1.09306-1.8725l10.00805-38.078-9.30952,36.82234a2.44392,2.44392,0,0,0,1.727,2.957Z" transform="translate(-821.35859 2280.01802)"/><path class="cls-10" d="M991.95435-2153.60716,936.301-2168.23455a2.7484,2.7484,0,0,1-1.95724-3.35292l10.008-38.07788a2.74842,2.74842,0,0,1,3.35293-1.95728l55.65331,14.62738a2.74843,2.74843,0,0,1,1.95731,3.353l-10.008,38.07788A2.74843,2.74843,0,0,1,991.95435-2153.60716Zm-44.55776-56.843a1.53472,1.53472,0,0,0-1.8723,1.093l-10.008,38.07787a1.53469,1.53469,0,0,0,1.09293,1.87229l55.65331,14.62739a1.53477,1.53477,0,0,0,1.87237-1.09292l10.008-38.07788a1.53479,1.53479,0,0,0-1.093-1.87235Z" transform="translate(-821.35859 2280.01802)"/><path class="cls-10" d="M990.37867-2156.10862,938.90305-2169.638a2.74841,2.74841,0,0,1-1.95725-3.35292l8.98171-34.173a2.74837,2.74837,0,0,1,3.35291-1.95725l51.47562,13.52936a2.7484,2.7484,0,0,1,1.95733,3.35294l-8.98171,34.173A2.74842,2.74842,0,0,1,990.37867-2156.10862Zm-41.40641-51.84005a1.53468,1.53468,0,0,0-1.87228,1.09294l-8.98171,34.173a1.5347,1.5347,0,0,0,1.09294,1.87229l51.47562,13.52935a1.53476,1.53476,0,0,0,1.87236-1.09291l8.9817-34.173a1.53475,1.53475,0,0,0-1.093-1.87231Z" transform="translate(-821.35859 2280.01802)"/><path class="cls-11" d="M968.20789-2201.04122" transform="translate(-821.35859 2280.01802)"/><path class="cls-10" d="M959.28368-2167.08693c-3.38711-.89024-9.83536-2.95748-11.02878-3.39209a14.29459,14.29459,0,0,1-4.57286-2.46686,5.10971,5.10971,0,0,1-1.79173-3.70137c-.14276-2.8455,1.11651-8.09375,2.36721-12.85233s2.73471-9.94778,4.25819-12.35525a5.10944,5.10944,0,0,1,3.38006-2.34211,14.28307,14.28307,0,0,1,5.18974.09958c1.258.20925,7.88935,1.57969,11.27646,2.46992,3.38719.89026,9.83535,2.95752,11.02872,3.392a14.2947,14.2947,0,0,1,4.57286,2.46686,5.10958,5.10958,0,0,1,1.79179,3.70143c.14279,2.84542-1.11649,8.09367-2.36719,12.85226s-2.7347,9.94777-4.25821,12.35532a5.10937,5.10937,0,0,1-3.38,2.34207,14.28422,14.28422,0,0,1-5.18984-.09956C969.30217-2164.82622,962.67087-2166.19668,959.28368-2167.08693Zm8.77013-33.368c-3.35734-.88241-9.92277-2.23955-11.16213-2.4457-4.16111-.65593-6.155-.197-7.35155,1.69407-1.44348,2.281-2.95476,7.61929-4.11013,12.01518s-2.46423,9.78743-2.32885,12.48344c.11209,2.235,1.62265,3.615,5.57336,5.09166,1.17572.42807,7.56,2.4745,10.91733,3.35692,3.3575.88245,9.92278,2.23955,11.162,2.44572,4.16122.65587,6.15509.197,7.35164-1.69409,1.4435-2.281,2.95477-7.61933,4.11016-12.01526s2.46421-9.78739,2.32883-12.48336c-.1121-2.235-1.62265-3.615-5.57344-5.09168C977.79543-2197.52612,971.41131-2199.57251,968.05381-2200.455Z" transform="translate(-821.35859 2280.01802)"/><path class="cls-10" d="M980.62639-2158.67181a.6061.6061,0,0,1-.43215-.74032l10.06921-38.31069a.60613.60613,0,0,1,.74032-.43216.60613.60613,0,0,1,.43215.74032L981.36671-2159.104A.60611.60611,0,0,1,980.62639-2158.67181Z" transform="translate(-821.35859 2280.01802)"/><path class="cls-10" d="M995.56936-2174.3153l-8.70125-2.28695a.40407.40407,0,0,1-.28811-.49355.40407.40407,0,0,1,.49355-.2881l8.70125,2.28695a.40408.40408,0,0,1,.2881.49355A.40407.40407,0,0,1,995.56936-2174.3153Z" transform="translate(-821.35859 2280.01802)"/><path class="cls-10" d="M995.26775-2173.16779l-8.70124-2.287a.40407.40407,0,0,1-.28811-.49355.40407.40407,0,0,1,.49355-.2881l8.70125,2.287a.40408.40408,0,0,1,.2881.49355A.40407.40407,0,0,1,995.26775-2173.16779Z" transform="translate(-821.35859 2280.01802)"/><path class="cls-10" d="M994.96613-2172.0202l-8.70125-2.287a.40407.40407,0,0,1-.2881-.49355.40407.40407,0,0,1,.49355-.2881l8.70124,2.287a.40407.40407,0,0,1,.28811.49354A.40408.40408,0,0,1,994.96613-2172.0202Z" transform="translate(-821.35859 2280.01802)"/><path class="cls-10" d="M994.66453-2170.87269l-8.70125-2.28695a.40407.40407,0,0,1-.2881-.49355.40406.40406,0,0,1,.49355-.2881l8.70124,2.287a.40407.40407,0,0,1,.28811.49354A.40408.40408,0,0,1,994.66453-2170.87269Z" transform="translate(-821.35859 2280.01802)"/><path class="cls-10" d="M994.36293-2169.72518l-8.70125-2.287a.40407.40407,0,0,1-.2881-.49355.40406.40406,0,0,1,.49354-.2881l8.70125,2.287a.40408.40408,0,0,1,.28811.49355A.40408.40408,0,0,1,994.36293-2169.72518Z" transform="translate(-821.35859 2280.01802)"/><path class="cls-10" d="M994.06133-2168.57767l-8.70125-2.28695a.40407.40407,0,0,1-.2881-.49355.40405.40405,0,0,1,.49354-.2881l8.70125,2.287a.40408.40408,0,0,1,.28811.49355A.40408.40408,0,0,1,994.06133-2168.57767Z" transform="translate(-821.35859 2280.01802)"/><path class="cls-10" d="M993.75973-2167.43016l-8.70125-2.287a.40407.40407,0,0,1-.2881-.49355.40405.40405,0,0,1,.49354-.2881l8.70125,2.287a.40407.40407,0,0,1,.2881.49355A.40406.40406,0,0,1,993.75973-2167.43016Z" transform="translate(-821.35859 2280.01802)"/><path class="cls-10" d="M993.45813-2166.28265l-8.70125-2.28695a.40407.40407,0,0,1-.2881-.49355.40405.40405,0,0,1,.49354-.2881l8.70125,2.287a.40407.40407,0,0,1,.2881.49355A.40405.40405,0,0,1,993.45813-2166.28265Z" transform="translate(-821.35859 2280.01802)"/><path class="cls-10" d="M993.15651-2165.13506l-8.70125-2.287a.40405.40405,0,0,1-.2881-.49354.40405.40405,0,0,1,.49354-.2881l8.70125,2.287a.40406.40406,0,0,1,.2881.49354A.40407.40407,0,0,1,993.15651-2165.13506Z" transform="translate(-821.35859 2280.01802)"/><path class="cls-10" d="M992.85491-2163.98755l-8.70125-2.287a.40408.40408,0,0,1-.28811-.49355.40407.40407,0,0,1,.49355-.2881l8.70125,2.28695a.40406.40406,0,0,1,.2881.49354A.40407.40407,0,0,1,992.85491-2163.98755Z" transform="translate(-821.35859 2280.01802)"/><path class="cls-10" d="M992.55331-2162.84l-8.70125-2.287a.40408.40408,0,0,1-.28811-.49355.40407.40407,0,0,1,.49355-.2881l8.70125,2.287a.40406.40406,0,0,1,.2881.49354A.40407.40407,0,0,1,992.55331-2162.84Z" transform="translate(-821.35859 2280.01802)"/><path class="cls-10" d="M992.25171-2161.69253l-8.70125-2.287a.40408.40408,0,0,1-.28811-.49355.40407.40407,0,0,1,.49355-.2881l8.70125,2.28695a.40407.40407,0,0,1,.2881.49355A.40407.40407,0,0,1,992.25171-2161.69253Z" transform="translate(-821.35859 2280.01802)"/><path class="cls-10" d="M991.95011-2160.545l-8.70125-2.287a.40408.40408,0,0,1-.28811-.49355.40407.40407,0,0,1,.49355-.2881l8.70125,2.287a.40407.40407,0,0,1,.2881.49355A.40407.40407,0,0,1,991.95011-2160.545Z" transform="translate(-821.35859 2280.01802)"/><path class="cls-10" d="M991.64849-2159.39743l-8.70125-2.287a.40407.40407,0,0,1-.28811-.49354.40407.40407,0,0,1,.49355-.2881l8.70125,2.287a.40406.40406,0,0,1,.2881.49354A.40408.40408,0,0,1,991.64849-2159.39743Z" transform="translate(-821.35859 2280.01802)"/><path class="cls-10" d="M991.34689-2158.24992l-8.70125-2.287a.40406.40406,0,0,1-.28811-.49354.40407.40407,0,0,1,.49355-.2881l8.70125,2.28695a.40407.40407,0,0,1,.2881.49354A.40408.40408,0,0,1,991.34689-2158.24992Z" transform="translate(-821.35859 2280.01802)"/><path class="cls-10" d="M994.94359-2175.96614l-6.57248-1.72745a.82463.82463,0,0,1-.58723-1.006l.16086-.612a.82464.82464,0,0,1,1.006-.58724l6.57248,1.72745a.82464.82464,0,0,1,.58724,1.006l-.16087.612A.82463.82463,0,0,1,994.94359-2175.96614Zm-6.19831-3.151a.01548.01548,0,0,0-.01889.011l-.16087.612a.01551.01551,0,0,0,.011.0189l6.57248,1.72744a.0155.0155,0,0,0,.0189-.011l.16086-.612a.01549.01549,0,0,0-.011-.01889Z" transform="translate(-821.35859 2280.01802)"/><path class="cls-10" d="M984.475-2152.209l-42.68124-11.21793a2.89992,2.89992,0,0,1-2.06518-3.5378l.24479-.93134a.60609.60609,0,0,1,.74031-.43215.6061.6061,0,0,1,.43216.74031l-.24479.93134a1.68625,1.68625,0,0,0,1.20087,2.05717l42.68124,11.21793a1.68624,1.68624,0,0,0,2.05717-1.20086l.24479-.93134a.60609.60609,0,0,1,.74031-.43215.6061.6061,0,0,1,.43216.74031l-.24478.93134A2.89992,2.89992,0,0,1,984.475-2152.209Z" transform="translate(-821.35859 2280.01802)"/><path class="cls-10" d="M936.48642-2153.322a1.4602,1.4602,0,0,1-.99-.88776,1.46023,1.46023,0,0,1,.14347-1.32209l5.80164-8.81461a.60648.60648,0,0,1,.8396-.17308.60628.60628,0,0,1,.17307.8396l-5.80164,8.81461a.23907.23907,0,0,0-.024.22185.2393.2393,0,0,0,.16608.149.24568.24568,0,0,0,.24837-.0781l7.64275-8.99221a.60631.60631,0,0,1,.85443-.06929.60617.60617,0,0,1,.06929.85443l-7.64273,8.99213A1.46424,1.46424,0,0,1,936.48642-2153.322Z" transform="translate(-821.35859 2280.01802)"/><path class="cls-10" d="M940.66062-2155.43043a1.45847,1.45847,0,0,1-1.04008-1.77842,1.46173,1.46173,0,0,1,.19288-.43143l.54-.82037a.60662.60662,0,0,1,.83959-.17307.60613.60613,0,0,1,.17308.83959l-.53973.82a.249.249,0,0,0-.03335.07349.245.245,0,0,0,.17577.29779.24484.24484,0,0,0,.24763-.07805l5.41593-6.37217a.6063.6063,0,0,1,.85443-.06929.60617.60617,0,0,1,.06929.85443l-5.4158,6.372A1.46328,1.46328,0,0,1,940.66062-2155.43043Z" transform="translate(-821.35859 2280.01802)"/><path class="cls-10" d="M984.126-2140.80084a1.46451,1.46451,0,0,1-1.0601-1.13312l-2.23364-11.588a.60616.60616,0,0,1,.48045-.70993.60625.60625,0,0,1,.70994.48045l2.23366,11.588a.24574.24574,0,0,0,.17785.19021.2396.2396,0,0,0,.21794-.048.23952.23952,0,0,0,.0881-.2051l-.71772-10.5281a.60625.60625,0,0,1,.56354-.646.60611.60611,0,0,1,.646.56354l.71771,10.52809a1.4602,1.4602,0,0,1-.52513,1.22178A1.46013,1.46013,0,0,1,984.126-2140.80084Z" transform="translate(-821.35859 2280.01802)"/><path class="cls-10" d="M981.528-2144.68925a1.46329,1.46329,0,0,1-1.05951-1.13321l-1.58283-8.21116a.60617.60617,0,0,1,.48045-.70994.60626.60626,0,0,1,.70994.48046l1.58285,8.21141a.24482.24482,0,0,0,.17726.19.245.245,0,0,0,.29947-.17287.24946.24946,0,0,0,.00706-.0809l-.06677-.97887a.60615.60615,0,0,1,.56353-.646.60624.60624,0,0,1,.646.56354l.06681.97936a1.46251,1.46251,0,0,1-.04415.471A1.45847,1.45847,0,0,1,981.528-2144.68925Z" transform="translate(-821.35859 2280.01802)"/><path class="cls-10" d="M974.54547-2203.31469a.60643.60643,0,0,0,.65-.23763c.71637-1.01855,2.49417-1.4272,4.22716-.97172,1.7326.45538,3.07933,1.68526,3.20231,2.92441a.606.606,0,0,0,.66306.54329.60615.60615,0,0,0,.54338-.663c-.174-1.75285-1.86023-3.3883-4.10059-3.97713-2.24083-.589-4.51356.006-5.527,1.44672a.60616.60616,0,0,0,.14713.84453A.60463.60463,0,0,0,974.54547-2203.31469Z" transform="translate(-821.35859 2280.01802)"/><path class="cls-10" d="M977.50484-2204.72187a.60336.60336,0,0,0,.31237-.00151.60614.60614,0,0,0,.42619-.74378l-4.99946-18.41615a.60621.60621,0,0,0-.74379-.42619.60622.60622,0,0,0-.42618.74379l4.99946,18.41614A.606.606,0,0,0,977.50484-2204.72187Z" transform="translate(-821.35859 2280.01802)"/><path class="cls-10" d="M980.79732-2203.98512a.60638.60638,0,0,0,.65293-.24189l11.93015-17.27291a.60614.60614,0,0,0-.15425-.84321.60621.60621,0,0,0-.84322.15425L980.45278-2204.916a.60616.60616,0,0,0,.15425.84322A.60454.60454,0,0,0,980.79732-2203.98512Z" transform="translate(-821.35859 2280.01802)"/><path class="cls-10" d="M992.51223-2221.364a2.32287,2.32287,0,0,1-.89382-1.55029,2.32276,2.32276,0,0,1,.46426-1.72819,2.32231,2.32231,0,0,1,1.55023-.89379,2.32323,2.32323,0,0,1,1.72824.46422,2.32262,2.32262,0,0,1,.89375,1.55027,2.32238,2.32238,0,0,1-.46426,1.72819,2.32244,2.32244,0,0,1-1.55024.89379,2.33462,2.33462,0,0,1-.89851-.05576A2.33386,2.33386,0,0,1,992.51223-2221.364Zm1.27815-2.97029a1.11859,1.11859,0,0,0-.74645.43034,1.11841,1.11841,0,0,0-.22352.83214,1.11825,1.11825,0,0,0,.43045.74648,1.11826,1.11826,0,0,0,.832.22355,1.11848,1.11848,0,0,0,.74646-.43038,1.11831,1.11831,0,0,0,.22352-.8321,1.11824,1.11824,0,0,0-.4303-.74644,1.124,1.124,0,0,0-.39958-.19671A1.12483,1.12483,0,0,0,993.79038-2224.33434Z" transform="translate(-821.35859 2280.01802)"/><path class="cls-10" d="M971.13937-2223.60093a2.34071,2.34071,0,0,1-.42956-3.27851,2.32234,2.32234,0,0,1,1.55024-.8938,2.32323,2.32323,0,0,1,1.72824.46423,2.3407,2.3407,0,0,1,.42955,3.27851,2.34169,2.34169,0,0,1-2.45139.836A2.32521,2.32521,0,0,1,971.13937-2223.60093Zm1.27816-2.97032a1.11855,1.11855,0,0,0-.74645.43034,1.1271,1.1271,0,0,0,.20684,1.57864,1.127,1.127,0,0,0,1.57867-.2068,1.12714,1.12714,0,0,0-.20685-1.5786,1.12424,1.12424,0,0,0-.39958-.1967A1.12466,1.12466,0,0,0,972.41753-2226.57125Z" transform="translate(-821.35859 2280.01802)"/><path class="cls-10" d="M994.36975-2187.14995a3.78115,3.78115,0,0,1-1.07548-.47073,3.79742,3.79742,0,0,1-1.2455-1.31637,3.74955,3.74955,0,0,1-.36531-2.81472,3.7717,3.7717,0,0,1,4.60161-2.68548,3.78127,3.78127,0,0,1,1.07556.47071.40408.40408,0,0,1,.12311.55806.4044.4044,0,0,1-.55806.12312,2.97414,2.97414,0,0,0-.84605-.37024,2.96257,2.96257,0,0,0-3.61452,2.10927,2.94494,2.94494,0,0,0,.2867,2.21061,2.98448,2.98448,0,0,0,.9781,1.03433,2.97319,2.97319,0,0,0,.84528.36979,2.963,2.963,0,0,0,3.61473-2.11007,2.94354,2.94354,0,0,0-.287-2.20907.40413.40413,0,0,1,.15273-.55068.40411.40411,0,0,1,.55069.15273,3.74724,3.74724,0,0,1,.36525,2.81246A3.77209,3.77209,0,0,1,994.36975-2187.14995Z" transform="translate(-821.35859 2280.01802)"/><path class="cls-10" d="M993.40894-2187.57042a.40256.40256,0,0,1-.11536-.05072,3.79642,3.79642,0,0,1-1.24481-1.31591.404.404,0,0,1,.07355-.49312l4.74306-4.48925a.77536.77536,0,0,1,.55823-.21344.77569.77569,0,0,1,.54567.24383l.59438.62823h0a.77532.77532,0,0,1,.21335.55848.77548.77548,0,0,1-.24059.54216l-.00406.00395-4.74285,4.48845A.40422.40422,0,0,1,993.40894-2187.57042Zm-.48873-1.50217a2.993,2.993,0,0,0,.5561.58851l4.48152-4.24116-.55679-.5884Zm5.05633-3.63284.00014.00008Z" transform="translate(-821.35859 2280.01802)"/><path class="cls-10" d="M992.33508-2179.448a3.74459,3.74459,0,0,1-1.75083-1.02839,3.78021,3.78021,0,0,1-.67336-.96179,3.79586,3.79586,0,0,1-.37842-1.77221,3.75007,3.75007,0,0,1,1.15293-2.59354,3.77168,3.77168,0,0,1,5.327.10172,3.78177,3.78177,0,0,1,.67337.96174.404.404,0,0,1-.18541.54055.404.404,0,0,1-.54054-.18541,2.9728,2.9728,0,0,0-.5297-.75636,2.96275,2.96275,0,0,0-4.1842-.08,2.94533,2.94533,0,0,0-.90567,2.03684,2.98356,2.98356,0,0,0,.29695,1.39228,2.97123,2.97123,0,0,0,.5293.75572,2.963,2.963,0,0,0,4.18477.07941,2.943,2.943,0,0,0,.90455-2.03571.40414.40414,0,0,1,.41705-.39076.40435.40435,0,0,1,.3908.417,3.74757,3.74757,0,0,1-1.15186,2.59165A3.76967,3.76967,0,0,1,992.33508-2179.448Z" transform="translate(-821.35859 2280.01802)"/><path class="cls-10" d="M990.17128-2181.22489a.40416.40416,0,0,1-.26078-.214,3.7956,3.7956,0,0,1-.378-1.7715.4041.4041,0,0,1,.31939-.3828l6.38647-1.36489a.78178.78178,0,0,1,.92687.60051l.1806.84578h0a.77574.77574,0,0,1-.10849.58785.77559.77559,0,0,1-.48777.33789l-.00537.00116-6.3859,1.36431A.40359.40359,0,0,1,990.17128-2181.22489Zm.17585-1.64771a2.99457,2.99457,0,0,0,.16855.79193l6.034-1.28913-.16919-.79227Z" transform="translate(-821.35859 2280.01802)"/><path class="cls-10" d="M988.7024-2177.899a.12125.12125,0,0,1-.08643-.14806l.37416-1.42361a.12127.12127,0,0,1,.14807-.08643.12126.12126,0,0,1,.08643.14806l-.37417,1.42361A.12126.12126,0,0,1,988.7024-2177.899Z" transform="translate(-821.35859 2280.01802)"/><path class="cls-10" d="M989.46076-2177.69967a.12126.12126,0,0,1-.08643-.14806l.37417-1.42361a.12126.12126,0,0,1,.14806-.08643.12126.12126,0,0,1,.08643.14806l-.37417,1.42361A.12125.12125,0,0,1,989.46076-2177.69967Z" transform="translate(-821.35859 2280.01802)"/><path class="cls-10" d="M990.21913-2177.50035a.12125.12125,0,0,1-.08643-.14806l.37416-1.42361a.12127.12127,0,0,1,.14807-.08643.12127.12127,0,0,1,.08643.14807l-.37417,1.4236A.12125.12125,0,0,1,990.21913-2177.50035Z" transform="translate(-821.35859 2280.01802)"/><path class="cls-10" d="M990.97749-2177.301a.12127.12127,0,0,1-.08643-.14807l.37417-1.4236a.12126.12126,0,0,1,.14806-.08644.12126.12126,0,0,1,.08643.14807l-.37416,1.4236A.12128.12128,0,0,1,990.97749-2177.301Z" transform="translate(-821.35859 2280.01802)"/><path class="cls-10" d="M991.73586-2177.1017a.12127.12127,0,0,1-.08643-.14807l.37417-1.4236a.12126.12126,0,0,1,.14806-.08644.12127.12127,0,0,1,.08643.14807l-.37417,1.4236A.12126.12126,0,0,1,991.73586-2177.1017Z" transform="translate(-821.35859 2280.01802)"/><path class="cls-10" d="M992.49423-2176.90238a.12126.12126,0,0,1-.08643-.14807l.37416-1.4236a.12125.12125,0,0,1,.14806-.08643.12126.12126,0,0,1,.08644.14806l-.37417,1.42361A.12126.12126,0,0,1,992.49423-2176.90238Z" transform="translate(-821.35859 2280.01802)"/><path class="cls-10" d="M993.25259-2176.70306a.12126.12126,0,0,1-.08643-.14806l.37417-1.42361a.12126.12126,0,0,1,.14806-.08643.12125.12125,0,0,1,.08643.14806l-.37416,1.42361A.12127.12127,0,0,1,993.25259-2176.70306Z" transform="translate(-821.35859 2280.01802)"/><path class="cls-10" d="M994.011-2176.50374a.12125.12125,0,0,1-.08643-.14806l.37416-1.42361a.12127.12127,0,0,1,.14807-.08643.12126.12126,0,0,1,.08643.14806l-.37417,1.42361A.12126.12126,0,0,1,994.011-2176.50374Z" transform="translate(-821.35859 2280.01802)"/><path class="cls-10" d="M994.76932-2176.30442a.12126.12126,0,0,1-.08643-.14806l.37417-1.42361a.12126.12126,0,0,1,.14806-.08643.12126.12126,0,0,1,.08643.14807l-.37416,1.4236A.12126.12126,0,0,1,994.76932-2176.30442Z" transform="translate(-821.35859 2280.01802)"/></g><g id="Calque_4" data-name="Calque 4"><rect class="cls-12" width="191.48936" height="191.48936"/></g></g></svg>