<svg xmlns="http://www.w3.org/2000/svg" viewBox="0 0 191.48936 191.48936"><defs><style>.cls-1{isolation:isolate;}.cls-2{font-size:42.87213px;fill:#f1f2f2;font-family:Creditverse;}.cls-3{fill:#bfc3cb;opacity:0.51;}.cls-3,.cls-6{mix-blend-mode:multiply;}.cls-4{fill:#f9d9db;}.cls-5{fill:#ef3e28;}.cls-6{fill:#94322b;opacity:0.35;}.cls-7,.cls-8{fill:#fff;}.cls-7{opacity:0.57;}.cls-9{fill:none;}</style></defs><g class="cls-1"><g id="Calque_3" data-name="Calque 3"><text class="cls-2" transform="translate(25.28552 119.47195)">HOT</text><path class="cls-3" d="M1009.45792-1945.37478a15.63263,15.63263,0,0,1-8.68382-20.30387,15.70864,15.70864,0,0,1,14.31133-9.807l22.1984-55.37677a5.98694,5.98694,0,0,1,7.77594-3.32572,5.95391,5.95391,0,0,1,3.27544,3.197,5.95522,5.95522,0,0,1,.05029,4.57891l-22.19841,55.37677a15.70861,15.70861,0,0,1,3.57471,16.97684A15.63262,15.63262,0,0,1,1009.45792-1945.37478Z" transform="translate(-882.61466 2085.18014)"/><path class="cls-4" d="M1028.8679-1954.95383a14.95174,14.95174,0,0,1-19.43988,8.3143,14.95173,14.95173,0,0,1-8.3143-19.43988,14.959,14.959,0,0,1,14.14361-9.38865l22.36611-55.79513a5.31427,5.31427,0,0,1,6.912-2.9562,5.31145,5.31145,0,0,1,2.91233,2.84256,5.31143,5.31143,0,0,1,.04387,4.0694l-22.36612,55.79513A14.959,14.959,0,0,1,1028.8679-1954.95383Z" transform="translate(-882.61466 2085.18014)"/><path class="cls-5" d="M1028.8679-1954.95383a14.95174,14.95174,0,0,1-19.43988,8.3143,14.95173,14.95173,0,0,1-8.3143-19.43988,14.959,14.959,0,0,1,14.14361-9.38865l17.91588-44.69346,9.86816,3.95576-17.91589,44.69346A14.959,14.959,0,0,1,1028.8679-1954.95383Z" transform="translate(-882.61466 2085.18014)"/><path class="cls-6" d="M1025.12548-1971.5123l22.36612-55.79513a5.31143,5.31143,0,0,0-.04387-4.0694,5.31145,5.31145,0,0,0-2.91233-2.84256,5.31427,5.31427,0,0,0-6.912,2.9562l-22.36611,55.79513a14.959,14.959,0,0,0-14.14361,9.38865,14.95173,14.95173,0,0,0,8.3143,19.43988,14.95174,14.95174,0,0,0,19.43988-8.3143A14.959,14.959,0,0,0,1025.12548-1971.5123Zm-15.32661,23.94764a13.96919,13.96919,0,0,1-7.76-18.1439,14.03377,14.03377,0,0,1,13.20231-8.76375l.68541.01347,22.622-56.4335a4.32317,4.32317,0,0,1,5.616-2.40192,4.29505,4.29505,0,0,1,2.36611,2.31221,4.29221,4.29221,0,0,1,.03579,3.30376l-22.622,56.43351.50494.46368a14.03375,14.03375,0,0,1,3.49338,15.45641A13.96918,13.96918,0,0,1,1009.79887-1947.56466Z" transform="translate(-882.61466 2085.18014)"/><path class="cls-7" d="M1012.88721-1964.24171c-2.41462.84139-4.91553,2.63675-6.91919,2.12749-2.09254-.35931-1.85743-6.44129,3.97271-9.01673,5.88925-2.4369,10.44962,1.594,9.26417,3.3554C1018.189-1965.975,1015.1635-1965.4065,1012.88721-1964.24171Z" transform="translate(-882.61466 2085.18014)"/><path class="cls-5" d="M996.01949-2034.61768h21.22a4.18669,4.18669,0,0,1,4.17442,4.17442v5.38629a1.108,1.108,0,0,0,.63742,1.00309l5.185,2.43224a1.97536,1.97536,0,0,1,0,3.57674l-5.185,2.43225a1.108,1.108,0,0,0-.63742,1.00309v5.38629a4.18669,4.18669,0,0,1-4.17442,4.17442h-21.22a4.18669,4.18669,0,0,1-4.17442-4.17442v-21.22A4.18669,4.18669,0,0,1,996.01949-2034.61768Z" transform="translate(-882.61466 2085.18014)"/><path class="cls-8" d="M1014.27087-2019.16879h2.65786a.66451.66451,0,0,0,.66448-.66447.66451.66451,0,0,0-.66448-.66448h-2.65786a.66451.66451,0,0,0-.66447.66448A.6645.6645,0,0,0,1014.27087-2019.16879Z" transform="translate(-882.61466 2085.18014)"/><path class="cls-8" d="M996.33024-2019.16879h2.65786a.6645.6645,0,0,0,.66447-.66447.66451.66451,0,0,0-.66447-.66448h-2.65786a.66451.66451,0,0,0-.66448.66448A.66451.66451,0,0,0,996.33024-2019.16879Z" transform="translate(-882.61466 2085.18014)"/><path class="cls-8" d="M1015.54821-2014.01917a.66389.66389,0,0,0,.57606-.33223.66463.66463,0,0,0-.24318-.90781l-2.30178-1.32893a.6647.6647,0,0,0-.90765.24333.66463.66463,0,0,0,.24318.90781l2.30178,1.32893A.66178.66178,0,0,0,1015.54821-2014.01917Z" transform="translate(-882.61466 2085.18014)"/><path class="cls-8" d="M1000.01108-2022.98948a.66456.66456,0,0,0,.57623-.33224.66477.66477,0,0,0-.24335-.90781l-2.30162-1.32893a.66491.66491,0,0,0-.90781.24333.66477.66477,0,0,0,.24333.90781l2.30164,1.32893A.66162.66162,0,0,0,1000.01108-2022.98948Z" transform="translate(-882.61466 2085.18014)"/><path class="cls-8" d="M1011.77975-2010.24942a.66168.66168,0,0,0,.3316-.0889.66471.66471,0,0,0,.24317-.9078l-1.32895-2.30163a.6644.6644,0,0,0-.90763-.24334.6647.6647,0,0,0-.24317.90781l1.32893,2.30162A.66387.66387,0,0,0,1011.77975-2010.24942Z" transform="translate(-882.61466 2085.18014)"/><path class="cls-8" d="M1002.80944-2025.78655a.66176.66176,0,0,0,.33159-.08889.66476.66476,0,0,0,.24333-.90781l-1.32893-2.30162a.6644.6644,0,0,0-.90781-.24335.66476.66476,0,0,0-.24333.90781l1.32893,2.30163A.66457.66457,0,0,0,1002.80944-2025.78655Z" transform="translate(-882.61466 2085.18014)"/><path class="cls-8" d="M1006.62948-2008.86954a.6645.6645,0,0,0,.66447-.66447v-2.65787a.6645.6645,0,0,0-.66447-.66447.6645.6645,0,0,0-.66447.66447v2.65787A.6645.6645,0,0,0,1006.62948-2008.86954Z" transform="translate(-882.61466 2085.18014)"/><path class="cls-8" d="M1006.62948-2026.81018a.6645.6645,0,0,0,.66447-.66447v-2.65786a.6645.6645,0,0,0-.66447-.66448.66451.66451,0,0,0-.66447.66448v2.65786A.6645.6645,0,0,0,1006.62948-2026.81018Z" transform="translate(-882.61466 2085.18014)"/><path class="cls-8" d="M1001.4792-2010.24942a.66453.66453,0,0,0,.57623-.33224l1.32893-2.30162a.66476.66476,0,0,0-.24333-.90781.66456.66456,0,0,0-.90781.24334l-1.32893,2.30163a.66475.66475,0,0,0,.24333.9078A.66161.66161,0,0,0,1001.4792-2010.24942Z" transform="translate(-882.61466 2085.18014)"/><path class="cls-8" d="M1010.44952-2025.78655a.66407.66407,0,0,0,.57605-.33223l1.32895-2.30163a.66472.66472,0,0,0-.24317-.90781.66454.66454,0,0,0-.90765.24335l-1.32893,2.30162a.6647.6647,0,0,0,.24317.90781A.6617.6617,0,0,0,1010.44952-2025.78655Z" transform="translate(-882.61466 2085.18014)"/><path class="cls-8" d="M997.71076-2014.01917a.66177.66177,0,0,0,.33158-.0889l2.30162-1.32893a.66477.66477,0,0,0,.24335-.90781.66467.66467,0,0,0-.90781-.24333l-2.30164,1.32893a.66476.66476,0,0,0-.24333.90781A.66455.66455,0,0,0,997.71076-2014.01917Z" transform="translate(-882.61466 2085.18014)"/><path class="cls-8" d="M1013.24772-2022.98948a.66169.66169,0,0,0,.33159-.08891l2.30178-1.32893a.66463.66463,0,0,0,.24318-.90781.665.665,0,0,0-.90765-.24333l-2.30178,1.32893a.66463.66463,0,0,0-.24318.90781A.6639.6639,0,0,0,1013.24772-2022.98948Z" transform="translate(-882.61466 2085.18014)"/><circle class="cls-8" cx="124.01483" cy="65.40917" r="4.98351"/></g><g id="Calque_4" data-name="Calque 4"><rect class="cls-9" width="191.48936" height="191.48936"/></g></g></svg>