<svg id="Calque_1" data-name="Calque 1" xmlns="http://www.w3.org/2000/svg" viewBox="0 0 160.77686 90.70043"><defs><style>.cls-1{fill:#be202e;}.cls-2{fill:#fff;}.cls-3{isolation:isolate;font-size:32.14295px;fill:#f2f2f2;font-family:Creditverse;}</style></defs><path class="cls-1" d="M255.93684,390.958s2.66137,42.272,13.63006,48.42163c10.96991,6.15014,48.42029-13.6333,48.42029-13.6333,12.89947-5.15454,21.159-17.65479,17.39508-31.0271-3.76361-13.36988-18.26965-20.06055-31.64026-16.29663-3.76355-13.36988-17.03961-22.25538-30.41016-18.49146-13.37219,3.76489-19.72692,17.333-17.39508,31.0271" transform="translate(-215.49072 -359.06211)"/><path class="cls-1" d="M261.34327,445.26756c-2.04553-.84351,5.67847-5.60425,7.60852-4.52222,1.92969,1.08179,2.20026,8.11865.11011,8.84961-2.37445.83032-.9787-1.55249-7.71863-4.32739" transform="translate(-215.49072 -359.06211)"/><path class="cls-2" d="M328.35548,394.5178c-.997,1.77832-4.62946,1.63623-8.11432-.31763-3.48578-1.95434-5.50293-4.97949-4.50592-6.75781.99694-1.77807,4.63018-1.6355,8.116.3186,3.48487,1.95386,5.50116,4.97852,4.50428,6.75684" transform="translate(-215.49072 -359.06211)"/><path class="cls-2" d="M331.05842,400.26463a2.58368,2.58368,0,0,1-3.51685.99048l-.00036-.00025a2.5831,2.5831,0,0,1-.98969-3.51636l.00031-.00048a2.58309,2.58309,0,0,1,3.51635-.99048h.00006a2.58379,2.58379,0,0,1,.99018,3.51709" transform="translate(-215.49072 -359.06211)"/><text class="cls-3" transform="translate(0 71.09624)">sympas</text></svg>