<svg xmlns="http://www.w3.org/2000/svg" xmlns:xlink="http://www.w3.org/1999/xlink" viewBox="0 0 191.48936 191.48936"><defs><style>.cls-1{fill:url(#New_Gradient_Swatch_copy_51);}.cls-2{font-size:18.97177px;fill:#f1f2f2;font-family:Creditverse;}.cls-3{fill:none;}</style><linearGradient id="New_Gradient_Swatch_copy_51" x1="1073.72443" y1="-1796.00944" x2="1073.72443" y2="-1760.31082" gradientUnits="userSpaceOnUse"><stop offset="0" stop-color="#f1a420"/><stop offset="1" stop-color="#f0562f"/></linearGradient></defs><g id="Calque_2" data-name="Calque 2"><path class="cls-1" d="M1043.46083-1746.85859c5.40884-7.09583,9.07528-12.84535,9.07528-12.84535-5.85163,12.28585,3.60229,16.27783,3.60229,16.27783,9.81256-34.29343,26.20889-42.8664,26.20889-42.8664-7.85876,18.98583,14.78426,31.15777,17.84681,43.88254.48383,2.00972,3.27752,10.00266,4.05945,19.37217,18.69594-18.77546,28.37458-49.91476,15.85761-71.018-6.95165-11.72094-11.498-21.09149-11.498-21.09149,6.70588,19.67284-8.34157,24.05887-8.34157,24.05887-8.82747-53.76128-32.18828-69.66456-32.18828-69.66456,8.56835,30.19266-22.43985,40.47008-34.83009,63.42171-3.22263,5.97014-27.704,56.01472,6.23335,80.0102C1036.6436-1727.84839,1037.41937-1738.93261,1043.46083-1746.85859Z" transform="translate(-977.97975 1874.78175)"/><text class="cls-2" transform="translate(62.57231 151.75069)">VERY<tspan x="7.92969" y="22.76611">HOT</tspan></text></g><g id="Calque_4" data-name="Calque 4"><rect class="cls-3" width="191.48936" height="191.48936"/></g></svg>