<?xml version="1.0" encoding="utf-8"?>
<!-- Generator: Adobe Illustrator 25.4.1, SVG Export Plug-In . SVG Version: 6.00 Build 0)  -->
<svg version="1.1" id="Calque_1" xmlns="http://www.w3.org/2000/svg" xmlns:xlink="http://www.w3.org/1999/xlink" x="0px" y="0px"
	 viewBox="0 0 191.5 191.5" style="enable-background:new 0 0 191.5 191.5;" xml:space="preserve">
<style type="text/css">
	.st0{fill:#F1F2F2;}
	.st1{font-family:'Heavitas';}
	.st2{font-size:25.3296px;}
	.st3{fill:#EF473C;}
	.st4{fill:#DD3029;}
	.st5{fill:#C32927;}
	.st6{fill:#F15F59;}
	.st7{fill:#88413B;}
	.st8{fill:#70302C;}
	.st9{fill:#5E2624;}
	.st10{fill:#984942;}
	.st11{fill:#FEDEBF;}
	.st12{fill:#F5CCA6;}
	.st13{fill:none;}
</style>
<text transform="matrix(1 0 0 1 10.0898 82.7127)" class="st0 st1 st2">cocooning</text>
<g>
	<path class="st3" d="M132.5,154c0.1-0.2,0.1-0.4,0.2-0.6c0.1-0.2,0.1-0.4,0.1-0.7l0-0.3c0-0.1,0-0.2,0-0.3l0-0.6l0-0.5
		c0-0.2,0-0.4,0-0.6l0-0.6c0-0.2-0.1-0.4-0.1-0.6l-0.1-0.6c0-0.2-0.1-0.4-0.1-0.6c-0.1-0.2-0.1-0.4-0.2-0.6l-0.2-0.6
		c-0.1-0.4-0.3-0.8-0.5-1.1c-0.1-0.2-0.2-0.4-0.3-0.5l-0.3-0.5c-0.9-1.4-2.1-2.5-3.4-3.5c-0.1-0.1-0.3-0.2-0.4-0.3
		c-1.1-0.7-2.3-1.4-3.6-1.9c-0.9-0.4-1.7-0.7-2.6-0.9c0.1-0.2,0.2-0.4,0.4-0.5c0.2-0.2,0.3-0.5,0.5-0.7c0-0.1,0.1-0.2,0.2-0.3
		c2.5-3.7,4.2-6.5,4.7-7.3c0.1-0.1,0.1-0.2,0.1-0.2c2.7-4.8-6-14.7-19.5-22.3s-26.5-9.7-29.1-5c-0.1,0.1-0.1,0.2-0.1,0.3
		c-2.2,4.3-4.1,8.3-5.7,12c-0.1,0.2-0.2,0.5-0.3,0.7l0,0c-13.9,31.3-9.8,39.1-8.4,40.6c0.1,0.1,0.2,0.2,0.4,0.3l0,0l0,0
		c1.6,2.8,5.5,6.3,10.7,9.2c5.1,2.9,10.2,4.4,13.4,4.3l0,0c3.4,0.1,7.4-2.2,11.6-5.9c1,0,2-0.1,3-0.1c2.5-0.1,5.1-0.3,7.6-0.5
		c1.3-0.1,2.5-0.2,3.8-0.4c1.3-0.2,2.5-0.3,3.8-0.6c0.5-0.1,0.9-0.2,1.4-0.3c0.8-0.2,1.6-0.3,2.5-0.5c1.3-0.3,2.6-0.7,3.8-1.2
		c1.3-0.5,2.6-1.2,3.8-2.1c0.6-0.5,1.2-1,1.7-1.7C131.8,155.6,132.2,154.8,132.5,154z M106.8,156.7c3.5-3.9,6.9-8.2,9.9-12.3
		c0.1,0,0.3,0,0.4,0c0.5,0,1.1,0,1.6,0c1.1,0.1,2.1,0.2,3.2,0.5c0.2,0.1,0.5,0.1,0.7,0.2l0.4,0.1l0.3,0.1c0.2,0.1,0.5,0.2,0.7,0.3
		c0.2,0.1,0.4,0.2,0.6,0.3c0.8,0.4,1.4,1,2,1.7c0.5,0.7,0.8,1.4,1,2.3c0,0.1,0,0.2,0.1,0.3l0,0.3l0,0.3l0,0.4l0,0.4c0,0,0,0.1,0,0.1
		l0,0.1c0,0.1,0,0.2,0,0.2c0,0.1,0,0.1-0.1,0.2c-0.1,0.3-0.3,0.6-0.5,0.8c-0.3,0.3-0.5,0.6-0.9,0.8c-0.1,0.1-0.3,0.2-0.4,0.3
		c-0.7,0.4-1.4,0.7-2.2,1c-0.5,0.2-1,0.3-1.6,0.5c-0.5,0.1-1.1,0.3-1.6,0.4c-1.1,0.2-2.3,0.4-3.4,0.5c-1.7,0.2-3.3,0.2-5,0.3
		c-0.7,0-1.4,0-2.1,0C108.9,156.8,107.9,156.7,106.8,156.7L106.8,156.7z"/>
	<path class="st4" d="M132.7,153.4c0.1-0.2,0.1-0.4,0.1-0.7l0-0.3c0-0.1,0-0.2,0-0.3l0-0.6l0-0.5c0-0.2,0-0.4,0-0.6l0-0.6
		c0-0.2-0.1-0.4-0.1-0.6l-0.1-0.6c0-0.2-0.1-0.4-0.1-0.6c-0.1-0.2-0.1-0.4-0.2-0.6l-0.2-0.6c-0.1-0.4-0.3-0.8-0.5-1.1
		c-0.1-0.2-0.2-0.4-0.3-0.5l-0.3-0.5c-0.9-1.4-2.1-2.5-3.4-3.5c-0.1-0.1-0.3-0.2-0.4-0.3c-0.3,0-0.6,0-0.9,0.1
		c-0.4,0.1-0.8,0.3-1.1,0.6c-0.4,0.6-0.4,1.5-0.1,2.1c1,2.3,4.2,3.7,4.4,6.3c0,0.8-0.2,1.7-0.6,2.4c-0.5,1-1.5,2-2.7,1.8
		c-0.2,0-0.3-0.1-0.5-0.1c-0.7,0.4-1.4,0.7-2.2,1c-0.5,0.2-1,0.3-1.6,0.5c-0.5,0.1-1.1,0.3-1.6,0.4c-1.1,0.2-2.3,0.4-3.4,0.5
		c-1.7,0.2-3.3,0.2-5,0.3c-0.9,0.6-1.7,1.1-0.5,2.5c1.4,1.6,3.8,2.1,5.8,2.3c0.7,0.1,1.5,0.1,2.2,0.2c0.8-0.2,1.6-0.3,2.5-0.5
		c1.3-0.3,2.6-0.7,3.8-1.2c1.3-0.5,2.6-1.2,3.8-2.1c0.6-0.5,1.2-1,1.7-1.7c0.5-0.7,1-1.4,1.3-2.3
		C132.6,153.8,132.7,153.6,132.7,153.4z M124.8,157.4c-0.9,1.1-3,1.5-4.4,1.7c-1.6,0.3-3.3,0.3-5,0.1c-1-0.1-0.7-1.5,0.1-1.5
		c1.6-0.1,3.2-0.2,4.7-0.5c1.3-0.2,2.9-0.8,4.3-0.6c0.3,0.1,0.5,0.4,0.4,0.6C124.9,157.2,124.8,157.3,124.8,157.4z M130.4,149.3
		c-0.5-0.8-0.7-1.8-1.2-2.6c-0.5-0.9-1.3-1.6-1.8-2.4c-0.2-0.3-0.1-0.8,0.2-1c0.2-0.1,0.4-0.1,0.6-0.1c2.2,0.7,3.9,4.2,2.8,6.1
		c-0.1,0.2-0.4,0.2-0.6,0.1C130.5,149.4,130.5,149.3,130.4,149.3z M127.3,156.3c-0.3-0.2-0.4-0.5-0.2-0.8s0.5-0.4,0.8-0.2
		c0,0,0,0,0,0c0.3,0.2,0.4,0.5,0.2,0.8C127.9,156.4,127.6,156.5,127.3,156.3C127.3,156.3,127.3,156.3,127.3,156.3L127.3,156.3z
		 M131.1,151.4C131.1,151.4,131.1,151.4,131.1,151.4C131.1,151.4,131.1,151.4,131.1,151.4C131.1,151.4,131.1,151.4,131.1,151.4
		C131.1,151.4,131.1,151.4,131.1,151.4C131.1,151.4,131.1,151.4,131.1,151.4L131.1,151.4L131.1,151.4z"/>
	<path class="st5" d="M111.5,159.3c-1.2-1.4-0.4-1.9,0.5-2.5c-0.7,0-1.4,0-2.1,0c-1,0-2.1-0.1-3.1-0.1c-2.2,2.5-4.5,4.8-7,7
		c1,0,2-0.1,3-0.1c2.5-0.1,5.1-0.3,7.6-0.5c1.3-0.1,2.5-0.2,3.8-0.4c1.3-0.2,2.5-0.3,3.8-0.6c0.5-0.1,0.9-0.2,1.4-0.3
		c-0.7-0.1-1.5-0.2-2.2-0.2C115.3,161.3,112.8,160.9,111.5,159.3z"/>
	<path class="st5" d="M117.1,144.4c0.5,0,1.1,0,1.6,0c1.1,0.1,2.1,0.2,3.2,0.5c0.2,0.1,0.5,0.1,0.7,0.2l0.4,0.1l0.3,0.1
		c0.2,0.1,0.5,0.2,0.7,0.3c0.2,0.1,0.4,0.2,0.6,0.3c0.8,0.4,1.4,1,2,1.7c0.5,0.7,0.8,1.4,1,2.3c0,0.1,0,0.2,0.1,0.3l0,0.3l0,0.3
		l0,0.4l0,0.4c0,0,0,0.1,0,0.1l0,0.1c0,0.1,0,0.2,0,0.2c0,0.1,0,0.1-0.1,0.2c-0.1,0.3-0.3,0.6-0.5,0.8c-0.3,0.3-0.5,0.6-0.9,0.8
		c-0.1,0.1-0.3,0.2-0.4,0.3c0.2,0.1,0.3,0.1,0.5,0.1c1.2,0.2,2.1-0.8,2.7-1.8c0.4-0.7,0.6-1.5,0.6-2.4c-0.2-2.5-3.3-3.9-4.4-6.3
		c-0.4-0.7-0.3-1.5,0.1-2.1c0.3-0.3,0.7-0.5,1.1-0.6c0.3-0.1,0.6-0.1,0.9-0.1c-1.1-0.7-2.3-1.4-3.6-1.9c-0.9-0.4-1.7-0.7-2.6-0.9
		c-1.3,1.9-2.8,4-4.4,6.2C116.8,144.4,116.9,144.4,117.1,144.4z"/>
	<path class="st6" d="M83.4,113.6c4.3,4.2,9.1,7.8,14.4,10.7c1,0.5,1.9,1.1,2.9,1.5c0.1-0.6,0.2-1.2,0-1.8c0-0.1,0-0.2-0.1-0.3
		c0,0-0.1,0-0.1-0.1c-0.2-0.1-0.4-0.2-0.6-0.3c-0.1-0.1-0.2-0.1-0.3-0.2c-0.3-0.2-0.6-0.3-0.9-0.5c-9.1-5.1-15.7-11.4-17.1-15.7
		c-0.4-1-0.4-2.1,0.1-3.1c2.2-3.9,13.3-1.8,24.9,4.7c11.6,6.5,19.2,14.9,17,18.8c-0.6,0.9-1.5,1.5-2.6,1.7c-0.1,0-0.3,0.1-0.4,0.1
		c0,0-0.1,0-0.1,0c-0.1,0-0.2,0-0.3,0c0,0-0.1,0-0.1,0c-0.1,0-0.2,0-0.3,0c-0.1,0-0.1,0-0.2,0c-0.1,0-0.2,0-0.3,0c0,0-0.1,0-0.1,0
		c-0.1,0-0.2,0-0.4,0c0,0-0.1,0-0.1,0c-0.2,0-0.3,0-0.5,0l-0.1,0c-0.5,0-1.1-0.1-1.7-0.1l-0.1,0c-0.2,0-0.4,0-0.5-0.1
		c0,0-0.1,0-0.1,0c-0.2,0-0.3,0-0.5-0.1c-0.1,0-0.1,0-0.2,0c-0.1,0-0.3-0.1-0.4-0.1c-0.1,0-0.2,0-0.2,0c-0.1,0-0.3-0.1-0.4-0.1
		c-0.1,0-0.2,0-0.3-0.1c-0.1,0-0.2,0-0.3-0.1c-0.1,0-0.3-0.1-0.4-0.1c-0.3,0-0.6,0.1-0.9,0.1c-0.7,0.2-1.4,0.5-1.8,1.1
		c3.6,1.3,7.3,1.9,11.1,2c1.4,1.2,2.2,2.9,0.7,5c2.5-3.7,4.2-6.5,4.7-7.3c0.1-0.1,0.1-0.2,0.1-0.2c2.7-4.8-6-14.7-19.5-22.3
		s-26.5-9.7-29.1-5c-0.1,0.1-0.1,0.2-0.1,0.3c-2.2,4.3-4.1,8.3-5.7,12C73.5,112.4,76.7,108,83.4,113.6z"/>
	<path class="st4" d="M115.8,129.1c0,0-0.1,0-0.1,0C115.7,129.1,115.7,129.1,115.8,129.1z"/>
	<path class="st4" d="M113.9,128.7c-0.1,0-0.2,0-0.3-0.1C113.7,128.7,113.8,128.7,113.9,128.7z"/>
	<path class="st4" d="M115.2,129c-0.1,0-0.1,0-0.2,0C115,129,115.1,129,115.2,129z"/>
	<path class="st4" d="M113,128.5c0.1,0,0.3,0.1,0.4,0.1C113.3,128.6,113.1,128.6,113,128.5L113,128.5z"/>
	<path class="st4" d="M114.5,128.9c-0.1,0-0.2,0-0.2,0C114.4,128.8,114.5,128.8,114.5,128.9z"/>
	<path class="st4" d="M100.5,123.6c-0.2-0.1-0.4-0.2-0.6-0.3C100.2,123.4,100.3,123.5,100.5,123.6z"/>
	<path class="st4" d="M120.2,129.2c0,0-0.1,0-0.1,0C120.1,129.2,120.2,129.2,120.2,129.2z"/>
	<path class="st4" d="M99.6,123.2c-0.3-0.2-0.6-0.3-0.9-0.5C99,122.8,99.3,123,99.6,123.2z"/>
	<path class="st4" d="M118.2,129.3L118.2,129.3L118.2,129.3z"/>
	<path class="st4" d="M119.7,129.3c-0.1,0-0.1,0-0.2,0C119.6,129.3,119.7,129.3,119.7,129.3z"/>
	<path class="st4" d="M120.6,129.1c0,0-0.1,0-0.1,0C120.6,129.1,120.6,129.1,120.6,129.1z"/>
	<path class="st4" d="M118.7,129.3c0,0-0.1,0-0.1,0C118.7,129.3,118.7,129.3,118.7,129.3z"/>
	<path class="st4" d="M116.4,129.2L116.4,129.2L116.4,129.2z"/>
	<path class="st4" d="M85.9,106.8c0.1-0.3,0.2-0.6,0.4-0.9c0.2-0.2,0.5-0.3,0.8-0.4c3.6-1,7.6,0,11.3,1.1c0.4,0.1,0.8,0.3,1.1,0.6
		c0.1,0.1,0.1,0.2,0.1,0.3c0.1,0.3,0.1,0.6,0.1,1c-0.1,0.9-0.1,1.8-0.3,2.7c1.4,0.7,2.9,1.4,4.3,2.2c2.6,1.4,5.1,3.1,7.5,4.8
		c0.5,0.3,1.1,0.7,1.6,0.9c0.5,0.2,1.2,0.5,1.8,0.8c0.6,0.3,1.2,0.6,1.6,1.1c0.4,0.6,0.7,1.3,0.6,2.1c1.7,1.7,3.1,3.7,4,5.9
		c1.1-0.2,2-0.8,2.6-1.7c2.2-3.9-5.4-12.3-17-18.8c-11.6-6.5-22.7-8.6-24.9-4.7c-0.5,1-0.5,2.1-0.1,3.1
		C83,106.7,84.5,106.6,85.9,106.8L85.9,106.8z"/>
	<path class="st4" d="M119.3,129.3c0,0-0.1,0-0.1,0C119.2,129.3,119.2,129.3,119.3,129.3z"/>
	<path class="st6" d="M75.3,150.3c3.5-6.2,7-12.3,10.5-18.5c1-1.8,2.1-3.8,2.2-5.9c0.1-3.5-6.4-14-10.8-11.2
		c-2.1,1.4-3.2,6.1-4.2,8.3c-1.5,3.6-2.8,7.4-3.9,11.2c-1.2,4.3-2.1,8.7-2.8,13.2c-0.3,1.3-0.3,2.7,0,4c0.3,1.4,1.2,2.5,2.5,3.1
		c1.4,0.4,2.9,0.1,4-0.8C73.9,152.7,74.7,151.6,75.3,150.3z"/>
	<path class="st4" d="M64.2,156c-0.1-0.1-0.2-0.2-0.4-0.3C63.9,155.8,64,155.9,64.2,156z"/>
	<path class="st4" d="M116.7,144.4c1.6-2.2,3.1-4.3,4.4-6.2c0.1-0.2,0.2-0.4,0.4-0.5c0.2-0.3,1.4-4.2-4.1-3.8
		c-5.4,0.4-16.1,21.1-27.7,27.6c-0.2,0.1-0.4,0.2-0.6,0.3c-3.3,1.8-7,2.6-10.7,2.2c-6.1-0.7-10.9-4.7-14.1-7.9
		c1.6,2.8,5.5,6.3,10.7,9.2c5.1,2.9,10.2,4.4,13.4,4.3l0,0c3.4,0.1,7.4-2.2,11.6-5.9c2.5-2.2,4.8-4.5,7-7
		C110.3,152.8,113.7,148.4,116.7,144.4z"/>
	<path class="st6" d="M124.5,156.5c-1.4-0.2-2.9,0.4-4.3,0.6c-1.6,0.3-3.1,0.4-4.7,0.5c-0.8,0.1-1.1,1.4-0.1,1.5
		c1.7,0.2,3.3,0.2,5-0.1c1.4-0.2,3.5-0.5,4.4-1.7c0.2-0.2,0.2-0.6,0-0.8C124.7,156.5,124.6,156.5,124.5,156.5z"/>
	<path class="st6" d="M127.9,155.3c-0.3-0.2-0.7-0.1-0.8,0.2c-0.2,0.3-0.1,0.7,0.2,0.8c0,0,0,0,0,0c0.3,0.2,0.7,0.1,0.8-0.2
		C128.3,155.8,128.2,155.5,127.9,155.3C127.9,155.3,127.9,155.3,127.9,155.3z"/>
	<path class="st6" d="M131.1,149.3c1.1-2-0.6-5.5-2.8-6.1c-0.4-0.1-0.8,0.1-0.9,0.5c-0.1,0.2,0,0.4,0.1,0.6c0.5,0.9,1.3,1.5,1.8,2.4
		c0.4,0.8,0.7,1.8,1.2,2.6c0.1,0.2,0.4,0.3,0.6,0.1C131,149.4,131.1,149.4,131.1,149.3z"/>
	<path class="st6" d="M131.1,151.4C131.1,151.4,131.1,151.4,131.1,151.4C131.1,151.4,131.1,151.4,131.1,151.4
		C131.1,151.4,131.1,151.4,131.1,151.4C131.1,151.4,131.1,151.4,131.1,151.4C131.1,151.4,131.1,151.4,131.1,151.4
		C131.1,151.4,131.1,151.4,131.1,151.4z"/>
	<path class="st7" d="M117,123.1c0,0.3,0,0.6-0.1,0.8c-0.1,0.7-0.4,1.3-0.7,1.9c0,0.1-0.1,0.1-0.1,0.2c-0.2,0.3-0.5,0.5-0.8,0.4
		c-4.4-0.7-8.6-2.7-11.9-5.8c-0.3-0.3-0.4-0.8-0.1-1.1c0,0,0,0,0,0c0.1-0.1,0.2-0.2,0.3-0.3c0.6-0.6,1.4-1.1,2.2-1.5
		c0.7-0.3,1.4-0.6,2.2-0.7c1.2-0.1,2.4,0.3,3.4,1.1c-2.4-1.8-4.9-3.4-7.5-4.8c-1.5-0.8-2.9-1.6-4.3-2.2c-0.2,1.3-0.5,2.7-0.9,4
		c-0.1,0.2-0.1,0.5-0.2,0.7c-0.2,0.6-0.8,0.9-1.4,0.7c-4.5-1.2-8.5-3.5-11.8-6.8c-0.1-0.1-0.1-0.2-0.2-0.3c-0.1-0.3-0.2-0.6-0.1-0.9
		l0,0c0.2-0.6,0.7-1.1,0.9-1.8c-1.5-0.2-2.9-0.1-4.4,0.1c1.4,4.4,8,10.6,17.1,15.7c0.3,0.2,0.6,0.3,0.9,0.5c0.1,0.1,0.2,0.1,0.3,0.2
		c0.2,0.1,0.4,0.2,0.6,0.3c0,0,0.1,0,0.1,0.1c0,0.1,0.1,0.2,0.1,0.3c0.1,0.6,0.1,1.2,0,1.8c0,0.1,0,0.1,0,0.2
		c-1,3.3-3.4,6.5-5.3,9.3c-0.5,0.8-1,1.9-0.3,2.5c0.2,0.2,0.5,0.3,0.7,0.5c0.6,0.6,0.8,1.5,0.6,2.3c-0.5,3.3-3,6-4,9.1
		c-0.3,0.8-0.5,1.7-0.5,2.6c-0.1,0.8,0.2,1.6,0.7,2.1c0.5,0.4,1.2,0.5,1.8,0.3c0.6-0.2,1.1-0.5,1.6-0.9c1.5-1.3,2.8-2.9,3.8-4.7
		c3.4-5.8,5.7-12.2,9.3-17.8c0.1-0.1,0.2-0.3,0.3-0.4c0.2-0.4,0.5-0.8,0.8-1.1c0.5-0.6,1.1-1,1.8-1.1c0.3,0,0.6-0.1,0.9-0.1h0
		c0.1,0,0.3,0.1,0.4,0.1c0.1,0,0.2,0,0.3,0.1c0.1,0,0.2,0,0.3,0.1c0.1,0,0.3,0.1,0.4,0.1c0.1,0,0.2,0,0.2,0c0.1,0,0.3,0.1,0.4,0.1
		c0.1,0,0.1,0,0.2,0c0.2,0,0.3,0.1,0.5,0.1c0,0,0.1,0,0.1,0c0.2,0,0.4,0.1,0.5,0.1l0.1,0c0.6,0.1,1.2,0.1,1.7,0.1l0.1,0
		c0.2,0,0.3,0,0.5,0c0,0,0.1,0,0.1,0c0.1,0,0.3,0,0.4,0c0,0,0.1,0,0.1,0c0.1,0,0.2,0,0.3,0c0.1,0,0.1,0,0.2,0c0.1,0,0.2,0,0.3,0
		c0,0,0.1,0,0.1,0c0.1,0,0.2,0,0.3,0c0,0,0.1,0,0.1,0c0.1,0,0.3-0.1,0.4-0.1C120.1,126.8,118.8,124.8,117,123.1z"/>
	<path class="st8" d="M113,128.5c0.1,0,0.3,0.1,0.4,0.1c0.1,0,0.2,0,0.3,0.1c0.1,0,0.2,0,0.3,0.1c0.1,0,0.3,0.1,0.4,0.1
		c0.1,0,0.2,0,0.2,0c0.1,0,0.3,0.1,0.4,0.1c0.1,0,0.1,0,0.2,0c0.2,0,0.3,0.1,0.5,0.1c0,0,0.1,0,0.1,0c0.2,0,0.4,0.1,0.5,0.1l0.1,0
		c0.6,0.1,1.2,0.1,1.7,0.1l0.1,0c0.2,0,0.3,0,0.5,0c0,0,0.1,0,0.1,0c0.1,0,0.3,0,0.4,0c0,0,0.1,0,0.1,0c0.1,0,0.2,0,0.3,0
		c0.1,0,0.1,0,0.2,0c0.1,0,0.2,0,0.3,0c0,0,0.1,0,0.1,0c0.1,0,0.2,0,0.3,0c0,0,0.1,0,0.1,0c0.1,0,0.3-0.1,0.4-0.1
		c-0.9-2.2-2.3-4.3-4-5.9c0,0.3,0,0.6-0.1,0.8c-0.1,0.7-0.4,1.3-0.7,1.9c0.4,0.2,0.7,0.4,1.1,0.7c0.4,0.2,0.7,0.5,1,0.8
		c0.3,0.3,0.4,0.7,0.2,1.1c-0.2,0.3-0.6,0.5-1,0.5c-0.4,0-0.8-0.1-1.2-0.3c-2.4-0.9-4.7-2-6.9-3.3c-2.6-1.2-5-2.8-7.2-4.7
		c-0.2-0.1-0.3-0.3-0.4-0.5c-0.3-1,0.8-1,1.8-0.9c0.6-0.6,1.4-1.1,2.2-1.5c0.7-0.3,1.4-0.6,2.2-0.7c1.2-0.1,2.4,0.3,3.4,1.1
		c-2.4-1.8-4.9-3.4-7.5-4.8c-1.5-0.8-2.9-1.6-4.3-2.2c-0.2,1.3-0.5,2.7-0.9,4c0.7,0.4,1.3,1,1.8,1.7c0.1,0.1,0.2,0.3,0.2,0.5
		c0,0.1-0.2,0.3-0.3,0.3c-0.9,0.5-1.9,0.6-2.9,0.5c-2.9-0.3-5.4-2.2-7.8-4c-1-0.8-2.1-1.6-3.1-2.4c-1.1-0.7-2.1-1.7-2.9-2.7
		c-0.1-0.1-0.1-0.1-0.1-0.2c0-0.3,0.4-0.4,0.7-0.3c0.2,0,0.4,0.1,0.7,0.2c0.2-0.6,0.7-1.1,0.9-1.8c-1.5-0.2-2.9-0.1-4.4,0.1
		c1.4,4.4,8,10.6,17.1,15.7c0.3,0.2,0.6,0.3,0.9,0.5c0.1,0.1,0.2,0.1,0.3,0.2c0.2,0.1,0.4,0.2,0.6,0.3c0,0,0.1,0,0.1,0.1
		C104.6,125.8,108.7,127.4,113,128.5z"/>
	<path class="st9" d="M115.3,126.4c-4.4-0.7-8.6-2.7-11.9-5.8c-0.3-0.3-0.4-0.8-0.1-1.1c0,0,0,0,0,0c0.1-0.1,0.2-0.2,0.3-0.3
		c-0.9-0.1-2.1-0.1-1.8,0.9c0.1,0.2,0.2,0.3,0.4,0.5c2.2,1.9,4.6,3.5,7.2,4.7c2.2,1.2,4.6,2.3,6.9,3.3c0.4,0.2,0.8,0.3,1.2,0.3
		c0.4,0,0.8-0.2,1-0.5c0.1-0.4,0.1-0.8-0.2-1.1c-0.3-0.3-0.6-0.6-1-0.8c-0.4-0.2-0.7-0.4-1.1-0.7c0,0.1-0.1,0.1-0.1,0.2
		C116,126.3,115.7,126.5,115.3,126.4z"/>
	<path class="st9" d="M97.1,116.5c-4.5-1.2-8.5-3.5-11.8-6.8c-0.1-0.1-0.1-0.2-0.2-0.3c-0.1-0.3-0.2-0.6-0.1-0.9l0,0
		c-0.2-0.1-0.5-0.1-0.7-0.2c-0.3-0.1-0.7,0-0.7,0.3c0,0.1,0.1,0.2,0.1,0.2c0.8,1,1.8,2,2.9,2.7c1,0.8,2.1,1.6,3.1,2.4
		c2.3,1.8,4.9,3.7,7.8,4c1,0.1,2,0,2.9-0.5c0.1-0.1,0.2-0.2,0.3-0.3c0-0.2,0-0.3-0.2-0.5c-0.5-0.7-1.1-1.2-1.8-1.7
		c-0.1,0.2-0.1,0.5-0.2,0.7C98.3,116.4,97.7,116.7,97.1,116.5z"/>
	<path class="st10" d="M103.1,126.3c-1.4,0.4-1.8,2.8-2.5,3.9c-0.9,1.4-1.8,2.9-2.4,4.5c-0.2,0.3-0.2,0.8,0,1.1
		c0.3,0.4,1,0.2,1.4-0.1c2.2-1.5,2.9-4.5,5-6.2c0.3-0.2,0.6-0.5,0.9-0.7C106.6,127.5,104.4,126,103.1,126.3z"/>
	<path class="st8" d="M105.6,134.8c-1.6,2.9-3.1,5.9-4.5,9c-1.3,3.1-3.3,5.9-5.8,8.1c-0.5,0.6-1.3,0.8-2,0.6c-0.7-0.3-0.9-1.3-0.9-2
		c0-0.2,0-0.5,0-0.7c-0.3,0.8-0.5,1.7-0.5,2.6c-0.1,0.8,0.2,1.6,0.7,2.1c0.5,0.4,1.2,0.5,1.8,0.3c0.6-0.2,1.1-0.5,1.6-0.9
		c1.5-1.3,2.8-2.9,3.8-4.7c3.4-5.8,5.7-12.2,9.3-17.8c-0.5,0.2-0.9,0.5-1.3,0.8C106.9,132.8,106.1,133.7,105.6,134.8z"/>
	<path class="st11" d="M98.7,115.1c0.4-1.3,0.7-2.6,0.9-4c0.1-0.9,0.2-1.8,0.3-2.7c0-0.3,0-0.7-0.1-1c0-0.1-0.1-0.2-0.1-0.3
		c-0.3-0.3-0.7-0.5-1.1-0.6c-3.7-1.1-7.7-2.1-11.3-1.1c-0.3,0.1-0.6,0.2-0.8,0.4c-0.2,0.2-0.4,0.5-0.4,0.9l0,0
		c-0.2,0.7-0.7,1.2-0.9,1.8l0,0c-0.1,0.3-0.1,0.6,0.1,0.9c0.1,0.1,0.1,0.2,0.2,0.3c3.3,3.2,7.4,5.5,11.8,6.8
		c0.6,0.2,1.2-0.1,1.4-0.7C98.6,115.6,98.7,115.3,98.7,115.1z"/>
	<path class="st11" d="M116.2,125.9c0.3-0.6,0.5-1.3,0.7-1.9c0.1-0.3,0.1-0.5,0.1-0.8c0.1-0.7-0.1-1.5-0.6-2.1
		c-0.5-0.5-1-0.8-1.6-1.1c-0.6-0.3-1.3-0.6-1.8-0.8c-0.6-0.3-1.1-0.6-1.6-0.9c-1-0.8-2.2-1.2-3.4-1.1c-0.8,0.1-1.5,0.4-2.2,0.7
		c-0.8,0.4-1.5,0.9-2.2,1.5c-0.1,0.1-0.2,0.2-0.3,0.3c-0.3,0.3-0.3,0.8,0,1.1c0,0,0,0,0,0c3.3,3,7.4,5.1,11.9,5.8
		c0.3,0.1,0.7-0.1,0.8-0.4C116.2,126,116.2,125.9,116.2,125.9z"/>
	<path class="st12" d="M99.8,107.5c-0.3,0.8-0.9,1.5-1.7,1.9c-0.3,0.2-0.6,0.3-0.9,0.4c-0.3,0-0.5-0.1-0.7-0.2
		c-2.7-1.2-5.6-2.1-8.5-2.6c-0.5-0.2-1.1-0.1-1.5,0.1c-0.3,0.2-0.5,0.4-0.6,0.8c-0.3,0.5-0.5,1.1-0.6,1.7c0.1,0.1,0.1,0.2,0.2,0.3
		c3.3,3.2,7.4,5.5,11.8,6.8c0.6,0.2,1.2-0.1,1.4-0.7c0.1-0.2,0.2-0.5,0.2-0.7c0.4-1.3,0.7-2.6,0.9-4c0.1-0.9,0.2-1.8,0.3-2.7
		C99.9,108.1,99.9,107.8,99.8,107.5z"/>
	<path class="st12" d="M116.5,121c-0.5-0.5-1-0.8-1.6-1.1c0,0.1,0.1,0.1,0.1,0.2c0.2,0.4,0.5,0.9,0.4,1.3c-0.1,0.3-0.4,0.5-0.8,0.5
		c-0.3,0-0.7,0-1-0.1c-1.8-0.5-3.4-1.3-4.8-2.5c-0.7-0.7-1.5-1.2-2.4-1.5c-0.1,0-0.3,0-0.4,0c-0.8,0.4-1.5,0.9-2.2,1.5
		c-0.1,0.1-0.2,0.2-0.3,0.3c-0.3,0.3-0.3,0.8,0,1.1c0,0,0,0,0,0c3.3,3,7.4,5.1,11.9,5.8c0.3,0.1,0.7-0.1,0.8-0.4
		c0-0.1,0.1-0.1,0.1-0.2c0.3-0.6,0.5-1.3,0.7-1.9c0.1-0.3,0.1-0.5,0.1-0.8C117.1,122.4,116.9,121.6,116.5,121z"/>
</g>
<g id="Calque_4">
	<rect x="9.8" y="8" class="st13" width="175.6" height="175.6"/>
</g>
</svg>
