<?xml version="1.0" encoding="utf-8"?>
<!-- Generator: Adobe Illustrator 25.4.1, SVG Export Plug-In . SVG Version: 6.00 Build 0)  -->
<svg version="1.1" id="Calque_1" xmlns="http://www.w3.org/2000/svg" xmlns:xlink="http://www.w3.org/1999/xlink" x="0px" y="0px"
	 viewBox="0 0 191.5 191.5" style="enable-background:new 0 0 191.5 191.5;" xml:space="preserve">
<style type="text/css">
	.st0{fill:#F1F2F2;}
	.st1{font-family:'Heavitas';}
	.st2{font-size:35.8627px;}
	.st3{fill:#DADCDB;}
	.st4{fill:#4E4E4E;}
	.st5{fill:#CCCCCC;}
	.st6{fill:#EA3E3D;}
	.st7{fill:#E6E6E5;}
	.st8{fill:#1A1A1A;}
	.st9{fill:none;stroke:#1A1A1A;stroke-width:56.6323;stroke-linecap:round;stroke-linejoin:round;}
	.st10{fill:none;}
</style>
<g>
	<text transform="matrix(1 0 0 1 7.4422 106.019)" class="st0 st1 st2">cozy</text>
	<path class="st3" d="M158.1,75.5c-1.2-0.3-2.4-0.2-3.5,0.3l6.4,1.7C160.3,76.5,159.2,75.8,158.1,75.5z"/>
	<path class="st4" d="M115.7,125.5c-0.1,0.1-0.3,0.4-0.6-0.2c0-0.1,5.7-8.5,5.7-8.5l1.8,0.5L115.7,125.5z"/>
	<path class="st4" d="M119.9,123.4c-0.1,0.1-0.3,0.3-0.8-0.2c-0.1-0.1,4.9-5.7,4.9-5.7l0.6,0.2L119.9,123.4z"/>
	<path class="st5" d="M119.9,123.4c-0.1,0.1-0.3,0.3-0.8-0.2c-0.1-0.1,4.9-5.7,4.9-5.7l0.6,0.2L119.9,123.4z"/>
	<path class="st4" d="M161.1,133.7c-0.2,0.5-0.5,0.6-0.6,0.5c-0.1-0.1-0.2-0.2-0.2-0.3l-1.3-7.2l0.6,0.2
		C159.5,126.9,161.1,133.7,161.1,133.7z"/>
	<path class="st4" d="M162.9,138l-2-10.8l1.8,0.5l0.8,10.2C163.4,138.2,162.9,138.3,162.9,138z"/>
	<path class="st6" d="M165.5,125.4c-0.2,0.9-1.2,1.4-2.1,1.2l0,0l0,0l-42.7-11.2c-0.9-0.2-1.4-1.2-1.2-2.1l0.1-0.3l45.9,12.1
		L165.5,125.4z"/>
	<path class="st6" d="M114.2,108.7l10-38.1c0.2-0.8,1.1-1.3,1.9-1.1l55.7,14.6c0.8,0.2,1.3,1.1,1.1,1.9l-10,38.1
		c-0.2,0.8-1.1,1.3-1.9,1.1l-55.7-14.6C114.4,110.4,113.9,109.6,114.2,108.7z"/>
	<path class="st7" d="M182.8,86.1l-10,38.1l9.4-37.6c0.2-0.8-0.3-1.7-1.1-1.9L126,69.6l55.7,14.6C182.5,84.4,183,85.2,182.8,86.1z"
		/>
	<path class="st4" d="M116.8,107.3l9-34.2c0.2-0.8,1.1-1.3,1.9-1.1l41.1,10.8L159,120l-41.1-10.8C117,109,116.5,108.2,116.8,107.3z"
		/>
	<path class="st5" d="M159,120l-41.1-10.8c-0.8-0.2-1.3-1.1-1.1-1.9l9-34.2l-7.1,33.5c-0.2,0.8,0.3,1.7,1.1,1.9L159,120z"/>
	<path class="st6" d="M171.2,121.6c-0.2,0.8-1.1,1.3-1.9,1.1l-9.2-2.4l9.8-37.1l9.2,2.4c0.8,0.2,1.3,1.1,1.1,1.9L171.2,121.6z"/>
	<path class="st7" d="M180.2,87.5l-9,34.2l7.7-33.9c0.2-0.8-0.3-1.7-1.1-1.9l-7.8-2.7l9.2,2.4C179.9,85.8,180.4,86.7,180.2,87.5z"/>
	<path class="st3" d="M156.7,112.5c-1.2,1.9-3.2,2.4-7.4,1.7c-7.6-1.1-15.2-3.1-22.4-5.7c-3.9-1.5-5.1-2.9-5.2-5.1
		c-0.1-2.7,1.2-8.1,2.3-12.5s2.7-9.7,4.1-12c1.2-1.9,3.1-2.5,7.2-1.8c7.6,1.3,15.1,3.3,22.4,5.9c4,1.5,5.3,2.9,5.4,5.2
		c0.1,2.7-1.2,8.1-2.3,12.5S158.2,110.2,156.7,112.5z"/>
	<path class="st5" d="M156.7,112.5c2.3-3.8,4.9-20.8,4.8-23.5c-0.1-2.2-1.9-4.1-5.9-5.6c-5.5-2.1-9.8-4.8-20.2-6.4
		c7.6,1.3,15.1,3.3,22.4,5.9c4,1.5,5.3,2.9,5.4,5.2c0.1,2.7-1.2,8.1-2.3,12.5S158.2,110.2,156.7,112.5z"/>
	<path class="st3" d="M173.2,92.1c-0.1,0-0.3-0.1-0.4-0.1l3.9-3.7c0.2,0.6,0.2,1.2,0.1,1.7C176.4,91.6,174.8,92.5,173.2,92.1z"/>
	<path class="st3" d="M176.6,87.3l-4.5,4.2c-0.2-0.1-0.4-0.3-0.6-0.6l4.5-4.2L176.6,87.3z"/>
	<path class="st3" d="M174.7,86.4c0.1,0,0.3,0.1,0.4,0.1l-3.9,3.7c-0.2-0.6-0.2-1.2-0.1-1.7C171.5,86.9,173.1,85.9,174.7,86.4z"/>
	<path class="st3" d="M174,99.1c-1.2,1.1-3.1,1.1-4.2-0.1c-0.1-0.1-0.2-0.2-0.3-0.3l5.3-1.1C174.7,98.1,174.4,98.7,174,99.1z"/>
	<path class="st3" d="M169.2,97.9c-0.1-0.2-0.2-0.5-0.2-0.8l6-1.3l0.2,0.8L169.2,97.9z"/>
	<path class="st3" d="M169.9,94.8c0.6-0.5,1.3-0.8,2.1-0.8c0.8,0,1.5,0.3,2.1,0.9c0.1,0.1,0.2,0.2,0.3,0.3l-5.3,1.1
		C169.2,95.7,169.5,95.2,169.9,94.8z"/>
	<circle class="st3" cx="172.6" cy="56.8" r="1.2"/>
	<path class="st5" d="M171.4,57.2c0.1,0.4,0.4,0.6,0.8,0.7c0.7,0.2,1.3-0.2,1.5-0.9c0.1-0.4,0-0.8-0.2-1.1c0.1,0.2,0.1,0.5,0,0.8
		c-0.2,0.7-0.8,1-1.5,0.9c0,0,0,0,0,0C171.8,57.6,171.6,57.4,171.4,57.2z"/>
	<path class="st7" d="M171.4,56.5c-0.1,0.4,0,0.8,0.3,1.1c-0.1-0.2-0.1-0.5,0-0.7c0.2-0.7,0.8-1,1.5-0.9l0,0
		c0.2,0.1,0.5,0.2,0.6,0.4c-0.1-0.4-0.5-0.7-0.8-0.8C172.2,55.4,171.6,55.8,171.4,56.5z"/>
	<circle class="st3" cx="151.2" cy="54.6" r="1.2"/>
	
		<rect x="170.3" y="98.6" transform="matrix(0.2542 -0.9672 0.9672 0.2542 28.5175 241.1348)" class="st4" width="0.7" height="6.9"/>
	<path class="st7" d="M149.4,114.2c-7.6-1.1-15.2-3.1-22.4-5.7c-3.9-1.5-5.1-2.9-5.2-5.1c-0.1-2.7,1.2-8.1,2.3-12.5s2.7-9.7,4.1-12
		C126.8,89.4,133.6,108.1,149.4,114.2z"/>
	<path class="st5" d="M175.1,86.5l-3.2,2.4c-0.1,0.1-0.3,0.1-0.4-0.1c0-0.1-0.1-0.1-0.1-0.2c0-0.6,0.3-1.3,0.7-1.7
		c-1.1,0.7-1.5,2.1-1,3.3L175.1,86.5z"/>
	<path class="st5" d="M174.3,95.2l-4.4,0.7c-0.2,0-0.3-0.1-0.3-0.2c0,0,0-0.1,0-0.1c0.2-0.4,0.5-0.8,0.8-1.1
		c-0.7,0.1-1.3,1.3-1.4,1.9L174.3,95.2z"/>
	<path class="st7" d="M176,86.7l0.1,0.2c0.1,0.2,0.1,0.4-0.1,0.6l-3.9,4l4.5-4.2L176,86.7z"/>
	<path class="st7" d="M169,97.1l5.5-0.9c0.2,0,0.4,0,0.5,0.2l0.2,0.2l-0.2-0.8L169,97.1z"/>
	<path class="st5" d="M169.6,98.7l4.2-0.5c0.1,0,0.3,0.1,0.3,0.2c0,0.1,0,0.1,0,0.2c-0.3,0.5-0.7,0.9-1.1,1.2c1-0.3,1.8-1.1,2-2.2
		L169.6,98.7z"/>
	<path class="st5" d="M127.6,72.1l38.3,11.1c0.9,0.3,1.5,1.2,1.2,2.1L159,120l9.8-37.1L127.6,72.1z"/>
	<path class="st5" d="M165.5,125.4l-41.9-10.7c-0.3-0.1-0.6,0.1-0.7,0.4c-0.1,0.3,0.1,0.5,0.3,0.7c1.2,0.5,2.4,0.9,3.7,1.2l-6.1-1.6
		c-0.8-0.1-1.5-0.8-1.4-1.6c0-0.3,0.1-0.5,0.3-0.8l45.9,12.1C165.6,125.1,166.2,125.2,165.5,125.4z"/>
	<path class="st5" d="M122.3,117.7l-0.2,0c-0.7,0-1.3,0.3-1.7,0.9l-5.1,6.9l-0.1-0.2l5.7-8.5l1.8,0.5L122.3,117.7z"/>
	<path class="st5" d="M162.7,128L162.7,128c-0.6,0.1-1,0.6-0.9,1.1l1.1,8.8l-2-10.8l1.8,0.5L162.7,128z"/>
	<path class="st7" d="M158.1,75.5c-1-0.1-1.9,0.1-2.8,0.5l-0.7-0.2C155.6,75.2,156.9,75.1,158.1,75.5z"/>
	<path class="st5" d="M158.1,75.5c0.7,0.2,2,1.3,1.9,1.7l1,0.3C160.8,77,160.1,76,158.1,75.5z"/>
	<path class="st5" d="M150.1,55c0.1,0.4,0.4,0.6,0.8,0.7c0.7,0.2,1.3-0.2,1.5-0.9c0.1-0.4,0-0.8-0.2-1.1c0.1,0.2,0.1,0.5,0,0.8
		c-0.2,0.7-0.8,1-1.5,0.9c0,0,0,0,0,0C150.5,55.4,150.2,55.2,150.1,55z"/>
	<path class="st7" d="M150,54.3c-0.1,0.4,0,0.8,0.3,1.1c-0.1-0.2-0.1-0.5,0-0.7c0.2-0.7,0.8-1,1.5-0.9c0.2,0.1,0.5,0.2,0.6,0.4
		c-0.1-0.4-0.5-0.7-0.8-0.8C150.9,53.2,150.2,53.6,150,54.3z"/>
	<path class="st7" d="M167.4,100.9l5.9,1.8c0.2,0.1,0.4,0.3,0.5,0.5l0.1,0.2l0.2-0.7L167.4,100.9z"/>
	<path class="st5" d="M167.4,100.9l0,0.1c0.1,0.3,0.3,0.5,0.5,0.6l5.9,1.7l-6.7-1.8L167.4,100.9z"/>
	<path class="st5" d="M170.9,125.2l-55.7-14.6c-0.8-0.2-1.3-1.1-1.1-1.9l0,0l10-38.1l-9.3,36.8c-0.3,1.3,0.4,2.6,1.7,3L170.9,125.2z
		"/>
	<path class="st8" d="M170.6,126.4l-55.7-14.6c-1.5-0.4-2.3-1.9-2-3.4l10-38.1c0.4-1.5,1.9-2.3,3.4-2L182,83c1.5,0.4,2.3,1.9,2,3.4
		l-10,38.1C173.6,125.9,172.1,126.8,170.6,126.4z M126,69.6c-0.8-0.2-1.7,0.3-1.9,1.1l-10,38.1c-0.2,0.8,0.3,1.7,1.1,1.9l55.7,14.6
		c0.8,0.2,1.7-0.3,1.9-1.1l10-38.1c0.2-0.8-0.3-1.7-1.1-1.9L126,69.6z"/>
	<path class="st8" d="M169,123.9l-51.5-13.5c-1.5-0.4-2.3-1.9-2-3.4l9-34.2c0.4-1.5,1.9-2.3,3.4-2l51.5,13.5c1.5,0.4,2.3,1.9,2,3.4
		l-9,34.2C172,123.4,170.5,124.3,169,123.9z M127.6,72.1c-0.8-0.2-1.7,0.3-1.9,1.1l-9,34.2c-0.2,0.8,0.3,1.7,1.1,1.9l51.5,13.5
		c0.8,0.2,1.7-0.3,1.9-1.1l9-34.2c0.2-0.8-0.3-1.7-1.1-1.9L127.6,72.1z"/>
	<path class="st9" d="M146.8,79"/>
	<path class="st8" d="M137.9,112.9c-3.4-0.9-9.8-3-11-3.4c-1.7-0.5-3.2-1.4-4.6-2.5c-1.1-0.9-1.7-2.3-1.8-3.7
		c-0.1-2.8,1.1-8.1,2.4-12.9s2.7-9.9,4.3-12.4c0.7-1.2,2-2.1,3.4-2.3c1.7-0.3,3.5-0.3,5.2,0.1c1.3,0.2,7.9,1.6,11.3,2.5
		c3.4,0.9,9.8,3,11,3.4c1.7,0.5,3.2,1.4,4.6,2.5c1.1,0.9,1.7,2.3,1.8,3.7c0.1,2.8-1.1,8.1-2.4,12.9s-2.7,9.9-4.3,12.4
		c-0.7,1.2-2,2.1-3.4,2.3c-1.7,0.3-3.5,0.3-5.2-0.1C147.9,115.2,141.3,113.8,137.9,112.9z M146.7,79.6c-3.4-0.9-9.9-2.2-11.2-2.4
		c-4.2-0.7-6.2-0.2-7.4,1.7c-1.4,2.3-3,7.6-4.1,12s-2.5,9.8-2.3,12.5c0.1,2.2,1.6,3.6,5.6,5.1c1.2,0.4,7.6,2.5,10.9,3.4
		c3.4,0.9,9.9,2.2,11.2,2.4c4.2,0.7,6.2,0.2,7.4-1.7c1.4-2.3,3-7.6,4.1-12s2.5-9.8,2.3-12.5c-0.1-2.2-1.6-3.6-5.6-5.1
		C156.4,82.5,150.1,80.4,146.7,79.6L146.7,79.6z"/>
	<path class="st8" d="M159.3,121.3c-0.3-0.1-0.5-0.4-0.4-0.7l10.1-38.3c0.1-0.3,0.4-0.5,0.7-0.4s0.5,0.4,0.4,0.7L160,120.9
		C159.9,121.2,159.6,121.4,159.3,121.3L159.3,121.3z"/>
	<path class="st8" d="M174.2,105.7l-8.7-2.3c-0.2-0.1-0.3-0.3-0.3-0.5c0,0,0,0,0,0c0.1-0.2,0.3-0.3,0.5-0.3l0,0l8.7,2.3
		c0.2,0.1,0.3,0.3,0.3,0.5c0,0,0,0,0,0C174.6,105.6,174.4,105.8,174.2,105.7L174.2,105.7z"/>
	<path class="st8" d="M173.9,106.9l-8.7-2.3c-0.2-0.1-0.3-0.3-0.3-0.5c0,0,0,0,0,0c0.1-0.2,0.3-0.3,0.5-0.3l0,0l8.7,2.3
		c0.2,0.1,0.3,0.3,0.3,0.5c0,0,0,0,0,0C174.3,106.8,174.1,106.9,173.9,106.9L173.9,106.9z"/>
	<path class="st8" d="M173.6,108l-8.7-2.3c-0.2-0.1-0.3-0.3-0.3-0.5c0,0,0,0,0,0c0.1-0.2,0.3-0.3,0.5-0.3l0,0l8.7,2.3
		c0.2,0.1,0.3,0.3,0.3,0.5c0,0,0,0,0,0C174,107.9,173.8,108.1,173.6,108L173.6,108z"/>
	<path class="st8" d="M173.3,109.1l-8.7-2.3c-0.2-0.1-0.3-0.3-0.3-0.5c0,0,0,0,0,0c0.1-0.2,0.3-0.3,0.5-0.3c0,0,0,0,0,0l8.7,2.3
		c0.2,0.1,0.3,0.3,0.3,0.5c0,0,0,0,0,0C173.7,109.1,173.5,109.2,173.3,109.1z"/>
	<path class="st8" d="M173,110.3l-8.7-2.3c-0.2-0.1-0.3-0.3-0.3-0.5c0,0,0,0,0,0c0.1-0.2,0.3-0.3,0.5-0.3c0,0,0,0,0,0l8.7,2.3
		c0.2,0.1,0.3,0.3,0.3,0.5c0,0,0,0,0,0C173.4,110.2,173.2,110.3,173,110.3L173,110.3z"/>
	<path class="st8" d="M172.7,111.4l-8.7-2.3c-0.2-0.1-0.3-0.3-0.3-0.5c0,0,0,0,0,0c0.1-0.2,0.3-0.3,0.5-0.3h0l8.7,2.3
		c0.2,0.1,0.3,0.3,0.3,0.5c0,0,0,0,0,0C173.1,111.4,172.9,111.5,172.7,111.4z"/>
	<path class="st8" d="M172.4,112.6l-8.7-2.3c-0.2-0.1-0.3-0.3-0.3-0.5c0,0,0,0,0,0c0.1-0.2,0.3-0.3,0.5-0.3h0l8.7,2.3
		c0.2,0.1,0.3,0.3,0.3,0.5c0,0,0,0,0,0C172.8,112.5,172.6,112.6,172.4,112.6C172.4,112.6,172.4,112.6,172.4,112.6z"/>
	<path class="st8" d="M172.1,113.7l-8.7-2.3c-0.2-0.1-0.3-0.3-0.3-0.5c0,0,0,0,0,0c0.1-0.2,0.3-0.3,0.5-0.3h0l8.7,2.3
		c0.2,0.1,0.3,0.3,0.3,0.5c0,0,0,0,0,0C172.5,113.7,172.3,113.8,172.1,113.7z"/>
	<path class="st8" d="M171.8,114.9l-8.7-2.3c-0.2-0.1-0.3-0.3-0.3-0.5l0,0c0.1-0.2,0.3-0.3,0.5-0.3h0l8.7,2.3
		c0.2,0.1,0.3,0.3,0.3,0.5l0,0C172.2,114.8,172,114.9,171.8,114.9L171.8,114.9z"/>
	<path class="st8" d="M171.5,116l-8.7-2.3c-0.2-0.1-0.3-0.3-0.3-0.5c0,0,0,0,0,0c0.1-0.2,0.3-0.3,0.5-0.3l0,0l8.7,2.3
		c0.2,0.1,0.3,0.3,0.3,0.5l0,0C171.9,116,171.7,116.1,171.5,116C171.5,116,171.5,116,171.5,116z"/>
	<path class="st8" d="M171.2,117.2l-8.7-2.3c-0.2-0.1-0.3-0.3-0.3-0.5c0,0,0,0,0,0c0.1-0.2,0.3-0.3,0.5-0.3l0,0l8.7,2.3
		c0.2,0.1,0.3,0.3,0.3,0.5l0,0C171.6,117.1,171.4,117.2,171.2,117.2L171.2,117.2z"/>
	<path class="st8" d="M170.9,118.3l-8.7-2.3c-0.2-0.1-0.3-0.3-0.3-0.5c0,0,0,0,0,0c0.1-0.2,0.3-0.3,0.5-0.3l0,0l8.7,2.3
		c0.2,0.1,0.3,0.3,0.3,0.5c0,0,0,0,0,0C171.3,118.3,171.1,118.4,170.9,118.3C170.9,118.3,170.9,118.3,170.9,118.3z"/>
	<path class="st8" d="M170.6,119.5l-8.7-2.3c-0.2-0.1-0.3-0.3-0.3-0.5c0,0,0,0,0,0c0.1-0.2,0.3-0.3,0.5-0.3l0,0l8.7,2.3
		c0.2,0.1,0.3,0.3,0.3,0.5c0,0,0,0,0,0C171,119.4,170.8,119.5,170.6,119.5L170.6,119.5z"/>
	<path class="st8" d="M170.3,120.6l-8.7-2.3c-0.2-0.1-0.3-0.3-0.3-0.5c0,0,0,0,0,0c0.1-0.2,0.3-0.3,0.5-0.3l0,0l8.7,2.3
		c0.2,0.1,0.3,0.3,0.3,0.5l0,0C170.7,120.5,170.5,120.7,170.3,120.6L170.3,120.6z"/>
	<path class="st8" d="M170,121.8l-8.7-2.3c-0.2-0.1-0.3-0.3-0.3-0.5l0,0c0.1-0.2,0.3-0.3,0.5-0.3l0,0l8.7,2.3
		c0.2,0.1,0.3,0.3,0.3,0.5c0,0,0,0,0,0C170.4,121.7,170.2,121.8,170,121.8C170,121.8,170,121.8,170,121.8z"/>
	<path class="st8" d="M173.6,104.1l-6.6-1.7c-0.4-0.1-0.7-0.6-0.6-1l0.2-0.6c0.1-0.4,0.6-0.7,1-0.6l6.6,1.7c0.4,0.1,0.7,0.6,0.6,1
		l-0.2,0.6C174.5,103.9,174,104.2,173.6,104.1z M167.4,100.9C167.4,100.9,167.4,100.9,167.4,100.9l-0.2,0.6c0,0,0,0,0,0l6.6,1.7
		c0,0,0,0,0,0l0.2-0.6c0,0,0,0,0,0L167.4,100.9z"/>
	<path class="st8" d="M163.1,127.8l-42.7-11.2c-1.5-0.4-2.5-2-2.1-3.5l0.2-0.9c0.1-0.3,0.4-0.5,0.7-0.4h0c0.3,0.1,0.5,0.4,0.4,0.7
		l0,0l-0.2,0.9c-0.2,0.9,0.3,1.8,1.2,2.1l42.7,11.2c0.9,0.2,1.8-0.3,2.1-1.2l0.2-0.9c0.1-0.3,0.4-0.5,0.7-0.4h0
		c0.3,0.1,0.5,0.4,0.4,0.7l0,0l-0.2,0.9C166.2,127.3,164.7,128.2,163.1,127.8z"/>
	<path class="st8" d="M115.1,126.7c-0.5-0.1-0.8-0.4-1-0.9c-0.2-0.4-0.1-0.9,0.1-1.3l5.8-8.8c0.2-0.3,0.6-0.4,0.8-0.2
		c0.3,0.2,0.4,0.6,0.2,0.8l-5.8,8.8c0,0.1-0.1,0.1,0,0.2c0,0.1,0.1,0.1,0.2,0.1c0.1,0,0.2,0,0.2-0.1l7.6-9c0.2-0.3,0.6-0.3,0.9-0.1
		c0.3,0.2,0.3,0.6,0.1,0.9c0,0,0,0,0,0l-7.6,9C116.2,126.7,115.7,126.8,115.1,126.7z"/>
	<path class="st8" d="M119.3,124.6c-0.8-0.2-1.2-1-1-1.8c0-0.2,0.1-0.3,0.2-0.4l0.5-0.8c0.2-0.3,0.6-0.4,0.8-0.2
		c0.3,0.2,0.4,0.6,0.2,0.8h0l-0.5,0.8c0,0,0,0,0,0.1c0,0.1,0,0.3,0.2,0.3c0.1,0,0.2,0,0.2-0.1l5.4-6.4c0.2-0.3,0.6-0.3,0.9-0.1
		c0.3,0.2,0.3,0.6,0.1,0.9c0,0,0,0,0,0l-5.4,6.4C120.4,124.5,119.8,124.7,119.3,124.6z"/>
	<path class="st8" d="M162.8,139.2c-0.5-0.1-1-0.6-1.1-1.1l-2.2-11.6c-0.1-0.3,0.2-0.6,0.5-0.7l0,0c0.3-0.1,0.6,0.2,0.7,0.5
		l2.2,11.6c0,0.1,0.1,0.2,0.2,0.2c0.1,0,0.2,0,0.2,0c0.1,0,0.1-0.1,0.1-0.2l-0.7-10.5c0-0.3,0.2-0.6,0.6-0.6s0.6,0.2,0.6,0.6l0,0
		l0.7,10.5c0,0.5-0.2,0.9-0.5,1.2C163.7,139.2,163.2,139.3,162.8,139.2z"/>
	<path class="st8" d="M160.2,135.3c-0.5-0.1-1-0.6-1.1-1.1l-1.6-8.2c-0.1-0.3,0.2-0.6,0.5-0.7l0,0c0.3-0.1,0.6,0.2,0.7,0.5l1.6,8.2
		c0,0.1,0.1,0.2,0.2,0.2c0.1,0,0.3,0,0.3-0.2c0,0,0-0.1,0-0.1l-0.1-1c0-0.3,0.2-0.6,0.6-0.6c0,0,0,0,0,0c0.3,0,0.6,0.2,0.6,0.6
		l0.1,1c0,0.2,0,0.3,0,0.5C161.7,135.1,160.9,135.5,160.2,135.3z"/>
	<path class="st8" d="M153.2,76.7c0.2,0.1,0.5,0,0.7-0.2c0.7-1,2.5-1.4,4.2-1c1.7,0.5,3.1,1.7,3.2,2.9c0,0.3,0.3,0.6,0.7,0.5
		c0,0,0,0,0,0c0.3,0,0.6-0.3,0.5-0.7l0,0c-0.2-1.8-1.9-3.4-4.1-4c-2.2-0.6-4.5,0-5.5,1.4c-0.2,0.3-0.1,0.7,0.1,0.8
		C153.1,76.7,153.1,76.7,153.2,76.7z"/>
	<path class="st8" d="M156.1,75.3c0.1,0,0.2,0,0.3,0c0.3-0.1,0.5-0.4,0.4-0.7c0,0,0,0,0,0l-5-18.4c-0.1-0.3-0.4-0.5-0.7-0.4
		s-0.5,0.4-0.4,0.7l0,0l5,18.4C155.8,75.1,155.9,75.2,156.1,75.3z"/>
	<path class="st8" d="M159.4,76c0.2,0.1,0.5,0,0.7-0.2L172,58.5c0.2-0.3,0.1-0.7-0.2-0.8h0c-0.3-0.2-0.7-0.1-0.8,0.2l-11.9,17.3
		c-0.2,0.3-0.1,0.7,0.2,0.8l0,0C159.3,76,159.4,76,159.4,76z"/>
	<path class="st8" d="M171.2,58.7c-0.5-0.4-0.8-0.9-0.9-1.6c-0.1-0.6,0.1-1.2,0.5-1.7c0.4-0.5,0.9-0.8,1.6-0.9
		c0.6-0.1,1.2,0.1,1.7,0.5c0.5,0.4,0.8,0.9,0.9,1.6c0.1,0.6-0.1,1.2-0.5,1.7c-0.4,0.5-0.9,0.8-1.6,0.9c-0.3,0-0.6,0-0.9-0.1
		C171.7,59,171.4,58.8,171.2,58.7z M172.4,55.7c-0.3,0-0.6,0.2-0.7,0.4c-0.2,0.2-0.3,0.5-0.2,0.8c0,0.3,0.2,0.6,0.4,0.7
		c0.2,0.2,0.5,0.3,0.8,0.2c0.3,0,0.6-0.2,0.7-0.4c0.2-0.2,0.3-0.5,0.2-0.8c0-0.3-0.2-0.6-0.4-0.7c-0.1-0.1-0.3-0.2-0.4-0.2
		C172.7,55.7,172.6,55.7,172.4,55.7L172.4,55.7z"/>
	<path class="st8" d="M149.8,56.4c-1-0.8-1.2-2.3-0.4-3.3c0.4-0.5,0.9-0.8,1.6-0.9c0.6-0.1,1.2,0.1,1.7,0.5c1,0.8,1.2,2.3,0.4,3.3
		c-0.6,0.7-1.5,1.1-2.5,0.8C150.3,56.7,150,56.6,149.8,56.4z M151.1,53.4c-0.3,0-0.6,0.2-0.7,0.4c-0.4,0.5-0.3,1.2,0.2,1.6
		c0.5,0.4,1.2,0.3,1.6-0.2c0.4-0.5,0.3-1.2-0.2-1.6c-0.1-0.1-0.3-0.2-0.4-0.2C151.4,53.4,151.2,53.4,151.1,53.4L151.1,53.4z"/>
	<path class="st8" d="M173,92.9c-0.4-0.1-0.7-0.3-1.1-0.5c-0.5-0.3-0.9-0.8-1.2-1.3c-0.5-0.9-0.6-1.9-0.4-2.8c0.5-2,2.6-3.2,4.6-2.7
		c0.4,0.1,0.7,0.3,1.1,0.5c0.2,0.1,0.2,0.4,0.1,0.6h0c-0.1,0.2-0.4,0.2-0.6,0.1c-0.3-0.2-0.5-0.3-0.8-0.4c-1.6-0.4-3.2,0.5-3.6,2.1
		c-0.2,0.7-0.1,1.5,0.3,2.2c0.2,0.4,0.6,0.8,1,1c0.3,0.2,0.5,0.3,0.8,0.4c1.6,0.4,3.2-0.5,3.6-2.1c0.2-0.7,0.1-1.5-0.3-2.2
		c-0.1-0.2,0-0.4,0.2-0.6c0,0,0,0,0,0c0.2-0.1,0.4,0,0.6,0.2l0,0c0.5,0.9,0.6,1.9,0.4,2.8C177.1,92.2,175,93.4,173,92.9z"/>
	<path class="st8" d="M172.1,92.4c0,0-0.1,0-0.1-0.1c-0.5-0.3-0.9-0.8-1.2-1.3c-0.1-0.2-0.1-0.4,0.1-0.5l4.7-4.5
		c0.2-0.1,0.4-0.2,0.6-0.2c0.2,0,0.4,0.1,0.5,0.2l0.6,0.6l0,0c0.1,0.2,0.2,0.4,0.2,0.6c0,0.2-0.1,0.4-0.2,0.5l0,0l-4.7,4.5
		C172.3,92.4,172.2,92.5,172.1,92.4z M171.6,90.9c0.2,0.2,0.3,0.4,0.6,0.6l4.5-4.2l-0.6-0.6L171.6,90.9z M176.6,87.3L176.6,87.3
		L176.6,87.3z"/>
	<path class="st8" d="M171,100.6c-0.7-0.2-1.3-0.5-1.8-1c-0.3-0.3-0.5-0.6-0.7-1c-0.3-0.6-0.4-1.2-0.4-1.8c0-1,0.4-1.9,1.2-2.6
		c1.5-1.4,3.9-1.4,5.3,0.1c0.3,0.3,0.5,0.6,0.7,1c0.1,0.2,0,0.4-0.2,0.5c0,0,0,0,0,0c-0.2,0.1-0.4,0-0.5-0.2c0,0,0,0,0,0
		c-0.1-0.3-0.3-0.5-0.5-0.8c-1.1-1.2-3-1.2-4.2-0.1c-0.6,0.5-0.9,1.3-0.9,2c0,0.5,0.1,1,0.3,1.4c0.1,0.3,0.3,0.5,0.5,0.8
		c1.1,1.2,3,1.2,4.2,0.1c0.6-0.5,0.9-1.3,0.9-2c0-0.2,0.2-0.4,0.4-0.4h0c0.2,0,0.4,0.2,0.4,0.4c0,1-0.4,1.9-1.2,2.6
		C173.6,100.6,172.2,100.9,171,100.6z"/>
	<path class="st8" d="M168.8,98.8c-0.1,0-0.2-0.1-0.3-0.2c-0.3-0.6-0.4-1.2-0.4-1.8c0-0.2,0.1-0.3,0.3-0.4l6.4-1.4
		c0.4-0.1,0.8,0.2,0.9,0.6l0.2,0.8l0,0c0,0.2,0,0.4-0.1,0.6c-0.1,0.2-0.3,0.3-0.5,0.3l0,0l-6.4,1.4
		C168.9,98.8,168.9,98.8,168.8,98.8z M169,97.1c0,0.3,0.1,0.5,0.2,0.8l6-1.3l-0.2-0.8L169,97.1z"/>
	<path class="st8" d="M167.3,102.1c-0.1,0-0.1-0.1-0.1-0.1l0.4-1.4c0-0.1,0.1-0.1,0.1-0.1c0.1,0,0.1,0.1,0.1,0.1l-0.4,1.4
		C167.5,102.1,167.4,102.1,167.3,102.1z"/>
	<path class="st8" d="M168.1,102.3c-0.1,0-0.1-0.1-0.1-0.1l0.4-1.4c0-0.1,0.1-0.1,0.1-0.1c0.1,0,0.1,0.1,0.1,0.1l-0.4,1.4
		C168.2,102.3,168.2,102.3,168.1,102.3z"/>
	<path class="st8" d="M168.9,102.5c-0.1,0-0.1-0.1-0.1-0.1l0.4-1.4c0-0.1,0.1-0.1,0.1-0.1c0.1,0,0.1,0.1,0.1,0.1l-0.4,1.4
		C169,102.5,168.9,102.5,168.9,102.5z"/>
	<path class="st8" d="M169.6,102.7c-0.1,0-0.1-0.1-0.1-0.1l0.4-1.4c0-0.1,0.1-0.1,0.1-0.1c0.1,0,0.1,0.1,0.1,0.1l-0.4,1.4
		C169.7,102.7,169.7,102.7,169.6,102.7z"/>
	<path class="st8" d="M170.4,102.9c-0.1,0-0.1-0.1-0.1-0.1l0.4-1.4c0-0.1,0.1-0.1,0.1-0.1c0.1,0,0.1,0.1,0.1,0.1l-0.4,1.4
		C170.5,102.9,170.4,102.9,170.4,102.9z"/>
	<path class="st8" d="M171.1,103.1c-0.1,0-0.1-0.1-0.1-0.1l0.4-1.4c0-0.1,0.1-0.1,0.1-0.1c0.1,0,0.1,0.1,0.1,0.1l-0.4,1.4
		C171.3,103.1,171.2,103.1,171.1,103.1z"/>
	<path class="st8" d="M171.9,103.3c-0.1,0-0.1-0.1-0.1-0.1l0.4-1.4c0-0.1,0.1-0.1,0.1-0.1c0.1,0,0.1,0.1,0.1,0.1l-0.4,1.4
		C172,103.3,172,103.3,171.9,103.3z"/>
	<path class="st8" d="M172.7,103.5c-0.1,0-0.1-0.1-0.1-0.1l0.4-1.4c0-0.1,0.1-0.1,0.1-0.1c0.1,0,0.1,0.1,0.1,0.1l-0.4,1.4
		C172.8,103.5,172.7,103.5,172.7,103.5z"/>
	<path class="st8" d="M173.4,103.7c-0.1,0-0.1-0.1-0.1-0.1l0.4-1.4c0-0.1,0.1-0.1,0.1-0.1c0.1,0,0.1,0.1,0.1,0.1l-0.4,1.4
		C173.5,103.7,173.5,103.7,173.4,103.7z"/>
</g>
<g id="Calque_4">
	<rect x="5.8" y="5.8" class="st10" width="179.8" height="179.8"/>
</g>
</svg>
