<?xml version="1.0" encoding="utf-8"?>
<!-- Generator: Adobe Illustrator 25.4.1, SVG Export Plug-In . SVG Version: 6.00 Build 0)  -->
<svg version="1.1" id="Calque_1" xmlns="http://www.w3.org/2000/svg" xmlns:xlink="http://www.w3.org/1999/xlink" x="0px" y="0px"
	 viewBox="0 0 191.5 191.5" style="enable-background:new 0 0 191.5 191.5;" xml:space="preserve">
<style type="text/css">
	.st0{fill:#F1F2F2;}
	.st1{font-family:'Heavitas';}
	.st2{font-size:42.8721px;}
	.st3{opacity:0.51;fill:#BFC3CB;enable-background:new    ;}
	.st4{fill:#F9D9DB;}
	.st5{fill:#EF3E28;}
	.st6{opacity:0.35;fill:#94322B;enable-background:new    ;}
	.st7{opacity:0.57;fill:#FFFFFF;enable-background:new    ;}
	.st8{fill:#FFFFFF;}
	.st9{fill:none;}
</style>
<text transform="matrix(1 0 0 1 25.2855 119.4719)" class="st0 st1 st2">HOT</text>
<path class="st3" d="M126.8,139.8c-8-3.2-11.9-12.3-8.7-20.3c2.4-5.8,8-9.7,14.3-9.8l22.2-55.4c1.2-3.1,4.7-4.6,7.8-3.3
	c1.5,0.6,2.7,1.7,3.3,3.2c0.6,1.5,0.6,3.1,0.1,4.6l-22.2,55.4c4.5,4.4,5.9,11.1,3.6,17C143.9,139.1,134.8,143,126.8,139.8z"/>
<path class="st4" d="M146.3,130.2c-3.1,7.7-11.8,11.4-19.4,8.3c-7.7-3.1-11.4-11.8-8.3-19.4c2.3-5.8,7.9-9.5,14.1-9.4L155,53.9
	c1.1-2.7,4.2-4,6.9-3c0,0,0,0,0,0c1.3,0.5,2.4,1.5,2.9,2.8c0.6,1.3,0.6,2.8,0,4.1l-22.4,55.8C147.1,117.9,148.6,124.5,146.3,130.2z"
	/>
<path class="st5" d="M146.3,130.2c-3.1,7.7-11.8,11.4-19.4,8.3c-7.7-3.1-11.4-11.8-8.3-19.4c2.3-5.8,7.9-9.5,14.1-9.4L150.6,65
	l9.9,4l-17.9,44.7C147.1,117.9,148.6,124.5,146.3,130.2z"/>
<path class="st6" d="M142.5,113.7l22.4-55.8c0.5-1.3,0.5-2.8,0-4.1c-0.6-1.3-1.6-2.3-2.9-2.8c-2.7-1.1-5.8,0.2-6.9,3c0,0,0,0,0,0
	l-22.4,55.8c-6.2-0.1-11.8,3.6-14.1,9.4c-3.1,7.7,0.7,16.4,8.3,19.4c7.7,3.1,16.4-0.7,19.4-8.3C148.6,124.5,147.1,117.9,142.5,113.7
	z M127.2,137.6c-7.1-2.9-10.6-11-7.8-18.1c2.2-5.4,7.4-8.8,13.2-8.8l0.7,0l22.6-56.4c0.9-2.2,3.4-3.3,5.6-2.4
	c1.1,0.4,1.9,1.3,2.4,2.3c0.5,1.1,0.5,2.2,0,3.3l-22.6,56.4l0.5,0.5c4.2,3.9,5.6,10.1,3.5,15.5C142.5,137,134.3,140.5,127.2,137.6z"
	/>
<path class="st7" d="M130.3,120.9c-2.4,0.8-4.9,2.6-6.9,2.1c-2.1-0.4-1.9-6.4,4-9c5.9-2.4,10.4,1.6,9.3,3.4
	C135.6,119.2,132.5,119.8,130.3,120.9z"/>
<path class="st5" d="M113.4,50.6h21.2c2.3,0,4.2,1.9,4.2,4.2v5.4c0,0.4,0.2,0.8,0.6,1l5.2,2.4c1,0.5,1.4,1.6,0.9,2.6
	c-0.2,0.4-0.5,0.8-0.9,0.9l-5.2,2.4c-0.4,0.2-0.6,0.6-0.6,1V76c0,2.3-1.9,4.2-4.2,4.2h-21.2c-2.3,0-4.2-1.9-4.2-4.2V54.7
	C109.2,52.4,111.1,50.6,113.4,50.6z"/>
<path class="st8" d="M131.7,66h2.7c0.4,0,0.7-0.3,0.7-0.7c0-0.4-0.3-0.7-0.7-0.7h-2.7c-0.4,0-0.7,0.3-0.7,0.7
	C131,65.7,131.3,66,131.7,66z"/>
<path class="st8" d="M113.7,66h2.7c0.4,0,0.7-0.3,0.7-0.7c0-0.4-0.3-0.7-0.7-0.7h-2.7c-0.4,0-0.7,0.3-0.7,0.7
	C113.1,65.7,113.3,66,113.7,66z"/>
<path class="st8" d="M132.9,71.2c0.2,0,0.5-0.1,0.6-0.3c0.2-0.3,0.1-0.7-0.2-0.9l-2.3-1.3c-0.3-0.2-0.7-0.1-0.9,0.2
	c-0.2,0.3-0.1,0.7,0.2,0.9l2.3,1.3C132.7,71.1,132.8,71.2,132.9,71.2z"/>
<path class="st8" d="M117.4,62.2c0.2,0,0.5-0.1,0.6-0.3c0.2-0.3,0.1-0.7-0.2-0.9l-2.3-1.3c-0.3-0.2-0.7-0.1-0.9,0.2
	c-0.2,0.3-0.1,0.7,0.2,0.9l2.3,1.3C117.2,62.2,117.3,62.2,117.4,62.2z"/>
<path class="st8" d="M129.2,74.9c0.1,0,0.2,0,0.3-0.1c0.3-0.2,0.4-0.6,0.2-0.9l-1.3-2.3c-0.2-0.3-0.6-0.4-0.9-0.2c0,0,0,0,0,0
	c-0.3,0.2-0.4,0.6-0.2,0.9l1.3,2.3C128.7,74.8,128.9,74.9,129.2,74.9z"/>
<path class="st8" d="M120.2,59.4c0.1,0,0.2,0,0.3-0.1c0.3-0.2,0.4-0.6,0.2-0.9l-1.3-2.3c-0.2-0.3-0.6-0.4-0.9-0.2c0,0,0,0,0,0
	c-0.3,0.2-0.4,0.6-0.2,0.9l1.3,2.3C119.7,59.3,120,59.4,120.2,59.4z"/>
<path class="st8" d="M124,76.3c0.4,0,0.7-0.3,0.7-0.7V73c0-0.4-0.3-0.7-0.7-0.7s-0.7,0.3-0.7,0.7v2.7C123.4,76,123.6,76.3,124,76.3z
	"/>
<path class="st8" d="M124,58.4c0.4,0,0.7-0.3,0.7-0.7V55c0-0.4-0.3-0.7-0.7-0.7s-0.7,0.3-0.7,0.7v2.7
	C123.4,58.1,123.6,58.4,124,58.4z"/>
<path class="st8" d="M118.9,74.9c0.2,0,0.5-0.1,0.6-0.3l1.3-2.3c0.2-0.3,0.1-0.7-0.2-0.9c-0.3-0.2-0.7-0.1-0.9,0.2l0,0l-1.3,2.3
	c-0.2,0.3-0.1,0.7,0.2,0.9C118.6,74.9,118.7,74.9,118.9,74.9z"/>
<path class="st8" d="M127.8,59.4c0.2,0,0.5-0.1,0.6-0.3l1.3-2.3c0.2-0.3,0.1-0.7-0.2-0.9c-0.3-0.2-0.7-0.1-0.9,0.2l-1.3,2.3
	c-0.2,0.3-0.1,0.7,0.2,0.9C127.6,59.4,127.7,59.4,127.8,59.4z"/>
<path class="st8" d="M115.1,71.2c0.1,0,0.2,0,0.3-0.1l2.3-1.3c0.3-0.2,0.4-0.6,0.2-0.9c-0.2-0.3-0.6-0.4-0.9-0.2l-2.3,1.3
	c-0.3,0.2-0.4,0.6-0.2,0.9C114.6,71,114.9,71.2,115.1,71.2z"/>
<path class="st8" d="M130.6,62.2c0.1,0,0.2,0,0.3-0.1l2.3-1.3c0.3-0.2,0.4-0.6,0.2-0.9c-0.2-0.3-0.6-0.4-0.9-0.2l-2.3,1.3
	c-0.3,0.2-0.4,0.6-0.2,0.9C130.2,62.1,130.4,62.2,130.6,62.2z"/>
<circle class="st8" cx="124" cy="65.4" r="5"/>
<g id="Calque_4">
	<rect x="17.5" y="17.5" class="st9" width="156.5" height="156.5"/>
</g>
</svg>
