<?xml version="1.0" encoding="utf-8"?>
<!-- Generator: Adobe Illustrator 25.4.1, SVG Export Plug-In . SVG Version: 6.00 Build 0)  -->
<svg version="1.1" id="Calque_1" xmlns="http://www.w3.org/2000/svg" xmlns:xlink="http://www.w3.org/1999/xlink" x="0px" y="0px"
	 viewBox="0 0 160.8 90.7" style="enable-background:new 0 0 160.8 90.7;" xml:space="preserve">
<style type="text/css">
	.st0{fill:#BE202E;}
	.st1{fill:#FFFFFF;}
	.st2{fill:#F2F2F2;}
	.st3{font-family:'Heavitas';}
	.st4{font-size:32.1429px;}
</style>
<path class="st0" d="M40.4,31.9c0,0,2.7,42.3,13.6,48.4c11,6.2,48.4-13.6,48.4-13.6c12.9-5.2,21.2-17.7,17.4-31
	c-3.8-13.4-18.3-20.1-31.6-16.3C84.5,6,71.2-2.9,57.8,0.9C44.5,4.6,38.1,18.2,40.4,31.9"/>
<path class="st0" d="M45.9,86.2c-2-0.8,5.7-5.6,7.6-4.5c1.9,1.1,2.2,8.1,0.1,8.8C51.2,91.4,52.6,89,45.9,86.2"/>
<path class="st1" d="M112.9,35.5c-1,1.8-4.6,1.6-8.1-0.3c-3.5-2-5.5-5-4.5-6.8c1-1.8,4.6-1.6,8.1,0.3
	C111.8,30.7,113.9,33.7,112.9,35.5"/>
<path class="st1" d="M115.6,41.2c-0.7,1.2-2.3,1.7-3.5,1l0,0c-1.2-0.7-1.7-2.3-1-3.5l0,0c0.7-1.2,2.3-1.7,3.5-1c0,0,0,0,0,0h0
	C115.8,38.4,116.3,40,115.6,41.2"/>
<text transform="matrix(1 0 0 1 0 71.0962)" class="st2 st3 st4">sympas</text>
</svg>
