<?xml version="1.0" encoding="utf-8"?>
<!-- Generator: Adobe Illustrator 25.4.1, SVG Export Plug-In . SVG Version: 6.00 Build 0)  -->
<svg version="1.1" id="Calque_1" xmlns="http://www.w3.org/2000/svg" xmlns:xlink="http://www.w3.org/1999/xlink" x="0px" y="0px"
	 viewBox="0 0 191.5 191.5" style="enable-background:new 0 0 191.5 191.5;" xml:space="preserve">
<style type="text/css">
	.st0{fill:url(#SVGID_1_);}
	.st1{fill:#F1F2F2;}
	.st2{font-family:'Heavitas';}
	.st3{font-size:18.9718px;}
	.st4{fill:none;}
</style>
<linearGradient id="SVGID_1_" gradientUnits="userSpaceOnUse" x1="1073.7245" y1="1987.8994" x2="1073.7245" y2="1952.2008" gradientTransform="matrix(1 0 0 -1 -977.9797 2066.6716)">
	<stop  offset="0" style="stop-color:#F1A420"/>
	<stop  offset="1" style="stop-color:#F0562F"/>
</linearGradient>
<path class="st0" d="M65.5,127.9c5.4-7.1,9.1-12.8,9.1-12.8c-5.9,12.3,3.6,16.3,3.6,16.3c9.8-34.3,26.2-42.9,26.2-42.9
	c-7.9,19,14.8,31.2,17.8,43.9c0.5,2,3.3,10,4.1,19.4c18.7-18.8,28.4-49.9,15.9-71c-7-11.7-11.5-21.1-11.5-21.1
	c6.7,19.7-8.3,24.1-8.3,24.1C113.5,29.9,90.1,14,90.1,14c8.6,30.2-22.4,40.5-34.8,63.4c-3.2,6-27.7,56,6.2,80
	C58.7,146.9,59.4,135.8,65.5,127.9z"/>
<text transform="matrix(1 0 0 1 64.4714 152.4938)" class="st1 st2 st3">VERY</text>
<text transform="matrix(1 0 0 1 72.4011 175.2599)" class="st1 st2 st3">HOT</text>
<g id="Calque_4">
	<rect x="12.9" y="12.9" class="st4" width="165.7" height="165.7"/>
</g>
</svg>
