<svg id="Calque_190" data-name="Calque 190" xmlns="http://www.w3.org/2000/svg" viewBox="0 0 605.06 433.52"><defs><style>.cls-1{fill:#e5e5e5;}</style></defs><path class="cls-1" d="M1862.14-4140.5H1281.08a12,12,0,0,0-12,12v324.77a12,12,0,0,0,12,12H1572.4c-9-9.26-18.31-18.82-27.3-28.43s-12.7-21.76-10.4-33.55c2.2-11.26,9.76-20.62,20.73-25.69a34.92,34.92,0,0,1,30.5.53q-2.49-7.26-5-14.59l-2.36.39c-.39.06-1.17.28-1.86.48a27.75,27.75,0,0,1-7.5,1.28,15.78,15.78,0,0,1-5.45-1c-19.46-7.14-34.13-20.25-43.59-39a82.87,82.87,0,0,1-3-68.77,82.61,82.61,0,0,1,50.15-46.87,81.55,81.55,0,0,1,79.37,15.14,81.63,81.63,0,0,1,28.26,75.46,12.81,12.81,0,0,1-3.34,8.3l-1,1a34.47,34.47,0,0,1,5.88,5.15c16.54-8.52,29-3.55,38.07,3.7,10-4.69,17.9-4,23.18-2.2,6.59,2.2,15.54,8.14,20.8,24,2.1,6.36,4.4,12.85,6.62,19.13,6,16.88,12.17,34.33,15.74,52.4,3.47,17.52,5.26,35.4,6.64,53h74.59a12,12,0,0,0,12-12V-4128.5A12,12,0,0,0,1862.14-4140.5Zm-460.91,30.42a1.81,1.81,0,0,1-.49,1.26,1.69,1.69,0,0,1-1.29.52H1389.1a1.71,1.71,0,0,0-1.26.51,1.75,1.75,0,0,0-.52,1.26v37a1.76,1.76,0,0,1-.48,1.25,1.66,1.66,0,0,1-1.29.52h-11.09a1.68,1.68,0,0,1-1.26-.52,1.68,1.68,0,0,1-.52-1.25v-37a1.8,1.8,0,0,0-.48-1.26,1.69,1.69,0,0,0-1.29-.51H1360.4a1.71,1.71,0,0,1-1.25-.52,1.71,1.71,0,0,1-.52-1.26v-10.06a1.68,1.68,0,0,1,.52-1.25,1.68,1.68,0,0,1,1.25-.52h39a1.66,1.66,0,0,1,1.29.52,1.77,1.77,0,0,1,.49,1.25Zm53.46,41.6a.92.92,0,0,1-1,.7H1440a3.62,3.62,0,0,1-1.6-.41,3.51,3.51,0,0,1-1.29-1q-2.35-3.11-4.67-6.29t-4.6-6.43a3.44,3.44,0,0,0-1.25-1,3.49,3.49,0,0,0-1.55-.41h-1.62a1.68,1.68,0,0,0-1.25.52,1.71,1.71,0,0,0-.51,1.26v12a1.69,1.69,0,0,1-.53,1.25,1.68,1.68,0,0,1-1.26.52h-11.07a1.72,1.72,0,0,1-1.27-.52,1.71,1.71,0,0,1-.52-1.25v-50.59a1.71,1.71,0,0,1,.52-1.25,1.7,1.7,0,0,1,1.26-.52h23a21.27,21.27,0,0,1,7.91,1.44,17.86,17.86,0,0,1,6.17,4,18.64,18.64,0,0,1,4,6.14,20.69,20.69,0,0,1,1.44,7.84,20.65,20.65,0,0,1-.55,4.69,20.75,20.75,0,0,1-1.59,4.4,19.6,19.6,0,0,1-2.44,3.74,13.5,13.5,0,0,1-3.19,2.77,2.09,2.09,0,0,0-.77,1.07,1.29,1.29,0,0,0,.26,1.22q2.81,3.71,5.91,7.62c2.07,2.61,3.92,5,5.55,7.17A1.36,1.36,0,0,1,1454.69-4068.48Zm59.35,0a1.67,1.67,0,0,1-1.59.74H1499.8a2.66,2.66,0,0,1-1.52-.48,3.44,3.44,0,0,1-1.07-1.15l-2-4.43a3.25,3.25,0,0,0-1.07-1.15,2.53,2.53,0,0,0-1.44-.48h-15.6a2.63,2.63,0,0,0-1.52.48,2.73,2.73,0,0,0-1,1.15l-2.07,4.43a2.73,2.73,0,0,1-1,1.15,2.53,2.53,0,0,1-1.44.48h-12.72a2.23,2.23,0,0,1-.77-.15,1.57,1.57,0,0,1-.67-.44,1.48,1.48,0,0,1-.33-.74,1.71,1.71,0,0,1,.22-1l21.45-50.06a2.69,2.69,0,0,1,1-1.15,2.66,2.66,0,0,1,1.52-.48h10.35a2.53,2.53,0,0,1,1.44.48,2.72,2.72,0,0,1,1,1.15l21.6,50.29A1.53,1.53,0,0,1,1514-4068.52Zm15.86-20.84a14,14,0,0,0,2.88,4.49,14.85,14.85,0,0,0,4.33,3.11,12.09,12.09,0,0,0,5.29,1.19,14.13,14.13,0,0,0,7.35-2,15.1,15.1,0,0,0,5.22-5.07,2.26,2.26,0,0,1,1.07-.89,1.89,1.89,0,0,1,1.44,0l10.5,4.15a1.52,1.52,0,0,1,.89.92,1.5,1.5,0,0,1-.15,1.29,42.29,42.29,0,0,1-4.73,6.3,27,27,0,0,1-5.81,4.82,28.12,28.12,0,0,1-7.13,3.09,32.14,32.14,0,0,1-8.65,1.1,27.85,27.85,0,0,1-11.1-2.22,29.39,29.39,0,0,1-9-6,27.52,27.52,0,0,1-6.11-8.87,27.12,27.12,0,0,1-2.21-10.87,27.09,27.09,0,0,1,2.21-10.87,27.67,27.67,0,0,1,6.11-8.88,29.57,29.57,0,0,1,9-6,27.85,27.85,0,0,1,11.1-2.21,32.75,32.75,0,0,1,8.8,1.1,27.3,27.3,0,0,1,7.1,3.11,27,27,0,0,1,5.73,4.84,47.18,47.18,0,0,1,4.69,6.25,1.41,1.41,0,0,1,.15,1.26,1.54,1.54,0,0,1-.89,1l-10.5,4.14a1.9,1.9,0,0,1-1.48,0,2.24,2.24,0,0,1-1.11-.88,15.64,15.64,0,0,0-5.17-5.22,14,14,0,0,0-7.32-1.81,12.09,12.09,0,0,0-5.29,1.19,14.44,14.44,0,0,0-4.33,3.15,14.37,14.37,0,0,0-2.88,4.56,14.3,14.3,0,0,0-1,5.34A14.18,14.18,0,0,0,1529.9-4089.36Zm94,20.84a.87.87,0,0,1-1,.74h-15.31a4.06,4.06,0,0,1-1.66-.37,3.23,3.23,0,0,1-1.3-1l-14.34-16c-.35-.39-.63-.54-.85-.44s-.34.39-.34.89v15.16a1.71,1.71,0,0,1-.51,1.25,1.71,1.71,0,0,1-1.26.52h-11.09a1.67,1.67,0,0,1-1.3-.52,1.76,1.76,0,0,1-.48-1.25v-50.59a1.76,1.76,0,0,1,.48-1.25,1.67,1.67,0,0,1,1.3-.52h11.09a1.71,1.71,0,0,1,1.26.52,1.71,1.71,0,0,1,.51,1.25v17c0,.5.1.78.3.85s.44-.08.74-.48l13.31-17.67a3.39,3.39,0,0,1,1.26-1,3.6,3.6,0,0,1,1.62-.41h14.13a1,1,0,0,1,1,.71,1.34,1.34,0,0,1-.22,1.29l-19.45,24.33a2,2,0,0,0-.4,1.37,1.86,1.86,0,0,0,.55,1.29c1.68,1.83,3.45,3.72,5.33,5.7s3.73,4,5.58,6l5.47,5.91q2.7,2.92,5.14,5.44A1.5,1.5,0,0,1,1623.89-4068.52Zm37-15.34a26.84,26.84,0,0,1-9.45,1.51H1645a1.72,1.72,0,0,0-1.26.52,1.71,1.71,0,0,0-.52,1.26v11a1.68,1.68,0,0,1-.52,1.25,1.68,1.68,0,0,1-1.25.52h-11.11a1.68,1.68,0,0,1-1.25-.52,1.71,1.71,0,0,1-.51-1.25v-50.59a1.68,1.68,0,0,1,.52-1.25,1.68,1.68,0,0,1,1.25-.52H1653a19.85,19.85,0,0,1,7.8,1.55,19.72,19.72,0,0,1,6.36,4.29,21.09,21.09,0,0,1,4.29,6.36,19.15,19.15,0,0,1,1.59,7.77,21.93,21.93,0,0,1-1.33,7.72,16.62,16.62,0,0,1-4,6.22A19.34,19.34,0,0,1,1660.87-4083.86Zm66,15.34a1.67,1.67,0,0,1-1.59.74h-12.65a2.66,2.66,0,0,1-1.52-.48,3.44,3.44,0,0,1-1.07-1.15l-2-4.43A3.25,3.25,0,0,0,1707-4075a2.53,2.53,0,0,0-1.44-.48h-15.6a2.63,2.63,0,0,0-1.52.48,2.73,2.73,0,0,0-1,1.15l-2.07,4.43a2.73,2.73,0,0,1-1,1.15,2.51,2.51,0,0,1-1.44.48h-12.72a2.23,2.23,0,0,1-.77-.15,1.57,1.57,0,0,1-.67-.44,1.48,1.48,0,0,1-.33-.74,1.71,1.71,0,0,1,.22-1l21.45-50.06a2.69,2.69,0,0,1,1-1.15,2.66,2.66,0,0,1,1.52-.48h10.35a2.51,2.51,0,0,1,1.44.48,2.72,2.72,0,0,1,1,1.15l21.6,50.29A1.53,1.53,0,0,1,1726.87-4068.52Zm52.46-14.83a24.17,24.17,0,0,1-6.06,8.84,25.13,25.13,0,0,1-8.47,5,31.28,31.28,0,0,1-10.54,1.7h-20.18a1.68,1.68,0,0,1-1.26-.52,1.68,1.68,0,0,1-.52-1.25v-50.59a1.68,1.68,0,0,1,.52-1.25,1.68,1.68,0,0,1,1.26-.52h20.18q11.61,0,19,6.8a24.36,24.36,0,0,1,6.06,8.8,30.28,30.28,0,0,1,2.07,11.47A30.46,30.46,0,0,1,1779.33-4083.35Z" transform="translate(-1269.08 4140.5)"/><path class="cls-1" d="M1607.21-3846.1q-19.32-56.42-38.6-112.85c-4.31-12.65-.64-24.09,9.53-30.71a24.8,24.8,0,0,1,37.08,11.8c2.83,7.32,5.17,14.83,7.72,22.26s5.08,14.83,7.1,20.73c8.19-2.15,15.84-5.58,23.57-5.79,8.57-.23,14.36,6.37,18.43,13.75,17.74-13.62,28.63-8.86,39.49,2.37,16-11.14,28.82-7,35,11.73,7.71,23.31,17.29,46.3,22,70.22,5.32,26.92,6.57,54.69,8.73,82.16.93,11.81-7.23,21-20.15,25.44q-29.1,10-58.26,19.85c-7,2.36-13.87,4.89-20.92,6.94-10.27,3-19.75.54-25.88-8-29.39-40.91-66.32-75-100.5-111.5-13.13-14-9.88-34,6.91-41.74,9.15-4.23,19.92-2.29,28,5.33,6.58,6.18,13,12.58,19.42,18.89Zm-7.3-50.62c7.46,21.81,15,43.58,22.25,65.48,1,2.92-.05,6.48-.14,9.74-3.19-1.29-6.47-2.39-9.53-3.95-1.51-.77-2.6-2.37-3.86-3.61-9.77-9.54-19.36-19.28-29.37-28.56-6.28-5.83-14.85-5.77-20.8-.68a15.9,15.9,0,0,0-3.09,20.05,33.78,33.78,0,0,0,4.41,5.18c33.69,36.3,70.41,69.86,99.41,110.41,4.06,5.69,10.14,7.38,16.93,5.07,26.85-9.14,53.72-18.25,80.52-27.59,7.69-2.68,11.36-8.81,11-17.1-.14-3.54-.67-7.06-.8-10.6a400,400,0,0,0-29.66-138c-3.35-8.2-7.56-11.48-13.8-9.5s-8.13,7.29-5.39,15.62c2.38,7.22,5.21,14.32,7,21.67.69,2.78.08,8.07-1.54,8.84-5,2.36-6.17-2.48-7.4-6-4.18-11.95-8.1-24-12.38-35.92-2.59-7.19-9.39-10.68-16.32-8.89-6.7,1.72-10.9,8.57-9.62,16a43.76,43.76,0,0,0,2,6.52c2.75,8.16,5.75,16.25,8.1,24.52.49,1.74-1.41,4.15-2.21,6.25-2.15-1.09-4.7-1.79-6.33-3.4-1.3-1.29-1.49-3.7-2.14-5.61-4.76-13.9-9.35-27.87-14.35-41.68-2.65-7.31-9.52-10.59-16.4-8.55-7.32,2.16-11.11,8.8-9.37,16.64a54.85,54.85,0,0,0,1.88,5.78c4.58,13.42,9.36,26.79,13.57,40.32.68,2.18-1.13,5.14-1.79,7.73a78.79,78.79,0,0,1-6.94-5c-.82-.73-.85-2.34-1.26-3.53q-17.61-51.41-35.24-102.8c-3.8-11-13-15.14-22.66-10.39-7.47,3.69-10.13,11.28-6.9,20.87C1585.08-3939.83,1592.53-3918.29,1599.91-3896.72Z" transform="translate(-1269.08 4140.5)"/><path class="cls-1" d="M1569.26-4036.44c50.65-17.15,101.63,25.94,93.19,78.75-.12.75,0,1.74-.45,2.2-2.12,2.26-4.39,4.38-6.61,6.55-1.13-2.67-3-5.27-3.25-8-.91-10.21.66-21.06-2.22-30.6-9.92-32.9-45.3-50.31-77.65-39.49-31.77,10.63-49.31,45.73-38.44,77.89,5.6,16.57,16.72,28.66,32.71,36.06,1.15.53,2.72.68,3.43,1.54,1.93,2.39,3.51,5.07,5.24,7.63-3.11.51-6.67,2.27-9.23,1.33a66.94,66.94,0,0,1-37.57-33.6C1508.47-3975.61,1527.66-4022.36,1569.26-4036.44Z" transform="translate(-1269.08 4140.5)"/><path class="cls-1" d="M1639.77-3985c.39,7.25,1.06,14.5,1,21.76,0,3.93-.3,9.09-6.22,8.3-5.32-.71-4.17-5.22-3.79-9.07,2.38-24.53-16.09-45-40-44.07-16.45.66-28.49,8.84-34.9,23.92s-3.53,29.19,7.06,41.75c2.65,3.15,9.09,6.19,3.8,10.94s-8.59-1.37-11.62-4.68c-13.57-14.85-16.39-36-7.51-54.47a49.25,49.25,0,0,1,46.95-27.53C1614.76-4016.95,1632-4003.89,1639.77-3985Z" transform="translate(-1269.08 4140.5)"/><path class="cls-1" d="M1436.65-4102.46a5.32,5.32,0,0,1-.52,2.44,5.49,5.49,0,0,1-1.32,1.74,5.3,5.3,0,0,1-1.77,1,5.64,5.64,0,0,1-1.84.33h-7.8a1.71,1.71,0,0,1-1.25-.51,1.74,1.74,0,0,1-.51-1.26v-7.84a1.74,1.74,0,0,1,.51-1.26,1.71,1.71,0,0,1,1.25-.51h7.8a5.14,5.14,0,0,1,2.61.62,5.13,5.13,0,0,1,1.7,1.56,6.16,6.16,0,0,1,.88,1.92A7.26,7.26,0,0,1,1436.65-4102.46Z" transform="translate(-1269.08 4140.5)"/><path class="cls-1" d="M1489.26-4088.52a1.21,1.21,0,0,1-1.07.48h-6.58a1.2,1.2,0,0,1-1.11-.48,1.17,1.17,0,0,1,0-1.15l3.7-8.95q.29-.66.66-.66c.25,0,.47.22.67.66l1.92,4.63q1,2.47,1.78,4.32A1,1,0,0,1,1489.26-4088.52Z" transform="translate(-1269.08 4140.5)"/><path class="cls-1" d="M1658.35-4102a6.77,6.77,0,0,1-1.3,4.08,4.75,4.75,0,0,1-4.13,1.8h-8a1.71,1.71,0,0,1-1.26-.52,1.68,1.68,0,0,1-.52-1.25v-8.67a1.68,1.68,0,0,1,.52-1.25,1.74,1.74,0,0,1,1.26-.51h7a6.43,6.43,0,0,1,2.75.55,6.12,6.12,0,0,1,2,1.43,5.75,5.75,0,0,1,1.23,2A6.88,6.88,0,0,1,1658.35-4102Z" transform="translate(-1269.08 4140.5)"/><path class="cls-1" d="M1702.09-4088.52a1.21,1.21,0,0,1-1.07.48h-6.58a1.2,1.2,0,0,1-1.11-.48,1.17,1.17,0,0,1,0-1.15l3.7-8.95q.29-.66.66-.66c.25,0,.47.22.67.66l1.92,4.63q1,2.47,1.78,4.32A1,1,0,0,1,1702.09-4088.52Z" transform="translate(-1269.08 4140.5)"/><path class="cls-1" d="M1766.61-4094.77a17.35,17.35,0,0,1-1.14,6.84,10.65,10.65,0,0,1-2.92,4.07,9.92,9.92,0,0,1-4,2,19.14,19.14,0,0,1-4.29.51h-5.54a1.71,1.71,0,0,1-1.26-.51,1.75,1.75,0,0,1-.52-1.26v-23.22a1.75,1.75,0,0,1,.52-1.26,1.72,1.72,0,0,1,1.26-.52h5.54a18.78,18.78,0,0,1,4.26.52,10.2,10.2,0,0,1,4,2,10.41,10.41,0,0,1,3,4.07A17.35,17.35,0,0,1,1766.61-4094.77Z" transform="translate(-1269.08 4140.5)"/></svg>