<svg id="Calque_193" data-name="Calque 193" xmlns="http://www.w3.org/2000/svg" xmlns:xlink="http://www.w3.org/1999/xlink" viewBox="0 0 180.18 153.93"><defs><style>.cls-1{fill:url(#Dégradé_sans_nom_4);}.cls-2{fill:url(#Dégradé_sans_nom_4-2);}.cls-3{fill:url(#Dégradé_sans_nom_4-3);}.cls-4{fill:url(#Dégradé_sans_nom_4-4);}</style><linearGradient id="Dégradé_sans_nom_4" x1="1312.52" y1="-3847.74" x2="1396.39" y2="-3847.74" gradientUnits="userSpaceOnUse"><stop offset="0" stop-color="#d43320"/><stop offset="0.03" stop-color="#ce311f"/><stop offset="0.25" stop-color="#a12314"/><stop offset="0.47" stop-color="#7d180b"/><stop offset="0.67" stop-color="#641005"/><stop offset="0.85" stop-color="#540c01"/><stop offset="1" stop-color="#4f0a00"/></linearGradient><linearGradient id="Dégradé_sans_nom_4-2" x1="1431.94" y1="-3847.75" x2="1492.7" y2="-3847.75" xlink:href="#Dégradé_sans_nom_4"/><linearGradient id="Dégradé_sans_nom_4-3" x1="1421.08" y1="-3847.63" x2="1465.41" y2="-3847.63" xlink:href="#Dégradé_sans_nom_4"/><linearGradient id="Dégradé_sans_nom_4-4" x1="1410.28" y1="-3847.74" x2="1437.73" y2="-3847.74" xlink:href="#Dégradé_sans_nom_4"/></defs><path class="cls-1" d="M1396.35-3847.62h0c0-18.81,0-37.63,0-56.45,0-3.94-.81-7.35-4.78-9s-6.9.48-9.63,3.24c-10,10.06-20.13,19.91-29.92,30.12a11.9,11.9,0,0,1-10,4c-6.65-.29-13.32-.11-20-.07-7,0-9.49,2.53-9.51,9.71q0,18.24,0,36.47c0,7.57,2.32,9.92,9.73,9.94,7,0,14-.28,21,.15a13.14,13.14,0,0,1,7.72,3.14c10.46,10,20.62,20.35,30.81,30.65,2.72,2.73,5.51,5.1,9.61,3.49s5-5.26,5-9.4C1396.3-3810.31,1396.35-3829,1396.35-3847.62Zm-23.65,3a4.34,4.34,0,0,1-3.1,1.29h-13.85v13.85a4.4,4.4,0,0,1-4.38,4.39,4.38,4.38,0,0,1-3.1-1.29,4.36,4.36,0,0,1-1.29-3.1v-13.85h-13.85a4.4,4.4,0,0,1-4.39-4.39,4.4,4.4,0,0,1,1.29-3.1,4.4,4.4,0,0,1,3.1-1.29H1347V-3866a4.4,4.4,0,0,1,4.39-4.39,4.32,4.32,0,0,1,3.09,1.29,4.34,4.34,0,0,1,1.29,3.1v13.84h13.85a4.4,4.4,0,0,1,4.39,4.39A4.34,4.34,0,0,1,1372.7-3844.65Z" transform="translate(-1312.52 3924.71)"/><path class="cls-2" d="M1492.7-3841.11c-1.54,27.84-17,53.15-47.74,68.72a19.75,19.75,0,0,1-1.82.81c-4.69,1.84-8.77.45-10.53-3.57-1.66-3.78.05-7.22,4.21-9.94,7.33-4.81,15.41-9,21.52-15,33-32.9,22.8-89.33-19.36-109.25-.75-.36-1.53-.67-2.24-1.08-4.33-2.49-5.83-6.18-4.09-10,1.83-4,6-5.39,10.59-3.38a80.56,80.56,0,0,1,30.06,22.59C1486.13-3885.84,1492.79-3867.43,1492.7-3841.11Z" transform="translate(-1312.52 3924.71)"/><path class="cls-3" d="M1465.41-3847.53c-1.31,22.72-11.48,40-32.42,50.37-3.22,1.59-6.79,2.21-9.15-.79-1.53-1.94-2.78-5.43-2.06-7.49.85-2.41,3.68-4.54,6.15-5.88,12.42-6.75,19.89-16.91,22-30.88a40.16,40.16,0,0,0-18.92-40c-1.57-.94-3.21-1.77-4.8-2.68-4.8-2.74-6.36-6.72-4.22-10.67,2-3.77,6.15-4.94,10.8-2.73,17.86,8.49,28.19,22.75,31.71,42.06C1465-3853.49,1465.11-3850.64,1465.41-3847.53Z" transform="translate(-1312.52 3924.71)"/><path class="cls-4" d="M1437.73-3848c-.6,11.27-5.22,19.82-15,25.13-4.79,2.6-9.2,1.6-11.37-2.24s-1-7.5,3.63-10.51c4.43-2.84,7.88-6,7.8-11.84,0-4.52-1.51-8.12-5.37-10.62-1-.63-2-1.27-2.89-2-4.14-3-5.24-6.66-3.15-10.28s6.27-4.78,10.92-2.43C1432.51-3867.63,1437-3858.86,1437.73-3848Z" transform="translate(-1312.52 3924.71)"/></svg>