<svg id="Calque_197" data-name="Calque 197" xmlns="http://www.w3.org/2000/svg" viewBox="0 0 788.7 959.12"><defs><style>.cls-1,.cls-3{fill:none;}.cls-1{stroke:#f1f1f1;stroke-miterlimit:10;stroke-width:20px;}.cls-2{fill:#f1f1f1;}</style></defs><path class="cls-1" d="M1840-5070.5c-62.5,0-125,.27-187.5-.36-8.26-.08-21.59,7.23-23.26-10.76-2-22,5.27-36.23,21.86-40.12,7.19-1.69,19.14,4.7,20.78-6.16,2.27-15,1.17-30.77-.11-46.06-.5-6-8.3-4.84-13.11-5.33-65-6.5-88-47.5-80.87-111.55,16.35-146.81,30.91-293.82,46.56-440.71,1.47-13.78,4.77-27.49,8.51-40.88,11.69-41.86,42.55-59.51,83.16-63.85a191.45,191.45,0,0,1,30.84-.92c11.76.66,17.95-2.57,17.33-15.7-.55-11.43,2.2-24,13.28-28.35,16.91-6.71,16.62-14.51,10-29.62-10.13-23.06-.23-50.73,19.57-64.47,22.21-15.41,48.87-14.89,69.78,1.37,20,15.55,27.93,43.47,16.69,67.46-5.62,12-8,17.38,7.67,22.62,12.35,4.15,17.67,17.43,16.74,31-.92,13.26,5.48,16.89,17.18,15.55a68.3,68.3,0,0,1,8.82,0c73.22,1.31,104.91,28.49,113.51,101.31,10.08,85.4,18.16,171,27.06,256.55,6.69,64.33,13.06,128.7,20,193s-15.57,95.88-78.82,106.38c-13.29,2.2-17.71,6.71-16.32,19.44a144.25,144.25,0,0,1,.07,24.24c-.6,9.78,2.24,13.92,13.25,14.86,25,2.13,34.63,17.4,30.32,42.59-2.32,13.59-12.28,8.21-18.85,8.25C1969.45-5070.3,1904.75-5070.49,1840-5070.5ZM1713.4-5485.32h.06c0,32.34-.62,64.7.15,97,1.11,45.74,23.35,79.59,62,102.65,29.63,17.69,33.87,15,33.92-18.42,0-5.88.2-11.76.08-17.64-.17-8.83,4.18-13.11,12.74-14.92,39.69-8.42,50.48-.19,50.65,39.24a43,43,0,0,1,0,4.4c-1.75,16.78,4.16,20.88,20.19,14.3,43.75-18,75.2-62.2,75.55-109.86.46-63.95.14-127.91.13-191.86,0-30.11-11.9-55.5-30.81-78.25-9-10.86-19.39-16.1-34.21-15.7-36,1-72.33,3.22-108-.46-39.4-4.08-57.86,17.27-72.15,47.68a112.26,112.26,0,0,0-10.38,49.19C1713.55-5547.07,1713.4-5516.2,1713.4-5485.32Zm233.32,208.44c40.62,13.34,46.48,18.37,61.44,57.47,3.31,8.65,7.62,8.95,14.76,8.32,37.61-3.33,55-25.93,50.64-67.77q-23.37-224.8-47.34-449.54c-6.57-61.11-30-80.28-91.88-77.38-7.19.34-16.4-1.19-15.89,9.86s-6.59,29.07,5.47,31.81c27.9,6.35,23.39,25.51,24.1,44.24.51,13.42-2.94,26.84,9.11,38.93,28.89,29,41.28,65.24,41.19,106-.11,52.95-1.32,105.94.35,158.83C2000.35-5362.85,1988.5-5315.52,1946.72-5276.88Zm-211.15.65c-33.92-33.24-51.83-71.38-51.76-117.21.09-61,0-122.05,0-183.07,0-31.75,6.4-63,27.22-86.64,19-21.63,26.7-43.78,23.69-71.45-1.51-13.82,3.53-23.74,18.84-27.74,19.86-5.2,8.43-21.92,9.76-33.27,1.46-12.5-10-9.9-17.5-10.1-61.17-1.68-83.09,16.57-89.74,77.21-13.29,121.26-25.85,242.6-38.51,363.92-3.51,33.61-7.87,67.24-8.93,100.95-1,32.43,24.09,54.83,54.81,52.94,4.86-.29,8.76-.9,9.75-6.41C1679.32-5251,1701.69-5268.54,1735.57-5276.23ZM1843-5962.48c-17.19-1.15-34.48,14.57-35.32,32.12s14.62,34.14,32.54,34.74c16.62.56,32.72-14,34.08-30.88C1875.68-5943.92,1860.57-5961.29,1843-5962.48Z" transform="translate(-1446.65 6007.56)"/><path class="cls-2" d="M1888.58-5424.91c-5,26.25-21.68,48.41-48.41,48.41s-48.41-17.55-48.41-48.41c0-6.39,2.68-13.75,6.79-22.37,7.11-18.23,16.89-44.56,7.77-81.53,1.69-.09,9.79,12.43,17.93,29.48,12.53-30,22.45-68.66,15.92-119.2C1847.37-5618.11,1901.42-5492,1888.58-5424.91Z" transform="translate(-1446.65 6007.56)"/><rect class="cls-3" width="788.7" height="959.12"/></svg>