<svg id="Calque_200" data-name="Calque 200" xmlns="http://www.w3.org/2000/svg" viewBox="0 0 718.28 718.28"><defs><style>.cls-1,.cls-3{fill:none;}.cls-1{stroke:#f1f1f1;stroke-miterlimit:10;stroke-width:28px;}.cls-2{fill:#f1f1f1;}</style></defs><path class="cls-1" d="M-318.7-5376.91q-123,0-246.08,0c-16,0-27.51-7.51-32.86-21.6-3.89-10.21-2.38-20,3-29.35q19.08-33,38.05-66Q-488.9-5611-421.23-5728.22q36.5-63.21,73-126.41c14.89-25.68,45.23-25.44,60.1.33q84.66,146.67,169.32,293.34c25.4,44,50.59,88.06,76.38,131.8,12.23,20.74,2.68,43.66-15.51,49.84A48.59,48.59,0,0,1-73.19-5377Q-195.93-5376.8-318.7-5376.91Zm.47-13.47v0h6.93q119.31,0,238.62,0c18.31,0,27.91-15.2,19.18-30.49q-21.77-38.08-43.78-76-49.38-85.46-98.81-170.87-52.21-90.47-104.35-181c-8.81-15.24-27-15.11-35.76,0-6.18,10.65-12.28,21.34-18.43,32q-49.41,85.76-98.83,171.49c-42.78,74.15-85.31,148.44-128.68,222.25-8.91,15.18-.66,32.88,18.93,32.76C-481.55-5390.68-399.89-5390.38-318.23-5390.38Z" transform="translate(677.51 5909.31)"/><path class="cls-2" d="M-394.5-5429.54c20-42.41,40-84.82,60.45-128.08h-54.76c4.17-8.58,7.92-16.5,11.83-24.33,19.2-38.37,38.54-76.68,57.56-115.14,2.49-5,5.46-7,11-7,20.34-.07,40.67-.6,61-.89,1.39,0,2.79.58,5.13,1.1-23.34,37.36-46.27,74.06-69.7,111.58h58.62L-392.62-5428Z" transform="translate(677.51 5909.31)"/><path class="cls-2" d="M-609.83-5310.42a42.9,42.9,0,0,0,8.09,4.16,21.24,21.24,0,0,0,7.49,1.51,10.85,10.85,0,0,0,5.06-.94,3.05,3.05,0,0,0,1.74-2.84,1.83,1.83,0,0,0-.75-1.55,6.72,6.72,0,0,0-2-.95,19,19,0,0,0-2.91-.6c-1.11-.15-2.24-.35-3.4-.61l-3.9-.71a35.24,35.24,0,0,1-4.57-1.21,31.39,31.39,0,0,1-4.65-2,15.76,15.76,0,0,1-4.12-3.1,14.57,14.57,0,0,1-2.92-4.5,15.84,15.84,0,0,1-1.09-6.16,16.52,16.52,0,0,1,2-8.62,16.19,16.19,0,0,1,5.18-5.41,20.48,20.48,0,0,1,7-2.8,37.13,37.13,0,0,1,7.49-.79,32.61,32.61,0,0,1,11.38,1.85,36.54,36.54,0,0,1,9.65,5.41,1.92,1.92,0,0,1,.68,1.28,1.88,1.88,0,0,1-.38,1.36l-5.9,8.4a1.94,1.94,0,0,1-1.21.75,1.61,1.61,0,0,1-1.36-.3,30.78,30.78,0,0,0-7.19-3.44,21,21,0,0,0-6.12-1c-.56,0-1.2,0-1.93,0a8.7,8.7,0,0,0-2.08.3,3.81,3.81,0,0,0-1.63.87,2.2,2.2,0,0,0-.64,1.66q0,1.06,1.59,1.89a19.61,19.61,0,0,0,3.63,1.44,36,36,0,0,0,3.93,1l2.42.41a57.21,57.21,0,0,1,6,1.55,21.76,21.76,0,0,1,6.08,3,16.79,16.79,0,0,1,4.77,5.22,15.45,15.45,0,0,1,1.93,8,17.84,17.84,0,0,1-1.59,7.83,14.5,14.5,0,0,1-4.42,5.4,19.17,19.17,0,0,1-6.81,3.14,35.46,35.46,0,0,1-8.81,1,39.49,39.49,0,0,1-7.34-.64,36.41,36.41,0,0,1-6.35-1.78,33.18,33.18,0,0,1-5.48-2.68,40.41,40.41,0,0,1-4.65-3.29,1.63,1.63,0,0,1-.68-1.25,1.92,1.92,0,0,1,.37-1.4l5.83-8.39a1.93,1.93,0,0,1,1.21-.76A1.83,1.83,0,0,1-609.83-5310.42Z" transform="translate(677.51 5909.31)"/><path class="cls-2" d="M-564.68-5344.91a1.74,1.74,0,0,1,.52-1.28,1.75,1.75,0,0,1,1.28-.53h11.36a1.74,1.74,0,0,1,1.28.53,1.75,1.75,0,0,1,.53,1.28v30.63a11.08,11.08,0,0,0,1,4.88,8.49,8.49,0,0,0,2.35,3,8.8,8.8,0,0,0,3,1.56,10.8,10.8,0,0,0,2.89.45,10.67,10.67,0,0,0,2.88-.45,8.41,8.41,0,0,0,3-1.56,8.65,8.65,0,0,0,2.31-3,11.08,11.08,0,0,0,1-4.88v-30.63a1.75,1.75,0,0,1,.53-1.28,1.75,1.75,0,0,1,1.28-.53h11.36a1.75,1.75,0,0,1,1.28.53,1.75,1.75,0,0,1,.53,1.28v30.63a26.91,26.91,0,0,1-1.7,9.76A21,21,0,0,1-523-5297a22.09,22.09,0,0,1-7.63,4.81,27.63,27.63,0,0,1-9.89,1.7,27.59,27.59,0,0,1-9.89-1.7A22,22,0,0,1-558-5297a21.31,21.31,0,0,1-4.91-7.48,26.29,26.29,0,0,1-1.73-9.76Z" transform="translate(677.51 5909.31)"/><path class="cls-2" d="M-490.19-5330.94v3.14a1.71,1.71,0,0,0,.53,1.28,1.74,1.74,0,0,0,1.28.52H-468a1.79,1.79,0,0,1,1.29.53,1.75,1.75,0,0,1,.53,1.28v10.59a1.76,1.76,0,0,1-.53,1.29,1.79,1.79,0,0,1-1.29.53h-20.42a1.71,1.71,0,0,0-1.28.53,1.71,1.71,0,0,0-.53,1.28v16.72a1.75,1.75,0,0,1-.53,1.28,1.71,1.71,0,0,1-1.28.53h-11.36a1.71,1.71,0,0,1-1.28-.53,1.75,1.75,0,0,1-.53-1.28V-5345a1.77,1.77,0,0,1,.53-1.29,1.75,1.75,0,0,1,1.28-.53h38.43a1.72,1.72,0,0,1,1.28.54,1.76,1.76,0,0,1,.53,1.29v10.41a1.8,1.8,0,0,1-.53,1.3,1.75,1.75,0,0,1-1.28.53h-23.45a1.74,1.74,0,0,0-1.28.52A1.71,1.71,0,0,0-490.19-5330.94Z" transform="translate(677.51 5909.31)"/><path class="cls-2" d="M-440.88-5330.94v3.14a1.71,1.71,0,0,0,.53,1.28,1.74,1.74,0,0,0,1.28.52h20.42a1.79,1.79,0,0,1,1.29.53,1.74,1.74,0,0,1,.52,1.28v10.59a1.75,1.75,0,0,1-.52,1.29,1.79,1.79,0,0,1-1.29.53h-20.42a1.71,1.71,0,0,0-1.28.53,1.71,1.71,0,0,0-.53,1.28v16.72a1.75,1.75,0,0,1-.53,1.28,1.71,1.71,0,0,1-1.28.53H-454a1.7,1.7,0,0,1-1.28-.53,1.75,1.75,0,0,1-.53-1.28V-5345a1.77,1.77,0,0,1,.53-1.29,1.74,1.74,0,0,1,1.28-.53h38.42a1.73,1.73,0,0,1,1.29.54,1.76,1.76,0,0,1,.53,1.29v10.41a1.8,1.8,0,0,1-.53,1.3,1.76,1.76,0,0,1-1.29.53h-23.44a1.74,1.74,0,0,0-1.28.52A1.71,1.71,0,0,0-440.88-5330.94Z" transform="translate(677.51 5909.31)"/><path class="cls-2" d="M-392.7-5291.44h-11.36a1.68,1.68,0,0,1-1.32-.53,1.8,1.8,0,0,1-.49-1.28v-51.66a1.8,1.8,0,0,1,.49-1.28,1.72,1.72,0,0,1,1.32-.53h11.36a1.75,1.75,0,0,1,1.28.53,1.74,1.74,0,0,1,.52,1.28v51.66a1.74,1.74,0,0,1-.52,1.28A1.71,1.71,0,0,1-392.7-5291.44Z" transform="translate(677.51 5909.31)"/><path class="cls-2" d="M-374.49-5310.42a43,43,0,0,0,8.1,4.16,21.19,21.19,0,0,0,7.48,1.51,10.87,10.87,0,0,0,5.07-.94,3.05,3.05,0,0,0,1.74-2.84,1.82,1.82,0,0,0-.76-1.55,6.54,6.54,0,0,0-2-.95,19,19,0,0,0-2.91-.6c-1.11-.15-2.25-.35-3.41-.61l-3.89-.71a35.37,35.37,0,0,1-4.58-1.21,32.33,32.33,0,0,1-4.65-2,15.76,15.76,0,0,1-4.12-3.1,14.54,14.54,0,0,1-2.91-4.5,15.84,15.84,0,0,1-1.1-6.16,16.42,16.42,0,0,1,2.05-8.62,16.1,16.1,0,0,1,5.18-5.41,20.48,20.48,0,0,1,7-2.8,37.06,37.06,0,0,1,7.49-.79,32.65,32.65,0,0,1,11.38,1.85,36.48,36.48,0,0,1,9.64,5.41A1.88,1.88,0,0,1-339-5339a1.84,1.84,0,0,1-.38,1.36l-5.89,8.4a2,2,0,0,1-1.21.75,1.63,1.63,0,0,1-1.37-.3,30.72,30.72,0,0,0-7.18-3.44,21,21,0,0,0-6.13-1c-.55,0-1.19,0-1.92,0a8.63,8.63,0,0,0-2.08.3,3.81,3.81,0,0,0-1.63.87,2.16,2.16,0,0,0-.64,1.66q0,1.06,1.59,1.89a19.07,19.07,0,0,0,3.63,1.44,36,36,0,0,0,3.93,1c1.26.22,2.06.36,2.42.41a57.72,57.72,0,0,1,6,1.55,21.69,21.69,0,0,1,6.09,3,16.76,16.76,0,0,1,4.76,5.22,15.36,15.36,0,0,1,1.93,8,18,18,0,0,1-1.58,7.83,14.52,14.52,0,0,1-4.43,5.4,19.09,19.09,0,0,1-6.81,3.14,35.35,35.35,0,0,1-8.81,1,39.38,39.38,0,0,1-7.33-.64,36.17,36.17,0,0,1-6.35-1.78,33.29,33.29,0,0,1-5.49-2.68,40.41,40.41,0,0,1-4.65-3.29,1.69,1.69,0,0,1-.68-1.25,2,2,0,0,1,.38-1.4l5.82-8.39a2,2,0,0,1,1.21-.76A1.81,1.81,0,0,1-374.49-5310.42Z" transform="translate(677.51 5909.31)"/><path class="cls-2" d="M-314.82-5345.06a2.89,2.89,0,0,1,1-1.17,2.69,2.69,0,0,1,1.55-.49h10.59a2.57,2.57,0,0,1,1.48.49,2.82,2.82,0,0,1,1,1.17l22.08,51.43a1.56,1.56,0,0,1-.11,1.43,1.68,1.68,0,0,1-1.63.76h-12.93a2.66,2.66,0,0,1-1.55-.49,3.48,3.48,0,0,1-1.1-1.17l-2-4.54a3.48,3.48,0,0,0-1.1-1.17,2.56,2.56,0,0,0-1.47-.49h-16a2.69,2.69,0,0,0-1.55.49,2.82,2.82,0,0,0-1,1.17l-2.12,4.54a2.82,2.82,0,0,1-1,1.17,2.56,2.56,0,0,1-1.47.49h-13a2.3,2.3,0,0,1-.79-.15,1.56,1.56,0,0,1-.68-.45,1.48,1.48,0,0,1-.34-.76,1.78,1.78,0,0,1,.22-1.06Zm4.47,32.9h6.73a1.22,1.22,0,0,0,1.09-.49,1,1,0,0,0,0-1.17c-.51-1.26-1.11-2.74-1.82-4.43s-1.36-3.26-2-4.73c-.2-.45-.42-.68-.68-.68s-.48.23-.68.68l-3.78,9.16a1.21,1.21,0,0,0,0,1.17A1.22,1.22,0,0,0-310.35-5312.16Z" transform="translate(677.51 5909.31)"/><path class="cls-2" d="M-210.07-5344.91v51.66a1.75,1.75,0,0,1-.53,1.28,1.71,1.71,0,0,1-1.28.53h-11.36a1.7,1.7,0,0,1-1.28-.53,1.75,1.75,0,0,1-.53-1.28v-24.36a.72.72,0,0,0-.68-.83,1.2,1.2,0,0,0-1.14.53l-12.73,20.5a1.34,1.34,0,0,1-1.22.6,1.54,1.54,0,0,1-1.29-.6l-12.73-20.5a1,1,0,0,0-1.06-.53c-.46,0-.68.33-.68.83v24.36a1.75,1.75,0,0,1-.53,1.28,1.71,1.71,0,0,1-1.28.53h-11.36A1.7,1.7,0,0,1-271-5292a1.75,1.75,0,0,1-.53-1.28v-51.66a1.75,1.75,0,0,1,.53-1.28,1.75,1.75,0,0,1,1.28-.53h10.53a3.31,3.31,0,0,1,1.58.45,3.19,3.19,0,0,1,1.21,1.06l14.55,21.33a1.31,1.31,0,0,0,1.06.6,1.13,1.13,0,0,0,1-.6l14.55-21.33a3.92,3.92,0,0,1,1.28-1.06,3.31,3.31,0,0,1,1.58-.45h10.54a1.75,1.75,0,0,1,1.28.53A1.75,1.75,0,0,1-210.07-5344.91Z" transform="translate(677.51 5909.31)"/><path class="cls-2" d="M-183.15-5331.07v3.18a1.71,1.71,0,0,0,.53,1.28,1.71,1.71,0,0,0,1.28.53h20.5a1.75,1.75,0,0,1,1.28.53,1.79,1.79,0,0,1,.53,1.29v10.44a1.75,1.75,0,0,1-.53,1.28,1.75,1.75,0,0,1-1.28.53h-20.5a1.75,1.75,0,0,0-1.28.53,1.72,1.72,0,0,0-.53,1.29v2.87a1.75,1.75,0,0,0,.53,1.29,1.74,1.74,0,0,0,1.28.52h23.52a1.77,1.77,0,0,1,1.29.53,1.79,1.79,0,0,1,.53,1.29v10.44a1.75,1.75,0,0,1-.53,1.28,1.74,1.74,0,0,1-1.29.53h-38.49a1.72,1.72,0,0,1-1.29-.53,1.75,1.75,0,0,1-.53-1.28V-5345a1.77,1.77,0,0,1,.53-1.29,1.76,1.76,0,0,1,1.29-.53h38.49a1.77,1.77,0,0,1,1.29.53A1.77,1.77,0,0,1-156-5345v10.28a1.76,1.76,0,0,1-.53,1.29,1.77,1.77,0,0,1-1.29.53h-23.52a1.75,1.75,0,0,0-1.28.53A1.71,1.71,0,0,0-183.15-5331.07Z" transform="translate(677.51 5909.31)"/><path class="cls-2" d="M-94.37-5345v51.73a1.71,1.71,0,0,1-.53,1.28,1.71,1.71,0,0,1-1.28.53h-11.17a3.31,3.31,0,0,1-1.58-.45,4.1,4.1,0,0,1-1.29-1.06l-19.69-27.76c-.31-.4-.62-.56-1-.49s-.49.37-.49.87v27.08a1.75,1.75,0,0,1-.53,1.28,1.75,1.75,0,0,1-1.29.53H-144.5a1.74,1.74,0,0,1-1.29-.53,1.71,1.71,0,0,1-.53-1.28V-5345a1.74,1.74,0,0,1,.53-1.29,1.75,1.75,0,0,1,1.28-.53h11.35a3.49,3.49,0,0,1,1.58.42,3.57,3.57,0,0,1,1.29,1l19.66,27.75c.31.41.62.58.95.53s.49-.32.49-.83V-5345a1.77,1.77,0,0,1,.53-1.29,1.75,1.75,0,0,1,1.28-.53h11.2a1.75,1.75,0,0,1,1.28.53A1.74,1.74,0,0,1-94.37-5345Z" transform="translate(677.51 5909.31)"/><path class="cls-2" d="M-46-5332.88H-56.55a1.76,1.76,0,0,0-1.29.53,1.75,1.75,0,0,0-.53,1.28v37.82a1.8,1.8,0,0,1-.49,1.28,1.7,1.7,0,0,1-1.32.53H-71.53a1.71,1.71,0,0,1-1.28-.53,1.71,1.71,0,0,1-.53-1.28v-37.82a1.84,1.84,0,0,0-.49-1.28,1.74,1.74,0,0,0-1.33-.53H-85.9a1.75,1.75,0,0,1-1.28-.53,1.72,1.72,0,0,1-.53-1.29V-5345a1.74,1.74,0,0,1,.53-1.29,1.75,1.75,0,0,1,1.28-.53H-46a1.74,1.74,0,0,1,1.33.53,1.87,1.87,0,0,1,.49,1.29v10.28a1.85,1.85,0,0,1-.49,1.29A1.74,1.74,0,0,1-46-5332.88Z" transform="translate(677.51 5909.31)"/><path class="cls-2" d="M-576.87-5200.69h-11.32a1.76,1.76,0,0,1-1.3-.53,1.75,1.75,0,0,1-.53-1.28v-51.73a1.79,1.79,0,0,1,.53-1.29,1.76,1.76,0,0,1,1.29-.53h23.52a21.76,21.76,0,0,1,8.09,1.48,18.18,18.18,0,0,1,6.31,4.12,19.22,19.22,0,0,1,4.09,6.28,21.15,21.15,0,0,1,1.47,8,21.14,21.14,0,0,1-.56,4.81,21.55,21.55,0,0,1-1.63,4.5,19.15,19.15,0,0,1-2.5,3.81,13.67,13.67,0,0,1-3.25,2.84,2.07,2.07,0,0,0-.79,1.1,1.36,1.36,0,0,0,.26,1.25q2.88,3.78,6.05,7.78t5.67,7.34a1.37,1.37,0,0,1,.23,1.32.94.94,0,0,1-1,.72h-14.07a3.84,3.84,0,0,1-1.62-.41,3.56,3.56,0,0,1-1.33-1c-1.6-2.12-3.2-4.26-4.78-6.43s-3.15-4.36-4.7-6.58a3.41,3.41,0,0,0-1.28-1,3.49,3.49,0,0,0-1.58-.42h-1.66a1.75,1.75,0,0,0-1.28.53,1.75,1.75,0,0,0-.52,1.29v12.25a1.72,1.72,0,0,1-.54,1.28A1.72,1.72,0,0,1-576.87-5200.69Zm3.63-29.79h8a5.89,5.89,0,0,0,1.88-.34,5.66,5.66,0,0,0,1.81-1.06,5.63,5.63,0,0,0,1.35-1.78,5.58,5.58,0,0,0,.53-2.5,7.06,7.06,0,0,0-.27-1.77,6.12,6.12,0,0,0-.9-2,5.22,5.22,0,0,0-1.73-1.59,5.18,5.18,0,0,0-2.67-.64h-8a1.75,1.75,0,0,0-1.28.53,1.74,1.74,0,0,0-.52,1.28v8a1.77,1.77,0,0,0,.52,1.29A1.75,1.75,0,0,0-573.24-5230.48Z" transform="translate(677.51 5909.31)"/><path class="cls-2" d="M-520.75-5240.32v3.18a1.77,1.77,0,0,0,.53,1.29,1.77,1.77,0,0,0,1.29.53h20.49a1.72,1.72,0,0,1,1.29.53,1.75,1.75,0,0,1,.53,1.28v10.44a1.75,1.75,0,0,1-.53,1.28,1.72,1.72,0,0,1-1.29.53h-20.49a1.77,1.77,0,0,0-1.29.53,1.76,1.76,0,0,0-.53,1.29v2.87a1.77,1.77,0,0,0,.53,1.29,1.77,1.77,0,0,0,1.29.53h23.52a1.75,1.75,0,0,1,1.29.53,1.74,1.74,0,0,1,.52,1.28v10.44a1.74,1.74,0,0,1-.52,1.28,1.75,1.75,0,0,1-1.29.53H-533.9a1.72,1.72,0,0,1-1.29-.53,1.75,1.75,0,0,1-.53-1.28v-51.73a1.79,1.79,0,0,1,.53-1.29,1.76,1.76,0,0,1,1.29-.53h38.49a1.79,1.79,0,0,1,1.29.53,1.78,1.78,0,0,1,.52,1.29v10.28a1.75,1.75,0,0,1-.52,1.29,1.79,1.79,0,0,1-1.29.53h-23.52a1.77,1.77,0,0,0-1.29.53A1.75,1.75,0,0,0-520.75-5240.32Zm9.08-34,10.89,4.69c1,.5,1.08,1.11.23,1.81l-10.82,8.09a5.75,5.75,0,0,1-1.55.8,5.27,5.27,0,0,1-1.7.34h-9.6q-.76,0-1-.42c-.15-.27,0-.61.31-1l10.43-13.54a2.3,2.3,0,0,1,1.29-.83A2.21,2.21,0,0,1-511.67-5274.27Z" transform="translate(677.51 5909.31)"/><path class="cls-2" d="M-432-5215.36a43.56,43.56,0,0,1-4.85,6.44,27.93,27.93,0,0,1-5.93,4.93,28.58,28.58,0,0,1-7.3,3.16,32.66,32.66,0,0,1-8.85,1.13A28.53,28.53,0,0,1-470.3-5202a30.5,30.5,0,0,1-9.27-6.13,28.46,28.46,0,0,1-6.24-9.07,27.64,27.64,0,0,1-2.26-11.12,27.64,27.64,0,0,1,2.26-11.12,28.35,28.35,0,0,1,6.24-9.07,30.31,30.31,0,0,1,9.27-6.13,28.53,28.53,0,0,1,11.34-2.27,32.87,32.87,0,0,1,9,1.14,27.69,27.69,0,0,1,7.26,3.17,27.4,27.4,0,0,1,5.86,5,48.07,48.07,0,0,1,4.81,6.39,1.45,1.45,0,0,1,.15,1.28,1.62,1.62,0,0,1-.91,1l-10.74,4.23a2,2,0,0,1-1.51,0,2.23,2.23,0,0,1-1.14-.91,16,16,0,0,0-5.29-5.33,14.39,14.39,0,0,0-7.49-1.85,12.37,12.37,0,0,0-5.41,1.21,14.88,14.88,0,0,0-4.42,3.22,14.77,14.77,0,0,0-2.95,4.67,14.53,14.53,0,0,0-1.06,5.46,14.39,14.39,0,0,0,1.06,5.49,14.29,14.29,0,0,0,2.95,4.59,15.14,15.14,0,0,0,4.42,3.19,12.52,12.52,0,0,0,5.41,1.21,14.52,14.52,0,0,0,7.53-2,15.5,15.5,0,0,0,5.33-5.19,2.3,2.3,0,0,1,1.1-.9,1.88,1.88,0,0,1,1.47,0l10.74,4.23a1.6,1.6,0,0,1,.91.95A1.56,1.56,0,0,1-432-5215.36Z" transform="translate(677.51 5909.31)"/><path class="cls-2" d="M-428.78-5228.37a27.43,27.43,0,0,1,2.27-11.11,29.59,29.59,0,0,1,6.12-9.12,28.83,28.83,0,0,1,9.08-6.16A27.6,27.6,0,0,1-400.2-5257a27.61,27.61,0,0,1,11.12,2.27,29.19,29.19,0,0,1,9.11,6.16,29.38,29.38,0,0,1,6.17,9.12,27.6,27.6,0,0,1,2.27,11.11,27.61,27.61,0,0,1-2.27,11.12,29.22,29.22,0,0,1-6.17,9.11,29.22,29.22,0,0,1-9.11,6.17,27.61,27.61,0,0,1-11.12,2.27,27.6,27.6,0,0,1-11.11-2.27,28.86,28.86,0,0,1-9.08-6.17,29.43,29.43,0,0,1-6.12-9.11A27.45,27.45,0,0,1-428.78-5228.37Zm15,0a14.11,14.11,0,0,0,1.06,5.45,14.58,14.58,0,0,0,2.91,4.54,14.3,14.3,0,0,0,4.35,3.13,12.17,12.17,0,0,0,5.29,1.18,12.22,12.22,0,0,0,5.3-1.18,14.68,14.68,0,0,0,4.38-3.13,14.34,14.34,0,0,0,2.95-4.54,14.11,14.11,0,0,0,1.06-5.45,14.16,14.16,0,0,0-1.06-5.4,13.7,13.7,0,0,0-2.95-4.54,15,15,0,0,0-4.38-3.1,12.35,12.35,0,0,0-5.3-1.17,12.31,12.31,0,0,0-5.29,1.17,14.55,14.55,0,0,0-4.35,3.1,13.92,13.92,0,0,0-2.91,4.54A14.16,14.16,0,0,0-413.81-5228.37Z" transform="translate(677.51 5909.31)"/><path class="cls-2" d="M-311.71-5254.23v51.73a1.75,1.75,0,0,1-.53,1.28,1.74,1.74,0,0,1-1.29.53H-324.7a3.31,3.31,0,0,1-1.58-.45,3.92,3.92,0,0,1-1.28-1.06l-19.7-27.75c-.3-.41-.62-.57-.95-.5s-.49.37-.49.87v27.08a1.71,1.71,0,0,1-.53,1.28,1.74,1.74,0,0,1-1.29.53h-11.33a1.75,1.75,0,0,1-1.29-.53,1.75,1.75,0,0,1-.53-1.28v-51.73a1.79,1.79,0,0,1,.53-1.29,1.76,1.76,0,0,1,1.29-.53h11.34a3.57,3.57,0,0,1,1.59.42,3.61,3.61,0,0,1,1.28,1l19.67,27.76c.3.4.61.58.94.53s.49-.33.49-.84v-27.07a1.79,1.79,0,0,1,.53-1.29,1.76,1.76,0,0,1,1.29-.53h11.19a1.79,1.79,0,0,1,1.29.53A1.79,1.79,0,0,1-311.71-5254.23Z" transform="translate(677.51 5909.31)"/><path class="cls-2" d="M-285.47-5240.18v3.14a1.69,1.69,0,0,0,.53,1.27,1.74,1.74,0,0,0,1.28.52h20.42a1.79,1.79,0,0,1,1.29.53,1.76,1.76,0,0,1,.53,1.29v10.58a1.76,1.76,0,0,1-.53,1.29,1.79,1.79,0,0,1-1.29.53h-20.42a1.75,1.75,0,0,0-1.28.53,1.71,1.71,0,0,0-.53,1.28v16.72a1.75,1.75,0,0,1-.53,1.28,1.71,1.71,0,0,1-1.28.53h-11.36a1.71,1.71,0,0,1-1.28-.53,1.75,1.75,0,0,1-.53-1.28v-51.73a1.79,1.79,0,0,1,.53-1.29,1.75,1.75,0,0,1,1.28-.53h38.43a1.72,1.72,0,0,1,1.28.54,1.76,1.76,0,0,1,.53,1.29v10.42a1.79,1.79,0,0,1-.53,1.29,1.75,1.75,0,0,1-1.28.53h-23.45a1.78,1.78,0,0,0-1.28.52A1.71,1.71,0,0,0-285.47-5240.18Z" transform="translate(677.51 5909.31)"/><path class="cls-2" d="M-253.48-5228.37a27.43,27.43,0,0,1,2.27-11.11,29.59,29.59,0,0,1,6.12-9.12,28.83,28.83,0,0,1,9.08-6.16A27.6,27.6,0,0,1-224.9-5257a27.61,27.61,0,0,1,11.12,2.27,29.19,29.19,0,0,1,9.11,6.16,29.38,29.38,0,0,1,6.17,9.12,27.6,27.6,0,0,1,2.27,11.11,27.61,27.61,0,0,1-2.27,11.12,29.22,29.22,0,0,1-6.17,9.11,29.22,29.22,0,0,1-9.11,6.17,27.61,27.61,0,0,1-11.12,2.27A27.6,27.6,0,0,1-236-5202a28.86,28.86,0,0,1-9.08-6.17,29.43,29.43,0,0,1-6.12-9.11A27.45,27.45,0,0,1-253.48-5228.37Zm15,0a14.11,14.11,0,0,0,1.06,5.45,14.76,14.76,0,0,0,2.91,4.54,14.3,14.3,0,0,0,4.35,3.13,12.17,12.17,0,0,0,5.29,1.18,12.22,12.22,0,0,0,5.3-1.18,14.68,14.68,0,0,0,4.38-3.13,14.34,14.34,0,0,0,2.95-4.54,14.11,14.11,0,0,0,1.06-5.45,14.16,14.16,0,0,0-1.06-5.4,13.7,13.7,0,0,0-2.95-4.54,15,15,0,0,0-4.38-3.1,12.35,12.35,0,0,0-5.3-1.17,12.31,12.31,0,0,0-5.29,1.17,14.55,14.55,0,0,0-4.35,3.1,14.09,14.09,0,0,0-2.91,4.54A14.16,14.16,0,0,0-238.51-5228.37Z" transform="translate(677.51 5909.31)"/><path class="cls-2" d="M-175.22-5200.69h-11.33a1.75,1.75,0,0,1-1.29-.53,1.75,1.75,0,0,1-.53-1.28v-51.73a1.79,1.79,0,0,1,.53-1.29,1.75,1.75,0,0,1,1.28-.53H-163a21.77,21.77,0,0,1,8.1,1.48,18.18,18.18,0,0,1,6.31,4.12,19.22,19.22,0,0,1,4.09,6.28,21.15,21.15,0,0,1,1.47,8,20.6,20.6,0,0,1-.57,4.81,21.53,21.53,0,0,1-1.62,4.5,19.15,19.15,0,0,1-2.5,3.81,13.86,13.86,0,0,1-3.25,2.84,2.09,2.09,0,0,0-.8,1.1,1.39,1.39,0,0,0,.27,1.25q2.88,3.78,6,7.78t5.67,7.34a1.4,1.4,0,0,1,.23,1.32.94.94,0,0,1-1,.72h-14.07a3.88,3.88,0,0,1-1.63-.41,3.52,3.52,0,0,1-1.32-1q-2.41-3.18-4.78-6.43t-4.7-6.58a3.49,3.49,0,0,0-1.28-1,3.53,3.53,0,0,0-1.58-.42h-1.66a1.75,1.75,0,0,0-1.28.53,1.76,1.76,0,0,0-.53,1.29v12.25a1.71,1.71,0,0,1-.53,1.28A1.74,1.74,0,0,1-175.22-5200.69Zm3.63-29.79h8a5.89,5.89,0,0,0,1.88-.34,5.51,5.51,0,0,0,1.8-1.06,5.66,5.66,0,0,0,1.36-1.78,5.58,5.58,0,0,0,.53-2.5,7.06,7.06,0,0,0-.27-1.77,6.34,6.34,0,0,0-.9-2,5.32,5.32,0,0,0-1.73-1.59,5.18,5.18,0,0,0-2.67-.64h-8a1.75,1.75,0,0,0-1.28.53,1.75,1.75,0,0,0-.53,1.28v8a1.77,1.77,0,0,0,.53,1.29A1.75,1.75,0,0,0-171.59-5230.48Z" transform="translate(677.51 5909.31)"/><path class="cls-2" d="M-97.77-5242.13h-10.59a1.75,1.75,0,0,0-1.28.53,1.71,1.71,0,0,0-.53,1.28v37.82a1.84,1.84,0,0,1-.49,1.28,1.7,1.7,0,0,1-1.33.53h-11.34a1.72,1.72,0,0,1-1.29-.53,1.75,1.75,0,0,1-.53-1.28v-37.82a1.8,1.8,0,0,0-.49-1.28,1.73,1.73,0,0,0-1.32-.53H-137.7a1.77,1.77,0,0,1-1.29-.53,1.76,1.76,0,0,1-.53-1.29v-10.28a1.79,1.79,0,0,1,.53-1.29,1.77,1.77,0,0,1,1.29-.53h39.93a1.73,1.73,0,0,1,1.32.53,1.84,1.84,0,0,1,.49,1.29v10.28a1.81,1.81,0,0,1-.49,1.29A1.73,1.73,0,0,1-97.77-5242.13Z" transform="translate(677.51 5909.31)"/><path class="cls-2" d="M-75.23-5240.32v3.18a1.74,1.74,0,0,0,.53,1.29,1.75,1.75,0,0,0,1.28.53h20.5a1.71,1.71,0,0,1,1.28.53,1.75,1.75,0,0,1,.53,1.28v10.44a1.75,1.75,0,0,1-.53,1.28,1.71,1.71,0,0,1-1.28.53h-20.5a1.75,1.75,0,0,0-1.28.53,1.72,1.72,0,0,0-.53,1.29v2.87a1.74,1.74,0,0,0,.53,1.29,1.75,1.75,0,0,0,1.28.53H-49.9a1.75,1.75,0,0,1,1.29.53,1.75,1.75,0,0,1,.53,1.28v10.44a1.75,1.75,0,0,1-.53,1.28,1.75,1.75,0,0,1-1.29.53H-88.39a1.72,1.72,0,0,1-1.29-.53,1.75,1.75,0,0,1-.53-1.28v-51.73a1.79,1.79,0,0,1,.53-1.29,1.76,1.76,0,0,1,1.29-.53H-49.9a1.79,1.79,0,0,1,1.29.53,1.79,1.79,0,0,1,.53,1.29v10.28a1.76,1.76,0,0,1-.53,1.29,1.79,1.79,0,0,1-1.29.53H-73.42a1.75,1.75,0,0,0-1.28.53A1.71,1.71,0,0,0-75.23-5240.32Zm9.07-34,10.89,4.69c1,.5,1.08,1.11.23,1.81l-10.82,8.09a5.75,5.75,0,0,1-1.55.8,5.22,5.22,0,0,1-1.7.34h-9.6a1,1,0,0,1-1-.42c-.15-.27,0-.61.31-1L-69-5273.52a2.33,2.33,0,0,1,1.29-.83A2.21,2.21,0,0,1-66.16-5274.27Z" transform="translate(677.51 5909.31)"/><rect class="cls-3" width="718.28" height="718.28"/></svg>