<svg id="Calque_201" data-name="Calque 201" xmlns="http://www.w3.org/2000/svg" viewBox="0 0 735.26 735.26"><defs><style>.cls-1,.cls-3{fill:none;}.cls-1{stroke:#f1f1f1;stroke-miterlimit:10;stroke-width:28px;}.cls-2{fill:#f1f1f1;}</style></defs><path class="cls-1" d="M527.36-5302.72c-175-70.27-267.26-243.79-255.42-548.65.43-11.06,10-19.34,20.65-16.18,149.57,44.52,315.36,36.33,490.54-2.4,10.09-2.23,18.53,5.54,19.57,15.82,28.93,285-67.13,459.88-257.15,550.55C539.55-5300.71,533.53-5300.24,527.36-5302.72Z" transform="translate(-171.72 5898.16)"/><path class="cls-1" d="M610.61-5426.4c0,1-.05,2.09-.13,3.12a4.46,4.46,0,0,1-7.81,2.58c-12.11-14-36.83-23.53-65.36-23.53s-53.25,9.57-65.36,23.53a4.45,4.45,0,0,1-7.8-2.58c-.09-1-.13-2.07-.13-3.12,0-29.24,32.81-53,73.29-53S610.61-5455.64,610.61-5426.4Z" transform="translate(-171.72 5898.16)"/><path class="cls-1" d="M731.3-5672.74c-8.88,7.61-21.53,12.71-36.33,14.87a9.83,9.83,0,0,1-8.74-3.27c-10-11.24-24.56-20.57-42-25.77s-34.68-5.39-49.21-1.49a9.85,9.85,0,0,1-9.1-2.07c-11.19-9.93-19-21.14-22.2-32.38a9.78,9.78,0,0,1,4.06-10.88c18.39-12,53.83-13.75,91.22-2.57s66.08,32.08,74.84,52.23A9.78,9.78,0,0,1,731.3-5672.74Z" transform="translate(-171.72 5898.16)"/><path class="cls-1" d="M343.32-5672.74c8.88,7.61,21.53,12.71,36.34,14.87a9.84,9.84,0,0,0,8.74-3.27c10-11.24,24.56-20.57,42-25.77s34.68-5.39,49.22-1.49a9.86,9.86,0,0,0,9.1-2.07c11.18-9.93,19-21.14,22.2-32.38a9.77,9.77,0,0,0-4.07-10.88c-18.39-12-53.83-13.75-91.22-2.57s-66.08,32.08-74.83,52.23A9.79,9.79,0,0,0,343.32-5672.74Z" transform="translate(-171.72 5898.16)"/><path class="cls-1" d="M692-5547.89a15.26,15.26,0,0,1-15.26,15.26,15.27,15.27,0,0,1-15.27-15.26c0-8.43,15.27-52.48,15.27-52.48S692-5556.32,692-5547.89Z" transform="translate(-171.72 5898.16)"/><path class="cls-2" d="M249.64-5253.72v59.77a2,2,0,0,1-.61,1.48,2,2,0,0,1-1.48.62H234.4a2,2,0,0,1-1.48-.62,2,2,0,0,1-.61-1.48v-28.18a.83.83,0,0,0-.79-1,1.38,1.38,0,0,0-1.31.61l-14.74,23.71a1.52,1.52,0,0,1-1.4.7,1.75,1.75,0,0,1-1.49-.7l-14.74-23.71a1.2,1.2,0,0,0-1.23-.61.83.83,0,0,0-.78,1v28.18a2,2,0,0,1-.61,1.48,2,2,0,0,1-1.48.62H180.59a2,2,0,0,1-1.48-.62,2,2,0,0,1-.61-1.48v-59.77a2,2,0,0,1,.61-1.48,2,2,0,0,1,1.48-.62h12.19a3.83,3.83,0,0,1,1.83.53,3.67,3.67,0,0,1,1.39,1.22l16.84,24.68a1.51,1.51,0,0,0,1.23.7,1.3,1.3,0,0,0,1.14-.7l16.84-24.68a4.59,4.59,0,0,1,1.48-1.22,3.83,3.83,0,0,1,1.83-.53h12.19a2,2,0,0,1,1.48.62A2,2,0,0,1,249.64-5253.72Z" transform="translate(-171.72 5898.16)"/><path class="cls-2" d="M257.34-5223.88a31.87,31.87,0,0,1,2.62-12.86,34.18,34.18,0,0,1,7.09-10.54,33.34,33.34,0,0,1,10.5-7.14,31.91,31.91,0,0,1,12.86-2.62,32,32,0,0,1,12.87,2.62,33.75,33.75,0,0,1,10.54,7.14,33.77,33.77,0,0,1,7.13,10.54,31.88,31.88,0,0,1,2.63,12.86A31.88,31.88,0,0,1,321-5211a33.93,33.93,0,0,1-7.13,10.55,33.89,33.89,0,0,1-10.54,7.13,32,32,0,0,1-12.87,2.62,31.91,31.91,0,0,1-12.86-2.62,33.48,33.48,0,0,1-10.5-7.13A34.35,34.35,0,0,1,260-5211,31.87,31.87,0,0,1,257.34-5223.88Zm17.32,0a16.3,16.3,0,0,0,1.23,6.3,16.93,16.93,0,0,0,3.37,5.25,16.27,16.27,0,0,0,5,3.63,14.14,14.14,0,0,0,6.12,1.36,14.18,14.18,0,0,0,6.13-1.36,16.81,16.81,0,0,0,5.07-3.63,16.54,16.54,0,0,0,3.42-5.25,16.48,16.48,0,0,0,1.22-6.3,16.56,16.56,0,0,0-1.22-6.25,15.9,15.9,0,0,0-3.42-5.25,17.22,17.22,0,0,0-5.07-3.59,14.18,14.18,0,0,0-6.13-1.36,14.14,14.14,0,0,0-6.12,1.36,16.66,16.66,0,0,0-5,3.59,16.26,16.26,0,0,0-3.37,5.25A16.38,16.38,0,0,0,274.66-5223.88Z" transform="translate(-171.72 5898.16)"/><path class="cls-2" d="M332.76-5193.95v-59.85a2,2,0,0,1,.62-1.49,2,2,0,0,1,1.48-.61h23.89q13.74,0,22.49,8a28.58,28.58,0,0,1,7.17,10.41,35.65,35.65,0,0,1,2.45,13.56,36,36,0,0,1-2.45,13.61,28.56,28.56,0,0,1-7.17,10.45,29.72,29.72,0,0,1-10,5.95,36.69,36.69,0,0,1-12.47,2H334.86a2,2,0,0,1-1.48-.62A2,2,0,0,1,332.76-5193.95Zm19.43-14h6.56a22.31,22.31,0,0,0,5.08-.62,11.52,11.52,0,0,0,4.72-2.31,12.61,12.61,0,0,0,3.46-4.82,20.51,20.51,0,0,0,1.35-8.09,20.48,20.48,0,0,0-1.35-8.09,12.37,12.37,0,0,0-3.5-4.82,12.1,12.1,0,0,0-4.73-2.32,22.22,22.22,0,0,0-5-.61h-6.56a2.05,2.05,0,0,0-1.49.61,2,2,0,0,0-.61,1.49V-5210a2,2,0,0,0,.61,1.48A2,2,0,0,0,352.19-5207.95Z" transform="translate(-171.72 5898.16)"/><path class="cls-2" d="M415.89-5237.7v3.67a2,2,0,0,0,.61,1.49,2,2,0,0,0,1.49.61H441.7a2.07,2.07,0,0,1,1.49.61,2,2,0,0,1,.61,1.49v12.08a2,2,0,0,1-.61,1.48,2,2,0,0,1-1.49.62H418a2,2,0,0,0-1.49.61,2,2,0,0,0-.61,1.49v3.32a2,2,0,0,0,.61,1.49,2,2,0,0,0,1.49.61H445.2a2.07,2.07,0,0,1,1.49.61,2,2,0,0,1,.61,1.49v12.08a2,2,0,0,1-.61,1.48,2,2,0,0,1-1.49.62H400.66a2,2,0,0,1-1.48-.62,2,2,0,0,1-.62-1.48v-59.85a2,2,0,0,1,.62-1.49,2,2,0,0,1,1.48-.61H445.2a2,2,0,0,1,1.49.61,2,2,0,0,1,.61,1.49v11.9a2,2,0,0,1-.61,1.48,2,2,0,0,1-1.49.62H418a2,2,0,0,0-1.49.61A2,2,0,0,0,415.89-5237.7Z" transform="translate(-171.72 5898.16)"/><path class="cls-2" d="M488.51-5193.95v-59.85a2,2,0,0,1,.62-1.49,2,2,0,0,1,1.48-.61H514.5q13.74,0,22.49,8a28.58,28.58,0,0,1,7.17,10.41,35.65,35.65,0,0,1,2.45,13.56,36,36,0,0,1-2.45,13.61,28.56,28.56,0,0,1-7.17,10.45,29.72,29.72,0,0,1-10,5.95,36.69,36.69,0,0,1-12.47,2H490.61a2,2,0,0,1-1.48-.62A2,2,0,0,1,488.51-5193.95Zm19.43-14h6.56a22.31,22.31,0,0,0,5.08-.62,11.52,11.52,0,0,0,4.72-2.31,12.61,12.61,0,0,0,3.46-4.82,20.51,20.51,0,0,0,1.35-8.09,20.48,20.48,0,0,0-1.35-8.09,12.37,12.37,0,0,0-3.5-4.82,12.1,12.1,0,0,0-4.73-2.32,22.22,22.22,0,0,0-5-.61h-6.56a2.05,2.05,0,0,0-1.49.61,2,2,0,0,0-.61,1.49V-5210a2,2,0,0,0,.61,1.48A2,2,0,0,0,507.94-5207.95Z" transform="translate(-171.72 5898.16)"/><path class="cls-2" d="M571.64-5237.7v3.67a2,2,0,0,0,.61,1.49,2,2,0,0,0,1.49.61h23.71a2.07,2.07,0,0,1,1.49.61,2,2,0,0,1,.61,1.49v12.08a2,2,0,0,1-.61,1.48,2,2,0,0,1-1.49.62H573.74a2,2,0,0,0-1.49.61,2,2,0,0,0-.61,1.49v3.32a2,2,0,0,0,.61,1.49,2,2,0,0,0,1.49.61H601a2.07,2.07,0,0,1,1.49.61,2,2,0,0,1,.61,1.49v12.08a2,2,0,0,1-.61,1.48,2,2,0,0,1-1.49.62H556.41a2,2,0,0,1-1.48-.62,2,2,0,0,1-.62-1.48v-59.85a2,2,0,0,1,.62-1.49,2,2,0,0,1,1.48-.61H601a2,2,0,0,1,1.49.61,2,2,0,0,1,.61,1.49v11.9a2,2,0,0,1-.61,1.48,2,2,0,0,1-1.49.62H573.74a2,2,0,0,0-1.49.61A2,2,0,0,0,571.64-5237.7Zm10.5-39.29,12.6,5.42c1.17.59,1.25,1.29.26,2.1l-12.51,9.37a7.28,7.28,0,0,1-1.79.92,6,6,0,0,1-2,.39H567.61c-.58,0-1-.16-1.13-.48s-.06-.72.35-1.18l12.07-15.67a2.74,2.74,0,0,1,1.49-1A2.6,2.6,0,0,1,582.14-5277Z" transform="translate(-171.72 5898.16)"/><path class="cls-2" d="M641.14-5209.09h-7.63a2,2,0,0,0-1.49.61,2,2,0,0,0-.62,1.49v13a2,2,0,0,1-.61,1.48,2,2,0,0,1-1.48.62H616.17a2,2,0,0,1-1.49-.62,2,2,0,0,1-.6-1.48v-59.85a2,2,0,0,1,.61-1.49,2,2,0,0,1,1.49-.61H643a23.43,23.43,0,0,1,9.23,1.83,23.22,23.22,0,0,1,7.53,5.08,24.79,24.79,0,0,1,5.07,7.52,22.55,22.55,0,0,1,1.88,9.19,25.87,25.87,0,0,1-1.58,9.15,19.54,19.54,0,0,1-4.78,7.35,22.77,22.77,0,0,1-8,4.9A31.9,31.9,0,0,1,641.14-5209.09Zm.64-30.71h-8.27a2,2,0,0,0-1.49.61,2,2,0,0,0-.62,1.47v10.27A2,2,0,0,0,632-5226a2,2,0,0,0,1.49.6h9.41a5.61,5.61,0,0,0,4.88-2.13,8,8,0,0,0,1.54-4.82,7.88,7.88,0,0,0-.49-2.74,6.73,6.73,0,0,0-1.45-2.39,7.26,7.26,0,0,0-2.37-1.7A7.58,7.58,0,0,0,641.78-5239.8Z" transform="translate(-171.72 5898.16)"/><path class="cls-2" d="M688.79-5191.85h-13.1a2,2,0,0,1-1.5-.62,2,2,0,0,1-.61-1.48v-59.85a2,2,0,0,1,.61-1.49,2,2,0,0,1,1.49-.61h27.21a25.25,25.25,0,0,1,9.36,1.7,21.16,21.16,0,0,1,7.31,4.77,22.07,22.07,0,0,1,4.72,7.26,24.41,24.41,0,0,1,1.71,9.28,23.81,23.81,0,0,1-.66,5.56,24,24,0,0,1-1.88,5.2,22,22,0,0,1-2.89,4.42,16,16,0,0,1-3.76,3.28,2.46,2.46,0,0,0-.92,1.27,1.57,1.57,0,0,0,.31,1.44q3.31,4.38,7,9t6.56,8.48a1.61,1.61,0,0,1,.26,1.54,1.08,1.08,0,0,1-1.13.83H712.6a4.4,4.4,0,0,1-1.88-.48,4,4,0,0,1-1.53-1.19q-2.79-3.67-5.53-7.43t-5.44-7.62a4.2,4.2,0,0,0-1.49-1.18,4,4,0,0,0-1.82-.48H693a2,2,0,0,0-1.48.61,2,2,0,0,0-.61,1.49v14.18a2,2,0,0,1-.62,1.48A2,2,0,0,1,688.79-5191.85Zm4.2-34.48h9.23a6.7,6.7,0,0,0,2.18-.39,6.29,6.29,0,0,0,2.09-1.23,6.56,6.56,0,0,0,1.56-2.05,6.38,6.38,0,0,0,.61-2.89,8.59,8.59,0,0,0-.3-2.06,7.16,7.16,0,0,0-1.05-2.27,6.13,6.13,0,0,0-2-1.84,6,6,0,0,0-3.09-.74H693a2,2,0,0,0-1.48.61,2,2,0,0,0-.61,1.49v9.27a2,2,0,0,0,.61,1.49A2,2,0,0,0,693-5226.33Z" transform="translate(-171.72 5898.16)"/><path class="cls-2" d="M752.42-5191.85H739.28a2,2,0,0,1-1.53-.62,2.11,2.11,0,0,1-.56-1.48v-59.77a2.13,2.13,0,0,1,.56-1.48,2,2,0,0,1,1.53-.62h13.14a2,2,0,0,1,1.48.62,2,2,0,0,1,.61,1.48v59.77a2,2,0,0,1-.61,1.48A2,2,0,0,1,752.42-5191.85Z" transform="translate(-171.72 5898.16)"/><path class="cls-2" d="M837.64-5253.72v59.77a2,2,0,0,1-.61,1.48,2,2,0,0,1-1.48.62H822.4a2,2,0,0,1-1.48-.62,2,2,0,0,1-.61-1.48v-28.18a.83.83,0,0,0-.79-1,1.38,1.38,0,0,0-1.31.61l-14.74,23.71a1.52,1.52,0,0,1-1.4.7,1.74,1.74,0,0,1-1.49-.7l-14.74-23.71a1.2,1.2,0,0,0-1.23-.61.84.84,0,0,0-.79,1v28.18a2,2,0,0,1-.61,1.48,2,2,0,0,1-1.47.62H768.59a2,2,0,0,1-1.48-.62,2,2,0,0,1-.61-1.48v-59.77a2,2,0,0,1,.61-1.48,2,2,0,0,1,1.48-.62h12.19a3.83,3.83,0,0,1,1.83.53,3.75,3.75,0,0,1,1.39,1.22l16.84,24.68a1.51,1.51,0,0,0,1.23.7,1.3,1.3,0,0,0,1.14-.7l16.84-24.68a4.59,4.59,0,0,1,1.48-1.22,3.83,3.83,0,0,1,1.83-.53h12.19a2,2,0,0,1,1.48.62A2,2,0,0,1,837.64-5253.72Z" transform="translate(-171.72 5898.16)"/><path class="cls-2" d="M868.79-5237.7v3.67a2,2,0,0,0,.61,1.49,2,2,0,0,0,1.49.61H894.6a2.07,2.07,0,0,1,1.49.61,2.07,2.07,0,0,1,.61,1.49v12.08a2,2,0,0,1-.61,1.48,2,2,0,0,1-1.49.62H870.89a2,2,0,0,0-1.49.61,2,2,0,0,0-.61,1.49v3.32a2,2,0,0,0,.61,1.49,2,2,0,0,0,1.49.61H898.1a2.07,2.07,0,0,1,1.49.61,2.07,2.07,0,0,1,.61,1.49v12.08a2,2,0,0,1-.61,1.48,2,2,0,0,1-1.49.62H853.56a2,2,0,0,1-1.49-.62,2,2,0,0,1-.61-1.48v-59.85a2.05,2.05,0,0,1,.61-1.49,2,2,0,0,1,1.49-.61H898.1a2,2,0,0,1,1.49.61,2.05,2.05,0,0,1,.61,1.49v11.9a2,2,0,0,1-.61,1.48,2,2,0,0,1-1.49.62H870.89a2,2,0,0,0-1.49.61A2,2,0,0,0,868.79-5237.7Z" transform="translate(-171.72 5898.16)"/><rect class="cls-3" width="735.26" height="735.26"/></svg>