<svg id="Calque_15" data-name="Calque 15" xmlns="http://www.w3.org/2000/svg" viewBox="0 0 570.9 648.4"><defs><style>.cls-1{fill:#644b99;}.cls-2{fill:#55368b;}.cls-3{fill:none;}.cls-4{fill:#fff;}</style></defs><path class="cls-1" d="M-298.17,538.8V957.63a43,43,0,0,1-43,43h-371a43,43,0,0,1-43-43V411.33a43,43,0,0,1,43-43.05h243.53Z" transform="translate(821.49 -358.96)"/><path class="cls-2" d="M-425.19,538.8h126.84a.18.18,0,0,0,.13-.31l-169.89-169.9a.18.18,0,0,0-.31.13V495.57A43.23,43.23,0,0,0-425.19,538.8Z" transform="translate(821.49 -358.96)"/><path class="cls-3" d="M-821.49,359v648.4h570.9V359Zm523.32,598.67a43,43,0,0,1-43,43h-371a43,43,0,0,1-43-43V411.33a43,43,0,0,1,43-43.05h243.53L-298.17,538.8Z" transform="translate(821.49 -358.96)"/><circle class="cls-4" cx="184.14" cy="268.64" r="22.56"/><rect class="cls-4" x="243.18" y="250.4" width="184.8" height="37.44"/><circle class="cls-4" cx="184.14" cy="356.48" r="22.56"/><rect class="cls-4" x="243.18" y="338.24" width="184.8" height="37.44"/><circle class="cls-4" cx="184.14" cy="444.32" r="22.56"/><rect class="cls-4" x="243.18" y="426.08" width="184.8" height="37.44"/></svg>