<svg id="Calque_17" data-name="Calque 17" xmlns="http://www.w3.org/2000/svg" viewBox="0 0 2733.17 2053.52"><defs><style>.cls-1{fill:#fbbc09;}.cls-2{fill:#31a853;}.cls-3{fill:#517bbe;}.cls-4{fill:#c6221f;}.cls-5{fill:#e84335;}</style></defs><path class="cls-1" d="M-748.36-774.54l-618.83,460.13q0-397.55-.12-795.08c0-17.57-2.63-13.27,12.21-24.43q80.28-60.4,160.59-120.76c38-28.66,80.57-46.81,127.58-53.46,117.2-16.58,227.46,39.37,284.14,141.17a263.41,263.41,0,0,1,32.84,106c.84,9.61,1.56,19.26,1.56,28.89Z" transform="translate(3481.4 1311.02)"/><path class="cls-2" d="M-748.23,557.09a185.25,185.25,0,0,1-145.3,180.75,195.11,195.11,0,0,1-41.61,4.44q-210,.48-420,.19h-12.08V730.7q0-522.56,0-1045.11l618.83-460.13Q-748.31-108.72-748.23,557.09Z" transform="translate(3481.4 1311.02)"/><path class="cls-3" d="M-2862.41,730.7v11.77h-12.07q-210,0-420-.19a195.11,195.11,0,0,1-41.61-4.44,185.25,185.25,0,0,1-145.3-180.75q.2-666.37.13-1332.75l618.83,461.25Q-2862.47,208.15-2862.41,730.7Z" transform="translate(3481.4 1311.02)"/><path class="cls-4" d="M-2862.31-1109.49q0,397.54-.13,795.08l-618.83-461.25,0-256.42c0-9.63.72-19.28,1.57-28.89a263.24,263.24,0,0,1,32.83-106c56.68-101.8,167-157.75,284.15-141.17,47,6.65,89.56,24.8,127.57,53.46q80.22,60.48,160.6,120.76C-2859.69-1122.76-2862.31-1127.06-2862.31-1109.49Z" transform="translate(3481.4 1311.02)"/><path class="cls-5" d="M-1367.31-1109.49q0,397.54.12,795.08l-748.53,556.57-746.72-556.57q0-397.55.13-795.08c0-17.57,2.62-13.27-12.21-24.43l758.8,558.16,760.62-558.16C-1369.94-1122.76-1367.31-1127.06-1367.31-1109.49Z" transform="translate(3481.4 1311.02)"/></svg>