<svg id="Calque_19" data-name="Calque 19" xmlns="http://www.w3.org/2000/svg" viewBox="0 0 1714.18 1946.88"><defs><style>.cls-1{fill:#028b9f;}.cls-2{fill:#8fcfd2;}.cls-3{fill:#d53116;}.cls-4{fill:#db5d2a;}.cls-5{fill:none;}</style></defs><path class="cls-1" d="M-2427.62,497.64c8.81,5.31,15.87,9.19,22.54,13.63q238.71,159,477.59,317.78c16.29,10.77,20.37,21.53,18.82,40.62-18.71,231.72-184,419.94-412.71,463.72-97,18.58-193.29,10.3-286.26-26.73-16.86-6.72-20.73-14.84-16.51-31.67q94.68-377.23,188.7-754.63C-2433.71,513.4-2430.79,506.73-2427.62,497.64Z" transform="translate(3272.61 276.21)"/><path class="cls-2" d="M-2523.89,745.08c-44.8,179.16-89.13,356.47-133.47,533.77l-3.44-.59v-581Z" transform="translate(3272.61 276.21)"/><path class="cls-2" d="M-2695.74,1265c-36.79-151-73.59-301.9-111.41-457.06l118.24,21.4v434.17Z" transform="translate(3272.61 276.21)"/><path class="cls-1" d="M-2889.56,917.86c27.73,2.4,50.5,3.65,73,6.9,4.6.67,10.45,8.27,11.77,13.64,23.64,96,46.66,192.18,69.81,288.31l-5.86,2.46Z" transform="translate(3272.61 276.21)"/><path class="cls-3" d="M-1658.32,841c0,418.19-339,757.2-757.2,757.2s-757.2-339-757.2-757.2c0-381.77,282.54-697.56,649.92-749.65V257.36c-276.45,50.48-486,292.57-486,583.6,0,327.66,265.62,593.28,593.28,593.28s593.28-265.62,593.28-593.28a597.3,597.3,0,0,0-5.41-80.4h165.11A765.35,765.35,0,0,1-1658.32,841Z" transform="translate(3272.61 276.21)"/><rect class="cls-3" x="857.09" y="319.65" width="198.72" height="198.72"/><rect class="cls-4" x="1201.53" y="177.09" width="142.56" height="142.56"/><rect class="cls-3" x="1298.01" y="419.01" width="99.36" height="99.36"/><rect class="cls-4" x="1097.85" y="564.45" width="151.2" height="151.2"/><rect class="cls-3" x="1430.49" y="658.05" width="131.04" height="131.04"/><rect class="cls-4" x="1516.89" y="871.17" width="87.12" height="87.12"/><rect class="cls-4" x="1604.01" y="535.65" width="84.6" height="84.6"/><rect class="cls-3" x="1397.37" y="32.45" width="98.24" height="98.24"/><rect class="cls-5" width="1714.18" height="1946.88"/></svg>