<svg id="Calque_20" data-name="Calque 20" xmlns="http://www.w3.org/2000/svg" viewBox="0 0 954.67 1111.25"><defs><style>.cls-1{fill:#e30919;}.cls-1,.cls-2{stroke:#b2b2b2;stroke-miterlimit:10;stroke-width:30px;}.cls-2{fill:none;}</style></defs><path class="cls-1" d="M-1602.89,0V205.47h-924.67V0a106.67,106.67,0,0,1,100.77-106.53V2a49.37,49.37,0,0,0,49.39,49.39,49.22,49.22,0,0,0,35-14.45A49.23,49.23,0,0,0-2328,2V-106.7h519.64V2A49.37,49.37,0,0,0-1759,51.36a49.21,49.21,0,0,0,35-14.45A49.24,49.24,0,0,0-1709.58,2V-106.7A106.67,106.67,0,0,1-1602.89,0Z" transform="translate(2542.56 220.49)"/><path class="cls-2" d="M-1602.89,205.47v563.6a106.67,106.67,0,0,1-106.69,106.69h-711.29a106.67,106.67,0,0,1-106.69-106.69V205.47Z" transform="translate(2542.56 220.49)"/><rect class="cls-2" x="115.77" y="534.63" width="98.79" height="98.79"/><rect class="cls-2" x="273.83" y="534.63" width="98.79" height="98.79"/><rect class="cls-2" x="584.03" y="534.63" width="98.79" height="98.79"/><rect class="cls-2" x="427.94" y="534.63" width="98.79" height="98.79"/><rect class="cls-2" x="742.09" y="534.63" width="98.79" height="98.79"/><rect class="cls-2" x="115.77" y="686.77" width="98.79" height="98.79"/><rect class="cls-2" x="273.83" y="686.77" width="98.79" height="98.79"/><rect class="cls-2" x="584.03" y="686.77" width="98.79" height="98.79"/><rect class="cls-2" x="427.94" y="686.77" width="98.79" height="98.79"/><rect class="cls-2" x="742.09" y="686.77" width="98.79" height="98.79"/><rect class="cls-2" x="115.77" y="838.9" width="98.79" height="98.79"/><rect class="cls-2" x="273.83" y="838.9" width="98.79" height="98.79"/><rect class="cls-2" x="584.03" y="838.9" width="98.79" height="98.79"/><rect class="cls-2" x="427.94" y="838.9" width="98.79" height="98.79"/><rect class="cls-2" x="742.09" y="838.9" width="98.79" height="98.79"/><path class="cls-2" d="M-2328-156.1V2a49.23,49.23,0,0,1-14.44,34.94,49.22,49.22,0,0,1-35,14.45A49.37,49.37,0,0,1-2426.79,2V-156.1a49.37,49.37,0,0,1,49.39-49.39A49.37,49.37,0,0,1-2328-156.1Z" transform="translate(2542.56 220.49)"/><path class="cls-2" d="M-1709.58-156.1V2A49.24,49.24,0,0,1-1724,36.91a49.21,49.21,0,0,1-35,14.45A49.37,49.37,0,0,1-1808.37,2V-156.1A49.37,49.37,0,0,1-1759-205.49,49.38,49.38,0,0,1-1709.58-156.1Z" transform="translate(2542.56 220.49)"/></svg>