<svg id="Calque_18" data-name="Calque 18" xmlns="http://www.w3.org/2000/svg" viewBox="0 0 1190.5 1352.11"><defs><style>.cls-1{fill:#e30919;}.cls-2{fill:none;}</style></defs><path class="cls-1" d="M-2409.93-1569.31l721.06,668.06c-90.2,26.12-175.26,51.58-261,74.54-10.67,2.86-27.81-4.23-37-12.35-53.79-47.69-106.1-97.05-158.93-145.84-8.78-8.12-17.62-16.18-34.12-31.31v79.43c0,50.9.93,101.82-.83,152.66-.35,10.07-9.08,26.11-17.3,28.68-69.3,21.7-139.39,40.91-211.92,61.63Z" transform="translate(2482.62 1572.24)"/><path class="cls-1" d="M-1621.24-923v-647.43h233.39c.54,10.16,1.59,20.79,1.59,31.42.11,173.39-.32,346.78.57,520.17.11,22-4.51,33.38-27.71,39.29-60.72,15.47-120.68,33.91-181,51C-1602.62-926.24-1611.16-925-1621.24-923Z" transform="translate(2482.62 1572.24)"/><path class="cls-1" d="M-1364.82-597.68c-.68,75.5-60,134.1-135.37,133.82-76.33-.29-136.12-61-135.61-137.65a136.55,136.55,0,0,1,137.72-135.86C-1422.59-736.9-1364.11-675.6-1364.82-597.68Z" transform="translate(2482.62 1572.24)"/><rect class="cls-2" width="1190.5" height="1352.11"/><path class="cls-1" d="M-2128.34-382.84v12.52a6.92,6.92,0,0,0,2.08,5.08,6.92,6.92,0,0,0,5.08,2.08h80.84a6.92,6.92,0,0,1,5.07,2.09,6.94,6.94,0,0,1,2.09,5.07v41.17a6.91,6.91,0,0,1-2.09,5.07,6.88,6.88,0,0,1-5.07,2.09h-80.84a6.93,6.93,0,0,0-5.08,2.09,6.9,6.9,0,0,0-2.08,5.07v11.34a6.9,6.9,0,0,0,2.08,5.07,6.93,6.93,0,0,0,5.08,2.09h92.77a6.9,6.9,0,0,1,5.07,2.08,6.94,6.94,0,0,1,2.09,5.08v41.16a6.91,6.91,0,0,1-2.09,5.07,6.87,6.87,0,0,1-5.07,2.09h-151.84a6.87,6.87,0,0,1-5.07-2.09,6.87,6.87,0,0,1-2.09-5.07v-204a6.91,6.91,0,0,1,2.09-5.08,6.94,6.94,0,0,1,5.07-2.08h151.84a6.94,6.94,0,0,1,5.07,2.08,6.94,6.94,0,0,1,2.09,5.08v40.57a6.91,6.91,0,0,1-2.09,5.07,6.91,6.91,0,0,1-5.07,2.09h-92.77a7,7,0,0,0-5.08,2.08A6.94,6.94,0,0,0-2128.34-382.84Z" transform="translate(2482.62 1572.24)"/><path class="cls-1" d="M-1778.12-437.73v204a6.91,6.91,0,0,1-2.09,5.07,6.85,6.85,0,0,1-5.06,2.09h-44.06a13,13,0,0,1-6.25-1.79,15.4,15.4,0,0,1-5.06-4.17L-1918.34-342c-1.19-1.58-2.44-2.23-3.72-1.93s-1.94,1.44-1.94,3.43v106.79a6.88,6.88,0,0,1-2.1,5.07,6.93,6.93,0,0,1-5.1,2.09h-44.67a6.93,6.93,0,0,1-5.1-2.09,6.88,6.88,0,0,1-2.1-5.07v-204a6.94,6.94,0,0,1,2.09-5.08,6.94,6.94,0,0,1,5.07-2.08h44.75a14.09,14.09,0,0,1,6.27,1.64,14.1,14.1,0,0,1,5.07,4l77.56,109.49q1.79,2.39,3.73,2.08c1.29-.19,1.94-1.29,1.94-3.28V-437.73a6.91,6.91,0,0,1,2.09-5.08,6.92,6.92,0,0,1,5.07-2.08h44.15a7,7,0,0,1,5.07,2.08A6.94,6.94,0,0,1-1778.12-437.73Z" transform="translate(2482.62 1572.24)"/><path class="cls-1" d="M-1587.2-390H-1629a7,7,0,0,0-5.08,2.08,6.94,6.94,0,0,0-2.08,5.08v149.15a7.19,7.19,0,0,1-1.94,5.07,6.77,6.77,0,0,1-5.22,2.09H-1688a6.87,6.87,0,0,1-5.07-2.09,6.91,6.91,0,0,1-2.09-5.07V-382.84a7.23,7.23,0,0,0-1.94-5.08,6.81,6.81,0,0,0-5.22-2.08h-42.36a6.91,6.91,0,0,1-5.07-2.09,6.91,6.91,0,0,1-2.09-5.07v-40.57a6.94,6.94,0,0,1,2.09-5.08,6.94,6.94,0,0,1,5.07-2.08h157.51a6.82,6.82,0,0,1,5.22,2.08,7.23,7.23,0,0,1,1.94,5.08v40.57a7.19,7.19,0,0,1-1.94,5.07A6.79,6.79,0,0,1-1587.2-390Z" transform="translate(2482.62 1572.24)"/></svg>