<svg id="Calque_42" data-name="Calque 42" xmlns="http://www.w3.org/2000/svg" viewBox="0 0 1606.82 485.49"><defs><style>.cls-1,.cls-2,.cls-3{fill:none;}.cls-1,.cls-2{stroke:#dadada;stroke-miterlimit:10;stroke-width:20px;}.cls-2{stroke-linecap:round;}</style></defs><path class="cls-1" d="M-3500.11-1040.18l-193.27,53.81-271.15,75.5a35.53,35.53,0,0,1-45.07-34.23V-1011h-927.54a35.54,35.54,0,0,1-35.54-35.54v-55.65a35.54,35.54,0,0,1,35.54-35.53h927.54v-66a35.53,35.53,0,0,1,45.07-34.23l271.15,75.5,193.27,53.81C-3465.44-1099-3465.44-1049.84-3500.11-1040.18Z" transform="translate(5070.93 1385.04)"/><line class="cls-2" x1="170.72" y1="193.12" x2="10" y2="32.4"/><line class="cls-2" x1="508.56" y1="193.12" x2="347.84" y2="32.4"/><line class="cls-2" x1="645.79" y1="193.12" x2="485.08" y2="32.4"/><line class="cls-2" x1="907.37" y1="193.12" x2="746.66" y2="32.4"/><rect class="cls-3" x="7.53" width="1589.29" height="475.49"/></svg>