<svg id="Calque_4" data-name="Calque 4" xmlns="http://www.w3.org/2000/svg" viewBox="0 0 570.89 648.4"><defs><style>.cls-1{fill:#4378bc;}.cls-2{fill:#2f63ad;}.cls-3{fill:#fff;}.cls-4{fill:none;}</style></defs><path class="cls-1" d="M-1106.27,268H-1349.8a43,43,0,0,0-43,43.05v546.3a43,43,0,0,0,43,43.05h371a43,43,0,0,0,43-43.05V438.48Zm-8.46,507.53a7.33,7.33,0,0,1-7.33,7.33H-1280.3a7.33,7.33,0,0,1-7.33-7.33v-12a7.33,7.33,0,0,1,7.33-7.33h158.24a7.33,7.33,0,0,1,7.33,7.33Zm55.09-57.34a7.33,7.33,0,0,1-7.33,7.34H-1280.3a7.33,7.33,0,0,1-7.33-7.34v-12a7.34,7.34,0,0,1,7.33-7.34H-1067a7.34,7.34,0,0,1,7.33,7.34Zm0-57.33a7.34,7.34,0,0,1-7.33,7.34H-1280.3a7.34,7.34,0,0,1-7.33-7.34v-12a7.34,7.34,0,0,1,7.33-7.34H-1067a7.34,7.34,0,0,1,7.33,7.34Zm0-57.33a7.34,7.34,0,0,1-7.33,7.34H-1280.3a7.34,7.34,0,0,1-7.33-7.34v-12a7.33,7.33,0,0,1,7.33-7.34H-1067a7.33,7.33,0,0,1,7.33,7.34Z" transform="translate(1459.08 -258.64)"/><path class="cls-2" d="M-1065.2,438.48h126.85a.18.18,0,0,0,.12-.31l-169.89-169.9a.18.18,0,0,0-.31.13V395.25A43.23,43.23,0,0,0-1065.2,438.48Z" transform="translate(1459.08 -258.64)"/><path class="cls-3" d="M-1059.64,591.5v12a7.34,7.34,0,0,1-7.33,7.34H-1280.3a7.34,7.34,0,0,1-7.33-7.34v-12a7.33,7.33,0,0,1,7.33-7.34H-1067A7.33,7.33,0,0,1-1059.64,591.5Z" transform="translate(1459.08 -258.64)"/><path class="cls-4" d="M-1459.08,258.64V907h570.89V258.64Zm379.36,409.52h-187.83c-3.57,0-6.45-3.29-6.45-7.34v-12c0-4.05,2.88-7.34,6.45-7.34h187.83c3.57,0,6.45,3.29,6.45,7.34v12C-1073.27,664.87-1076.15,668.16-1079.72,668.16Zm6.45,38v12c0,4.06-2.88,7.34-6.45,7.34h-187.83c-3.57,0-6.45-3.28-6.45-7.34v-12c0-4,2.88-7.34,6.45-7.34h187.83C-1076.15,698.82-1073.27,702.11-1073.27,706.16ZM-1274,763.49c0-4,2.88-7.33,6.45-7.33h139.33c3.56,0,6.45,3.28,6.45,7.33v12c0,4-2.89,7.33-6.45,7.33h-139.33c-3.57,0-6.45-3.28-6.45-7.33Zm200.73-160c0,4-2.88,7.34-6.45,7.34h-187.83c-3.57,0-6.45-3.29-6.45-7.34v-12c0-4.06,2.88-7.34,6.45-7.34h187.83c3.57,0,6.45,3.28,6.45,7.34Z" transform="translate(1459.08 -258.64)"/><rect class="cls-3" x="171.45" y="497.52" width="172.9" height="26.66" rx="7.33"/><path class="cls-3" d="M-1059.64,706.16v12a7.33,7.33,0,0,1-7.33,7.34H-1280.3a7.33,7.33,0,0,1-7.33-7.34v-12a7.34,7.34,0,0,1,7.33-7.34H-1067A7.34,7.34,0,0,1-1059.64,706.16Z" transform="translate(1459.08 -258.64)"/><path class="cls-3" d="M-1059.64,648.83v12a7.34,7.34,0,0,1-7.33,7.34H-1280.3a7.34,7.34,0,0,1-7.33-7.34v-12a7.34,7.34,0,0,1,7.33-7.34H-1067A7.34,7.34,0,0,1-1059.64,648.83Z" transform="translate(1459.08 -258.64)"/></svg>