<svg id="Calque_13" data-name="Calque 13" xmlns="http://www.w3.org/2000/svg" viewBox="0 0 570.9 648.4"><defs><style>.cls-1{fill:#0b9e59;}.cls-2{fill:#92ccaf;}.cls-3,.cls-4{fill:none;}.cls-4{stroke:#fff;stroke-miterlimit:10;stroke-width:23px;}</style></defs><path class="cls-1" d="M-936.09,436.2V855a43,43,0,0,1-43,43.05h-371a43,43,0,0,1-43-43.05V308.73a43,43,0,0,1,43-43.05h243.53Z" transform="translate(1459.41 -256.36)"/><path class="cls-2" d="M-1063.11,436.2h126.84a.18.18,0,0,0,.13-.31L-1106,266a.18.18,0,0,0-.31.13V393A43.23,43.23,0,0,0-1063.11,436.2Z" transform="translate(1459.41 -256.36)"/><path class="cls-3" d="M-1459.41,256.36v648.4h570.9V256.36ZM-936.09,855a43,43,0,0,1-43,43.05h-371a43,43,0,0,1-43-43.05V308.73a43,43,0,0,1,43-43.05h243.53L-936.09,436.2Z" transform="translate(1459.41 -256.36)"/><rect class="cls-4" x="177.79" y="303.7" width="233.99" height="194.19"/><line class="cls-4" x1="177.79" y1="367.52" x2="411.78" y2="367.52"/><line class="cls-4" x1="294.78" y1="303.7" x2="294.78" y2="497.9"/><line class="cls-4" x1="177.79" y1="434.08" x2="411.78" y2="434.08"/></svg>