<svg id="Calque_14" data-name="Calque 14" xmlns="http://www.w3.org/2000/svg" viewBox="0 0 570.9 648.4"><defs><style>.cls-1{fill:#f5ba14;}.cls-2{fill:#fadc87;}.cls-3{fill:none;}.cls-4{fill:#fff;stroke:#fff;stroke-miterlimit:10;}</style></defs><path class="cls-1" d="M-843,454.73V873.56a43,43,0,0,1-43,43.05h-371a43,43,0,0,1-43-43.05V327.26a43,43,0,0,1,43-43.05h243.53Z" transform="translate(1366.33 -274.89)"/><path class="cls-2" d="M-970,454.73h126.85a.18.18,0,0,0,.13-.31L-1013,284.52a.18.18,0,0,0-.31.13V411.5A43.24,43.24,0,0,0-970,454.73Z" transform="translate(1366.33 -274.89)"/><path class="cls-3" d="M-1366.33,274.89v648.4h570.9V274.89ZM-843,873.56a43,43,0,0,1-43,43.05h-371a43,43,0,0,1-43-43.05V327.26a43,43,0,0,1,43-43.05h243.53L-843,454.73Z" transform="translate(1366.33 -274.89)"/><path class="cls-4" d="M-977.83,587.88h-187.44a24,24,0,0,0-24,24V799.32a24,24,0,0,0,24,24h187.44a24,24,0,0,0,24-24V611.88A24,24,0,0,0-977.83,587.88Zm-5.28,169h-176.16V654.12h176.16Z" transform="translate(1366.33 -274.89)"/></svg>