<svg id="Calque_39" data-name="Calque 39" xmlns="http://www.w3.org/2000/svg" viewBox="0 0 1152.63 1059.06"><defs><style>.cls-1{fill:none;stroke:#f6f6f6;stroke-linecap:round;stroke-miterlimit:10;stroke-width:30px;}</style></defs><path class="cls-1" d="M-1625-796.15A494.46,494.46,0,0,1-1869.8-669.61" transform="translate(2576.39 1713.67)"/><path class="cls-1" d="M-1807.12-1625.59c195.83,66.21,336.81,251.47,336.81,469.65a496.86,496.86,0,0,1-14.09,117.84" transform="translate(2576.39 1713.67)"/><path class="cls-1" d="M-2459.33-1203.77c16.35-170.77,119.36-316.25,264.54-392" transform="translate(2576.39 1713.67)"/><path class="cls-1" d="M-2220.11-730.32a498.19,498.19,0,0,1-148.34-136.3" transform="translate(2576.39 1713.67)"/><path class="cls-1" d="M-1746.41-1203.08a225.26,225.26,0,0,1,5,47.14c0,124-100.52,224.5-224.51,224.5s-224.5-100.51-224.5-224.5,100.51-224.5,224.5-224.5a223.82,223.82,0,0,1,161.23,68.27" transform="translate(2576.39 1713.67)"/><path class="cls-1" d="M-2336-1203.77a370.45,370.45,0,0,1,34-114.51" transform="translate(2576.39 1713.67)"/><path class="cls-1" d="M-1717.06-878A371.7,371.7,0,0,1-1966-782.82c-121.79,0-229.95-58.35-298.05-148.61" transform="translate(2576.39 1713.67)"/><path class="cls-1" d="M-1810-1495c128.17,59.07,217.13,188.67,217.13,339a374,374,0,0,1-9.33,83.28" transform="translate(2576.39 1713.67)"/><line class="cls-1" x1="765.32" y1="395.21" x2="870.41" y2="290.13"/><line class="cls-1" x1="725.75" y1="750.38" x2="809.56" y2="873.31"/><line class="cls-1" x1="307.05" y1="949.69" x2="385.93" y2="855.76"/><line class="cls-1" x1="934.78" y1="655.58" x2="824.78" y2="624.68"/><line class="cls-1" x1="1099.52" y1="476.88" x2="977.44" y2="490.16"/><rect class="cls-1" x="-2122.93" y="-1769.28" width="240.68" height="381.91" rx="12" transform="translate(-1004.54 2137.93) rotate(90)"/><circle class="cls-1" cx="998.91" cy="782.23" r="138.72"/><polygon class="cls-1" points="245.45 516.09 110.45 516.09 15 611.54 15 746.53 110.45 841.99 245.45 841.99 340.9 746.53 340.9 611.54 245.45 516.09"/></svg>