<svg id="Calque_11" data-name="Calque 11" xmlns="http://www.w3.org/2000/svg" viewBox="0 0 657.32 783.55"><defs><style>.cls-1{fill:none;stroke:#f6f6f6;stroke-linecap:round;stroke-miterlimit:10;stroke-width:41px;}</style></defs><path class="cls-1" d="M-3606.87-1750v352a33.48,33.48,0,0,1-33.47,33.48h-146.17A33.48,33.48,0,0,1-3820-1398v-191.1c0-54.47-45.14-98.83-99.55-96.29a95.05,95.05,0,0,0-90.53,94.94V-1398a33.48,33.48,0,0,1-33.47,33.48h-146.17a33.48,33.48,0,0,1-33.48-33.48V-1749.1a50,50,0,0,1,12.14-32.65l270.68-313.68a33.47,33.47,0,0,1,50.69,0l271.26,314.35A47.62,47.62,0,0,1-3606.87-1750Z" transform="translate(4243.69 2127.54)"/></svg>