<svg id="Calque_194" data-name="Calque 194" xmlns="http://www.w3.org/2000/svg" viewBox="0 0 1463.78 1463.78"><defs><style>.cls-1,.cls-2,.cls-3{fill:none;}.cls-1,.cls-2{stroke:#f1f1f1;stroke-miterlimit:10;stroke-width:27px;}.cls-2{stroke-linecap:round;}</style></defs><path class="cls-1" d="M2909.56-6573.9c-164.58,33.72-315.27,64.46-465.91,95.49-196.51,40.47-392.79,82.1-589.62,121-41.58,8.21-64.09,23.26-76.33,67.94-57.53,210.14-119.91,419-180.48,628.27-5.74,19.82-11,39.79-19.27,70,38-.44,72.36,3.87,104.06-3.42,13.34-3.07,25.3-29.36,30.67-47.25,56.15-187.18,111.66-374.56,165.18-562.49,10.39-36.47,26.57-52.2,66-57.53,279.31-37.74,558.23-78.37,837.12-119.1,13.54-2,31.21-10.44,37.49-21.33C2848.48-6454.36,2875.21-6508.3,2909.56-6573.9Z" transform="translate(-1501.48 6773.79)"/><path class="cls-1" d="M2720.82-6309.56c-126.17,17-242.15,32.32-358,48.31-119.87,16.55-239.33,36.87-359.62,49.2-51.3,5.26-78.93,23.08-86.52,74.2-3.42,23-13,45.06-21.9,74.54,102.08-8.24,196.29-15.57,290.45-23.51,134.33-11.34,268.54-24.23,403-34,33.86-2.44,53.38-15,66.29-45.9C2673.41-6212.06,2695.74-6256,2720.82-6309.56Z" transform="translate(-1501.48 6773.79)"/><path class="cls-1" d="M1853-5911.09c204.1-5.5,404.23-10.52,604.3-17.13,12.71-.42,30.5-10.07,36.51-20.74,20.06-35.6,35.84-73.62,56.59-117.79-170.63,14.32-333.8,28.07-497,41.69-34.42,2.88-68.9,5.06-103.31,8C1868.34-6010.24,1862.58-6004.22,1853-5911.09Z" transform="translate(-1501.48 6773.79)"/><path class="cls-1" d="M1801.52-5756.25c170.73.87,338,2.2,505.34,1.59,12.18,0,28.84-11.34,35.58-22.25,17-27.59,29.62-57.94,47.88-95.09-40.34,0-73.9-.77-107.41.11q-186.37,4.89-372.72,10.71C1818.74-5858.41,1818.74-5858.23,1801.52-5756.25Z" transform="translate(-1501.48 6773.79)"/><path class="cls-1" d="M2251.45-5704.16c-154.73-1-302.7-2.42-450.68-1.88-9.44,0-23.11,13.38-27.41,23.64-10.54,25.12-16.75,52-26.77,85.1,46.63,1.87,89,4.06,131.36,5.17,86.2,2.25,172.62.95,258.53,7,45.5,3.22,71.58-10.68,85.8-52.89C2229.19-5658.5,2239.68-5677.8,2251.45-5704.16Z" transform="translate(-1501.48 6773.79)"/><path class="cls-2" d="M1705.47-6288.27h0a156.1,156.1,0,0,1,156.11-156.1h0" transform="translate(-1501.48 6773.79)"/><path class="cls-2" d="M1622.82-6298.87h0c0-126,102.15-228.15,228.16-228.15h0" transform="translate(-1501.48 6773.79)"/><path class="cls-2" d="M1538-6298.87h0c0-174,141-315,315-315h0" transform="translate(-1501.48 6773.79)"/><rect class="cls-3" width="1463.78" height="1463.78"/></svg>