<svg id="Calque_27" data-name="Calque 27" xmlns="http://www.w3.org/2000/svg" viewBox="0 0 665.2 665.2"><defs><style>.cls-1{fill:none;stroke:#f6f6f6;stroke-linecap:round;stroke-miterlimit:10;stroke-width:11px;}</style></defs><path class="cls-1" d="M-1979,799c-11.64,11-25.93,17.09-41.49,20.19-14.16,2.81-28.44,3.69-42.79,1.44a91.15,91.15,0,0,1-20.52-6.21,88.18,88.18,0,0,0-29.67-7,20.33,20.33,0,0,0-12.65,3.9c-4.19,2.87-8.3,5.85-12.44,8.78l-2.47,1.75c-5.54-34-11-67.49-16.51-101.2,4.16-1.4,8.24-2.77,12.44-4.16,1.44,4.53,2.76,9,4.24,13.34,4.65,13.76,10.41,27,18.68,39.07,13.29,19.39,31.92,30.8,54.55,35.94a95.72,95.72,0,0,0,42.27.12c20.58-4.55,34.58-16.89,42.28-36.35,5.93-14.95,7.6-30.63,6.56-46.55-.55-8.49-4.19-16.05-9-23-7.84-11.44-18.23-20.18-29.59-27.88-14.51-9.82-30.2-17.45-46.14-24.62-19.49-8.78-38.77-18-56.58-29.92a132.89,132.89,0,0,1-17.38-13.7c-7.93-7.51-12.38-17.22-15-27.72a99.63,99.63,0,0,1-2.26-39c2.14-14.47,8.73-27,17.41-38.6,15.45-20.66,36.18-32,61.55-35.28,19.22-2.51,38.18-1.54,56.71,4.45,5.56,1.8,10.89,4.34,16.44,6.2a42.87,42.87,0,0,0,10.55,2.38c8.66.63,15.26-3.12,19.79-10.53.66-1.08,1.29-2.17,2.2-3.72.8,8.09,1.55,15.63,2.29,23.17q1.89,19.26,3.76,38.51c.71,7.21,1.42,14.43,2.06,21.64a1.82,1.82,0,0,1-.68,1.52c-3.1,1.34-6.26,2.56-9.5,3.86-2.08-4.51-4-8.85-6.08-13.14-6.08-12.55-12.87-24.64-21.82-35.44-11.57-14-26.57-21.62-44.26-24.38a111.76,111.76,0,0,0-37,.55c-18.53,3.3-31.51,13.51-39.33,30.71-6.25,13.77-9.28,28-7.68,43.08,1.53,14.48,8.08,26.08,20.3,34.36s25.23,15.09,38.52,21.4c16.2,7.7,32.68,14.86,48.8,22.72s30.88,17.26,43.56,29.89c16.19,16.12,25.45,35.51,27.29,58.36C-1945,750-1955.78,777-1979,799Z" transform="translate(2385.01 -308.87)"/><path class="cls-1" d="M-2052.41,314.37c-180.65,0-327.1,146.45-327.1,327.1s146.45,327.1,327.1,327.1,327.1-146.44,327.1-327.1S-1871.75,314.37-2052.41,314.37Zm-4.14,631c-167.1-2.08-302.87-139.31-300.29-309.25,2.5-165.23,137.23-299.5,304.46-299.51,168.44-.05,306.17,137.28,304.33,307.93C-1749.83,811.09-1886.18,947.52-2056.55,945.4Z" transform="translate(2385.01 -308.87)"/></svg>