<svg id="Calque_199" data-name="Calque 199" xmlns="http://www.w3.org/2000/svg" viewBox="0 0 695.44 706.13"><defs><style>.cls-1,.cls-3{fill:none;}.cls-1{stroke:#f1f1f1;stroke-linecap:round;stroke-miterlimit:10;stroke-width:28px;}.cls-2{fill:#f1f1f1;}</style></defs><circle class="cls-1" cx="347.72" cy="296.86" r="279.41"/><circle class="cls-1" cx="347.72" cy="296.86" r="85.87"/><line class="cls-1" x1="347.72" y1="44.53" x2="347.72" y2="100.02"/><line class="cls-1" x1="600.05" y1="296.86" x2="544.57" y2="296.86"/><line class="cls-1" x1="508.46" y1="136.13" x2="520.02" y2="124.57"/><circle class="cls-1" cx="438.88" cy="85.04" r="1.98"/><circle class="cls-1" cx="549.19" cy="210.99" r="1.98"/><line class="cls-1" x1="98.69" y1="296.86" x2="154.18" y2="296.86"/><line class="cls-1" x1="190.29" y1="136.13" x2="178.73" y2="124.57"/><circle class="cls-1" cx="259.87" cy="85.04" r="1.98"/><circle class="cls-1" cx="149.56" cy="210.99" r="1.98"/><path class="cls-2" d="M-702.18-5306.24a15.92,15.92,0,0,1-22,5,15.93,15.93,0,0,1-5-21.95c4.67-7.45,144-199.72,144-199.72S-697.5-5313.69-702.18-5306.24Z" transform="translate(1058.04 5609.9)"/><path class="cls-2" d="M-975.27-4913.77v-59.85a2,2,0,0,1,.62-1.49,2,2,0,0,1,1.48-.61h23.89q13.74,0,22.49,8.05a28.74,28.74,0,0,1,7.17,10.41,35.68,35.68,0,0,1,2.45,13.56,36,36,0,0,1-2.45,13.61,28.6,28.6,0,0,1-7.17,10.46,29.88,29.88,0,0,1-10,5.95,36.94,36.94,0,0,1-12.47,2h-23.89a2,2,0,0,1-1.48-.61A2,2,0,0,1-975.27-4913.77Zm19.43-14h6.56a22.28,22.28,0,0,0,5.08-.61,11.54,11.54,0,0,0,4.72-2.32,12.57,12.57,0,0,0,3.46-4.81,20.53,20.53,0,0,0,1.35-8.1,20.51,20.51,0,0,0-1.35-8.09,12.26,12.26,0,0,0-3.5-4.81,12,12,0,0,0-4.73-2.32,21.69,21.69,0,0,0-5-.62h-6.56a2,2,0,0,0-1.49.62,2,2,0,0,0-.61,1.48v27.48a2,2,0,0,0,.61,1.49A2,2,0,0,0-955.84-4927.77Z" transform="translate(1058.04 5609.9)"/><path class="cls-2" d="M-892.14-4957.52v3.67a2,2,0,0,0,.61,1.49,2,2,0,0,0,1.49.61h23.71a2,2,0,0,1,1.49.62,2,2,0,0,1,.61,1.48v12.08a2,2,0,0,1-.61,1.49,2,2,0,0,1-1.49.61H-890a2,2,0,0,0-1.49.61,2,2,0,0,0-.61,1.49v3.32a2,2,0,0,0,.61,1.49,2,2,0,0,0,1.49.61h27.21a2,2,0,0,1,1.49.62,2,2,0,0,1,.61,1.48v12.08a2,2,0,0,1-.61,1.49,2,2,0,0,1-1.49.61h-44.54a2,2,0,0,1-1.48-.61,2,2,0,0,1-.62-1.49v-59.85a2,2,0,0,1,.62-1.49,2,2,0,0,1,1.48-.61h44.54a2,2,0,0,1,1.49.61,2,2,0,0,1,.61,1.49v11.9a2,2,0,0,1-.61,1.49,2,2,0,0,1-1.49.61H-890a2,2,0,0,0-1.49.61A2,2,0,0,0-892.14-4957.52Zm10.5-39.29,12.6,5.43c1.16.58,1.25,1.28.26,2.1l-12.51,9.36a7,7,0,0,1-1.79.92,6,6,0,0,1-2,.39h-11.12c-.58,0-1-.16-1.13-.48s-.06-.71.35-1.18l12.07-15.66a2.7,2.7,0,0,1,1.49-1A2.6,2.6,0,0,1-881.64-4996.81Z" transform="translate(1058.04 5609.9)"/><path class="cls-2" d="M-832.38-4957.37v3.64a2,2,0,0,0,.61,1.47,2.06,2.06,0,0,0,1.49.6h23.63a2,2,0,0,1,1.48.61,2,2,0,0,1,.62,1.49v12.25a2,2,0,0,1-.62,1.49,2,2,0,0,1-1.48.61h-23.63a2.07,2.07,0,0,0-1.49.61,2.07,2.07,0,0,0-.61,1.49v19.34a2,2,0,0,1-.61,1.49,2,2,0,0,1-1.48.61h-13.14a2,2,0,0,1-1.49-.61,2.06,2.06,0,0,1-.6-1.49v-59.85a2.06,2.06,0,0,1,.6-1.49,2,2,0,0,1,1.49-.61h44.46a2,2,0,0,1,1.48.62,2,2,0,0,1,.62,1.49v12a2,2,0,0,1-.62,1.5,2,2,0,0,1-1.48.61h-27.13a2.07,2.07,0,0,0-1.49.61A2,2,0,0,0-832.38-4957.37Z" transform="translate(1058.04 5609.9)"/><path class="cls-2" d="M-795.37-4943.7a31.92,31.92,0,0,1,2.63-12.86,34.13,34.13,0,0,1,7.09-10.54,33.09,33.09,0,0,1,10.5-7.13,31.88,31.88,0,0,1,12.86-2.63,31.88,31.88,0,0,1,12.86,2.63,33.6,33.6,0,0,1,10.54,7.13,33.75,33.75,0,0,1,7.14,10.54,31.91,31.91,0,0,1,2.62,12.86,32,32,0,0,1-2.62,12.87,33.75,33.75,0,0,1-7.14,10.54,33.6,33.6,0,0,1-10.54,7.13,31.88,31.88,0,0,1-12.86,2.63,31.88,31.88,0,0,1-12.86-2.63,33.09,33.09,0,0,1-10.5-7.13,34.13,34.13,0,0,1-7.09-10.54A32,32,0,0,1-795.37-4943.7Zm17.33,0a16.48,16.48,0,0,0,1.22,6.3,16.93,16.93,0,0,0,3.37,5.25,16.59,16.59,0,0,0,5,3.64,14.32,14.32,0,0,0,6.13,1.35,14.24,14.24,0,0,0,6.12-1.35,17.06,17.06,0,0,0,5.08-3.64,16.52,16.52,0,0,0,3.41-5.25,16.3,16.3,0,0,0,1.23-6.3,16.42,16.42,0,0,0-1.23-6.25,16.08,16.08,0,0,0-3.41-5.25,17.45,17.45,0,0,0-5.08-3.59,14.25,14.25,0,0,0-6.12-1.36,14.33,14.33,0,0,0-6.13,1.36,17,17,0,0,0-5,3.59,16.48,16.48,0,0,0-3.37,5.25A16.6,16.6,0,0,0-778-4943.7Z" transform="translate(1058.04 5609.9)"/><path class="cls-2" d="M-720.12-4973.53a2,2,0,0,1,.61-1.49,2,2,0,0,1,1.48-.61h13.15a2,2,0,0,1,1.48.61,2.05,2.05,0,0,1,.61,1.49v35.43a12.67,12.67,0,0,0,1.1,5.65,9.89,9.89,0,0,0,2.72,3.5,10.17,10.17,0,0,0,3.47,1.79,12.32,12.32,0,0,0,3.34.53,12.38,12.38,0,0,0,3.34-.53,9.69,9.69,0,0,0,3.42-1.79,10,10,0,0,0,2.68-3.5,12.67,12.67,0,0,0,1.1-5.65v-35.43A2,2,0,0,1-681-4975a2,2,0,0,1,1.48-.61h13.15a2,2,0,0,1,1.48.61,2.05,2.05,0,0,1,.61,1.49v35.43a31,31,0,0,1-2,11.29,24.1,24.1,0,0,1-5.63,8.66,25.3,25.3,0,0,1-8.83,5.56,31.86,31.86,0,0,1-11.44,2,31.92,31.92,0,0,1-11.45-2,25.34,25.34,0,0,1-8.82-5.56,24.48,24.48,0,0,1-5.68-8.66,30.38,30.38,0,0,1-2-11.29Z" transform="translate(1058.04 5609.9)"/><path class="cls-2" d="M-603.39-4925.67v11.9a2,2,0,0,1-.62,1.49,2,2,0,0,1-1.48.61h-43.67a2,2,0,0,1-1.53-.61,2.12,2.12,0,0,1-.57-1.49v-59.85a2.12,2.12,0,0,1,.57-1.49,2,2,0,0,1,1.53-.61H-636a2,2,0,0,1,1.49.61,2.07,2.07,0,0,1,.61,1.49v43.75a2.12,2.12,0,0,0,.57,1.49,2,2,0,0,0,1.53.61h26.34a2,2,0,0,1,1.48.61A2,2,0,0,1-603.39-4925.67Z" transform="translate(1058.04 5609.9)"/><path class="cls-2" d="M-603.74-4943.7a31.91,31.91,0,0,1,2.62-12.86A34.3,34.3,0,0,1-594-4967.1a33.2,33.2,0,0,1,10.5-7.13,31.92,31.92,0,0,1,12.86-2.63,32,32,0,0,1,12.87,2.63,33.83,33.83,0,0,1,10.54,7.13,33.89,33.89,0,0,1,7.13,10.54,31.92,31.92,0,0,1,2.63,12.86,32,32,0,0,1-2.63,12.87,33.89,33.89,0,0,1-7.13,10.54,33.83,33.83,0,0,1-10.54,7.13,32,32,0,0,1-12.87,2.63,31.92,31.92,0,0,1-12.86-2.63,33.2,33.2,0,0,1-10.5-7.13,34.3,34.3,0,0,1-7.09-10.54A32,32,0,0,1-603.74-4943.7Zm17.32,0a16.3,16.3,0,0,0,1.23,6.3,16.76,16.76,0,0,0,3.37,5.25,16.35,16.35,0,0,0,5,3.64,14.24,14.24,0,0,0,6.12,1.35,14.32,14.32,0,0,0,6.13-1.35,17.14,17.14,0,0,0,5.07-3.64,16.54,16.54,0,0,0,3.42-5.25,16.48,16.48,0,0,0,1.22-6.3,16.6,16.6,0,0,0-1.22-6.25,16.11,16.11,0,0,0-3.42-5.25,17.54,17.54,0,0,0-5.07-3.59,14.33,14.33,0,0,0-6.13-1.36,14.25,14.25,0,0,0-6.12,1.36,16.71,16.71,0,0,0-5,3.59,16.31,16.31,0,0,0-3.37,5.25A16.42,16.42,0,0,0-586.42-4943.7Z" transform="translate(1058.04 5609.9)"/><path class="cls-2" d="M-512.56-4911.67H-525.7a2,2,0,0,1-1.53-.61,2.16,2.16,0,0,1-.56-1.49v-59.76a2.14,2.14,0,0,1,.56-1.49,2,2,0,0,1,1.53-.61h13.14a2,2,0,0,1,1.48.61,2,2,0,0,1,.61,1.49v59.76a2,2,0,0,1-.61,1.49A2,2,0,0,1-512.56-4911.67Z" transform="translate(1058.04 5609.9)"/><path class="cls-2" d="M-483.44-4911.67h-13.1a2,2,0,0,1-1.5-.61,2,2,0,0,1-.62-1.49v-59.85a2,2,0,0,1,.62-1.49,2,2,0,0,1,1.48-.61h27.22A25.05,25.05,0,0,1-460-4974a21,21,0,0,1,7.31,4.76,22.21,22.21,0,0,1,4.72,7.27,24.36,24.36,0,0,1,1.71,9.27,23.81,23.81,0,0,1-.66,5.56,23.85,23.85,0,0,1-1.88,5.2,22,22,0,0,1-2.89,4.42,15.76,15.76,0,0,1-3.76,3.28,2.46,2.46,0,0,0-.92,1.27,1.57,1.57,0,0,0,.31,1.45q3.32,4.36,7,9t6.56,8.49a1.59,1.59,0,0,1,.26,1.53,1.09,1.09,0,0,1-1.14.83h-16.27a4.4,4.4,0,0,1-1.88-.48,4.1,4.1,0,0,1-1.53-1.18q-2.79-3.67-5.53-7.44t-5.45-7.61a4,4,0,0,0-1.48-1.18,4.11,4.11,0,0,0-1.82-.49h-1.92a2,2,0,0,0-1.48.62,2,2,0,0,0-.61,1.48v14.18a2,2,0,0,1-.62,1.49A2,2,0,0,1-483.44-4911.67Zm4.2-34.48H-470a6.75,6.75,0,0,0,2.18-.39,6.29,6.29,0,0,0,2.08-1.22,6.63,6.63,0,0,0,1.57-2.06,6.38,6.38,0,0,0,.61-2.89,8.44,8.44,0,0,0-.3-2.05,7.57,7.57,0,0,0-1.05-2.28,6.13,6.13,0,0,0-2-1.84,6,6,0,0,0-3.09-.74h-9.23a2,2,0,0,0-1.48.61,2,2,0,0,0-.61,1.49v9.27a2,2,0,0,0,.61,1.49A2,2,0,0,0-479.24-4946.15Z" transform="translate(1058.04 5609.9)"/><rect class="cls-3" width="695.44" height="706.13"/></svg>