<svg id="Calque_194" data-name="Calque 194" xmlns="http://www.w3.org/2000/svg" viewBox="0 0 137.11 137.11"><defs><style>.cls-1{fill:#f1f1f1;}.cls-2{fill:none;stroke:#f1f1f1;stroke-miterlimit:10;stroke-width:2px;}</style></defs><path class="cls-1" d="M1459.91-3921a5.34,5.34,0,0,1,9.24,0l5.54,9.6,5.54,9.6a5.33,5.33,0,0,1-4.62,8h-22.16a5.33,5.33,0,0,1-4.62-8l5.54-9.6Z" transform="translate(-1395.97 3938.89)"/><path class="cls-1" d="M1469.15-3819.69a5.34,5.34,0,0,1-9.24,0l-5.54-9.6-5.54-9.6a5.33,5.33,0,0,1,4.62-8h22.16a5.33,5.33,0,0,1,4.62,8l-5.54,9.6Z" transform="translate(-1395.97 3938.89)"/><path class="cls-1" d="M1515.17-3875a5.33,5.33,0,0,1,0,9.24l-9.59,5.54-9.6,5.54a5.33,5.33,0,0,1-8-4.62v-22.16a5.33,5.33,0,0,1,8-4.62l9.6,5.54Z" transform="translate(-1395.97 3938.89)"/><path class="cls-1" d="M1413.88-3865.72a5.34,5.34,0,0,1,0-9.24l9.6-5.54,9.6-5.54a5.33,5.33,0,0,1,8,4.62v22.16a5.33,5.33,0,0,1-8,4.62l-9.6-5.54Z" transform="translate(-1395.97 3938.89)"/><circle class="cls-1" cx="68.55" cy="68.55" r="13.55"/><circle class="cls-2" cx="68.55" cy="68.55" r="55.98"/><circle class="cls-2" cx="68.55" cy="68.55" r="67.55"/></svg>