<svg id="Calque_198" data-name="Calque 198" xmlns="http://www.w3.org/2000/svg" viewBox="0 0 522.35 685.62"><defs><style>.cls-1{fill:none;stroke:#f1f1f1;stroke-linecap:round;stroke-miterlimit:10;stroke-width:20px;}</style></defs><path class="cls-1" d="M1518.83-5663v499.6a54.16,54.16,0,0,1-54,54H1070.48a54.16,54.16,0,0,1-54-54V-5663a54.16,54.16,0,0,1,54-54h76.3v29.84a35.11,35.11,0,0,0,35,35h171.74a35.11,35.11,0,0,0,35-35V-5717h76.29A54.16,54.16,0,0,1,1518.83-5663Z" transform="translate(-1006.48 5785.04)"/><path class="cls-1" d="M1425.17-5672h32.4a14.86,14.86,0,0,1,14.86,14.86V-5169a14.86,14.86,0,0,1-14.86,14.86H1077.75a14.86,14.86,0,0,1-14.86-14.86v-488.15a14.86,14.86,0,0,1,14.86-14.86h40.92" transform="translate(-1006.48 5785.04)"/><path class="cls-1" d="M1388.54-5717v29.84a35.11,35.11,0,0,1-35,35H1181.79a35.11,35.11,0,0,1-35-35V-5717h63.62a45.78,45.78,0,0,1-1.53-11.78,46.1,46.1,0,0,1,13.58-32.66,46.1,46.1,0,0,1,32.66-13.58h25.1a46.38,46.38,0,0,1,46.24,46.24,45.78,45.78,0,0,1-1.53,11.78Z" transform="translate(-1006.48 5785.04)"/><rect class="cls-1" x="141.29" y="204.87" width="239.78" height="63.41" rx="12"/><line class="cls-1" x1="163.74" y1="327.73" x2="358.61" y2="327.73"/><line class="cls-1" x1="132.66" y1="376.61" x2="389.69" y2="376.61"/><line class="cls-1" x1="208.66" y1="425.49" x2="313.69" y2="425.49"/><line class="cls-1" x1="149.87" y1="482.3" x2="372.48" y2="482.3"/></svg>