<svg id="Calque_4" data-name="Calque 4" xmlns="http://www.w3.org/2000/svg" viewBox="0 0 46.58068 45.66434"><defs><style>.cls-1{fill:#c8b95b;}</style></defs><path class="cls-1" d="M398.00767-314.03182a5.78764,5.78764,0,0,0-2.25184-1.93841q-6.61349-3.468-13.233-6.92691a12.13308,12.13308,0,0,0-1.144-.52312h-.00075c-.10974-.0436-.22022-.08495-.32995-.124l-.00151-.00074a9.22751,9.22751,0,0,0-5.82579-.19166q-9.3813,2.73291-18.76186,5.465a24.80621,24.80621,0,0,0-2.89974.99891,2.48383,2.48383,0,0,0-1.525,1.96321,6.26578,6.26578,0,0,0-.0203.93652q.00114,10.48281.00827,20.96711a5.66,5.66,0,0,0,.14281,1.41379,5.7379,5.7379,0,0,0,2.48184,3.58c4.01063,2.50214,8.037,4.978,12.0597,7.46206a17.4657,17.4657,0,0,0,4.19177,2.14662,6.1354,6.1354,0,0,0,3.97531.03081c.93576-.3495,1.867-.714,2.8118-1.038,5.79271-1.98577,11.59369-3.94825,17.3819-5.94755a5.07771,5.07771,0,0,0,3.51756-5.01929V-301.337q.00113-5.37331.00226-10.74663A3.49081,3.49081,0,0,0,398.00767-314.03182Zm-26.55088,30.657a4.71335,4.71335,0,0,1-.17588,1.29278,1.24663,1.24663,0,0,1-1.77682.91848,15.36233,15.36233,0,0,1-2.32851-1.19433q-5.81978-3.53561-11.60948-7.11856a3.98394,3.98394,0,0,1-1.9963-3.595c.01429-6.08735,0-12.17394.009-18.26055a3.5817,3.5817,0,0,1,.17738-1.10187.91484.91484,0,0,1,1.25746-.61106,4.63283,4.63283,0,0,1,.914.42541c4.21507,2.52995,8.42187,5.07417,12.63995,7.59811a5.84813,5.84813,0,0,1,2.04966,1.65956,4.30983,4.30983,0,0,1,.72757,2.44276q-.00227,4.35864-.00076,8.7165l.1135,8.6436C371.45755-283.49737,371.45679-283.43648,371.45679-283.37485Zm-2.53445-23.70075c-4.02415-2.28641-8.02051-4.62019-12.01836-6.9502a5.0554,5.0554,0,0,1-1.04625-.84331.84586.84586,0,0,1,.1601-1.42732,4.75775,4.75775,0,0,1,1.22213-.55019q8.95626-2.58179,17.9193-5.13656c.30892-.08794.61933-.16761.92975-.23525a1.57577,1.57577,0,0,1,.87564.15032.68637.68637,0,0,1,.3247.56071v-.04885c0,.024.00075.04885.003.07215l-.003-.0233v9.65978l1.57839-.76739v-8.942c0-.35175.10748-.43519.14281-.463a1.674,1.674,0,0,1,1.14171-.0947,6.90282,6.90282,0,0,1,.67645.28938q6.76344,3.29546,13.51409,6.62025a6.60243,6.60243,0,0,1,1.392.93576c.47427.41038.41565.86285-.11349,1.20484a3.77188,3.77188,0,0,1-.88541.3976c-1.11765.363-2.23831.72005-3.36649,1.04851l-.06013.01879L380.153-308.06773l-4.40448,1.39425c-.04284.01578-.08718.03006-.13228.04209l-.01278.00375-1.14847.36379A7.887,7.887,0,0,1,368.92234-307.0756Zm20.41543,14.82866a.65871.65871,0,0,1,.14055.04734.42683.42683,0,0,1,.12928.09546.487.487,0,0,1,.09621.15935.6628.6628,0,0,1,.03758.23675,1.30506,1.30506,0,0,1-.0902.50284,1.26827,1.26827,0,0,1-.24352.38257,1.48943,1.48943,0,0,1-.35251.28035,2.36624,2.36624,0,0,1-.41865.19167l-1.38974.48328a.07964.07964,0,0,1-.07441-.0045.06965.06965,0,0,1-.03081-.06389v-2.9982a.13954.13954,0,0,1,.03081-.08568.15943.15943,0,0,1,.07441-.05638l1.3236-.46074a1.85373,1.85373,0,0,1,.40362-.094.73891.73891,0,0,1,.33973.03308.475.475,0,0,1,.23676.19165.69439.69439,0,0,1,.08944.38257.76584.76584,0,0,1-.09846.37657,1.50728,1.50728,0,0,1-.21271.30215C389.27614-292.28828,389.27914-292.256,389.33777-292.24694Zm-.59979-8.21217a4.33847,4.33847,0,0,1-1.58967,1.36869c-.118.05788-.23676.10674-.35476.1601a2.27289,2.27289,0,0,1-1.73849-.01879.97927.97927,0,0,1-.33748-.248.81088.81088,0,0,1,.11575-.92826.82741.82741,0,0,1,.88089-.37806c.06464.02631.12176.0669.18415.097a1.64846,1.64846,0,0,0,1.91738-.81025c.52387-.74334,1.05752-1.48068,1.58516-2.22177.15784-.22249.32469-.4412.46374-.6727.6509-1.07781.17212-2.19924-.85458-2.00682a1.99733,1.99733,0,0,0-1.256.87939c-.31718.44346-.63211.88842-.95305,1.32962-.2781.38332-.66518.54117-.95981.38558s-.327-.62009-.05111-1.01469c.39009-.55694.78018-1.1154,1.19582-1.652a4.00623,4.00623,0,0,1,1.48068-1.18831,2.5608,2.5608,0,0,1,1.61222-.254,1.734,1.734,0,0,1,1.413,1.45512,3.50793,3.50793,0,0,1-.52914,2.56227c-.19391.327-.42692.63737-.64864.95-.52237.73734-1.0455,1.47393-1.57614,2.206Zm-6.68789,4.45408a.89856.89856,0,0,0,1.18831.47653,2.15519,2.15519,0,0,0,1.17628-.92825c.29388-.42391.59679-.841.89894-1.25971a.81008.81008,0,0,1,.93726-.38258.60732.60732,0,0,1,.16836.83054,3.15875,3.15875,0,0,1-.29689.47051c-.26006.3713-.52688.73735-.78844,1.10789-.96358,1.36194-2.51115,2.0692-3.61453,1.61823-.93426-.38183-1.3018-1.23115-1.1169-2.48785a4.2046,4.2046,0,0,1,.78318-1.81892c.66969-.93877,1.33563-1.87979,2.01283-2.81254a4.245,4.245,0,0,1,1.55961-1.33036c.11725-.05863.23676-.10524.32094-.14207a2.27,2.27,0,0,1,1.84222.03232.58628.58628,0,0,1,.34424.36228.99792.99792,0,0,1-.28712.89293.75992.75992,0,0,1-.80423.26081,2.15922,2.15922,0,0,0-.36529-.15935,1.72132,1.72132,0,0,0-1.68437.83806c-.66969.93125-1.34239,1.8595-1.99629,2.80053a1.63282,1.63282,0,0,0-.27811,1.631Zm2.1143,4.10608a.1423.1423,0,0,1,.03082-.08492.1597.1597,0,0,1,.07441-.05713l1.34163-.466a1.136,1.136,0,0,1,.463-.06915.78019.78019,0,0,1,.37656.12327.75509.75509,0,0,1,.2548.28862.92257.92257,0,0,1,.094.42767,1.54531,1.54531,0,0,1-.07892.48554,1.569,1.569,0,0,1-.23977.45173,1.87634,1.87634,0,0,1-.39986.38407,2.15717,2.15717,0,0,1-.56071.28486l-.38182.133a.158.158,0,0,0-.07516.05712.14071.14071,0,0,0-.03082.08493v.65316a.1396.1396,0,0,1-.03006.08493.15006.15006,0,0,1-.07441.05637l-.65842.22925a.07961.07961,0,0,1-.07441-.00452.07124.07124,0,0,1-.03081-.06388Zm6.0415-1.24617a2.6917,2.6917,0,0,1,.35476-.65166,2.77636,2.77636,0,0,1,.52614-.54041,2.21455,2.21455,0,0,1,.64488-.35551,1.54544,1.54544,0,0,1,.64414-.0932,1.14418,1.14418,0,0,1,.52839.17362,1.03228,1.03228,0,0,1,.357.40436,1.29026,1.29026,0,0,1,.13154.5983,1.93884,1.93884,0,0,1-.13154.69074,2.68126,2.68126,0,0,1-.357.6524,2.8362,2.8362,0,0,1-.52839.54116,2.25559,2.25559,0,0,1-.64414.35551,1.56168,1.56168,0,0,1-.64488.09245,1.1133,1.1133,0,0,1-.52614-.17437,1.04432,1.04432,0,0,1-.35476-.40437,1.29567,1.29567,0,0,1-.13153-.599,1.93767,1.93767,0,0,1,.13153-.69Zm-13.472,6.01219a2.26811,2.26811,0,0,1-.35928.64863,2.43155,2.43155,0,0,1-.50208.47277,2.49413,2.49413,0,0,1-.62459.31794l-1.19658.4164a.08139.08139,0,0,1-.07516-.00452.07074.07074,0,0,1-.03007-.06388v-2.999a.1429.1429,0,0,1,.03007-.08492.15518.15518,0,0,1,.07516-.05637l1.19658-.4164a1.33848,1.33848,0,0,1,1.12667.01126.87553.87553,0,0,1,.35928.39686,1.482,1.482,0,0,1,.12251.63662,2.15447,2.15447,0,0,1-.12252.72457Zm1.55209-.50734a.1443.1443,0,0,0-.03082.08567v.71028a.14232.14232,0,0,1-.03081.08494.15816.15816,0,0,1-.07516.05712l-.65616.22774a.08144.08144,0,0,1-.07517-.00451.07041.07041,0,0,1-.03081-.06389v-2.9982a.14439.14439,0,0,1,.03081-.08568.15946.15946,0,0,1,.07441-.05637l1.36344-.47427a1.24489,1.24489,0,0,1,.469-.07742.70875.70875,0,0,1,.366.11124.684.684,0,0,1,.23677.28186,1.00629,1.00629,0,0,1,.08568.43443,1.35309,1.35309,0,0,1-.03307.29012,1.66979,1.66979,0,0,1-.094.29389,1.76519,1.76519,0,0,1-.14506.27132,1.3058,1.3058,0,0,1-.18792.23.19109.19109,0,0,0-.0466.07968.06413.06413,0,0,0,.01578.06689c.11049.10748.22775.218.35026.33q.18489.168.3292.3104a.06821.06821,0,0,1,.01278.07216.08516.08516,0,0,1-.05637.06164l-.8155.28336a.19907.19907,0,0,1-.09471.009.12916.12916,0,0,1-.07667-.03233q-.13978-.13527-.27734-.27659c-.091-.0932-.18189-.18941-.27209-.28637a.1292.1292,0,0,0-.07441-.03307.1795.1795,0,0,0-.09169.00752l-.09621.03307a.1611.1611,0,0,0-.07366.05638Zm2.50213,1.93992a.14433.14433,0,0,1-.03082.08568.15459.15459,0,0,1-.0744.05637l-1.35893.47277a.1593.1593,0,0,0-.07441.05637.13559.13559,0,0,0-.03081.08418v.18189a.06756.06756,0,0,0,.03081.06313.07964.07964,0,0,0,.07441.00452l1.1838-.41189a.082.082,0,0,1,.07441.00527.07124.07124,0,0,1,.03081.06388v.61332a.14439.14439,0,0,1-.03081.08568.16305.16305,0,0,1-.07441.05637l-1.1838.41189a.1501.1501,0,0,0-.07441.05637.13917.13917,0,0,0-.03081.08493v.96959a.144.144,0,0,1-.03082.08493.16131.16131,0,0,1-.07365.05638l-.65917.22923a.08021.08021,0,0,1-.07366-.00525.06889.06889,0,0,1-.03082-.06389v-2.9982a.13964.13964,0,0,1,.03082-.08569.15755.15755,0,0,1,.07366-.05637l2.22779-.77492a.08182.08182,0,0,1,.07441.00527.07121.07121,0,0,1,.03081.06389Zm-.25781-2.79076a1.29976,1.29976,0,0,1-.13153-.59828,1.95534,1.95534,0,0,1,.13153-.69075,2.72273,2.72273,0,0,1,.35552-.65165,2.77518,2.77518,0,0,1,.52613-.54041,2.23815,2.23815,0,0,1,.64414-.35551,1.55661,1.55661,0,0,1,.64413-.09245,1.12139,1.12139,0,0,1,.52839.17363,1.0376,1.0376,0,0,1,.35777.40361,1.30507,1.30507,0,0,1,.13154.599,1.95434,1.95434,0,0,1-.13154.69,2.68145,2.68145,0,0,1-.35777.65241,2.79188,2.79188,0,0,1-.52839.54116,2.22023,2.22023,0,0,1-.64413.35551,1.54546,1.54546,0,0,1-.64414.0932,1.11575,1.11575,0,0,1-.52613-.17437,1.04292,1.04292,0,0,1-.35552-.40512Zm3.72953,3.12222a2.66744,2.66744,0,0,1-.357.6524,2.81314,2.81314,0,0,1-.52839.54116,2.2202,2.2202,0,0,1-.64414.35552,1.53591,1.53591,0,0,1-.64489.09245,1.1127,1.1127,0,0,1-.52613-.17362,1.05281,1.05281,0,0,1-.35476-.40513,1.2923,1.2923,0,0,1-.13153-.59828,1.93839,1.93839,0,0,1,.13153-.69074,2.71751,2.71751,0,0,1,.35476-.65165,2.7975,2.7975,0,0,1,.52613-.54042,2.2423,2.2423,0,0,1,.64489-.35551,1.54448,1.54448,0,0,1,.64413-.09245,1.12423,1.12423,0,0,1,.52839.17363,1.02493,1.02493,0,0,1,.357.40362,1.29329,1.29329,0,0,1,.13153.599,1.93746,1.93746,0,0,1-.13153.69Zm3.41535-.26984a.0861.0861,0,0,1-.05713.06164l-.8155.28412a.20545.20545,0,0,1-.094.00825.12911.12911,0,0,1-.07667-.03231q-.1398-.1353-.27734-.27659-.13755-.1398-.27284-.28637a.12675.12675,0,0,0-.07366-.03307.18713.18713,0,0,0-.09169.00752l-.09621.03307a.15616.15616,0,0,0-.07441.05712.13961.13961,0,0,0-.03007.08493v.71027a.14072.14072,0,0,1-.03081.08495.162.162,0,0,1-.07516.05712l-.65616.22848a.08318.08318,0,0,1-.07517-.00525.07.07,0,0,1-.03081-.06315v-2.99894a.136.136,0,0,1,.03081-.08494.15644.15644,0,0,1,.07441-.05713l1.36344-.47426a1.24023,1.24023,0,0,1,.469-.07741.71072.71072,0,0,1,.366.11124.684.684,0,0,1,.23676.28185,1.00748,1.00748,0,0,1,.08569.43519,1.35183,1.35183,0,0,1-.03307.28936,1.61186,1.61186,0,0,1-.09471.29389,1.69761,1.69761,0,0,1-.14431.27133,1.28314,1.28314,0,0,1-.18865.23.20215.20215,0,0,0-.04585.07968.06392.06392,0,0,0,.015.06688q.16686.16233.351.33.18378.168.32846.31042a.06716.06716,0,0,1,.01352.07215Zm3.51155-2.53445a1.93323,1.93323,0,0,1-.17136.62084,2.49241,2.49241,0,0,1-.36153.57273,2.76944,2.76944,0,0,1-.50584.472,2.31213,2.31213,0,0,1-.605.31793,1.59837,1.59837,0,0,1-.65767.09771,1.17965,1.17965,0,0,1-.5374-.16837,1.01359,1.01359,0,0,1-.36379-.39985,1.26915,1.26915,0,0,1-.13379-.59754,1.91707,1.91707,0,0,1,.13379-.69149,2.70893,2.70893,0,0,1,.36379-.65465,2.87718,2.87718,0,0,1,.5374-.54417,2.29094,2.29094,0,0,1,.65767-.36,1.596,1.596,0,0,1,.83955-.0947.99107.99107,0,0,1,.58025.34123.08747.08747,0,0,1,.01128.07742.16573.16573,0,0,1-.04585.08418l-.52613.52088a.1507.1507,0,0,1-.07892.04208.085.085,0,0,1-.07441-.01579.72657.72657,0,0,0-.30516-.16084.699.699,0,0,0-.40061.03834,1.0374,1.0374,0,0,0-.31342.17737,1.39032,1.39032,0,0,0-.25706.27059,1.35514,1.35514,0,0,0-.17287.32545.98234.98234,0,0,0-.06388.336.64742.64742,0,0,0,.06388.29312.50723.50723,0,0,0,.17287.20068.56285.56285,0,0,0,.25706.091.69929.69929,0,0,0,.31342-.04135,1.26137,1.26137,0,0,0,.32846-.17588.87492.87492,0,0,0,.25855-.29162c.015-.02782.01579-.04962.00451-.06465-.012-.015-.03232-.01728-.06163-.00751l-.50359.17587a.08357.08357,0,0,1-.07516-.00525.07076.07076,0,0,1-.03006-.06389v-.52162a.14131.14131,0,0,1,.03006-.08494.16178.16178,0,0,1,.07516-.05712l1.50775-.52388a.093.093,0,0,1,.07666.00151.07368.07368,0,0,1,.03758.06388,1.662,1.662,0,0,1,.00827.17889,1.98235,1.98235,0,0,1-.01278.22548Zm2.94183-2.17593a.14064.14064,0,0,1-.03081.08493.16358.16358,0,0,1-.07441.05712l-1.36344.47428a.15524.15524,0,0,0-.07516.05637.14294.14294,0,0,0-.03006.08493v.18415a.06992.06992,0,0,0,.03006.06388.08354.08354,0,0,0,.07516.00527l1.18756-.41339a.07967.07967,0,0,1,.07441.00451.06962.06962,0,0,1,.03081.06389v.605a.136.136,0,0,1-.03081.08494.15638.15638,0,0,1-.07441.05713l-1.18756.41339a.15513.15513,0,0,0-.07516.05637.14125.14125,0,0,0-.03006.08492v.16686a.07075.07075,0,0,0,.03006.06389.08145.08145,0,0,0,.07516.00452l1.36344-.47428a.08225.08225,0,0,1,.07441.00526.06994.06994,0,0,1,.03081.06313v.60506a.14442.14442,0,0,1-.03081.08569.16721.16721,0,0,1-.07441.05637l-2.23155.77641a.08175.08175,0,0,1-.07441-.00525.06889.06889,0,0,1-.03082-.06389v-2.9982a.136.136,0,0,1,.03082-.08493.15624.15624,0,0,1,.07441-.05713l2.23155-.77567a.08007.08007,0,0,1,.07441.00451.07125.07125,0,0,1,.03081.06389Zm2.548-5.8799-1.0921,1.7911a.18391.18391,0,0,0-.02631.09245.10088.10088,0,0,0,.02631.07441l1.0703,1.00416a.07306.07306,0,0,1,.01053.07742.09283.09283,0,0,1-.05938.06689l-.83279.28938a.17173.17173,0,0,1-.0917.006.13828.13828,0,0,1-.07441-.03532l-.52613-.58476a.05708.05708,0,0,0-.06164-.01353.12447.12447,0,0,0-.06163.05637l-.52613.95a.357.357,0,0,1-.07441.08794.27479.27479,0,0,1-.0917.05787l-.83279.29014c-.02931.00976-.04885.0015-.05712-.02632a.10158.10158,0,0,1,.01278-.08567l1.06955-1.749a.173.173,0,0,0,.02631-.09245.09724.09724,0,0,0-.02631-.07366l-1.10037-1.029a.07147.07147,0,0,1-.01278-.07441.08807.08807,0,0,1,.05713-.06388l.84181-.29239a.17183.17183,0,0,1,.0917-.006.1438.1438,0,0,1,.0744.03534l.54793.6118a.05578.05578,0,0,0,.06164.01354.121.121,0,0,0,.06163-.05637c.0932-.16386.1864-.33147.2781-.50209.09245-.17062.18189-.336.26983-.49531a.33357.33357,0,0,1,.07441-.08493.299.299,0,0,1,.0917-.05562l.8373-.29163c.03533-.012.05562-.00451.06163.02254a.11571.11571,0,0,1-.01729.08494Zm-19.3827-13.19915c.01052-.15108.01653-.30741.018-.47052Z" transform="translate(-352.00656 324.11842)"/><path class="cls-1" d="M377.29254-321.48419l-.003-.0233v-.04885C377.28953-321.53228,377.29028-321.50749,377.29254-321.48419Z" transform="translate(-352.00656 324.11842)"/><path class="cls-1" d="M381.37833-323.42036c-.10974-.04358-.22023-.08492-.33-.124.03458.00828.06915.01729.10447.02632A.76889.76889,0,0,1,381.37833-323.42036Z" transform="translate(-352.00656 324.11842)"/><path class="cls-1" d="M377.29254-321.48419l-.003-.0233v-.04885C377.28953-321.53228,377.29028-321.50749,377.29254-321.48419Z" transform="translate(-352.00656 324.11842)"/><path class="cls-1" d="M375.98021-287.54793a1.21877,1.21877,0,0,1-.06765.42918,1.02394,1.02394,0,0,1-.17362.3014.92515.92515,0,0,1-.23676.19843,1.441,1.441,0,0,1-.25405.11875l-.32921.11425a.0799.0799,0,0,1-.07441-.00451.07127.07127,0,0,1-.03081-.06389v-1.37622a.14438.14438,0,0,1,.03081-.08567.158.158,0,0,1,.07441-.05637l.32921-.11425a1.16361,1.16361,0,0,1,.25179-.05712.44321.44321,0,0,1,.23676.03381.37959.37959,0,0,1,.17588.18039A.85721.85721,0,0,1,375.98021-287.54793Z" transform="translate(-352.00656 324.11842)"/><path class="cls-1" d="M379.14527-289.10528a.38322.38322,0,0,1-.03081.15559.50287.50287,0,0,1-.07817.13.53012.53012,0,0,1-.10447.09772.4686.4686,0,0,1-.109.05787l-.463.16084a.08045.08045,0,0,1-.07366-.00451.07209.07209,0,0,1-.03081-.06388v-.46526a.14223.14223,0,0,1,.03081-.08493.1516.1516,0,0,1,.07366-.05637l.463-.16085a.27753.27753,0,0,1,.15483-.01653.18657.18657,0,0,1,.1.05712.2431.2431,0,0,1,.05261.09545A.37739.37739,0,0,1,379.14527-289.10528Z" transform="translate(-352.00656 324.11842)"/><path class="cls-1" d="M382.85-289.94182a.99873.99873,0,0,1-.06163.33673,1.30381,1.30381,0,0,1-.17062.32243,1.42631,1.42631,0,0,1-.2548.27058.99766.99766,0,0,1-.30666.17438.68606.68606,0,0,1-.30666.03909.53544.53544,0,0,1-.25254-.09471.51683.51683,0,0,1-.16836-.20368.6685.6685,0,0,1-.06164-.29464.98419.98419,0,0,1,.06164-.33447,1.27568,1.27568,0,0,1,.16836-.3217,1.39578,1.39578,0,0,1,.25254-.26757,1.00048,1.00048,0,0,1,.30666-.17512.6746.6746,0,0,1,.30666-.03833.57225.57225,0,0,1,.2548.09094.4901.4901,0,0,1,.17062.20368A.68077.68077,0,0,1,382.85-289.94182Z" transform="translate(-352.00656 324.11842)"/><path class="cls-1" d="M385.93162-291.43755a.53091.53091,0,0,1-.07741.26909.43316.43316,0,0,1-.24428.19166l-.47127.16385a.08139.08139,0,0,1-.07516-.00451.0691.0691,0,0,1-.03081-.06313v-.51411a.14229.14229,0,0,1,.03081-.08493.16.16,0,0,1,.07516-.05637l.41415-.14432a.38061.38061,0,0,1,.1631-.024.24765.24765,0,0,1,.11875.0436.22359.22359,0,0,1,.07291.0947A.343.343,0,0,1,385.93162-291.43755Z" transform="translate(-352.00656 324.11842)"/><path class="cls-1" d="M388.71561-292.58752a.331.331,0,0,1-.05261.16987.265.265,0,0,1-.14055.1165l-.40738.14206a.08366.08366,0,0,1-.07516-.00526.07.07,0,0,1-.03007-.0639v-.20143a.14131.14131,0,0,1,.03007-.08493.16168.16168,0,0,1,.07516-.05712l.4164-.14432a.14245.14245,0,0,1,.12025.015A.12023.12023,0,0,1,388.71561-292.58752Z" transform="translate(-352.00656 324.11842)"/><path class="cls-1" d="M388.82535-291.442a.29286.29286,0,0,1-.07065.17813.33.33,0,0,1-.14882.11726l-.49081.17137a.08363.08363,0,0,1-.07516-.00527.06994.06994,0,0,1-.03007-.06389v-.24953a.14345.14345,0,0,1,.03007-.08569.16526.16526,0,0,1,.07516-.05637l.46-.16009a.17654.17654,0,0,1,.18189.018A.174.174,0,0,1,388.82535-291.442Z" transform="translate(-352.00656 324.11842)"/><path class="cls-1" d="M392.52481-293.30756a.9942.9942,0,0,1-.06088.33672,1.31868,1.31868,0,0,1-.17137.32245,1.42222,1.42222,0,0,1-.254.27057,1.0091,1.0091,0,0,1-.30666.17513.67674.67674,0,0,1-.30741.03834.53192.53192,0,0,1-.2518-.094.53307.53307,0,0,1-.16911-.20443.67671.67671,0,0,1-.06088-.29464,1.005,1.005,0,0,1,.06088-.33448,1.30345,1.30345,0,0,1,.16911-.32168,1.41326,1.41326,0,0,1,.2518-.26757,1.00977,1.00977,0,0,1,.30741-.17438.67465.67465,0,0,1,.30666-.03909.56981.56981,0,0,1,.254.0917.49506.49506,0,0,1,.17137.20293A.68053.68053,0,0,1,392.52481-293.30756Z" transform="translate(-352.00656 324.11842)"/><path class="cls-1" d="M383.52344-285.75757a.99812.99812,0,0,1-.06088.33748,1.3324,1.3324,0,0,1-.17137.32244,1.422,1.422,0,0,1-.254.27058,1.01369,1.01369,0,0,1-.30667.17437.68806.68806,0,0,1-.30741.03909.54037.54037,0,0,1-.25179-.09471.51912.51912,0,0,1-.16836-.20443.66271.66271,0,0,1-.06163-.29388.98852.98852,0,0,1,.06163-.33523,1.28824,1.28824,0,0,1,.16836-.32168,1.41359,1.41359,0,0,1,.25179-.26758,1.0259,1.0259,0,0,1,.30741-.17438.68611.68611,0,0,1,.30667-.03909.57907.57907,0,0,1,.254.0917.49732.49732,0,0,1,.17137.20369A.67945.67945,0,0,1,383.52344-285.75757Z" transform="translate(-352.00656 324.11842)"/><path class="cls-1" d="M386.60583-287.2811a.39648.39648,0,0,1-.03082.15559.525.525,0,0,1-.07816.13.49372.49372,0,0,1-.10523.09771.44044.44044,0,0,1-.109.05787l-.46224.16085a.07964.07964,0,0,1-.07441-.00452.07072.07072,0,0,1-.03007-.06387v-.46526a.14288.14288,0,0,1,.03007-.08493.15455.15455,0,0,1,.07441-.05637l.46224-.16085a.27819.27819,0,0,1,.15484-.01654.18885.18885,0,0,1,.10071.05712.23743.23743,0,0,1,.05187.09546A.35554.35554,0,0,1,386.60583-287.2811Z" transform="translate(-352.00656 324.11842)"/><path class="cls-1" d="M379.35028-308.26992a1.01218,1.01218,0,0,1-.46149-.6712c-.009-.04058-.01579-.08191-.021-.12551a1.8633,1.8633,0,0,1-.00376-.40588c.00226-.02329.00376-.0466.00376-.0699,0-.01353-.00075-.027-.00151-.04058l.00151.02781V-312.615l-1.5784.76739V-309.58l.00075-.00451-.00075.03909c0,.01353,0,.02781.00075.04133.00151.02556.00226.05112.00376.07592l.018-.47052c-.0015.16311-.00751.31944-.018.47052l-.00451.06239q-.0045.06765-.01127.133v.00151q-.19731,2.0925-1.52954,2.55775l4.40447-1.39425A1.46313,1.46313,0,0,1,379.35028-308.26992Zm-.62159-1.7212a.637.637,0,0,1,.05487.09244A.81144.81144,0,0,0,378.72869-309.99112Z" transform="translate(-352.00656 324.11842)"/></svg>