<svg id="Calque_7" data-name="Calque 7" xmlns="http://www.w3.org/2000/svg" viewBox="0 0 40.98563 40.98563"><defs><style>.cls-1{fill:none;stroke:#c8b95b;stroke-linecap:round;stroke-miterlimit:10;stroke-width:4px;}</style></defs><path class="cls-1" d="M362.35318-315.03577l-3.57305,3.57305a8.79172,8.79172,0,0,1-12.39692,0l0,0a8.7917,8.7917,0,0,1,0-12.39692l7.64278-7.64278a8.7917,8.7917,0,0,1,12.39692,0l0,0a8.68545,8.68545,0,0,1,1.91764,2.89584" transform="translate(-341.82633 347.89149)"/><path class="cls-1" d="M362.28512-339.76158l3.573-3.57305a8.79173,8.79173,0,0,1,12.39693,0l0,0a8.79172,8.79172,0,0,1,0,12.39692l-7.64278,7.64278a8.79172,8.79172,0,0,1-12.39693,0l0,0a8.68548,8.68548,0,0,1-1.91765-2.89584" transform="translate(-341.82633 347.89149)"/></svg>