<svg id="Calque_2" data-name="Calque 2" xmlns="http://www.w3.org/2000/svg" viewBox="0 0 1362.99045 441.82795"><defs><style>.cls-1,.cls-3,.cls-4,.cls-5{fill:#f1f2f2;}.cls-2,.cls-3,.cls-4,.cls-5{isolation:isolate;}.cls-3,.cls-4{font-size:134.85001px;}.cls-3,.cls-4,.cls-5{font-family:Heavitas;}.cls-3{letter-spacing:-0.04em;}.cls-5{font-size:194.48px;}.cls-6{fill:none;stroke:#f1f2f2;stroke-linecap:round;stroke-miterlimit:10;stroke-width:4px;}</style></defs><path class="cls-1" d="M111.81-538.90939c-3.55-16,4.33-23.71,18.43-29.88,27.08-11.85,53.35-25.59,80-38.38,2.68-1.29,2.89-3,3-5.46,1.54-27.84-12.17-47.91-32.87-64.30994a35.84991,35.84991,0,0,0-10.46-5.58c-30.13-10.31-56.86-26.57995-81.65-46.25-29.38-23.3-54.18-50.63-72.63-83.44995a58.23175,58.23175,0,0,1-4-8c-2-5.47-1.89-10.86,2.15-15.49,4.38-5,10.24-5.23,16.12-4.06994,26.25,5.21,52.46,10.62,78.7,15.88q49.15,9.85,98.34,19.52a10.92993,10.92993,0,0,0,5.72-.80005c16.57-6.44995,33.13-12.93005,49.61-19.62a36.27008,36.27008,0,0,1,22-1.74q83.29,18.28984,166.55,36.73,68.16,15.00018,136.34,30.1c10.23,2.25,20.51,4.27,30.75,6.43994,10.63,2.26,15.08,8.81006,13.21,19.53Q628.24-717.05941,625.24-700.33945c-1.21,6.66-4.91,11.11-11.1,14.31006q-40.32,20.87-80.28,42.43994c-6.45,3.5-12.79,4.56006-19.67,2.92005a144.92079,144.92079,0,0,0-46.53-3.26c-12.7,1.07995-19.44,8.68994-23.46,19.32995-7,18.48-1.61,34.61,10.89,48.85,12.18,13.88,28.19,21.47,45.53,26.44995,8.77,2.52,17.78,4.23,26.68,6.27,5.83,1.33,11.38,6.72,11.73,12.81995a237.242,237.242,0,0,1,0,25.43994c-.24,4.61-2.89,8.24-7.12,10.76q-54.24,32.33-108.36,64.85c-6.37,3.83-13,5.18006-20.06,3.11-17.69-5.18994-35.34-10.52-52.9-16.14a17.50937,17.50937,0,0,1-8-5.57995c-18-23.18006-41.86-37.67005-69.21-46.88-16.76-5.65-34.11-8.45-51.8-9.85-15.1-1.2-29.78.6-44.6,2.82995a39.99987,39.99987,0,0,1-15.7-1.26c-13.17-3.47-26.16-7.62-39.21-11.56994-7.38-2.23-10.2-6.13-10.25-13.91C111.8-531.90939,111.81-535.40939,111.81-538.90939Zm83.54-243.15c4.43,1.2,7.57,2.18994,10.76,2.91q84.15,18.88,168.3,37.69995c44.1,9.88,88.24,19.58,132.27,29.78,11.42,2.65,22.16,3.91,32.34-3.31006a16.00256,16.00256,0,0,1,2.74-1.17l58.1-26.4c-3-.76-4.69-1.25-6.4-1.62q-75-16.47987-149.94-33-80.77-17.87-161.51-36a23.17061,23.17061,0,0,0-14.56,1.3C243.85-802.05942,220.24-792.32944,195.35-782.05942Zm328.45,253.39-.07-1.47c-2.94,0-6.36-1-8.76.16-30.91,14.76-62,29.25-92.32,45.14-10.59,5.55-18.64,4.31994-27.34-2-.41-.3-.85-.54-1.26-.82-28.27-19.36-45.1-60.05005-32.46-99.30005,8.9-27.6,28.07-45.64,53.68-57.14,32.89-14.78,67.14-18.2,102.37-9.65,4.94,1.2,6.36.09,7.35-5,1.53-7.82995,3.19-15.64,5.11-23.38a8.78007,8.78007,0,0,1,3.39-5c8.53-5.17,17.32-9.92,25.93-15q27.13-15.8899,54.17-31.93006c1.25-.74,2.36-1.71,3.53-2.56994a9.64949,9.64949,0,0,0-5.62,1c-25.38,12.06006-51,23.73-76,36.46a38.5105,38.5105,0,0,1-27.34,3.46c-37.32-8.30005-74.72-16.27-112-24.6q-108.82-24.23-217.55-48.75c-5-1.13-6.47.4-5.72,5.68994a105.59348,105.59348,0,0,1,1.07,11.91q.68,25.70983,1,51.43c0,3.4,1.37,5.18994,4.36,7,27.27,16.08,44.64,39.09,47.85,71.24,4.66,46.67-36,85.77-87.06,68.09-6.38-2.21-9.69.74-14.16,3,13,4.15,25.88,8,39,11.06994,4.12.95,4.8,2.58,5.1,6.16.53,6.36,1.66,12.67,2.53,19h1.45c1.58-6.38,3.32-12.74,4.68-19.17,1-4.65,3.31-7.14,8.08-8.68994,39.66-12.85,58.52-52.75,47.34-90.72-8.34-28.35-27.11-47.84-51.86-62.54-1.61-1-3.46-3.29-3.44-5,.2-17.14.77-34.27,1.24-51.4,0-2,.18-3.91.28-6.14l335.31,74.82c-.66,7.72-1.28,14.93994-1.9,22.06006-7.84-.76-15.26-1.73-22.72-2.15-31.22-1.73-61.39,2.4-89.63,16.75-44,22.36-66.26,71.43995-51.69,119.1,1.59,5.22,3.3,10.41,5.28,16.63-25.65-37.46-59-60.3-103.91-63.94,60,17.48,95.73,55.86,101.66,120l1.69-.64c1.3-8.22,2.61-16.43994,4-25.18,14.26,4.59,28.19,9,42,13.66,1.11.38,2.17,2.42,2.35,3.8.88,7.1,1.27,14.26,2.32,21.32995.23,1.52,2.48,2.75,3.79,4.11,1.33-1.32,3.56-2.47,3.84-4,1.08-5.87,1.53-11.86,2.25-17.8.63-5.15,2.28-9.34,7.68-11.7,4.85-2.12,9.17-5.39,13.8-8q43.67006-24.78,87.33-49.41992Zm-498.33-297.6-.62,1.8c36.84,27.1,78.79,42.43005,123.91,52.08,0,7.51-.3,14.82995.08,22.11.39,7.46,1.2,14.91,2.25,22.31006,1,7,2.54,14,3.84,20.93994a50.27992,50.27992,0,0,0,.62-11.14c-.87-17.17005-.45-34.21,3.31-51.1,2.17-9.77,7.42-16.48,16.94-19.80005,4-1.37,7.83-2.92,12.7-4.74Z" transform="translate(-10.35916 840.35676)"/><g class="cls-2"><text class="cls-3" transform="translate(641.32999 195.53718)">M</text><text class="cls-4" transform="translate(767.55002 195.53718)">odules</text></g><text class="cls-5" transform="translate(638.56003 389.31721)">Forge</text><line class="cls-6" x1="647.58999" y1="217.4573" x2="1344.55001" y2="217.4573"/></svg>