<svg id="Calque_2" data-name="Calque 2" xmlns="http://www.w3.org/2000/svg" viewBox="0 0 43.01229 39.71611"><defs><style>.cls-1{fill:none;stroke:#c8b95b;stroke-linecap:round;stroke-miterlimit:10;stroke-width:2px;}</style></defs><path class="cls-1" d="M311.10982-281.01493v.97l-6.18006,2.22-7.1,2.55-10.88-3.99-2.4-.88v-.87a2.79762,2.79762,0,0,1,2.68-2.9h21.19a2.61957,2.61957,0,0,1,2.16,1.18A2.97056,2.97056,0,0,1,311.10982-281.01493Z" transform="translate(-283.54976 305.35103)"/><path class="cls-1" d="M312.47822-285.04181l4.61-.52-2.16,9.14-.26,1.1a3.00629,3.00629,0,0,1-1.31567,1.85571" transform="translate(-283.54976 305.35103)"/><path class="cls-1" d="M311.10982-280.0449v10.52a2.803,2.803,0,0,1-2.69,2.88995h-21.19a2.79489,2.79489,0,0,1-2.68-2.88995v-10.62006l2.4.88,10.88,3.99,7.1-2.55Z" transform="translate(-283.54976 305.35103)"/><path class="cls-1" d="M299.66822-286.2218l-6.32-4.18-2.08-1.37.2-.85a2.78774,2.78774,0,0,1,3.27-2.2l.93.22,10.03,2.38h.01l9.65,2.28a2.71384,2.71384,0,0,1,2,2.23,3.09719,3.09719,0,0,1-.04,1.21l-.23.94-4.61.52" transform="translate(-283.54976 305.35103)"/><path class="cls-1" d="M289.94819-286.2218" transform="translate(-283.54976 305.35103)"/><polyline class="cls-1" points="6.398 19.129 7.718 13.579 9.798 14.949 16.118 19.129"/><polyline class="cls-1" points="14.872 8.967 18.202 3.247 24.902 11.347"/><path class="cls-1" d="M320.11209-289.49414l4.54.84-5.29,9.09a2.97578,2.97578,0,0,1-1.68,1.36" transform="translate(-283.54976 305.35103)"/><path class="cls-1" d="M324.65207-288.65418l-5.69462-1.13305" transform="translate(-283.54976 305.35103)"/><path class="cls-1" d="M308.45206-294.00415l-6.7-8.1.44-.75a2.79746,2.79746,0,0,1,3.77-1.16l18.31,10.66a2.80147,2.80147,0,0,1,.87,3.86005l-.49.84" transform="translate(-283.54976 305.35103)"/></svg>