<svg id="Calque_3" data-name="Calque 3" xmlns="http://www.w3.org/2000/svg" viewBox="0 0 35.7271 51.6624"><defs><style>.cls-1{fill:none;stroke:#c8b95b;stroke-linecap:round;stroke-miterlimit:10;stroke-width:2px;}.cls-2{fill:#c8b95b;}</style></defs><rect class="cls-1" x="1" y="30.7512" width="33.10982" height="8.39435" rx="2.48213"/><circle class="cls-1" cx="4.74811" cy="34.94837" r="0.40994"/><rect class="cls-1" x="301.9182" y="-316.9326" width="31.30953" height="8.39435" rx="2.48213" transform="translate(-376.44587 225.30041) rotate(17.12953)"/><ellipse class="cls-1" cx="306.83498" cy="-316.04492" rx="0.40994" ry="0.48325" transform="translate(220.06536 402.97361) rotate(-72.87045)"/><line class="cls-1" x1="11.91231" y1="17.74227" x2="22.84204" y2="21.11086"/><line class="cls-1" x1="7.8545" y1="34.94837" x2="17.55663" y2="34.94837"/><rect class="cls-1" x="1" y="42.26805" width="33.10982" height="8.39435" rx="2.48213"/><circle class="cls-1" cx="4.74811" cy="46.46522" r="0.40994"/><line class="cls-1" x1="7.8545" y1="46.46522" x2="17.55663" y2="46.46522"/><path class="cls-2" d="M305.60444-324.77173a15.92885,15.92885,0,0,1,5.27991-5.56808,15.33588,15.33588,0,0,1,7.04535-2.36884,14.83354,14.83354,0,0,0-6.4535,3.1749,14.42585,14.42585,0,0,0-4.07309,5.6365,1.00265,1.00265,0,0,1-1.30252.56046,1.00268,1.00268,0,0,1-.56048-1.30252,1.00864,1.00864,0,0,1,.05615-.11816Z" transform="translate(-298.4221 332.70865)"/><path class="cls-2" d="M312.71778-322.90082a7.59218,7.59218,0,0,1,6.27478-3.50247,6.58244,6.58244,0,0,0-4.47607,4.377,1.01478,1.01478,0,0,1-1.25385.69815,1.01476,1.01476,0,0,1-.69815-1.25382,1.01487,1.01487,0,0,1,.12052-.26849Z" transform="translate(-298.4221 332.70865)"/><path class="cls-2" d="M318.86753-321.16156a2.83792,2.83792,0,0,1,2.74973-.91888,1.82833,1.82833,0,0,0-.951,1.79336,1.195,1.195,0,0,1-.95859,1.39173,1.195,1.195,0,0,1-1.39172-.95859,1.19294,1.19294,0,0,1,.28588-1.0148Z" transform="translate(-298.4221 332.70865)"/></svg>