<svg id="Calque_5" data-name="Calque 5" xmlns="http://www.w3.org/2000/svg" viewBox="0 0 52.27719 32.10404"><defs><style>.cls-1{fill:none;stroke:#c8b95b;stroke-linecap:round;stroke-miterlimit:10;stroke-width:2px;}</style></defs><line class="cls-1" x1="9.80851" y1="3.48213" x2="15.29675" y2="3.48213"/><line class="cls-1" x1="14.0627" y1="1.89362" x2="15.29675" y2="3.48213"/><line class="cls-1" x1="14.04143" y1="4.97606" x2="15.29675" y2="3.48213"/><line class="cls-1" x1="1" y1="11.88828" x2="6.48824" y2="11.88828"/><line class="cls-1" x1="5.25419" y1="10.29977" x2="6.48824" y2="11.88828"/><line class="cls-1" x1="5.23292" y1="13.38221" x2="6.48824" y2="11.88828"/><line class="cls-1" x1="9.80851" y1="20.24714" x2="15.29675" y2="20.24714"/><line class="cls-1" x1="14.0627" y1="18.65862" x2="15.29675" y2="20.24714"/><line class="cls-1" x1="14.04143" y1="21.74107" x2="15.29675" y2="20.24714"/><line class="cls-1" x1="1" y1="28.606" x2="6.48824" y2="28.606"/><line class="cls-1" x1="5.25419" y1="27.01748" x2="6.48824" y2="28.606"/><line class="cls-1" x1="5.23292" y1="30.09993" x2="6.48824" y2="28.606"/><rect class="cls-1" x="18.16737" y="1" width="33.10982" height="4.96426" rx="2.48213"/><circle class="cls-1" cx="20.72653" cy="3.51841" r="0.03628"/><rect class="cls-1" x="9.78744" y="9.37993" width="33.10982" height="4.96426" rx="2.48213"/><circle class="cls-1" cx="12.34661" cy="11.89834" r="0.03628"/><rect class="cls-1" x="18.16737" y="17.75985" width="33.10982" height="4.96426" rx="2.48213"/><circle class="cls-1" cx="20.72653" cy="20.27827" r="0.03628"/><rect class="cls-1" x="9.78744" y="26.13978" width="33.10982" height="4.96426" rx="2.48213"/><circle class="cls-1" cx="12.34661" cy="28.65819" r="0.03628"/></svg>