<svg xmlns="http://www.w3.org/2000/svg" viewBox="0 0 966 757"><defs><style>.cls-1{fill:#706f6f;}.cls-2{fill:#791615;}.cls-3{fill:#c6c6c6;}.cls-4,.cls-5{fill:#ededed;}.cls-5{font-size:296.74px;font-family:Heavitas;}.cls-6{fill:none;}</style></defs><g id="Calque_14" data-name="Calque 14"><path class="cls-1" d="M-4105.56-1166.85c-192.61-2.67-346.58-161-343.91-353.59s161-346.57,353.58-343.9l-2.73,196.83a151.93,151.93,0,0,0-154,149.8,151.92,151.92,0,0,0,149.81,154Z" transform="translate(4450 1904)"/><path class="cls-2" d="M-3861.36-1163.47l-244.2-3.38,2.73-196.84,244.2,3.39a67.89,67.89,0,0,1,66.94,68.83l-.85,61.06A67.89,67.89,0,0,1-3861.36-1163.47Z" transform="translate(4450 1904)"/><path class="cls-3" d="M-4105.56-1166.85c-192.61-2.67-346.58-161-343.91-353.59s161-346.57,353.58-343.9l-2.73,196.83a151.93,151.93,0,0,0-154,149.8,151.92,151.92,0,0,0,149.81,154Z" transform="translate(4450 1904)"/><path class="cls-4" d="M-3854.42-1664.12l-244.2-3.39,2.73-196.83,244.2,3.39a67.89,67.89,0,0,1,66.94,68.82l-.85,61.07A67.89,67.89,0,0,1-3854.42-1664.12Z" transform="translate(4450 1904)"/><path class="cls-4" d="M-3861.36-1163.47l-244.2-3.38,2.73-196.84,244.2,3.39a67.89,67.89,0,0,1,66.94,68.83l-.85,61.06A67.89,67.89,0,0,1-3861.36-1163.47Z" transform="translate(4450 1904)"/><rect class="cls-3" x="800.72" y="553.21" width="150.28" height="150.28" rx="34.7"/><rect class="cls-3" x="800.72" y="313.21" width="150.28" height="150.28" rx="34.7"/><rect class="cls-3" x="800.72" y="89.21" width="150.28" height="150.28" rx="34.7"/><text class="cls-5" transform="translate(249.63 499.13)">ON</text></g><g id="Calque_21" data-name="Calque 21"><rect class="cls-6" width="966" height="757"/></g></svg>