<svg id="Calque_11" data-name="Calque 11" xmlns="http://www.w3.org/2000/svg" viewBox="0 0 3473.64 1773.76"><defs><style>.cls-1{fill:#302e2f;}.cls-2{opacity:0.17;}.cls-3,.cls-4,.cls-5{fill:#706f6f;}.cls-4{font-size:134.63px;font-family:NSimSun;}.cls-5{opacity:0.19;font-size:86.81px;font-family:BABAPROFONT-Bold, BABAPRO FONT;font-weight:700;}.cls-6{letter-spacing:-0.03em;}.cls-7{letter-spacing:-0.04em;}.cls-27,.cls-28,.cls-8{fill:none;stroke-miterlimit:10;}.cls-27,.cls-8{stroke:#575756;stroke-width:2px;}.cls-9{font-size:4.18px;fill:#575756;font-family:Heavitas;}.cls-10{letter-spacing:-0.03em;}.cls-11{letter-spacing:-0.11em;}.cls-12{letter-spacing:-0.02em;}.cls-13{letter-spacing:-0.04em;}.cls-14{letter-spacing:-0.05em;}.cls-15{letter-spacing:-0.03em;}.cls-16{letter-spacing:-0.06em;}.cls-17{letter-spacing:-0.04em;}.cls-18{letter-spacing:-0.03em;}.cls-19{letter-spacing:-0.02em;}.cls-20{letter-spacing:0em;}.cls-21{letter-spacing:0.02em;}.cls-22{letter-spacing:-0.04em;}.cls-23{letter-spacing:-0.02em;}.cls-24{letter-spacing:-0.04em;}.cls-25{letter-spacing:-0.06em;}.cls-26{letter-spacing:-0.05em;}.cls-27{stroke-linecap:round;}.cls-28{stroke:#302e2f;stroke-width:3px;}.cls-29{letter-spacing:0em;}.cls-30{letter-spacing:-0.05em;}.cls-31{letter-spacing:-0.09em;}.cls-32{letter-spacing:-0.02em;}.cls-33{letter-spacing:-0.03em;}.cls-34{letter-spacing:-0.04em;}.cls-35{letter-spacing:-0.03em;}.cls-36{letter-spacing:-0.09em;}.cls-37{letter-spacing:-0.08em;}.cls-38{letter-spacing:-0.02em;}.cls-39{letter-spacing:-0.06em;}</style></defs><rect class="cls-1" width="3473.64" height="1773.76"/><g class="cls-2"><path class="cls-3" d="M-2356.21-1476.83a35.94,35.94,0,0,1-1.28,5,14.37,14.37,0,0,0,1-1.92A3.54,3.54,0,0,0-2356.21-1476.83Zm-121.6,4.88c-1,1.94-.48,4.42.49,7.12l2.3.33A60,60,0,0,1-2477.81-1471.95Zm126.53-31.85c-.14-.73-.27-1.46-.43-2.2,0-.11-.09-.22-.11-.32-.15-.62-.3-1.23-.46-1.82a68,68,0,0,0-3.06-8.93,67.44,67.44,0,0,0-8-13.93,67.64,67.64,0,0,0-28.53-22.24,65.35,65.35,0,0,0-10-3.24,66,66,0,0,0-14.6-1.82,69.4,69.4,0,0,0-16.37,1.7,67.07,67.07,0,0,0-13.69,4.65,66.92,66.92,0,0,0-25.21,20.64.41.41,0,0,0-.11.12,65.16,65.16,0,0,0-8.27,14.45,69.71,69.71,0,0,0-2.5,7c-.21.63-.39,1.27-.57,1.91a4.58,4.58,0,0,1,0,.53c-.49,2.15-.9,4.28-1.21,6.37-2.15,14.25-.17,27.39,5.76,39.47a76.8,76.8,0,0,0,10.79,16.18c.63.73,1.27,1.46,1.94,2.19a50.86,50.86,0,0,0,7.81,6.82c.72.52,1.46,1,2.21,1.54a73.46,73.46,0,0,0,7.12,4.21,64.52,64.52,0,0,0,24.45,7.13,67.48,67.48,0,0,0,35.22-5.95,67,67,0,0,0,9.87-5.75,78.33,78.33,0,0,0,7-5.58,65.87,65.87,0,0,0,6-6.15,63.21,63.21,0,0,0,9.88-15.38,68.23,68.23,0,0,0,4.8-14.55A68.34,68.34,0,0,0-2351.28-1503.8Zm-3.4,13.48c-.38,4.06,0,8.21-1.33,12.16-.06.45-.12.88-.2,1.33a35.94,35.94,0,0,1-1.28,5c-.48,1.46-1,2.9-1.6,4.33-.85,2.1-1.79,4.13-2.82,6.11a62,62,0,0,1-20.78,23.06,66.45,66.45,0,0,1-6.68,3.91,60.38,60.38,0,0,1-26.93,6.64,62.49,62.49,0,0,1-32.17-7.91,66.44,66.44,0,0,1-16.79-13.78,58.18,58.18,0,0,1-7.94-11.36c-.66-1.19-1.25-2.42-1.82-3.67a60,60,0,0,1-2.79-7.45c-.54-1.68-1-3.42-1.38-5.18a63,63,0,0,1-.16-26.46,59.19,59.19,0,0,1,1.95-7.15q1.08-3.13,2.51-6.26c.09-.21.2-.41.29-.61a62.35,62.35,0,0,1,9.13-14.15,59.35,59.35,0,0,1,5.61-5.72,64,64,0,0,1,7-5.44,63.21,63.21,0,0,1,16-7.83,59.63,59.63,0,0,1,12.38-2.62,57.09,57.09,0,0,1,9.62-.26,70.37,70.37,0,0,1,12.45,1.8,59.83,59.83,0,0,1,18.27,7.71c1.62,1,3.22,2.11,4.76,3.27a43.68,43.68,0,0,1,6,5.24c1.24,1.31,2.43,2.66,3.6,4a60.78,60.78,0,0,1,9.1,13.91c.51,1.08,1,2.18,1.37,3.3.66,1.76,1.3,3.52,1.88,5.3.47,1.43.9,2.9,1.24,4.36a32,32,0,0,1,.7,3.37A44.41,44.41,0,0,1-2354.68-1490.32Z" transform="translate(4156.57 1802.28)"/><text class="cls-4" transform="translate(1704.93 355.82)">S</text><path class="cls-3" d="M-2356.21-1476.83a35.94,35.94,0,0,1-1.28,5,14.37,14.37,0,0,0,1-1.92A3.54,3.54,0,0,0-2356.21-1476.83Zm-25.75-90.1c12.48-10.88,10.48-16.92-1.86-27.49-1.51-1.28-3.46-2-4.93-3.36-3.53-3.18-5.76-7.12-4-11.92,3.61-9.75,6.37-20,14.06-27.68,4.73-4.76,4.34-10.57,0-14.72-13.55-13-17.05-31-24.47-47.1-.82-1.81-2-3.54-2.38-5.42-1.59-7.11-6.51-8.57-12.87-8.44-10.2.2-13,7.56-15.45,15.36-5.7,16.39-10.43,33.26-22.4,46.65-4.06,4.54-4.51,9.12-.47,14,6,7.23,8.91,16,11.75,24.76,2.33,7.15-1.78,11.89-6.69,16-3.42,2.89-7,5.51-9.68,9.21-6.06,8.44-4.78,15.17,3.92,20.66a44.76,44.76,0,0,1,7.84,5.61c3,3,4.09,6,3.06,8.8a10.47,10.47,0,0,1-4.33,4.8c-4,2.58-7.33,5.45-9.05,9.67a64,64,0,0,1,7-5.44,63.21,63.21,0,0,1,16-7.83,59.63,59.63,0,0,1,12.38-2.62,17.87,17.87,0,0,1,4.78-2.76,12.21,12.21,0,0,0,3.33-2.17c2.37-2.31,1.64-5-1.39-8.43,1.64-1.64,4-1.12,6.11-1.24,13.58-.75,14.86.22,9.88,11.49-.23.54-.48,1.11-.75,1.69.05,1.1.09,2.09.11,3a59.83,59.83,0,0,1,18.27,7.71c1.62,1,3.22,2.11,4.76,3.27-1.45-2.1-3.75-3.63-6.05-5.06-4-2.51-6.12-4.78-6.36-7.33s1.26-5.18,4.41-8.64A62.55,62.55,0,0,1-2382-1566.93Zm-50.43-105.82c3.22-8.08,6.66-16.07,10-24.11,1.26-3,2.54-6,6.24-6.81,2.41.87,3.41,3,3.91,5.12,3.23,13.11,9.35,25.06,14.6,37.35,2.29,5.36.24,5.91-4.16,5.73-6.21-.27-12.41-.39-18.62-.55C-2443.83-1655-2438.38-1657.74-2432.39-1672.75Zm-13.59,26.24a463.67,463.67,0,0,1,59.59-1.9c0,1.2,0,2.4,0,3.6C-2406.27-1641.87-2426.12-1645.89-2446-1646.51Zm26,11.22c3.48-2.09,7.75-1,11.7-.86.5,0,1,0,1.48,0,12,0,11.93,0,8.57,11.32-1.19,4-2.72,8.1-3,12.23-.51,7.75-4.3,10.33-11.57,9.07a58.08,58.08,0,0,0-5.92-.47c-13.84.93-13.78.9-17.74-12.42-1.19-4-2.91-7.91-4.34-11.86-.67-1.87-1.63-4,.43-5.44s4.3-.52,6.17,1c2.44,1.92,3.39,4.79,4.73,7.45,1.15,2.25.75,6.58,4.24,6.06,3.76-.55,4.49-4.82,5.54-8.06C-2418.84-1630-2423.91-1633-2420-1635.29Zm-10.72,38.54a19.44,19.44,0,0,1,3-.1c7.37-.18,14.75-.3,22.11-.59,4.76-.17,7.53,2.47,10.76,6.45-8.73,1.69-16.5.9-24.24.45-3.69-.13-7.39-.22-11.08-.45-2.12-.13-5.18.47-5.43-2.43S-2432.85-1596.33-2430.74-1596.75Zm20.68,21.33-3.3-.16-5.34-.17c-10.59,1.32-21,.09-31.36-2.07-1.83-.39-3.57-.67-3.57-2.9s1.55-3,3.4-3.19c2.93-.24,5.9-.21,8.84-.3,16.55-.09,33.12-.25,49.67-.21,3.2,0,7.82-1.09,7.9,4.17.07,5-4.39,4.52-7.72,4.64C-2397.7-1575.4-2403.88-1575.48-2410.06-1575.42Zm-67.75,103.47c-1,1.94-.48,4.42.49,7.12l2.3.33A60,60,0,0,1-2477.81-1471.95ZM-2852.6-775.49h0Z" transform="translate(4156.57 1802.28)"/><path class="cls-3" d="M-1871.89-892.84c-.55-.39-1.09-.8-1.64-1.2-.89-.65-1.77-1.3-2.67-1.94l-1.69-.6c-6.4-1.71-10.8-6.83-16.51-9.76-2.47-1.27-2.12-3.65-2.4-5.82-.6-4.72-1.55-9.39-4.57-13.16-8-10-11.56-21.2-10.37-34.08a29,29,0,0,0-8.21-23.15c-7-7.38-9.13-16.59-9.4-25.81a55.44,55.44,0,0,0-7.71-27.47c-.64-.73-1.26-1.46-1.91-2.19-.38-.43-.77-.86-1.18-1.3-3.09-8.68-7-17.15-5.91-26.84.6-5.25-2-10-3.32-15l.35-.11c-.44-.5-.89-1-1.32-1.5a7.79,7.79,0,0,1-.35-1.23l-1.83-3-2.65-2.88c-5.27-6.2-7.06-14.08-6.61-21.44.66-10.82-1.6-20.16-8-28.6-7.18-9.45-9.23-20.33-9.9-31.81-.43-7.47-1.76-14.91-7.66-20.39-7.46-6.95-7.79-16.46-7.89-25.3-.12-10.13-1.8-19-8.53-26.89-6-7-6.92-15.9-6.79-24.47.15-9.7-1.6-18.33-8.7-25.16-5.46-5.27-4.91-12.33-5.54-18.71a71.58,71.58,0,0,0-7.75-25.89c-3.59-7.17-8.52-15.83-3-25.29,2.91-5,3.13-11.6-.16-16.51-3.77-5.6-2-10.64-1.93-16.45.18-12.48,6.67-17.66,17.2-21.36,8.65-3,16.31-8.4,23.64-14,.83-.72,1.66-1.44,2.49-2.14,3.46-3.88,6.91-7.74,10.36-11.63q2.23-3.52,4.45-7.06c1.07-1.5,2.13-3,3.21-4.5a.5.5,0,0,1-.15-.84c1.8-5.52,3.39-11.08,3.64-16.93a3.84,3.84,0,0,1-.21-1.06c-.79-.92-1.15-1.85,0-2.76-4-8.43-8.6-16.1-18.55-18.85-11.42-3.13-20.93,1.33-25,12.42-5,13.37-16.63,17.31-28.75,20.54-2.71.73-4.48-1.54-6.52-2.94-6.85-4.7-12.45-4-16.09,3.28-2.9,5.82-7.43,6.69-12.66,7.3-33.79,3.94-66.41-1.7-98.26-12.66-26.81-9.24-52.6-21-78.63-32.21-34-14.58-69-25.19-105.8-28.78-1.81-.18-3.63-.34-5.45-.47-.37,0-.75-.06-1.1-.11a60.78,60.78,0,0,1,9.1,13.91c1.81.18,3.61.38,5.42.6,46.2,5.64,88.69,23.78,131,42.52,35.8,15.86,72.41,28.84,112,30.6,10.42.47,20.84.56,31.21-1.28,2.63-.46,5.91-2,8.17,1.28-3.61,4.3-8.32,4.51-13.33,3.51l-5.81.88c-10.68,2.67-21.34,3.78-31.88-.65l-2.63-.2c-5.73,1.26-11.42,2-16.61-1.8a10.26,10.26,0,0,0-1.34-.27l-4.54-1.08a7.27,7.27,0,0,0-1.43-.25,2.8,2.8,0,0,1-3.3-.94l-2.76-.09a3.58,3.58,0,0,1-3.2-1.43c-.91-.09-1.82-.2-2.72-.3-9,.28-17.28-2.23-25.3-6-25.12-7.2-48.69-18.41-72.87-28-29.81-11.86-60.12-21.85-91.66-27.56-1.73-.33-3.48-.63-5.23-.93.47,1.43.9,2.9,1.24,4.36l1.42.24c1.2.21,2.39.43,3.57.67,24.72,4.78,48.21,13.36,71.66,22.55q24.59,9.63,49.44,18.71c23.73,8.76,47.24,18,72.27,23s50.1,7.21,75.43,3.23c5.82-.91,7.83,1.13,7.83,6.55,0,4,.24,7.94.38,11.9-1.11,5.18-5.5,3.06-8.45,3.52-3.63.57-7.39.21-11.09.25-11.86,2.55-23.71.61-35.54-.1-13.12-.79-26.21-2-39.05-5-15.3-2.86-30.45-6.25-44.72-12.73h0c-12.57-2.19-24.23-7.15-35.91-12l.1.06c-4.19-1-8.6-1.4-12-4.49a88.7,88.7,0,0,1-25.3-7.46c-8.76.13-17-2.79-25.41-4.47a140.82,140.82,0,0,0-44.61-1.91c-1.88.24-3.75.51-5.63.83a62,62,0,0,1-20.78,23.06,66.45,66.45,0,0,1-6.68,3.91,45.31,45.31,0,0,0,.29,5.06,33.6,33.6,0,0,0,.57,3.55,3.37,3.37,0,0,1-3,4.3c-2.18,1.31-4.59,1.33-7,1.16l-28.6-.56-6.18.38h0c-1.75.06-3.48.19-5.21.19-8.79,0-10.87-1.44-10.27-10.19,0-.09,0-.18,0-.27.12-1.63.21-3.25.27-4.88a66.44,66.44,0,0,1-16.79-13.78,58.18,58.18,0,0,1-7.94-11.36c-1.81-.24-3.61-.46-5.42-.65a200.44,200.44,0,0,0-53.88,1.88c-9.5,2-18.56,5.88-28.33,6.68-4,3.45-9,2.79-13.66,3-1.67,2.85-4.27,3.45-7.3,3l.06,0-3,1.52h0c-5.46,3.54-11.62,4.94-17.92,6-5.18,3.61-11.08,5.12-17.23,6a27.54,27.54,0,0,1-10.07,4.21,307.71,307.71,0,0,1-59.28,13.29c-24.78,3.58-49.51,4.91-74.6-.9,1.64-2.06,3.24-1.18,4.63-1.4-8.23-17.66-8.17-18.23,11.76-16.44,36.94,3.3,71.81-5.4,106.29-16.92,22.6-7.56,44.69-16.54,67.1-24.6s44.61-16.33,67.66-22.23c6-1.53,11.92-3.52,18.3-2.1a6,6,0,0,0,3.7-.39c1.73-.7,3.28-1.94,5-2.64a59.19,59.19,0,0,1,1.95-7.15l-.7.12c-1.49.3-3,.59-4.47.86-18,3.45-36.26,5.94-54,10.85-5.26,1.47-10.81,2.51-15.57,5a208.78,208.78,0,0,1-35.6,14.41,204.29,204.29,0,0,0-37.21,16.11l.07-.1c-16.43,7-33.93,10.67-51,15.8a195.23,195.23,0,0,1-63.24,8.6c-8.6-.3-18.38.19-26.18-5.84.8-2.5,2.55-1.12,3.73-.91,29.88,5.5,58.85.71,87.57-7.46,34.08-9.69,65.69-25.66,98.62-38.26,28.36-10.85,56.83-21.61,87.31-24.18,2.67-.22,5.33-.59,8-1l5.47-.87a62.35,62.35,0,0,1,9.13-14.15l-.7,0c-1.85.12-3.69.25-5.52.4-57.37,4.76-109.1,28.18-161.39,49.85-36.05,14.93-72.84,26.72-112.62,24.66-5-.27-9.87-1.24-14.82-1.59s-8.52-2-11.23-6.92c-3.8-7-9.74-7.35-16.12-2.07-1.77,1.48-3.31,3.07-5.82,2.55-12.09-2.48-23.55-6.83-28.25-19.19-6.15-16.17-16.65-17.71-26.41-13.94a25.31,25.31,0,0,0-15.12,31.5c8.69,26.87,29.39,41,54.08,50.55,5.91,2.27,9.4,4.85,8.87,11.43a7.47,7.47,0,0,0,.52,2.93c2.3,6.71,3.07,12.67-1.72,19.39-3.69,5.16-3.51,12.44-.91,18.74,3.84,9.27,1.63,17.12-4.37,24.65a33.88,33.88,0,0,0-7.45,20.71c-.21,9.36-1.61,18-8,25.48-4.49,5.26-5.79,12.18-5.66,19,.26,12-1.7,22.95-10.12,32.34a21.25,21.25,0,0,0-4.92,16.08c.67,7.4-1.23,14.25-2.66,21.28a17.63,17.63,0,0,1-5,9.67,28.37,28.37,0,0,0-8.61,21.56c.24,12-2,22.73-10.73,32.06-5.91,6.28-7.49,15.06-6.94,23.78.68,10.79-1.45,20.31-9.51,28.34-6.08,6-8,14.27-8.24,22.63-.39,11.74-1.37,22.94-9.84,32.44-4.09,4.61-5.41,11.06-5.64,17.46-.45,12.57-3,24.2-11.81,34.2-5.34,6.09-6.59,14.4-6.74,22.48-.23,12.39-2.9,23.85-11,33.67-1.53,1.85-3,4.41-3.08,6.66-.37,12.22-9.4,17-18.31,21.63-15.3,8-17.12,22.22-4.12,33.49,1.28,1.12,2.83,2.32,3.39,3.81,5.07,13.45,13.59,24.75,22.13,36.06.51.73,1,1.48,1.51,2.23l1.54,1.55,2,1.46q7.14,6.36,14.28,12.7c1.08.75,2.14,1.48,3.2,2.23l1.29.83c.78.73,1.54,1.47,2.32,2.21l.45-.19c.59.55,1.2,1.1,1.8,1.64l.29-.37,4.79,3c1.07.39,2,.89,2,2.22,4.05-.37,7,1.91,10.06,4.05l.38-.06c.86.53,1.71,1.09,2.58,1.62l.65-.16,18,7.48-.09.09a7.89,7.89,0,0,1,5.31,1.51l.57-.05,3.15,1.54-.06-.05c2.24-.38,4.31-.18,6,1.51,1.92-.18,3.8-.18,5.21,1.48,15.61.57,30.94,4.27,46.6,4.57,35.82.67,71.75,1.5,106.74-7.72,39.69-10.48,71.58-31.84,90.62-69.42,3.58-7.09,6.86-13.56,13.67-18.65,8.7-6.54,6.37-20.15-3.46-26.7-6.12-4.08-13.2-5.76-20.22-7.36-4.77-1.1-7.14-3.49-7.74-8.46-1-8.57-4.85-15.6-10.48-22.5-5-6.16-6.84-14.85-6.22-23.19.82-11.41-3.06-20.56-10.44-29.2-5.55-6.49-6.73-15.46-6.91-23.69-.25-11.66-3.3-21.58-10.19-31.13-4.38-6.06-6.24-14.09-6.27-21.83,0-10.06-3.15-18.63-8.35-27.25-4.65-7.76-6.09-17.21-6.8-26.35-.91-11.76-2.06-22.61-12-31.61-4.58-4.12-5.88-12.94-4.9-20.24,1.5-11.12-2-20.11-8.89-28.87-5.52-7-7.12-16.35-7.51-25.09-.48-10.88-2.7-20.26-10.58-28.45-4.48-4.66-5.44-11.7-5.29-18.18.23-10.93-2.38-20.66-9.91-28.81-3.45-3.75-2.67-8.45-2.62-12.76a59.77,59.77,0,0,0-5.42-25.21c-3.54-8.08-3.81-17.41-9.08-25-1.07-1.54.37-3.3,1.11-4.87,3.53-7.55,3.15-15-1.24-22-4-6.42.15-11.93,1.88-17.66.61-2,2.86-1.6,4.57-1.27,52.88,10.1,103.24-1.4,153-18,16.75-5.58,33.31-11.68,50.08-17.18,27.49-9,55.43-13.8,84.35-7.64,1,.21,2,.36,2.91.61a28.18,28.18,0,0,1,3.83,1.29c5,2,8.24,5.15,9.75,9,1.91,4.87,1,10.87-3,17.33-6.87,11-6.58,13.91,2.78,23.17a35.11,35.11,0,0,1,8.73,13.66c2.45,7,2.16,12.5-4.27,17.8-8.12,6.7-7.93,14-.79,21.74a21.23,21.23,0,0,1,5.89,15.49c-.47,54.45-3.12,108.81-5.61,163.19-2,44.69-4.15,89.38-6.76,134-1.76,30-2.84,60.08-7.17,89.89-.86,6-2.07,11.18-7.41,15.37-6.05,4.75-6.51,12.21-2.77,18.36,7.9,13,11,27.59,15.81,41.62,1,3.06,1.73,6.27,3,9.22,4.79,11.09,4.33,20.42-4.26,30.56-6,7.07-9,17-10,27.1-.88,9.15-3,18.14-13.84,21.71-4.7,1.53-6.9,6.32-8.28,10.94a154.39,154.39,0,0,0-3.78,15.18c-3.82,19.66-15.46,33-33.27,41.21-10.3,4.75-19.2,10.52-22.2,22.4-.85,3.33-3.77,4.24-6.74,5.12-10.94,3.27-18.84,10.17-22.69,20.92-1.73,4.83-4.6,7.15-9.3,8.39-33.9,8.92-68.17,16.28-102.38,23.89-6.55,1.46-13.12,2.79-19.69,4.18l-3,.58-1.7.26-.4-.14c-2.54,1.73-5.36,1.88-8.27,1.53h0c-12.52,4.73-25.55,7.36-38.79,8.94-3.56,2.27-7.62,2.72-11.66,3.18l-3.4,1q-8.94,2-17.84,4l-3,.53-2.88.63-3.1.81-4.36.28,0-.06c-.52.55-1,1.12-1.54,1.67l-1.33,2.54a4.9,4.9,0,0,1-1.62,4.81h.13L-2825-588l-5.94,5.31c-1.57.5-3.13,1-4.72,1.47-10.15,4.45-12.42,13.27-12.83,23.12a2.86,2.86,0,0,1-.42,1.24c1.58,3.88,1,7.74.06,11.62,1.76,7.32-.64,14.62.37,22.11,1,7.27,3.7,11,10.49,13.37,30.77,10.71,62.29,18.89,93.24,29q51,16.71,102.09,33.17c27.14,8.7,54.43,17,81.58,25.64q63.45,20.25,126.84,40.75c2.41.78,4.66,1.75,6.24,3.84,6,.06,12-.32,17.6-2.15,12.51-4.11,24.69-9.2,37.21-13.24q94.76-30.54,189.61-60.74,90.93-29,181.93-57.7c5.09-1.61,8.8-4.39,11.19-9.08-.94-13.86.39-27.79-1.28-41.63v-3.09c-1.33-10.31-9.42-13.94-17.45-17.6-6.64-3-12.2-7.09-14.51-14.33-1.24-3.85-4.55-4.15-7.58-5-11.58-3.28-23.71-4.55-34.93-9.24-16.24-1.44-31.69-6.73-47.59-9.85-8.62-1.7-17.43-3-25.59-6.61l-.21.31-22.83-4.91-2.47-.36c-24-5.4-48-10.86-72-16.18-7.52-1.67-13.48-4.46-16.93-12.41A31.68,31.68,0,0,0-2276-679.65c-5.06-1.27-8-3.8-9.57-9-2.39-8-7.6-13.64-15.61-16.88-20.63-8.33-34-22.69-37.24-45.45-.74-5.11-2.66-10.08-4.21-15-2.15-6.89-6.3-11.85-13.81-13.06-4.93-.79-7-3.55-7.67-8.48-1-7.25-.87-15.09-7.53-20.39-1.49-1.18-.91-3.25-1.1-4.94-.63-5.82-2.27-11.58-6.08-15.8-5.67-6.29-5.55-12.84-3.26-20.08,6.1-19.41,10.95-39.26,20.95-57.26,3.44-6.21,3.39-12.79-1.67-18-7.52-7.76-9.33-17.37-9.93-27.37-2.16-36.23-4.26-72.45-6.06-108.7q-4-81.54-7.5-163.1c-1.39-33.51-2.08-67.06-3.23-100.6-.24-7.09,1.63-13.05,6.41-18.42,7.23-8.15,7-15.63-1.74-22.3-5.82-4.43-5.86-8.88-4.32-14.85,1.82-7,5.77-12.54,10.56-17.72,7.05-7.64,7.44-12.32,2-21.3-3.47-5.79-4.24-11.7-2.67-16.69,1.7-5.46,6.21-9.84,13.05-11.73.37-.12.74-.21,1.13-.3,24.94-5.78,49.47-2.1,73.74,4.15,31.33,8.07,61,21.43,92.24,29.75,39.28,10.42,78.91,16.13,119.52,10,5.55-.82,7.67.5,8.78,6.39,1.19,6.29,2.52,12-1.23,17.78-.76,1.16-1.38,3.12-.94,4.25,5.68,14.56-3.74,26.89-6.62,39.92-2.12,9.54-5.57,18.63-5.54,28.72,0,4.79-2.27,9.35-5.84,13.33-5.67,6.32-8.16,14.19-7.89,22.71.32,10.17-.94,19.47-8.83,27.21-4.09,4-5.4,10.11-5.56,15.92-.47,15.37-3,30-12.5,42.78a21.68,21.68,0,0,0-4.25,14.82c1,11-2.75,20.36-9.06,29.06-5.87,8.1-7.93,17-8,27.26-.09,9.07-1.93,18.62-7.32,26.7-3.79,5.69-6.85,11.69-6.82,18.64.06,12.57-3.77,23.69-11,34a39.07,39.07,0,0,0-6.53,22.68c.11,9.48-4.82,17.73-4.91,27,0,.24,0,.6-.13.72-14.27,11.45-10,29.16-14.76,43.79-1.32,4-2.81,7.46-6.12,10.63-5.53,5.27-7.77,12.64-8.72,20.16-.66,5.12-2.6,8-8.33,8.33a37.78,37.78,0,0,0-15.69,4.44c-12.52,6.7-14.55,21.09-3.55,30,4.58,3.71,6.75,8,8.85,13.11,10.38,25.17,29.2,42.93,51.75,57,16,10,33.62,16,52.14,19.37,2.63.48,5.48.59,7.63,2.6.46.09.92.19,1.37.3,7.51-1.7,14.82.85,22.15,1.49,25.74,2.24,51.44,1.66,77.17.73a53,53,0,0,1,5.87.41c6.54-3.53,13.92-2.9,20.91-4.12,36.54-6.36,68-22.2,93.32-49.53l1.36-1.79,2.84-2.84c3-4.47,6-9,9-13.46l.18.22a3.83,3.83,0,0,1,.16-1.47c.91-1.69,1.81-3.38,2.72-5,.39-.88.78-1.75,1.15-2.61l4.82-9.18c.78-.87,1.55-1.73,2.33-2.58.76-.53,1.54-1.05,2.3-1.57l-.08,0,1.54-1.54,0,.08,1.55-2.27c.38-.41.74-.82,1.11-1.23.94-2,1.89-4,2.83-5.94.2-.83.41-1.67.6-2.5C-1865.24-884.22-1867.9-888.83-1871.89-892.84ZM-2779.67-1460c2.82-1.16,3.73,2,4.16,4,1.47,6.72,3.26,13.45,3.73,20.27.88,12.72.85,25.48-4,37.66,0,.12,0,.23,0,.35l-.16.31.09-.4c0-.09.07-.17.1-.26.85-13.43,2.62-26.85.36-40.34a106.31,106.31,0,0,0-4-16.56C-2780-1456.71-2782.42-1458.93-2779.67-1460ZM-2765-888.68c.65,1.6,2.16,1.85,3.73,1.87,3.46.06,6.92.12,10.39.22a6.14,6.14,0,0,1,4.67,2c1.43,1.62,2.48,4.62,1,5.31-5.61,2.58-.05,12.51-8.12,12.49-21.85-.06-43.74,1.65-65.56-1-26.43,1.12-52.75-.6-79-3.38-5.57-.73-11.14-1.73-16.73-2.14-7.18-.54-8.65-4.18-6.44-10.38a27.3,27.3,0,0,0,.82-3.58c0-1,0-2,0-2.94s-.12-1.93-.2-2.9c-.91-3.42,1-4.34,3.93-4.65A981.68,981.68,0,0,1-2799.3-904c2.34,0,5.25-.33,5.73,3.24,2.34,1.59,4.61,3.31,7.05,4.74,1.88,1.11,3.85,1.64,3.37-1.85.48-.52,1-1,1.42-1.57.25-.41.51-.85.76-1.28,1-3.45,3.73-3.25,6.54-3.27,19.49,0,38.94.66,58.37,1.9,19.74.88,39.4,2.55,59,4.65l4,.18c.72.7,1.44,1.41,2.14,2.12-4.6,3.53-9.09,4.54-13.33-.56l-2.37-.06a2.29,2.29,0,0,1-3.5-.08l-5.68-.28c-5.91,3.86-11.36,2.46-16.57-1.5l-10,.75a9.23,9.23,0,0,1-8.15-1.72l-5.51-.16c-10.37,3.78-21.13.16-31.64,1.57-5.55.74-11.4.21-15.79,4.89C-2764.45-891.2-2765.73-890.38-2765-888.68Zm-26.13-466.51c1.33,6.61-2.77,11.6-2.92,18.06C-2796.84-1342.58-2796-1347.36-2791.14-1355.19Zm-4.92-23.38c3,5.08,2.61,8.76,1.82,12.56C-2797.3-1369.19-2796.84-1372.87-2796.06-1378.57Zm7.49,398.38c-4.07-.94-2-4.21-2.07-6.35-.06-1.8-1.78-5.22,3-4.89,5.12.37,3.65,4.24,4.48,6.86C-2781.85-979-2788.06-983.18-2788.57-980.19Zm2.05,26.8a46,46,0,0,1-.59-17.85C-2784.12-966.67-2783.91-962.48-2786.52-953.39Zm1.15-118c-2.12-.42-6,.52-5.17-4.08.49-2.9.7-5.84,1.05-8.76,2.4,2.86,7.52,4.09,6.32,8.92C-2783.54-1073.84-2781.88-1070.75-2785.37-1071.42Zm-.51,26.34c-2.21-7.81-1.37-13.54-.72-21.08C-2782.45-1058.59-2783.58-1052.87-2785.88-1045.08Zm-.18,28.15c1.52,4.6,1.92,9.23-.54,13.87C-2787.81-1007.72-2788.42-1012.32-2786.06-1016.93Zm-1.94-8.49c-4.29,1-.91-3.66-2.46-4.58-.15-3.94-.12-6.5,4.83-6.5,5.18,0,2.81,3.41,3.41,5.42C-2780.69-1025.91-2786.08-1025.85-2788-1025.42Zm4.28-320-1.12-12.36C-2781.25-1353.94-2781.08-1349.8-2783.72-1345.46Zm-3.16,70.47c-4.35-2.24-1.29-6-2.17-9.87,5.8,1.66,7,4.79,6,9.23C-2783.76-1272-2786.42-1274.75-2786.88-1275Zm1,27.87c-.94-5.69-3.34-11.42.54-17.84C-2782.31-1258.38-2783.24-1252.72-2785.87-1247.12Zm.42-65.23c3.46,7.55,2,13.86,2,22.09C-2786.4-1298.23-2786.93-1304.4-2785.45-1312.35Zm1.72-12.39c1.12,3.61,0,6.13-4.61,6.92.31-3.28-2.75-6.56.59-9.25C-2786.78-1327.85-2784.3-1326.59-2783.73-1324.74Zm-1.81,86.47c4.3.1,2.11,3.36,2.54,4.16,1.39,5.29-.85,6.24-4.6,6-2.55-.16-2.89-.37-2.83-3.91C-2790.39-1235.29-2790.34-1238.39-2785.54-1238.27Zm-2.12,37.64-.1-.12.09-.09a73,73,0,0,1,1.06-20.36c3.46,8.27,4.85,14.57-1.06,20.36C-2787.67-1200.76-2787.66-1200.7-2787.66-1200.63Zm2,5.42c4,5.63,1.61,10.33.18,16.72C-2788.27-1185-2787.18-1189.6-2785.7-1195.21Zm-1.79,25.93c3.65-1.7,6.91,5.92,3.24,8.25a61.27,61.27,0,0,0-6.47,4.94C-2789.73-1161.72-2792.87-1166.76-2787.49-1169.28Zm2.25,19.16v15.42C-2788.33-1140.91-2788.06-1145.46-2785.24-1150.12Zm-2.67,23.14c2.6.72,6.86.33,4.33,5.75-.35,1.2,1.79,4.26-2.6,4-4.11-.3-5.18-2.21-4.54-5.59C-2790.4-1124.43-2792.36-1128.21-2787.91-1127Zm-3.75,184.83c.46-5.65,5.23,1.57,6.61-2,5.71,2.46,1.91,7.34,3.14,10.79C-2789.78-932-2792.18-936-2791.66-942.15Zm5.79,38c-1.12-7.66-2.71-13.39-.15-19.3C-2782.54-918.61-2782.3-913.38-2785.87-904.11Zm8.33-422c-.74-4.34-2.91-8.65,0-12.92a2.05,2.05,0,0,1,1.85.19C-2772.64-1334.1-2776.34-1330.3-2777.54-1326.09Zm-2.37-37.43c-2.4-1.39-2.23-4.18-4.67-5-2-.7-4.05-1.93-4.65-4.41C-2776.15-1374.36-2775.64-1373.9-2779.91-1363.52Zm-5.69-44.42c3.18,3.85.7,7.46-.3,11.21-.77-.18-1.1-.17-1.19-.3-2.43-3.35-3.25-7-1.79-10.93C-2788.75-1408.35-2786.08-1408.51-2785.6-1407.94Zm-33.9-26.6-2.83-1.61-4.24-3.33-1.72-1.2a12.53,12.53,0,0,1-5.79-4.65c-2.22-1.14-4.24-2.44-4.88-5.91,3.21.68,4.45,2.77,5.52,5.1a11.52,11.52,0,0,1,6,4.61c.38.6.75,1.2,1.14,1.78a7.19,7.19,0,0,1,5.07,2.43c.82.69,1.64,1.36,2.47,2C-2818.47-1434.5-2818.73-1434.29-2819.5-1434.54Zm4.66,2.71c-.3-.74,0-.92.67-.68.27.28.53.57.78.85Zm-20.21-47.09c-1.22-2.76-2.25-5.51-4.87-7.28-8.95,2.12-10.13,4.77-7.7,17.13q2.8,6.66,5.58,13.3c-5.22-3.12-7.53-7.85-8.53-13.36-2.33-5.34-1.72-10.62.89-15.55s6.35-7.51,12-4.21c2.85.45,4.31,2.52,5,4.94,5,17,17.9,24.82,33.82,29.14a61.75,61.75,0,0,1,10.53,3.79C-2806.15-1449.08-2827.6-1462.14-2835-1478.92Zm29.66,50.69a12,12,0,0,1,8.91,3.42c.43.18.87.37,1.28.57-.7,1.06-1,0-1.5-.27C-2799.55-1424.88-2802.45-1425.11-2805.39-1428.23Zm-2.52,107.5c.64-2.37,1.15-4.79,2-7.09.66-1.73,1.39-4.22,4.08-2.79,2.09,1.12,4.73,2.34,3.89,5.51-.49,1.9-.52,4.89-4.16,2.78-2.43-1.41-3.08,1.82-4.76,2.52C-2807.72-1319.5-2808.08-1319.82-2807.91-1320.73Zm1.92,8.39c-.36,6.09-2.73,11.58-5.3,17C-2811-1301.55-2810.2-1307.52-2806-1312.34Zm-15.39,34.91c.91-2.53,1.78-5.1,2.76-7.61,1.9-4.74,5.45-.83,7.29-.48,3.52.68.95,4,.1,5.89-.65,1.41-.52,6.15-4.43,2.46-1.72-1.61-3.18,0-4.7.52l-1.21,1C-2821.51-1276.23-2821.44-1276.83-2821.38-1277.43Zm2.57,9q-2.19,10.88-4.42,21.79l-1.95-.4A37.2,37.2,0,0,1-2818.81-1268.47Zm-13.72,30.66c.61,4.15,7.39-.15,7,4.9-.21,2.58-.49,5.73-4.09,7.46-1.1-5.4-6.67,2.7-6.94-2.79C-2836.75-1231.53-2836.06-1235.57-2832.53-1237.81Zm-.65,16.85c-1.35,8.88-.63,18.3-6.8,25.88C-2840-1204.32-2836.77-1212.69-2833.18-1221Zm-6.88,26,.08-.1v.19l-.19.33Zm-7.57,6.11c4.3,4.25,7.3,7.52,4.8,13.66-2.21,5.43-6-1.57-8.16,2-.2.35-1-2.73-1.06-4.27C-2852.2-1181.72-2849.51-1184.79-2847.63-1188.85Zm-4.45,23.67c1.49,7.5.89,10.2-3.79,17.36C-2856.32-1154.64-2853.83-1159.07-2852.08-1165.18Zm-14.51,31.94c6.76,2.08,11.15,4.93,6.54,12.56-2.91,4.82-5.23-3.75-7.82,0C-2871.57-1125.49-2867.17-1129.13-2866.59-1133.24Zm-1.76,23.2a33.25,33.25,0,0,1-5.91,18C-2873.81-1098.53-2873.08-1104.93-2868.35-1110Zm.78,31.42c.37-13.84,4.12-26.11,13-37,3.12-3.82,4.13-9.13,4.07-14.13-.13-13.84,4.21-26.15,11.52-37.74a32.92,32.92,0,0,0,5.21-16.92c.09-4.82,1.3-9.21,2.63-13.77,2.21-7.58,4-15.07,9-21.68,3.37-4.51,4.28-10.6,4.45-16.38.35-12.6,2.76-24.4,9.82-35.27,4.18-6.45,6.19-13.7,4.5-22-1.29-6.36,2.6-12.4,4.83-18.39a3.88,3.88,0,0,1,2.7-2.19c1.92-.09,2,1.82,2.24,3.24,1.13,6.67.7,13.37.21,20.06-1,13.12-3.11,26.21-.66,39.38.66,3.56-.84,6.86-1.17,10.31-1.4,14.55,1.26,29,.53,43.65-.38,7.64.4,15.3-1.62,22.86a33.91,33.91,0,0,0-.82,14.81c2,10.84.65,21.69,1,32.47.49,17.73-1.69,35.86.31,52.87,2.45,20.94-1.21,41.36.38,62.1,1.28,16.9.65,34.5.28,51.77-.21,10-3.9,19.91-1.43,30.18,1,4.06,2.56,7.93,2.4,12.36s-1.7,6.25-6.15,6.21c-12.67-.12-25.35-.05-38-.05-25.87,1.45-51.57,4-77.29,6.6-8.16.82-8.83.11-5.77-7.34,3.4-8.27.46-17.35,4.32-25.51,2.24-4.7,4.08-9.52,7.33-13.72,6.72-8.66,8.65-18.58,8.2-29.45a29.55,29.55,0,0,1,9-23.27c7.55-7.43,9.94-16.94,9.15-27.36-.76-10,1.63-19,7.75-27C-2871.31-1064.78-2867.77-1071.28-2867.57-1078.62Zm-19.44,6.4c1.05-3,.69-7,4.54-8.59.66,3.68,8.72-.73,6.06,7.33-.93,1.56-.33,5.59-4.2,7.13C-2881-1070.29-2889.16-1066-2887-1072.22Zm-.63,15.56c1.86,5.43-.16,10-3.73,16.49C-2891.7-1047.44-2890.44-1052.15-2887.64-1056.66Zm-11.19,28.42c9,4.28,9.34,5.73,2.84,15.09C-2902-1017.15-2904.55-1022-2898.83-1028.24Zm-5.06,24.92c-.48,7.15-3,13.71-6.08,20.07C-2909.82-990.48-2908.31-997.31-2903.89-1003.32Zm-5.87,30c1.26,2.48,0,4.88-.64,7-.67,2.35.4,8.54-5.67,3.63-2-1.64-3,2.81-5.43,2.79C-2921.21-968-2921.21-968-2909.76-973.36Zm-7.67,17.36c-3,9.85-5.19,17.94-10,24.94C-2926.24-939.56-2924.34-947.73-2917.43-956Zm-12.75,74.43q1.17-5.34,2.35-10.66C-2926.07-888.22-2926.28-884.57-2930.18-881.57Zm-2.88-39.11c5.29.21,6.94,3.89,1.93,7.51a10.79,10.79,0,0,1-6.32,1.1C-2936.73-915.91-2937-920.83-2933.06-920.68Zm-12.16,20.46c1-.53,1.88-2.74,3.18-1,.58.76-1,1.79-2.12,2.26-5.67,10.28-5.56,12.82,1.51,20.39-4.65,0-6.93-2.3-7.8-5.81C-2952-890.65-2950.91-896.26-2945.22-900.22Zm324,51.9c-4.88,13.06-13.51,23.82-23.51,33.12-11.55,10.74-25.67,17.71-40.46,23.15-4.72,1.56-9.3,3.68-14.47,3.27-17,6-34.94,6.77-52.7,7.91-23.08,1.5-46.18,1.6-69.23-.74-25.5-1.9-49.94-7.81-73-19-21.23-10.24-37.23-26.1-49.8-45.72a54.15,54.15,0,0,1-3.67-7.3c-.61-1.36-1-3,.41-4.12s2.92-.49,4.11.41c9.8,7.34,22.13,10.49,30.89,19.82,3.91,4.18,5.43,9.34,8.79,13.69,6,7.83,12.69,12.89,22.87,12.12,2.53-.2,5.18-.3,7.12,1.44,13.45,12.12,31.51,14.72,47,22.72,3.83,2,9.09-1.21,12.61,2.88,24.81,3.2,49.64,1.29,74.47.38-.69-1-1.84-2-2-3.11-1.39-9.13-6.63-11.34-15.06-9.22-2.38.59-4.32-.12-5.21-4.2s-6.42-6.36-11.23-5-9.79,1.27-14.66,1.94c-7.59,1-9.12-2.58-8.64-8.79-2.63-.62-5.67-.59-7.7-2-3.3-2.33-10.17.21-10-6.54.12-7,8.44-16,14.83-16.79l-.05-.06c10.79,2.83,21.06-.23,31.35-3h0c2.49-5.26,7.39-4.14,11.7-4.38,32.46-1.82,65-1.59,97.32-6.07,10.31-1.42,20.57-3.42,30.85-5.09C-2620.51-857.92-2618.45-855.83-2621.26-848.32Zm3.81-32.28-2,1.23c-3.76-3.38-6.4-7.47-6.18-13.4C-2622.87-888.71-2620.17-884.65-2617.45-880.6Zm-4,8.25a42.38,42.38,0,0,0,7.24-1.72c3-1,6.83-1.68,7.27-5.47.42-3.56-3.29-4.54-5.61-6.29-1.77-1.33-3.78-2.45-4.48-4.79,6.16-1.37,15.55,2.88,17.76,8.21,2.76,6.61-2.09,9.76-6.49,12.43-5.57,3.39-12,4.66-18.36,6a378.74,378.74,0,0,1-59.05,7.78l-3.27.18c-2.33.28-4.67.55-7,.84l-3.35.41-.64.06h-.65l-6.26,0-4.19.1-6,.39c-22.3,2.45-44.71,1-67.05,1.66-30.77.83-61.51-.73-92.19-2.54-25.76-1.52-51.41-5-76.08-13.27a40.13,40.13,0,0,1-10-4.81c-3.61-2.49-5.88-6.13-4.88-10.89.42-2,1.42-4.12,3.61-4.27,2.61-.18,1.91,2.46,2.24,3.93,1.61,7.23,6.11,11,13.36,12,3.91.55,7.76,1.65,11.63,2.5,3,.63,6.27,0,8.95,2l1.63.27c13-.58,25.61,2.56,38.48,3.3,30,1.71,59.92,3.5,89.95,3.1,31.49-.45,63,.18,94.48-2.43,16.54-1.38,33.08-2.58,49.62-3.87C-2641-869.14-2631.24-870.71-2621.45-872.35Zm-14.05-6c-5.52-.72-7.37-2.43-9.07-7.84-1.85-5.91-1.52-11.19,4.18-15l2.83-1.93c1.17-.24,1.42.2.93,1.21l-2.33,2.06C-2646.77-891.6-2640.63-885.14-2635.5-878.38Zm-3.31-40.48c2.13-2.87,3.06-.11,3.06,1.28,0,2.18,3.76,5-.58,6.56-3.93,1.41-7.91,2.23-8.3-4-.08-1.42-1.33-2.72-.35-4.36C-2642.93-919.95-2641.29-915.53-2638.81-918.86Zm-13.93-31.35a33.64,33.64,0,0,1,7.54,19.71C-2649-936.59-2651.84-943-2652.74-950.21Zm-9.36-19.13c.54-3.73,5.33-.36,7.12-3.49.62-1.08,2.15,1.31,2.6,2.61,1.09,3,2,6.1,2.94,9.18-.12.52-.24,1.06-.37,1.59l-1.08-.5a25,25,0,0,0-3.32-1.38c-2.29-.58-1.93,5.51-4.65,2.38A13.39,13.39,0,0,1-2662.1-969.34Zm-12.43-56.74c2.31-1.24,3.4-.58,4.54,4,.46,1.88,5.45,6.91-2.48,6.08-2.63-.29-.9,3.65-3.28,4.21-2.32-1.75-2.21-4.76-3.56-7C-2682.78-1024.64-2677.31-1024.57-2674.53-1026.08Zm11.12,40.06a38.75,38.75,0,0,1-5.87-19.44C-2665.17-999.63-2663.92-992.93-2663.41-986Zm-22.12-72.37c4.81,5.7,5.16,11.28,5.58,16.8C-2682.08-1046.53-2686-1050.92-2685.53-1058.39Zm-3.78-21.41c5.09,2.76,4.14,8.23,6.11,12.81-8.09.92-13.27-1.29-12.6-9.49C-2695.55-1079.78-2690.74-1077.11-2689.31-1079.8Zm-5.88-10.1c-3-5.42-5.34-11-4.09-17.53C-2695.44-1102.14-2694.41-1096.25-2695.19-1089.9Zm-16.36-39.42a1.37,1.37,0,0,1,2.15-1.12c3.93,2.68,3.76-2.62,6.05-3.11,2.15,2,2.33,4.88,3.09,7.38.68,2.2,2.19,4.5.76,7-3.3-2.86-6.14,3.71-8.73.82A13.86,13.86,0,0,1-2711.55-1129.32Zm-9.71-57.08c4.44,2.65,4.77,6.88,5.52,11,1.15,6.26-6.12.17-6.3,4.38-4.37-1.18-3.49-5.3-4.33-8.23C-2727.56-1183.54-2722.4-1183.43-2721.26-1186.4Zm8.61,41.88a35.23,35.23,0,0,1-5.3-19.4C-2713.64-1156.92-2712.28-1151-2712.65-1144.52Zm-31.11-91.47c2.69,3,6.23-2.66,8.85.84,5.66,7.55-.68,9.47-6,12.07C-2742.64-1227.17-2745.68-1231-2743.76-1236Zm17,41.15c-5.95-7.83-6.24-15.71-7.95-23.12A46.05,46.05,0,0,1-2726.76-1194.84Zm-7.55,7.44c1.67,8.76,2.81,17.16,7.46,25.37,4.79,8.41,8.26,18,8,28.32s2.47,19.27,9.38,27.45c5,5.88,6.85,13.92,6.55,21.67-.4,11,2.81,20.21,9.3,29.08,4.51,6.18,6.42,13.86,6.1,21.82-.5,12.46,1.48,23.55,10.71,33.58,4.89,5.33,7.39,13.92,6.77,22.27-.82,11.15,2.69,20.81,9.27,29.89,5.12,7,8.3,15.27,7.69,24.28-.33,4.93,1.19,9.32,2.7,13.78,1.18,3.46,1.28,5.58-3.67,5.06q-57.09-6.15-114.53-6.75c-5.69-.06-8.23-2.32-7.45-8.07a89.6,89.6,0,0,0-2-36.08c-1.46-5.46-.1-11.88.84-17.72a49.64,49.64,0,0,0-.15-18.51c-2.12-9.92-1.36-19.83.58-29.58,1.86-9.33-1.3-18.29-1-27.46.93-24.57,1.39-49.26.54-73.74-1.43-41.93,1.3-83.8-.36-125.71-.79-20,.38-40.13-1.09-60.19-.24-3.34.85-6.77,1.48-11.21,8.34,13.18,12.75,25.72,11.7,40-.36,5,2.33,9.86,6.11,13.22,7.54,6.7,8.28,15.54,7.7,24.39-.64,9.66,1.1,18.44,7.1,25.9C-2737.65-1207.81-2736.25-1197.46-2734.31-1187.4Zm-14.93-76.65c3.53,3.81,3.47,8.66,3.75,13.46A21.6,21.6,0,0,1-2749.24-1264Zm-5.28-20.84c3.78-2.6,3.27,1.55,4.09,2.73,1.21,1.75,1.54,4.08,2.24,6.15.31,1.12.09,1.72-1.21,1.2-1.11-.32-3-1.17-3.2-.88-2.71,4.21-3.64,1.53-5.34-1C-2761.28-1281.5-2757.54-1282.81-2754.52-1284.89Zm-4.58-7.06c-1.27-6.18-2.54-12.36-3.75-18.55a10.17,10.17,0,0,1,1.37-.51C-2758.31-1305.13-2758.92-1298.53-2759.1-1291.95Zm-8.14-33.81c4-.15,5.11,1.27,5.72,4.53.86,4.67-4.33,3.88-5.36,4.06-3.48.58-2.48-3.47-3.49-5.23C-2770.55-1325.06-2770.27-1325.65-2767.24-1325.76Zm-1.43-11.73c-2-4.19-5.52-7.81-5-15C-2769.33-1346.92-2768.37-1342.42-2768.67-1337.49Zm330.89,20.87c5.13,11.57-11.31,371.95-17.73,386.68C-2448.36-1058.16-2442.26-1186.4-2437.78-1316.62Zm-23,424.78c4.09,3.22,3.54,7.1,3.85,10.61C-2460.24-883.81-2461.45-887-2460.83-891.84Zm-140.62,280.56c.25.55.51,1.1.73,1.59-.45.46-.73.78-1,1.09a7.52,7.52,0,0,1-.51-1.77C-2602.27-610.67-2601.73-611-2601.45-611.28Zm6.36,17.47a1.26,1.26,0,0,1-2,1.23,7.22,7.22,0,0,1-3.89-7.48C-2597.43-599.08-2595.6-596.94-2595.09-593.81Zm-36.11,17.59c1-.06,1.9.21,2.17,1.39-.18,1.17-1,1.53-2,1.61s-2-.23-2.1-1.39S-2632.18-576.15-2631.2-576.22Zm-207.34,17.51c-1-11,4-15.66,13.28-13,19.54,5.54,39,11.27,58.51,17.05,2.5.73,5.35,1.06,8.27,4.86-6.79-1.64-12.3-2.52-17.49-4.31-15-5.18-30.7-7.84-45.48-13.72C-2830-571.25-2835.11-567-2838.54-558.71Zm9.7,22.4c5.76-.75,9.13,0,14.08,3.3C-2820.44-532.28-2823.74-533.43-2828.84-536.31Zm91.5,28.85-71.5-22.15c.3-.73.58-1.44.87-2.18a731.23,731.23,0,0,1,71.15,22.62C-2737-508.61-2737.16-508-2737.34-507.46Zm8.64,2.39c.18-.59.35-1.21.52-1.8a34.65,34.65,0,0,1,4.23.77c16.12,4.94,32.22,9.91,48,16.05C-2694.32-492.37-2711.25-499.6-2728.7-505.07Zm714.15-11.61c-48.13,14.19-95.73,30-143.48,45.44-82,26.46-164.13,52.58-246.06,79.26-19,6.19-16.24,4.26-16.57-12.48,0-1.24,0-2.5,0-3.73q-.84-.94-1.68-1.92c-12.24.09-23.18-5.25-34.51-8.67q-58.17-17.6-116-36.1c-30.55-9.71-61-19.87-91.41-29.87-1.54-.51-3.51-.59-4.16-2.72,1.8-1.94,3.71-.69,5.43-.09,75,25.73,151.19,47.87,226.87,71.59,5.19,1.63,10.62,2.46,15.95,3.66,17.41-3.26,33.8-9.93,50.53-15.38,86.69-28.18,173.92-54.57,261-81.32q49.86-15.32,99.92-30c2.64-.79,7.25-5,8.64,1.94C-1999.64-521.67-2000.18-520.92-2014.55-516.68Zm10.28-57.21c4,4.73,6.34,19.18,3.82,23.86-1.73,3.21-5.1,3.81-8.13,4.74q-41,12.51-82,24.89-31,9.4-62.06,18.84l-1.35.39-16.18,4.77a15.17,15.17,0,0,1-3.77,1.11l-.41.12q-65.06,20.28-130.23,40.3c-23.27,7.11-46.17,15.43-69.83,21.21-13.18,4.24-26.4,8.33-39.51,12.75-6.16,2.07-8.49-.32-8.09-6.17.48-7.15-1.91-14.27,0-21.4-.45-.06-.88-.14-1.31-.21-12.76-.16-23.84-6.45-35.62-10.05-29.71-9-59.64-17.37-89.45-26.12-47.68-14-94.95-29.39-142.41-44.09-16.86-5.22-33.81-10.09-50.71-15.18-3.49-1-7.15-1.85-11.67-5.9,13.33,2.23,24.16,6.15,35.1,9.48,54.92,16.78,109.71,34,164.7,50.54,43.08,13,86.4,25.23,129.6,37.8,37.78-11.36,75.58-22.63,113.35-34.11,83.83-25.48,168.16-49.18,252.39-73.24,14.09-4,28.09-8.3,42.14-12.48C-2012.15-573.19-2008.31-574.15-2004.27-573.89Zm-19.37-8.83c1,.42,2.09.83,3.15,1.24,5.23,3.5,1.22,4.74-1.6,5.63-8.06,2.52-16.23,4.73-24.33,7.11-49.16,14.4-98.16,29.31-147.46,43.1-71.13,19.9-141.61,41.92-212.45,62.74-7.69,2.25-14.12,1.84-22-1.52-13.84-5.94-28.8-9.27-43.33-13.54-38.39-11.29-76.7-22.93-115.27-33.6-48.13-13.32-95.75-28.45-143.89-41.8-27.49-7.61-55.23-14.73-82.05-24.67a23.81,23.81,0,0,1-2.85-1.72c4.25-1.4,7.46-.06,10.42,1,29.88,10.2,60.53,17.88,90.89,26.42,51,14.32,101.75,29.34,152.62,44,41.53,12,83.14,23.74,124.4,36.68,5.67,1.77,10.83,3.85,16.49-1.49,2.87-2.71,8.39-2.54,12.67-3.8,57.72-17,115.22-34.86,173.21-50.88,55.84-15.43,110.95-33.39,167.09-47.77,11.55-3,22.93-6.65,34.3-10.21C-2029.35-587.16-2025.76-587.61-2023.64-582.72Zm-118.54-27.56c.9-.35,1.26.29,1.15,1-.06.36-.55.66-.88,1-.3-.31-.79-.6-.82-.93A1.34,1.34,0,0,1-2142.18-610.28Zm-82,30.24c8.19-.93,14.67-7.78,24.27-5.14,6.21,1.7,12.52-2.28,15-9.52l.25-.26,4.38.11c4.68-4.21,9.27-1.42,12.62,1.39,6.26,5.27,11.26,1,13.71-2.82,2.1-3.26,2.95-3.38,5.79-2.35,6,2.18,10.13-.25,11.54-6.7,1.88-8.61,3.55-9.85,12.28-8.22q23.72,4.42,47.38,9.13c7.67,1.52,14.75,5.55,22.9,5.32,3-.08,5.28,1.47,4.89,5.11,2.91-.46,5.82-1.38,8.9-.14-1.44,3.15-4.58,2.85-7,3.55q-89.86,26.08-179.79,52-94.21,27.14-188.43,54.23a20.52,20.52,0,0,1-14.54-.85Q-2485.52-501-2541-516.82q-32.93-9.33-65.87-18.56c-28.87-8.45-57.7-17-86.62-25.29-24.37-7-48.85-13.6-73.29-20.39-6.46-1.79-13.06-3.3-18.25-8-1.87-1.69-3.93-1.77-6.26-1.26-2,.43-4.37.42-5-1.92-.82-2.93,1.76-3.88,3.88-4.48,8.63-2.38,17.24-4.84,26-6.79,29.57-6.68,59.18-13.14,88.8-19.66a28.69,28.69,0,0,1,5.13-.73,2.3,2.3,0,0,1,2.51,2.22c.1,1.42-.9,2.21-2.05,2.84-2.13,1.15-4.92,1.7-5.58,4.49-.61,2.52.22,5.81-4,5.7-3.48-.07-5.38-2.15-6.71-5.06A19,19,0,0,0-2690-616c-3.53,3.51-6.71,8.48-12.69,4.78l.09.07c-2.23.55-4.66,1-4.24,4.1.3,2.21,2,3.41,4,4,1.2.32,2.47.35,3.68.61,2,.4,4.15.92,4.24,3.4.06,2-1.74,2.81-3.33,3.6s-4.17.28-5.14,4.1c8.27-.42,14.2,9.69,23.84,4.06-1.63-2.92-3.72-1.48-5.51-1.34-2.73.22-4.21-1.12-4.86-3.58-.47-1.71-.93-3.68.44-5,2-1.85,3.84.15,5.33,1,11,6.56,23.91,8,35.32,13.47,3.16,1.53,6.89,1.63,2.18,5.93-2.23,2-1.82,5.76,1.09,5.82,6.57.15,11.52,4.52,17.64,5.39a13.45,13.45,0,0,0,5.18-.13c6.24-1.68,12.22-3.92,16,4.38,1.14,2.47,4.61,1.24,6.7-.23,4-2.83,6.74-2.3,8.74,2.31.8,1.88,2.71,3.45,4.68,3.27,7.51-.7,14.73,1.7,22,1.85,5.7.1,11,.12,16.43,2,4.05,1.39,8.21,2,12.91.11,5.24-2.12,10.84,0,15.47,3.27,3.91,2.73,7.36,1.88,11.79.92,9.48-2,19.18-4.64,29.09-1.88,6.57,1.84,13.3.3,20,.81,33.54,2.57,67-.18,100.44-2.18,26.37-1.58,52.08-7,77.75-12.81,5.24-1.18,10.78-2.88,15.39,1.88,13-1.42,24.91-5.51,34.63-14.86A12.08,12.08,0,0,1-2224.18-580Zm-14.44-43.07c.72,6.17,1.71,12.3,2.56,18.47s-.73,11.73-6.14,15c-13.19,7.91-26.43,16-42.34,17.36a44,44,0,0,1-13.74,2.73,345.94,345.94,0,0,1-85.14,11c-11.75,1.77-23.57.85-35.37.85-42.95,1.32-85.28-3.2-127.21-11.8.06-.65.14-1.29.2-1.95,8.44,1.06,16.92,1.91,25.33,3.21,14.31,2.22,29,1.63,43.07,5.7,2.78.81,6,1.37,7.54-2.4v0l0-.06a.26.26,0,0,1,0,.08c2.5,1.18,5,2.09,8,1.09,1.42-2.2-1-3.47-1.4-5.23-1.06-5.15-5.08-10.79,3.49-13.64,2.45-.82,2.22-3.6,1.71-5.9l-13.27-.5c-7.77-1.69-15.92-1-23.55-3.66-1.3,1-2.39.6-3.39-.48q-11.13-1.56-22.24-3.16a3.21,3.21,0,0,1-3.34-.87q-6.65-1-13.3-1.94c-6-1.3-12-2.82-18.11-3.84-14.25-2.38-25.72-11.88-39.18-15.59-9-2.48-5.78-6.42-3.76-10.66,3.19-6.73,10.81-7,16.12-.15,3.15,4.06,6.9,5.75,11.34,7.43,20.39,7.73,41.51,13,62.67,17.88,9.71,2.26,20.19,1.2,30.31,1.84,15.6,1,31.18,1.94,46.83,1.72a51.36,51.36,0,0,1,7.34.94l3.21.28c.89,0,1.81,0,2.7,0,22-.52,43.81-2.43,65.68-4.24,15.92-2.16,31.75-4.85,47.45-8.31l9.31-2.73c13.72-5.15,27.5-10,40.19-17.65C-2245.53-638.11-2239.94-634.45-2238.62-623.11Zm-41.67-44.81c3.73-4.59,8-1.4,11.73,1.21,1.81,1.67,1.55,4,1.88,6.12,10.76,9,9.61,22.38-3.06,29-11.39,5.91-23.3,10.81-36.19,12.61l-8.62,1.75c-4.65,2.69-9.94,3.15-15.06,3.63-12.52,1.19-24.79,4.47-37.45,4.5-5.42.59-10.84,1.15-16.25,1.72-9.36,1.66-18.84,1-28.21.9-21.81-.29-43.6-1.18-65.4-1.87-2.36-.07-4.91,0-6.88-2.61,4.09-1.43,7.63-.25,11.23.1,4.65.47,7.58-2.21,8.89-6.34,1.24-3.88-1.39-5.33-4.7-6a25.9,25.9,0,0,0-12.36-6.3c-16.63-3.76-33.27-7.53-49.81-11.67-12.82-3.22-24.81-8.77-36.12-15.48-7.08-4.19-6.46-10.25.6-13.46,2.09-1,3.8-1,5.1,1.16,7.42,12.51,20.5,16.06,33,19.32a470,470,0,0,0,68.74,12.4c25.09,2.36,50.15,1.42,75.21-.47,3.18-.24,6.41-.08,9.62-.09,23.7-3.08,47.27-6.89,70.21-13.86l8.87-3.26C-2290.43-659.36-2284.6-662.6-2280.29-667.92Zm-82.16-98.21c7.32-4.94,8.59-4.59,11.94,4.12,2.8,8.19,3.05,16.92,5.71,25.21,5.42,16.92,16.51,28.25,32.33,35.52,3.8,1.73,7.46,3.79,11.19,5.72l3.14,2.28-.06-.12a9.7,9.7,0,0,1,1.34,7.44c.09.22.18.45.28.68,7.81,18.26,9.35,17-11.12,27.25-9.71,4.88-20.39,6.09-30.86,8-9.87,2.73-20.45,1.46-30.1,5.42l-10.41.28c-.78,0-1.56-.07-2.32-.12-17.1,3.09-34.28,1.69-52.6,1.81,6.7-5.84,16.29,1.15,20.75-7.25l-6.58.29c2.8-2.59,4.77-1.22,6.73-.5,1.4-.68,4.7-1.59,3.3-2.66-6.75-5.17,2.83-4.45,2.27-7.15-26.14.31-52.17-.91-78-5.4-3.38-.6-6.94-.54-10-2.39-15.55-1.3-30.38-5.2-43.5-13.87-7.12-4.7-6.7-8.43.48-13.31v.15c.42-.45.84-.9,1.25-1.36a16.83,16.83,0,0,1,2.5-1.61c25.57-10.42,40-30,46.27-56.26a38.72,38.72,0,0,0,1.25-5.76c.6-8.09,2.35-9.29,9.57-6.32a129.55,129.55,0,0,0,38.14,9c22.58,2.12,45,2.3,67-4.62A39.21,39.21,0,0,0-2362.45-766.13Zm-12.16-28c1.36,4.73,2.66,9.48,4.18,14.17,2.57,7.89,1.67,10-6.15,12.44a73.5,73.5,0,0,1-7.93,1.68c-11.73,4.19-23.89,2.27-35.91,2.32-16.7,2.3-18.17.83-14.73-14.85.74-3.37,1.52-6.74,2.27-10.12l-8.44-1.86c-3.65-.14-7-.9-9.24-4.23l-2.79.47a12.7,12.7,0,0,1-2.91.31c-2.9-.37-6-.55-7.69-3.48a2.24,2.24,0,0,1,1-3.16c3.15-1.65,5.6.25,8,1.88l6.09,2.24,2.94.1c2.08.12,4.23,0,6,1.46l0-.12c4,.17,8.13-.12,12.06,1.27,15.56,0,31.28,2.45,46.6-2.46C-2377.93-799.48-2375.84-798.42-2374.61-794.18Zm-7.51-19.79c.39,3.51-2.19,5.34-5.09,6.54-13.87,5.74-28.14,4.41-42.45,2.35-8.15-.28-16.23-1.23-23.54-5-4.21-2.18-7.78-5.27-2.49-10.12,2.13-2.37,4.74-2.13,7.45-1.34a91.82,91.82,0,0,0,18.71,3.22c14.05,1.53,27.9.15,41.68-2.65C-2382.94-821.12-2382.49-817.3-2382.12-814Zm-72.9-60c9.94,12.12,9.43,26.9,10.54,41.27C-2447.63-846.57-2451.26-860.3-2455-874Zm74.08-13.47c-3.27,12.23-6.43,24.5-10,36.62-2.09,7-3.65,13.91-1.5,21.18.73,2.48.3,4.45-2.62,5.1-9,2.86-18.19,2.51-27.42,1.54a7.25,7.25,0,0,1-1.47,0c-3-.52-7.47,1.41-8.57-2.18-.81-2.59,3.64-3.39,5.72-5,5.8-4.55,6-11.17,4.18-17-2.06-6.45-2.69-13.09-4.42-19.55s-.66-12.42,6.56-15.42c.68-.29,1.57-.58,1.87-1.15,8.15-14.58,23-7.43,34.7-10.51C-2379.55-894.92-2380.15-890.38-2380.94-887.46Zm12.55-28.21c1.5,5.11-2.13,7.71-6,9.72a59,59,0,0,1-26.45,6.43c-7.91.15-15.84.08-23.75.09l-4.1,0-.17,0a95.56,95.56,0,0,1-32.72-4.67c-5.25-1.76-9.52-4.63-8.46-11.16.7-4.27,2.79-6.93,7.7-4.84a251,251,0,0,0,34.38,3.66,3.5,3.5,0,0,1,3.71.73,1.65,1.65,0,0,1,2.35-.18c12.49.34,24.79-2,37.21-2.64a40.48,40.48,0,0,1,5.77-1.26C-2374.81-920.16-2370-921.13-2368.39-915.67Zm-13.34-17.83c2.91,8.42-3.58,6.61-7.84,7.22l-24.91,1.54c-2.46-.29-4.9-.64-7.36-.84-3.78-.3-6.31-3.09-4.67-5.85,4.39-7.43.33-14.58-.33-21.46-1.69-17.81-.33-35.45.08-53.17.13-5.69.11-11.38.17-17.06-1.19-.39-2.53-.84-2.37-2.36,2.52-22.87,1.3-45.9,3.05-68.81.43-5.61-.62-11.35.88-17,0-1-.09-1.94-.14-2.92-3.15-8.8.21-17.69-.34-26.54-.94-15.3.92-30.54.43-45.93-1-30.09.17-60.34,2.15-90.4.52-7.76-.27-15.3-.43-22.85-.23-9.27,1.48-18.25,2-27.38.5-8.79,7.56-7.44,13.47-7.65,6.15-.21,8.21,2.82,8.37,8.64.9,34,1.85,68.09,3.08,102.13,1.19,32.78,2.73,65.54,4.1,98.3C-2389.37-1061.71-2386.73-997.54-2381.73-933.5Zm-40.17-411.15h26.59A53.56,53.56,0,0,1-2421.9-1344.65Zm33.21-11.77a2.87,2.87,0,0,1-3,3.45c-11.63.48-23.28,1.46-34.85-.57-1.05-.17-1.88-1.52-2.81-2.31l0,0a3.54,3.54,0,0,1-1.12.42l-.44.21c-1.84,2.74-4.77,1.8-7.32,2.15-9.54.13-9.92-.15-8-6,17.54-1.94,35.13-1.61,52.73-1C-2391.27-1360-2389-1359.21-2388.69-1356.42ZM-2421-1398c7.48-1.91,14.57-1,21.59-.73,3.06.12,4.44,2,3.68,5.09s-1.55,6.27-2.33,9.4c0,.49,0,1-.06,1.46-.53,4.63-.32,9.51-1.8,13.83-1.84,5.34-8.21.55-11.42,3.82l-2.18-.18-8.73-1c-1.24,0-2.49.06-3.73,0-10-.31-16.6-8.46-14.59-18.18.81-3.91,3.69-3.55,5.23-1,2.76,4.62,5.1,3.25,8.18.61,1.67-1.42,3.86-2.21,5.8-3.32C-2414.66-1392-2414.58-1392.81-2421-1398Zm38.53-10.64c-.47,2.28-2.53,2.85-4.54,3-2.67.23-5.37.26-8,.38l-3.32-.13c-15.3-.06-30.59-.09-45.89-.19a27,27,0,0,1-5.86-.71c-2-.46-4.06-1.5-3.66-3.89.39-2.2,2.72-1.73,4.34-1.82,4.93-.3,9.87-.48,14.79-.7,3.26-2.68,7.12-1.51,10.71-1.53,12.61-.06,25.22.14,37.84.23C-2383.24-1413.38-2381.9-1411.54-2382.49-1408.67Zm494.38,525.83c-.46.71-.93,1.33-1.52.12,1.31-4.59-.18-8.85-1.21-13.24C-1886.93-892.26-1884.08-888.35-1888.11-882.84Zm-10.42-14.84c-3.85-1.21-5.37-2.87-5.93-6.18C-1901.1-903.34-1899.9-901.31-1898.53-897.68Zm.34,18.57c-4.4,1.06-6.1-1.17-7.64-3.66l-1.43-1.51c-3.61-3.71-5.26-7.76-2-13.88.81,5.41,1.44,9.6,2.06,13.79l1.51,1.47C-1903.41-881.77-1901.16-880.62-1898.19-879.11Zm-10-40.71c4-2,2.85,3.08,4.15,4.27.68,5.47-4.53,6.06-6.11,6.12-3.34.11-3.43-4.1-4-6.86C-1915.49-922.13-1910.08-918.92-1908.23-919.82Zm-15.66-55.39c2.63,2.55,3,5.32,3.78,7.88,1.26,4.29-2.38,8.94-6.57,8.47-1.52-.18-1.81-1.6-2.21-2.69-1.33-3.69-2.93-7.34-2.57-13.58C-1927.79-969.69-1925.4-970.94-1923.89-975.21Zm9.45,42a29.74,29.74,0,0,1-6.47-18C-1917.08-945.83-1914.32-940.07-1914.44-933.26Zm-22.71-70.65c4.24,5.89,5.57,12.54,5.9,19.52C-1933.91-990.72-1937.55-996.7-1937.15-1003.91Zm-1-17.27c.13,2.16,1.18,4.25,1.79,6.37.21.94-.15,1.3-1.09,1-3.39-3.73-5.75-1.64-7.79,2.48-1.3-2.67-2.4-4.33-2.94-6.17-.87-2.94-2.85-8.19-.33-8.47C-1945.5-1026.29-1938.62-1029-1938.13-1021.18Zm-10.46-18.85a24.65,24.65,0,0,1-5.15-15.17C-1949-1051.08-1949.4-1045.38-1948.59-1040Zm-7.83-38.48a38.48,38.48,0,0,1,3.56,13c-2.78-.36-4.39-3.64-7.47-.37-2.43,2.58-2.92-1.84-3-2.9-.21-3-5.31-7.1.49-8.76C-1961.33-1078-1959.09-1084.69-1956.42-1078.51Zm-15.16-34.5c5.15,7.54,6.36,16.34,7.34,25.24A61.08,61.08,0,0,1-1971.58-1113Zm2.42-10.51c.52,5.7-4.6,4.33-5.6,4.26-6.55-.5-4.64-6.8-6.88-10.53C-1975.06-1131.77-1970-1132.71-1969.16-1123.52Zm-11-19.76c-5.69-7.63-6.15-15.57-9-22.93C-1984.3-1162.12-1982.49-1157.63-1980.18-1143.28Zm-6.54-32.65c.24,1.48,1,2.47-2,3.27-10.63,2.87-8.33-6-10.9-10.36C-1990.69-1187.67-1987.87-1183-1986.72-1175.93Zm-18.39-42.42c4.09,7.26,6.12,15.21,7.12,23.51C-2003.52-1201.6-2004.17-1210-2005.11-1218.35Zm-6.64-15.3c2.2-.18,5.33-4.56,7.39.12,1.25,2.88,2.18,5.91,3.55,9.68-3.36,0-4.61-3.86-7.52-1.35-3.3,2.88-3.61-.82-4.12-2.45C-2013.08-1229.69-2015-1233.38-2011.75-1233.65Zm5.79,44.41c.81,10.81,3.71,20.14,10.57,28.75a33.92,33.92,0,0,1,7,21.49c-.2,12,1.37,22.5,9.92,32.36,5.17,6,6.15,15.59,5.88,24.11a36.27,36.27,0,0,0,8.23,24.87c6.22,7.7,8.28,16.72,7.6,26.4-.81,11.48,1.89,21.17,10.73,29.54,5.7,5.39,6.27,13.93,6.31,21.56.06,12.37,2.76,23.28,11.12,33a25.59,25.59,0,0,1,6.29,19.4,28.91,28.91,0,0,0,3,17.33c3.44,6.47.43,6.78-5,6.21-15.57-1.61-31.16-2.79-46.73-4.36a616.7,616.7,0,0,0-64-2.64c-5.94,0-7.5-1.67-8.35-7.85-1.92-13.9.42-27.94-.95-41.32-2.12-20.62,1.48-41-.91-61.58-1-8.65.31-18.26.28-27.27-.09-18.35.73-36.68.54-55-.12-11.4-.87-22.76-.15-34.21.46-7.34-1-14.81-1.4-22.23-.51-8.44,3.15-16.53,1.89-25.15-1.94-13.25-.91-26.52-.19-39.88.64-11.75-1.21-23.69-.29-35.51,1.3-16.82-3.7-33.44-1.21-51.36,7.92,6.59,11,14.16,10.35,23.06a34.58,34.58,0,0,0,6.82,23.87c5.34,7,6.81,14.71,6.63,23a48.91,48.91,0,0,0,8.21,28.17C-2008.76-1206.73-2006.61-1198-2006-1189.24Zm-181.25,291.41c16.49-1.54,33-3.4,49.48-4.39,22.3-1.34,44.65-2.13,67-1.62,3.52.07,7.22-.39,7.95,4.5,3.06,4.17,7.23,6.53,12.14,8.06,7.28,2.27,15,2.85,21.94,6.65,1.75,1,5.61,2.85,5.7-2.44,0-1.49,1.61-1.83,2.88-1.42a2.72,2.72,0,0,1,1.68,3.66c-1.51,4.05-1.29,8.2-1.48,12.39-.23,4.81-4.18,5.7-8.12,5.73-19.59.14-39.17.84-58.75-.18-26.23-1.24-52.54-.8-78.67-4.07-8.73.09-17.15-2.27-25.74-3.36-3.47-.45-5.57-1.81-2.62-5.76,2.81-3.76,2.32-8.48,2.6-12.91C-2193.16-897.32-2190-897.58-2187.21-897.83Zm133.19-291c5.37-.21,2.6,3.44,3.63,5.38-1,1.68,2.06,5.49-3.9,4.48-3.6-.62-4.36-1-4.09-4.09C-2058.12-1185.88-2058.78-1188.67-2054-1188.87Zm1.42-26.09c1.58,5.51.85,10.36-.54,15.65C-2056.89-1205.66-2056.81-1208.45-2052.6-1215Zm-.11-101c-3.18-2.49-4.44-5.16-2.88-8.46.56-1.15,2.79-2.19,3.69-.85C-2049.94-1322.28-2051.3-1319.28-2052.71-1315.91Zm.36,25.53c-3.48-4.39-4.21-9.06-4-13.91.05-1.2,0-2.68,1.73-2.72a2.17,2.17,0,0,1,2.21,2.4C-2052.29-1299.86-2052.35-1295.11-2052.35-1290.38Zm-.8-76.43c-.91.06-3.09-1.64-2.12-3.2a8.89,8.89,0,0,1,6.56-4.33c1.24-.15,2.24.86,2.09,2.79C-2048.9-1370.31-2050-1367-2053.15-1366.81Zm.86-38.54a1.46,1.46,0,0,1,2.46-.25c2.06,3.82,1,7.42-.52,11.09-.86-.31-1.16-.31-1.27-.46A9.59,9.59,0,0,1-2052.29-1405.35Zm5.12,43.23-.49-.22.43-.35Zm-6.45,455.47c-2.7-4.31-3.73-8.91-3.41-14.7C-2051.41-916.88-2050.69-912.17-2053.62-906.65Zm-.13-39.45c1.63,4.24,2.72,8.43-.88,12.94C-2057.36-938.35-2054.84-942.15-2053.75-946.1Zm.28-11.91c-4-.67-2.25,2.8-3.61,5-1.51-3.67-2.25-6.78-1.78-10,.27-1.9-.37-5.09,3.36-4.18,2.14.52,5.57.09,4.93,3.86C-2050.9-961.36-2047.86-957.07-2053.47-958Zm-2.37-54.62c2.07-.19,5.25.22,5.33,4.82.09,5.53-4,5.72-6.91,6.78-2,.75-1.53-2.33-1.9-4.23C-2057.62-1007.36-2060.57-1012.21-2055.84-1012.63Zm1.07-23.67c3.29,4.67,2.8,8.65,1.08,12.85C-2055.39-1027.12-2057.65-1030.79-2054.77-1036.3Zm1.06,58.87c-1.79-4.42-1.68-9-.58-13.81C-2051.09-986.9-2051.91-982.19-2053.71-977.43Zm-5.15-68.41c1.53-4.4-2.34-9.11,2.54-11.85,1.08-.6,4.3-1.26,5.43,2C-2048.57-1049.12-2053.38-1047.86-2058.86-1045.84Zm3.35-36.47c4.4,4.75,3.42,9.15,2.1,13.48C-2055.42-1072.65-2057.35-1076.4-2055.51-1082.31Zm2.24-9.21c-4.63-.07-5.17-3.09-4.79-6.46.17-1.57-1.77-4.82,2.07-4.49,3.3.27,7,.89,5.12,6.09C-2051.48-1094.86-2048.59-1091.44-2053.27-1091.52Zm-.48-33.76c2,4.24,2,8.58-.09,15.06C-2056.56-1116.55-2055.26-1120.91-2053.75-1125.28Zm-.57-30.39c-1.71-4.15-1.55-8,.06-13.49C-2051.18-1163.46-2052.24-1159.49-2054.32-1155.67Zm3.58,17.33c-.73,3-4.5,1-5.79,3.28-3.49-2.89-2.12-6.92-3-11.56C-2055.29-1144.09-2049.12-1145.07-2050.74-1138.34Zm-12.3-189c-1.35-5.27-1.64-9.07,3.63-12.9A21.26,21.26,0,0,1-2063-1327.35ZM-2045.9-902c25.93-2.08,51.74-.36,77.54,1.52,15.15.67,30.19,2.58,45.22,4.51,2,.27,5.35,0,4.79,3.12-.42,2.4-3.33,1.56-5.17,1.09-12.8-3.38-25.72-5.45-39-4-2.39.27-4.3-.94-6-2.55-1.22-.11-2.45-.21-3.66-.33-2.43,1.78-4.8,1.9-7.1-.22C-2001.49-899.77-2023.79-898.87-2045.9-902Zm1.3-494.56c-1.31-3.69-2-7.36,1.22-11.51C-2040.76-1403.45-2042.35-1400-2044.6-1396.58Zm2,30.28c-2.33-4.42-.81-8.19-.49-11.94C-2039.21-1374.72-2039.68-1371-2042.6-1366.3Zm1.06,26c-3.26-4.27-5.3-9-4.87-14.78C-2043.42-1350.71-2041.29-1346-2041.54-1340.34Zm27.34,93.23c-2.86-6.52-5-13.24-5.49-20.43C-2015.14-1261.48-2014-1254.5-2014.2-1247.11Zm-8.52-38.76c3.81,2.29,3.82,6.36,4.54,10.46-3.09-2.46-10.23,3.46-10.29-4.93C-2028.5-1284.4-2023.61-1283-2022.72-1285.87Zm-5.88-10.18c-3.28-4.39-3.52-8.62-3.69-12.87C-2029.42-1305.49-2027.6-1301.74-2028.6-1296Zm-6.43-31.86c3.13,1.36,3.25,4.21,3.7,6.6.92,4.76-6.12.81-5.81,5.12-3-1.42-3.83-4.4-4.13-7.18C-2041.82-1328.24-2036-1324.43-2035-1327.91Zm-19-120.53c3.86-5.37,10.1-4.66,15.52-6.07,9.52-5,19.85-8.87,26.51-18.11,1.37-2.63,2.94-5.18,4.09-7.91,2.4-5.76,5.8-10,12.82-8.48,6.06,1.33,11.08,9.18,9.63,15.69-.76,3.46-1.12,7.3-3.67,10.21l-.09-.18c0,.51,0,1,0,1.49-6.3,11.64-15,20.84-27,26.87-10.31,9.52-23.48,12.75-36.49,16.21-2,.54-3.3-.61-3.36-2.81-.75-7.38-2.6-15,4.05-21C-2054.63-1443.8-2054.72-1446-2054.06-1448.44Zm-1.86,166.42c3.47.8,5.2,2.65,4.17,6.48-.3,1.46.94,4.77-2.09,4-3.48-.92-4.21-4.51-4.21-7.9C-2058-1280.77-2058.53-1282.62-2055.92-1282Zm.69,24c2.61.19,5.72-.15,4.57,4.31-.63,2.38,1.07,6.29-3.33,6.67-4.76.44-4-3.4-3.75-6.08C-2057.6-1254.84-2059.81-1258.38-2055.23-1258Zm-.57,23.39c1.59,0,4.39-1.11,4.91,1.7s1.6,6.34-1.79,7.79c-2.29,1-3.27,2.69-4.85,4.84-1.67-3.42-1.25-6.17-.88-8.75C-2058.11-1231.08-2059.75-1234.57-2055.8-1234.63Zm-4-225.53c-3,12.68-3.89,25.59-4.8,38.5.77,10.57.94,21.24,5.06,31.27l.13.09-.07.09a.64.64,0,0,1-.06-.18c-5.5-3.16-5.33-9-6.11-14.12-.82-5.58-1-11.25-1.46-16.88C-2067.3-1434.81-2068-1448.33-2059.8-1460.16Zm-6.22,109c1.73,6.64-3.43,10.29-4.69,15.21C-2071.62-1341.39-2070.44-1346.33-2066-1351.12Zm-6.7,26c2.36.49,3.61.39,3.59,2.91-.07,7.33-6.5,2.39-9.41,4.49C-2077-1320.62-2080-1326.67-2072.72-1325.13Zm-2,13.69c-.24,6.45-2.88,12.12-5.9,17.73C-2080-1300-2078.35-1306.08-2074.72-1311.44Zm-12.24,26.21c1.92-.55,5.49,2.7,5.82,5.21s-1,5.65-4,8.42c-.09-5.06-6.31-1.14-6.34-5.05C-2091.47-1279.93-2090.34-1284.28-2087-1285.23Zm-4.39,18.45,2.06.49c-1.27,7.7-2,15.54-7.61,22.12Zm-7.37,32.84c2.71,1,4,1.29,2.73,4-1,2.14-.84,6.7-4,5.48-2.15-.85-4.33-1.08-8-1.88C-2104.14-1229.36-2106.62-1236.8-2098.72-1233.94Zm-6.68,19.7a36.25,36.25,0,0,1-5,22.16C-2111.25-1201.42-2107.67-1207.69-2105.4-1214.24Zm-14.42,33c.65-1.32.93-4.71,3.86-2.51,1.67,1.27,4.41,1.45,4,5.13-.72,7-5.29,7.17-11.5,6.94A95.16,95.16,0,0,1-2119.82-1181.22Zm.23,17.85q-2.67,8.26-5.35,16.52C-2126.25-1153.34-2124.53-1158.92-2119.59-1163.37Zm-19.54,39.22c1.16-7.38,5.58-8,12-6.52-.3,4.52-2.47,8.64-5.15,15.24C-2131.79-1122.55-2140.28-1116.79-2139.13-1124.15Zm2,13,.05,0c-.73,6-1.12,12.08-6.18,18.51C-2143.19-1100.71-2142.06-1106.56-2137.09-1111.2Zm-14.22,33.82c2.3-2.42,6.1,5.12,8.43-3.4l1.14,3.22a58,58,0,0,1-1.85,7c-.87,2.23-1.51,5.81-3.94,5.67s-5.59-2.31-6.36-4.37C-2154.85-1071.8-2153.28-1075.29-2151.31-1077.38Zm-1.12,18.48a48.39,48.39,0,0,1-7.24,20.76C-2159-1045.66-2156.85-1052.68-2152.43-1058.9Zm-16.48,35.58c.81-5.47,4.09-2.46,6.82-2.55,5.15-.15,2.47,3.21,2.47,5,0,8.13-6.09,7.24-11.81,7.56A99.28,99.28,0,0,0-2168.91-1023.32Zm.63,16.94c-2,7-3.08,14.16-6.58,20.78C-2175.6-993.42-2174.28-997.82-2168.28-1006.38Zm-.52,28.13c1-9.68,3.1-18.77,9.74-26.6,5.64-6.67,7.63-15.27,7.17-23.81-.6-10.85,2.92-20,9.07-28.42s8.27-17.37,7.67-27.94c-.47-8.35,1.11-17.17,6.89-24.36,4.8-6,7-13.11,7.74-20.66,1.29-12.69,3.29-25.11,11.27-35.73a21.65,21.65,0,0,0,4.33-12.56c.15-10.89,5.28-20.6,6.82-31.12a12.39,12.39,0,0,1,2.91-5.94,30.7,30.7,0,0,0,7-20c-.13-7.37,1.88-14.22,2.84-21.31.3-2.21.54-4.54,2.34-6.14,7.84-6.91,9-16,9.26-25.78.21-8,3-15.32,9.3-22.71,2.56,7.3,1,13.09.55,18.52-1.14,12.45.12,24.78.16,37.15.11,29.2.41,58.41,0,87.59-.26,16.72,1.52,33.63.19,50-1.7,20.77,3.32,41.46-1.18,62.12-1.22,5.6.05,11.9,1,17.76,2.52,16.2-4.45,32.44.63,48.69,1.5,4.88.55,10.3-1,15.45-2,6.6-1.45,13.3.34,19.88,3.62,13.21-.79,26.12-1.52,39.16-.22,3.86-3.84,3.29-6.43,3.37q-13.77.45-27.59.6c-28.33.35-56.54,2.56-84.72,5.47-1.88.2-6.18,1.9-4.67-2.8,3-9.48,1.1-19.84,5.79-29.05,2.12-4.18,3.48-8.7,6.52-12.46C-2169.72-958.21-2169.86-968.42-2168.8-978.25Zm-16.41,8.21c2.36-3.23,5.12,2.31,7.78.13,1.51,5.15-1.93,9.08-3.09,13.55C-2188.94-959.28-2189.48-964.18-2185.21-970Zm-9.94,43.72c.58-8.94,5-16.56,8.87-24.35-1.2,8.75-3.57,17.08-8.87,24.35,0,.07,0,.16,0,.23l-.09-.07A1.4,1.4,0,0,0-2195.15-926.32Zm-6.45,4.15c3.36,4.91,12.11,6.86,4.75,14-4.9-2.81-4.9-2.81-9.55,4C-2207.66-911-2204.58-916-2201.6-922.17Zm1.57,22c4.87,2.86,6.07,8.92,3.12,15.54-2.36,5.26-6.2,6.62-12.42,4.37C-2198.25-883.4-2197.49-885-2200-900.14Zm-10.91,10.48c-1.64,4.25-6,5.86-8.48,9.37C-2219.27-885.84-2215.32-887.95-2210.94-889.66Zm318,38.46c-6.14,12.58-13.62,24.29-24.83,33.05-9,7-18.31,13.61-28.59,18.7a8.24,8.24,0,0,1-.86,0l-1.58.17c-1.07.49-2.12,1-3.18,1.49l-1.24,1.28a12.46,12.46,0,0,1-1.47.23l-3.32,1.52c-1.18.51-2.33,1-3.5,1.55l-.09-.09c-16.1,8.2-33.81,10-51.25,11.4-31.16,2.44-62.46,2.57-93.62-1.2-15.5-1.88-31-3.9-45.55-10.21l.09.06-6.93-1.84c-27.6-11-48.46-29.42-62.11-55.86-1.22-2.38-4.42-5.89-1.24-7.86a6.92,6.92,0,0,1,9.6,3.18c3.18,7.37,9.42,12.73,14.36,17.94,8.85,9.37,19.27,17.78,29.7,25.88,11.72,9.11,26.36,12.12,37.59,21.41.85.15,1.69.28,2.54.41,8.47-4.46,16.82-3.5,24.24,2.8,16.13,4,32.61,3.94,49.09,3.94,2.94,0,5.88.06,8.82.09,1.33-4.63-.89-5.84-5.18-6.6-13-2.3-22.21-10-28.49-21.47a5,5,0,0,1-.33-.65c-3.45-8.76,7.51-23.23,16.84-23.24,12.8,0,25.42-2.44,38-4.76,1.78-.33,3.38-.77,4.93.41l8.79-.1c8.63-9.91,20.3-7.33,31.26-7.57,26.12-.58,51.87-4.15,77.41-9.46,1.7-.36,3.39-.79,5.1-1C-1891.9-858.44-1890.31-856.63-1893-851.2Zm14.67-21.3c-6.82,4.88-14.85,6.51-22.7,8.45-6,1.48-12.11,2.1-18.18,3.1-30.16,6.3-60.75,7.66-91.41,7.93-8.85.07-17.74,1.91-26.6,0-20.3,1.29-40.62.26-60.92-.05-43.72-.69-87.09-4-129.38-16.15-5.37-1.54-9.51-4.16-11.14-9.79-1.71-7.15,1.9-10.57,13.47-12.14-2.23,4.41-8.27,5.06-8.76,10.17q1.83,1.28,3.67,2.54c20.66,11,43.52,11.29,65.94,13.12a1323.44,1323.44,0,0,0,172.57,3.07c25.22-1.24,50.38-3.51,75.57-5.3,4.66-.22,9.44.11,13.63-2.58,8.82-1.75,17.58-3.61,22.14-12.76.46-1.52-.47-3.82,1.85-4.33,2-.42,3.12,1.21,3.92,2.75C-1872-879.35-1874-875.6-1878.29-872.5Z" transform="translate(4156.57 1802.28)"/><path class="cls-3" d="M-2000.45-550c-1.73,3.21-5.1,3.81-8.13,4.74q-41,12.51-82,24.89-31,9.4-62.06,18.84l-1.35.39-16.18,4.77-3.77,1.11-.41.12q-65.06,20.28-130.23,40.3c-23.27,7.11-46.17,15.43-69.83,21.21-13.18,4.24-26.4,8.33-39.51,12.75-6.16,2.07-8.49-.32-8.09-6.17.48-7.15-1.91-14.27,0-21.4-.45-.06-.88-.14-1.31-.21-12.76-.16-23.84-6.45-35.62-10.05-29.71-9-59.64-17.37-89.45-26.12-47.68-14-94.95-29.39-142.41-44.09-16.86-5.22-33.81-10.09-50.71-15.18-3.49-1-7.15-1.85-11.67-5.9,13.33,2.23,24.16,6.15,35.1,9.48,54.92,16.78,109.71,34,164.7,50.54,43.08,13,86.4,25.23,129.6,37.8,37.78-11.36,75.58-22.63,113.35-34.11,83.83-25.48,168.16-49.18,252.39-73.24,14.09-4,28.09-8.3,42.14-12.48,3.82-1.15,7.66-2.11,11.7-1.85C-2000.27-569.16-1997.93-554.71-2000.45-550Z" transform="translate(4156.57 1802.28)"/></g><text class="cls-5" transform="translate(1456.84 1571.48)">le suppo<tspan class="cls-6" x="441.82" y="0">r</tspan><tspan x="500.57" y="0">t</tspan><tspan x="64.47" y="104.17">SCHEM</tspan><tspan class="cls-7" x="369.03" y="104.17">A</tspan><tspan x="439.06" y="104.17">S</tspan></text><rect class="cls-8" x="2545.85" y="9.16" width="52.95" height="18.66" rx="3.47"/><text class="cls-9" transform="translate(2556.98 17.26)">quelle i<tspan class="cls-10" x="20.44" y="0">d</tspan><tspan x="23.59" y="0">ee</tspan><tspan x="-5.24" y="5.01">d</tspan><tspan class="cls-11" x="-1.95" y="5.01"></tspan><tspan class="cls-12" x="-1.38" y="5.01">a</tspan><tspan x="1.8" y="5.01">ller si </tspan><tspan class="cls-13" x="19.92" y="5.01">l</tspan><tspan x="22.31" y="5.01">oin ?</tspan></text><text class="cls-9" transform="translate(2502.5 64.28)"><tspan class="cls-14">v</tspan><tspan x="3.25" y="0">o</tspan><tspan class="cls-15" x="6.71" y="0">u</tspan><tspan x="9.87" y="0">s seriez </tspan><tspan class="cls-14" x="31.5" y="0">v</tspan><tspan x="34.75" y="0">o</tspan><tspan class="cls-15" x="38.21" y="0">u</tspan><tspan x="41.36" y="0">s</tspan><tspan x="11.19" y="5.01">perd</tspan><tspan class="cls-15" x="23.17" y="5.01">u</tspan><tspan x="26.33" y="5.01">s ?</tspan></text><text class="cls-9" transform="translate(2493.63 99.12)">ce qui re<tspan class="cls-16" x="23" y="0">s</tspan><tspan x="25.58" y="0">te le meilleur</tspan><tspan class="cls-17" x="4.84" y="5.01">m</tspan><tspan class="cls-10" x="8.75" y="5.01">o</tspan><tspan x="12.08" y="5.01">yen </tspan><tspan class="cls-18" x="22.83" y="5.01">d</tspan><tspan x="25.98" y="5.01">e </tspan><tspan class="cls-10" x="30.26" y="5.01">d</tspan><tspan class="cls-19" x="33.41" y="5.01">e</tspan><tspan x="36.18" y="5.01">couvrir</tspan><tspan x="18.63" y="10.02">le </tspan><tspan class="cls-17" x="25.48" y="10.02">m</tspan><tspan class="cls-20" x="29.39" y="10.02">on</tspan><tspan class="cls-18" x="36.34" y="10.02">d</tspan><tspan x="39.5" y="10.02">e.</tspan></text><text class="cls-9" transform="translate(2515.78 158.2)">je te <tspan class="cls-21" x="13.7" y="0">l</tspan><tspan x="16.37" y="0">aisse co</tspan><tspan class="cls-10" x="37.75" y="0">n</tspan><tspan x="41.13" y="0">tinuer </tspan><tspan x="11.03" y="5.01">a te promener</tspan><tspan class="cls-22" x="6.27" y="10.02">e</tspan><tspan x="8.95" y="10.02">t </tspan><tspan class="cls-18" x="12.98" y="10.02">d</tspan><tspan class="cls-19" x="16.13" y="10.02">e</tspan><tspan x="18.9" y="10.02">couvrir </tspan><tspan class="cls-23" x="41.24" y="10.02">t</tspan><tspan x="43.78" y="10.02">o</tspan><tspan class="cls-13" x="47.23" y="10.02">u</tspan><tspan x="50.35" y="10.02">t</tspan><tspan x="-3.81" y="15.04">les s</tspan><tspan class="cls-19" x="8.73" y="15.04">e</tspan><tspan x="11.49" y="15.04">cr</tspan><tspan class="cls-24" x="17.77" y="15.04">e</tspan><tspan class="cls-18" x="20.45" y="15.04">t</tspan><tspan x="22.91" y="15.04">s </tspan><tspan class="cls-18" x="27.18" y="15.04">d</tspan><tspan x="30.34" y="15.04">e c</tspan><tspan class="cls-24" x="37.88" y="15.04">e</tspan><tspan class="cls-20" x="40.56" y="15.04">tte </tspan><tspan class="cls-25" x="50.04" y="15.04">p</tspan><tspan class="cls-26" x="52.61" y="15.04">a</tspan><tspan x="55.69" y="15.04">ge.</tspan></text><path class="cls-27" d="M-1584.25-1769.89v28a3.91,3.91,0,0,1-3.91,3.91h-18.13" transform="translate(4156.57 1802.28)"/><line class="cls-28" x1="2570.4" y1="39.22" x2="2575.5" y2="42.11"/><line class="cls-28" x1="2570.17" y1="45.52" x2="2574.4" y2="48.19"/><line class="cls-27" x1="2550.28" y1="64.33" x2="2555.35" y2="59.26"/><line class="cls-27" x1="2550.28" y1="64.33" x2="2555.47" y2="69.52"/><line class="cls-27" x1="2525.35" y1="92.8" x2="2520.28" y2="87.73"/><line class="cls-27" x1="2525.35" y1="92.8" x2="2530.54" y2="87.61"/><line class="cls-27" x1="2525.35" y1="92.8" x2="2525.35" y2="71.86"/><line class="cls-27" x1="2536.51" y1="148.91" x2="2530.05" y2="145.81"/><line class="cls-27" x1="2536.51" y1="148.91" x2="2539.69" y2="142.29"/><line class="cls-27" x1="2536.43" y1="148.63" x2="2522.87" y2="110.09"/><line class="cls-28" x1="2523.69" y1="119.76" x2="2529.46" y2="120.79"/><line class="cls-28" x1="2525.84" y1="125.84" x2="2530.72" y2="126.96"/><text class="cls-9" transform="translate(859.34 1761.31)">scroller <tspan class="cls-26" x="25" y="0">a</tspan><tspan x="28.08" y="0">u fin fond</tspan><tspan class="cls-18" x="8.06" y="5.01">d</tspan><tspan x="11.21" y="5.01">e c</tspan><tspan class="cls-22" x="18.76" y="5.01">e</tspan><tspan x="21.44" y="5.01">tte </tspan><tspan class="cls-25" x="30.92" y="5.01">p</tspan><tspan class="cls-26" x="33.48" y="5.01">a</tspan><tspan class="cls-20" x="36.57" y="5.01">ge ?</tspan></text><text class="cls-9" transform="translate(1044.71 1726.28)">Enfin... <tspan class="cls-23" x="-42.05" y="5.01">t</tspan><tspan x="-39.52" y="5.01">o</tspan><tspan class="cls-22" x="-36.06" y="5.01">u</tspan><tspan class="cls-29" x="-32.95" y="5.01">jours e</tspan><tspan class="cls-16" x="-13.53" y="5.01">s</tspan><tspan x="-10.95" y="5.01">t il que </tspan><tspan class="cls-30" x="9.52" y="5.01">v</tspan><tspan class="cls-20" x="12.77" y="5.01">o</tspan><tspan class="cls-15" x="16.23" y="5.01">u</tspan><tspan x="19.39" y="5.01">s </tspan><tspan class="cls-31" x="23.66" y="5.01">a</tspan><tspan x="26.57" y="5.01">vez trouver </tspan><tspan x="-10.71" y="10.02">que</tspan><tspan class="cls-13" x="-1.11" y="10.02">l</tspan><tspan x="1.29" y="10.02">que chose.</tspan></text><text class="cls-9" transform="translate(950.33 1748.76)"><tspan class="cls-22">e</tspan><tspan x="2.68" y="0">tes </tspan><tspan class="cls-14" x="12.4" y="0">v</tspan><tspan x="15.65" y="0">o</tspan><tspan class="cls-15" x="19.1" y="0">u</tspan><tspan x="22.26" y="0">s </tspan><tspan class="cls-21" x="26.53" y="0">l</tspan><tspan x="29.2" y="0"> uniqu</tspan><tspan class="cls-32" x="48.86" y="0">e</tspan><tspan x="51.62" y="0">me</tspan><tspan class="cls-33" x="58.54" y="0">n</tspan><tspan class="cls-20" x="61.91" y="0">t</tspan><tspan class="cls-25" x="14.47" y="5.01">p</tspan><tspan class="cls-34" x="17.04" y="5.01">a</tspan><tspan x="20.16" y="5.01">r curios</tspan><tspan class="cls-35" x="41.88" y="5.01">i</tspan><tspan class="cls-20" x="43.16" y="5.01">t </tspan><tspan x="-0.49" y="10.02">ou </tspan><tspan class="cls-36" x="7.69" y="10.02">a</tspan><tspan x="10.59" y="10.02">vez </tspan><tspan class="cls-14" x="21.3" y="10.02">v</tspan><tspan x="24.55" y="10.02">o</tspan><tspan class="cls-15" x="28.01" y="10.02">u</tspan><tspan class="cls-20" x="31.17" y="10.02">s </tspan><tspan class="cls-37" x="35.44" y="10.02">f</tspan><tspan x="37.83" y="10.02">a</tspan><tspan class="cls-35" x="41.11" y="10.02">i</tspan><tspan x="42.4" y="10.02">t </tspan><tspan class="cls-10" x="46.43" y="10.02">d</tspan><tspan class="cls-20" x="49.58" y="10.02">efiler</tspan><tspan x="-3.57" y="15.04">compu</tspan><tspan class="cls-38" x="13.35" y="15.04">l</tspan><tspan x="15.83" y="15.04">siv</tspan><tspan class="cls-32" x="23.56" y="15.04">e</tspan><tspan x="26.32" y="15.04">me</tspan><tspan class="cls-10" x="33.24" y="15.04">n</tspan><tspan x="36.61" y="15.04">t c</tspan><tspan class="cls-22" x="43.91" y="15.04">e</tspan><tspan x="46.58" y="15.04">tte </tspan><tspan class="cls-39" x="56.06" y="15.04">p</tspan><tspan class="cls-26" x="58.63" y="15.04">a</tspan><tspan x="61.71" y="15.04">ge</tspan><tspan x="6.13" y="20.05">pour </tspan><tspan class="cls-34" x="20.15" y="20.05">a</tspan><tspan x="23.27" y="20.05">rriver si </tspan><tspan class="cls-35" x="47.15" y="20.05">b</tspan><tspan class="cls-32" x="49.94" y="20.05">a</tspan><tspan x="53.12" y="20.05">s?</tspan></text><line class="cls-27" x1="940.03" y1="1762.01" x2="934.96" y2="1767.08"/><line class="cls-27" x1="940.03" y1="1762.01" x2="934.84" y2="1756.82"/><line class="cls-27" x1="940.03" y1="1762.01" x2="919.1" y2="1762.01"/><path class="cls-27" d="M-3133.85-40.06h28a3.91,3.91,0,0,0,3.91-3.91V-62.1" transform="translate(4156.57 1802.28)"/><line class="cls-28" x1="1029.55" y1="1760.3" x2="1032.44" y2="1765.4"/><line class="cls-28" x1="1035.85" y1="1760.07" x2="1038.52" y2="1764.3"/><line class="cls-27" x1="1054.66" y1="1740.18" x2="1049.59" y2="1745.25"/><line class="cls-27" x1="1054.66" y1="1740.18" x2="1059.85" y2="1745.37"/></svg>