<svg xmlns="http://www.w3.org/2000/svg" viewBox="0 0 158.53 158.53"><defs><style>.cls-1{fill:#9d9d9c;stroke:#9d9d9c;stroke-miterlimit:10;stroke-width:7px;}.cls-2{fill:none;}</style></defs><g id="Calque_26" data-name="Calque 26"><path class="cls-1" d="M-3280.63-7427.73a39.36,39.36,0,0,1,5.47,3.76,27.48,27.48,0,0,1,5,5.47,29,29,0,0,1,3.76,7.51,30.45,30.45,0,0,1,1.45,9.74q0,11.11-3.5,18.38a30.48,30.48,0,0,1-9.49,11.62,37.48,37.48,0,0,1-13.75,6.15,72.82,72.82,0,0,1-16.32,1.79h-54.18a4,4,0,0,1-2.9-1.19,4,4,0,0,1-1.2-2.91V-7484.3a4,4,0,0,1,1.2-2.9,3.92,3.92,0,0,1,2.9-1.2h51.61a67.27,67.27,0,0,1,15.72,1.8,37.32,37.32,0,0,1,13.25,5.89,30.81,30.81,0,0,1,9.23,10.68q3.49,6.58,3.5,16.15a23,23,0,0,1-3.85,13.33,35.9,35.9,0,0,1-8.28,8.89Q-3284-7429.44-3280.63-7427.73Zm-47.68-13.16h15.89a6.56,6.56,0,0,0,5.47-2.65,9.39,9.39,0,0,0,2-5.9,6.88,6.88,0,0,0-2.48-5.29,7.29,7.29,0,0,0-4.7-2.23h-16.23a4,4,0,0,0-2.91,1.2,4,4,0,0,0-1.19,2.91v7.86a4,4,0,0,0,1.19,2.9A4,4,0,0,0-3328.31-7440.89Zm17.94,28.2h-17.94a4,4,0,0,0-2.91,1.19,4,4,0,0,0-1.19,2.91v9.74a4,4,0,0,0,1.19,2.9,4,4,0,0,0,2.91,1.2h19.14a8.44,8.44,0,0,0,5.81-2.56,8,8,0,0,0,2.73-6,9.79,9.79,0,0,0-2.64-6.23A8.8,8.8,0,0,0-3310.37-7412.69Z" transform="translate(3402.58 7508.42)"/></g><g id="Calque_28" data-name="Calque 28"><rect class="cls-2" width="158.53" height="158.53"/></g></svg>