<svg id="Calque_42" data-name="Calque 42" xmlns="http://www.w3.org/2000/svg" viewBox="0 0 1511.57 190.41"><defs><style>.cls-1{fill:none;stroke:#9d9d9c;stroke-linecap:round;stroke-miterlimit:10;stroke-width:13px;}</style></defs><path class="cls-1" d="M-3500.11-964.43l-193.27,22.61-271.15,31.72c-22.65,2.65-45.07-4.51-45.07-14.38v-27.71h-927.54c-19.63,0-35.54-6.69-35.54-14.93V-990.5c0-8.25,15.91-14.93,35.54-14.93h927.54v-27.71c0-9.88,22.42-17,45.07-14.38l271.15,31.72,193.27,22.6C-3465.44-989.14-3465.44-968.49-3500.11-964.43Z" transform="translate(4979.18 1093.46)"/><line class="cls-1" x1="66.98" y1="45.38" x2="28.1" y2="6.5"/><line class="cls-1" x1="452.18" y1="45.38" x2="413.3" y2="6.5"/><line class="cls-1" x1="564.5" y1="45.38" x2="525.62" y2="6.5"/><line class="cls-1" x1="775.23" y1="45.38" x2="736.35" y2="6.5"/><line class="cls-1" x1="937.95" y1="45.38" x2="899.07" y2="6.5"/></svg>