<svg xmlns="http://www.w3.org/2000/svg" viewBox="0 0 158.53 158.53"><defs><style>.cls-1{fill:#9d9d9c;}.cls-2{fill:none;}</style></defs><g id="Calque_27" data-name="Calque 27"><path class="cls-1" d="M-3337.83-7366.61h-25.71a2.44,2.44,0,0,1-2.45-1.2,3.39,3.39,0,0,1,.16-2.91l51.18-116.87a7.13,7.13,0,0,1,2.38-2.91,5.77,5.77,0,0,1,3.5-1.2h25.71a2.46,2.46,0,0,1,2.36,1.2,3.12,3.12,0,0,1-.07,2.91l-51.17,116.87a6.93,6.93,0,0,1-2.47,2.91A6,6,0,0,1-3337.83-7366.61Z" transform="translate(3402.58 7508.42)"/></g><g id="Calque_28" data-name="Calque 28"><rect class="cls-2" width="158.53" height="158.53"/></g></svg>