<svg id="Calque_1" data-name="Calque 1" xmlns="http://www.w3.org/2000/svg" viewBox="0 0 270.42 271.44"><defs><style>.cls-1,.cls-13,.cls-15,.cls-16,.cls-17{fill:none;stroke:#c6c6c6;stroke-miterlimit:10;}.cls-1,.cls-13,.cls-15,.cls-16{stroke-linecap:round;}.cls-1{stroke-width:3px;}.cls-2{font-size:12px;font-family:Heavitas;}.cls-14,.cls-2{fill:#c6c6c6;}.cls-3{letter-spacing:-0.02em;}.cls-4{letter-spacing:-0.05em;}.cls-5{letter-spacing:0em;}.cls-6{letter-spacing:-0.03em;}.cls-7{letter-spacing:-0.08em;}.cls-8{letter-spacing:-0.06em;}.cls-9{letter-spacing:-0.04em;}.cls-10{letter-spacing:0.02em;}.cls-11{letter-spacing:-0.03em;}.cls-12{letter-spacing:-0.01em;}.cls-13{stroke-width:6px;}.cls-15{stroke-width:5px;}.cls-17{stroke-width:7px;}</style></defs><path class="cls-1" d="M-25.32-804.59" transform="translate(159.78 821.01)"/><text class="cls-2" transform="translate(43.95 11.7)">sél<tspan class="cls-3" x="23.74" y="0">è</tspan><tspan class="cls-4" x="31.69" y="0">c</tspan><tspan x="40.51" y="0">tionnez une forme</tspan></text><text class="cls-2" transform="translate(48.03 239.4)">puis une s<tspan class="cls-3" x="73.91" y="0">e</tspan><tspan class="cls-5" x="81.86" y="0">con</tspan><tspan class="cls-6" x="111.24" y="0">d</tspan><tspan x="120.3" y="0">e pour </tspan><tspan class="cls-7" x="7.75" y="14.4">f</tspan><tspan x="14.64" y="14.4">aire ap</tspan><tspan class="cls-8" x="66.64" y="14.4">p</tspan><tspan class="cls-9" x="74.02" y="14.4">a</tspan><tspan class="cls-10" x="82.97" y="14.4">r</tspan><tspan x="91.79" y="14.4">a</tspan><tspan class="cls-11" x="101.21" y="14.4">i</tspan><tspan x="104.9" y="14.4">tre une </tspan><tspan x="66.58" y="28.8">li</tspan><tspan class="cls-12" x="78.04" y="28.8">g</tspan><tspan x="88.04" y="28.8">ne</tspan></text><rect class="cls-13" x="10.27" y="25.18" width="69.12" height="69.12" rx="12.37"/><path class="cls-1" d="M-138.61-717.94a19.68,19.68,0,0,1-19.67-19.68" transform="translate(159.78 821.01)"/><path class="cls-1" d="M-71.64-737.62a19.68,19.68,0,0,1-19.67,19.68" transform="translate(159.78 821.01)"/><path class="cls-1" d="M-91.31-804.59a19.67,19.67,0,0,1,19.67,19.67" transform="translate(159.78 821.01)"/><path class="cls-1" d="M-158.28-784.92a19.67,19.67,0,0,1,19.67-19.67" transform="translate(159.78 821.01)"/><rect class="cls-13" x="106.27" y="25.18" width="69.12" height="69.12" rx="12.37"/><rect class="cls-13" x="198.31" y="25.18" width="69.12" height="69.12" rx="12.37"/><path class="cls-14" d="M-110.76-774.8a2.75,2.75,0,0,1,4.57,2.21l-.36,6.72-.51,9.19a2.75,2.75,0,0,1-3.94,2.33l-5.53-2.66-5.52-2.67a2.74,2.74,0,0,1-.63-4.53l6.89-6.12Z" transform="translate(159.78 821.01)"/><line class="cls-15" x1="49.58" y1="55.87" x2="36.05" y2="73.97"/><rect class="cls-13" x="10.27" y="135.81" width="69.12" height="69.12" rx="12.37"/><path class="cls-16" d="M-138.61-607.32A19.68,19.68,0,0,1-158.28-627" transform="translate(159.78 821.01)"/><path class="cls-16" d="M-71.64-627a19.68,19.68,0,0,1-19.67,19.68" transform="translate(159.78 821.01)"/><path class="cls-16" d="M-91.31-694a19.68,19.68,0,0,1,19.67,19.68" transform="translate(159.78 821.01)"/><path class="cls-16" d="M-158.28-674.29A19.68,19.68,0,0,1-138.61-694" transform="translate(159.78 821.01)"/><rect class="cls-13" x="198.31" y="135.81" width="69.12" height="69.12" rx="12.37"/><rect class="cls-13" x="106.27" y="135.81" width="69.12" height="69.12" rx="12.37"/><path class="cls-1" d="M-42.61-607.32A19.68,19.68,0,0,1-62.28-627" transform="translate(159.78 821.01)"/><path class="cls-1" d="M24.36-627A19.68,19.68,0,0,1,4.69-607.32" transform="translate(159.78 821.01)"/><path class="cls-1" d="M4.69-694a19.68,19.68,0,0,1,19.67,19.68" transform="translate(159.78 821.01)"/><path class="cls-1" d="M-62.28-674.29A19.68,19.68,0,0,1-42.61-694" transform="translate(159.78 821.01)"/><path class="cls-14" d="M-14.76-664.17a2.74,2.74,0,0,1,4.57,2.2l-.36,6.73-.51,9.19A2.75,2.75,0,0,1-15-643.72l-5.53-2.67L-26-649a2.75,2.75,0,0,1-.63-4.54l6.89-6.11Z" transform="translate(159.78 821.01)"/><line class="cls-15" x1="145.58" y1="166.49" x2="132.05" y2="184.6"/><line class="cls-17" x1="78.31" y1="170.37" x2="106.27" y2="170.37"/></svg>