<svg xmlns="http://www.w3.org/2000/svg" viewBox="0 0 158.53 158.53"><defs><style>.cls-1{fill:#9d9d9c;}.cls-2{fill:none;}</style></defs><g id="Calque_29" data-name="Calque 29"><path class="cls-1" d="M-3272.72-7458.85h-25.16a4.21,4.21,0,0,0-3.06,1.26,4.16,4.16,0,0,0-1.25,3.06v89.84a4.33,4.33,0,0,1-1.17,3.06,4.08,4.08,0,0,1-3.15,1.25h-26.95a4.12,4.12,0,0,1-3.05-1.25,4.17,4.17,0,0,1-1.26-3.06v-89.84a4.33,4.33,0,0,0-1.17-3.06,4.12,4.12,0,0,0-3.14-1.26h-25.52a4.16,4.16,0,0,1-3.06-1.25,4.2,4.2,0,0,1-1.25-3.06v-24.44a4.19,4.19,0,0,1,1.25-3,4.17,4.17,0,0,1,3.06-1.26h94.88a4.08,4.08,0,0,1,3.14,1.26,4.33,4.33,0,0,1,1.17,3v24.44a4.33,4.33,0,0,1-1.17,3.06A4.08,4.08,0,0,1-3272.72-7458.85Z" transform="translate(3402.58 7508.42)"/></g><g id="Calque_28" data-name="Calque 28"><rect class="cls-2" width="158.53" height="158.53"/></g></svg>