<svg xmlns="http://www.w3.org/2000/svg" viewBox="0 0 158.53 158.53"><defs><style>.cls-1{fill:#9d9d9c;}.cls-2,.cls-3{fill:none;}.cls-2{stroke:#9d9d9c;stroke-linecap:round;stroke-miterlimit:10;stroke-width:15px;}</style></defs><g id="Calque_25" data-name="Calque 25"><path class="cls-1" d="M-3366.17-7488.47a3.34,3.34,0,0,1,1-2.43,3.32,3.32,0,0,1,2.43-1h21.54a3.28,3.28,0,0,1,2.42,1,3.31,3.31,0,0,1,1,2.43v58.06a20.91,20.91,0,0,0,1.8,9.25,16.13,16.13,0,0,0,4.46,5.73,16.45,16.45,0,0,0,5.69,2.94,20,20,0,0,0,5.47.86,20,20,0,0,0,5.47-.86,15.61,15.61,0,0,0,5.61-2.94,16.46,16.46,0,0,0,4.39-5.73,20.77,20.77,0,0,0,1.81-9.25v-58.06a3.34,3.34,0,0,1,1-2.43,3.32,3.32,0,0,1,2.43-1h21.54a3.28,3.28,0,0,1,2.42,1,3.31,3.31,0,0,1,1,2.43v58.06a50.77,50.77,0,0,1-3.22,18.5,39.56,39.56,0,0,1-9.23,14.19,41.64,41.64,0,0,1-14.46,9.1,52.18,52.18,0,0,1-18.75,3.23,52.18,52.18,0,0,1-18.75-3.23,41.64,41.64,0,0,1-14.46-9.1,40.25,40.25,0,0,1-9.3-14.19,49.74,49.74,0,0,1-3.29-18.5Z" transform="translate(3402.58 7508.42)"/><line class="cls-2" x1="28.66" y1="141.69" x2="134.17" y2="141.69"/></g><g id="Calque_28" data-name="Calque 28"><rect class="cls-3" width="158.53" height="158.53"/></g></svg>