<svg id="Calque_135" data-name="Calque 135" xmlns="http://www.w3.org/2000/svg" viewBox="0 0 144.59 134.88"><defs><style>.cls-1,.cls-2{fill:none;}.cls-1{stroke:#fff;stroke-miterlimit:10;stroke-width:3px;}</style></defs><path class="cls-1" d="M1475.1-528.67h-99.39a3.09,3.09,0,0,1-3-4l11.14-35a3.08,3.08,0,0,1,2.95-2.16h77.76a3.1,3.1,0,0,1,3,2.21l10.49,35A3.11,3.11,0,0,1,1475.1-528.67Z" transform="translate(-1351.57 632.72)"/><rect class="cls-1" x="46.35" y="70.93" width="6.22" height="6.22" rx="3.11"/><rect class="cls-1" x="56.31" y="70.93" width="6.22" height="6.22" rx="3.11"/><rect class="cls-1" x="65.79" y="70.93" width="6.22" height="6.22" rx="3.11"/><rect class="cls-1" x="75.75" y="70.93" width="6.22" height="6.22" rx="3.11"/><rect class="cls-1" x="85.43" y="70.93" width="6.22" height="6.22" rx="3.11"/><rect class="cls-1" x="95.39" y="70.93" width="6.22" height="6.22" rx="3.11"/><rect class="cls-1" x="38.29" y="80.16" width="12.78" height="6.66" rx="3.33"/><rect class="cls-1" x="55.07" y="80.16" width="6.66" height="6.66" rx="3.33"/><rect class="cls-1" x="65.21" y="80.16" width="6.66" height="6.66" rx="3.33"/><rect class="cls-1" x="75.87" y="80.16" width="6.66" height="6.66" rx="3.33"/><rect class="cls-1" x="86.24" y="80.16" width="6.66" height="6.66" rx="3.33"/><rect class="cls-1" x="96.9" y="80.16" width="13.05" height="6.66" rx="3.33"/><rect class="cls-1" x="42.24" y="89.52" width="7.15" height="7.15" rx="3.58"/><rect class="cls-1" x="53.68" y="89.52" width="7.15" height="7.15" rx="3.58"/><rect class="cls-1" x="64.57" y="89.52" width="7.15" height="7.15" rx="3.58"/><rect class="cls-1" x="76.01" y="89.52" width="7.15" height="7.15" rx="3.58"/><rect class="cls-1" x="87.13" y="89.52" width="7.15" height="7.15" rx="3.58"/><rect class="cls-1" x="98.57" y="89.52" width="7.15" height="7.15" rx="3.58"/><path class="cls-1" d="M20.41,115.66H127.06a.76.76,0,0,1,.76.76v0a8.91,8.91,0,0,1-8.91,8.91H28.57a8.91,8.91,0,0,1-8.91-8.91v0A.76.76,0,0,1,20.41,115.66Z"/><path class="cls-1" d="M1472.13-593.41v10.8a.8.8,0,0,1-.8.8h-92.18a.8.8,0,0,1-.8-.8v-10.8A8.62,8.62,0,0,1,1387-602h8.17a.8.8,0,0,1,.8.8v5.18a7.66,7.66,0,0,0,7.66,7.66h43.09a7.66,7.66,0,0,0,7.66-7.66v-5.18a.8.8,0,0,1,.8-.8h8.36A8.62,8.62,0,0,1,1472.13-593.41Z" transform="translate(-1351.57 632.72)"/><path class="cls-1" d="M1444.23-612.65V-602a4.06,4.06,0,0,1-4.25,3.84h-29.67a4.06,4.06,0,0,1-4.25-3.84v-10.61c0-4.76,4.28-8.62,9.56-8.62h19.05C1440-621.27,1444.23-617.41,1444.23-612.65Z" transform="translate(-1351.57 632.72)"/><path class="cls-1" d="M1369-594.91v12.21h-1a3.72,3.72,0,0,1-3.72-3.72v-1h0a.71.71,0,0,0,.71-.71v-1.38a.71.71,0,0,0-.71-.71h0v-1a3.72,3.72,0,0,1,3.72-3.72Z" transform="translate(-1351.57 632.72)"/><rect class="cls-2" width="144.59" height="134.88"/></svg>