<svg id="Calque_135" data-name="Calque 135" xmlns="http://www.w3.org/2000/svg" viewBox="0 0 120.08 114.84"><defs><style>.cls-1,.cls-2,.cls-3{fill:none;stroke:#fff;stroke-miterlimit:10;}.cls-1{stroke-width:5px;}.cls-2{stroke-width:4.25px;}.cls-3{stroke-width:4.73px;}</style></defs><path class="cls-1" d="M1475.1-531h-99.39a3.09,3.09,0,0,1-3-4l11.14-35a3.08,3.08,0,0,1,2.95-2.16h77.76a3.1,3.1,0,0,1,3,2.21l10.49,35A3.11,3.11,0,0,1,1475.1-531Z" transform="translate(-1361.8 624.18)"/><rect class="cls-2" x="36.12" y="60.08" width="6.22" height="6.22" rx="3.11"/><rect class="cls-2" x="46.08" y="60.08" width="6.22" height="6.22" rx="3.11"/><rect class="cls-2" x="55.55" y="60.08" width="6.22" height="6.22" rx="3.11"/><rect class="cls-2" x="65.51" y="60.08" width="6.22" height="6.22" rx="3.11"/><rect class="cls-2" x="75.19" y="60.08" width="6.22" height="6.22" rx="3.11"/><rect class="cls-2" x="85.15" y="60.08" width="6.22" height="6.22" rx="3.11"/><rect class="cls-2" x="28.05" y="69.31" width="12.78" height="6.66" rx="3.33"/><rect class="cls-2" x="44.83" y="69.31" width="6.66" height="6.66" rx="3.33"/><rect class="cls-2" x="54.97" y="69.31" width="6.66" height="6.66" rx="3.33"/><rect class="cls-2" x="65.64" y="69.31" width="6.66" height="6.66" rx="3.33"/><rect class="cls-2" x="76" y="69.31" width="6.66" height="6.66" rx="3.33"/><rect class="cls-2" x="86.66" y="69.31" width="13.05" height="6.66" rx="3.33"/><rect class="cls-2" x="32.01" y="78.67" width="7.15" height="7.15" rx="3.58"/><rect class="cls-2" x="43.45" y="78.67" width="7.15" height="7.15" rx="3.58"/><rect class="cls-2" x="54.33" y="78.67" width="7.15" height="7.15" rx="3.58"/><rect class="cls-2" x="65.77" y="78.67" width="7.15" height="7.15" rx="3.58"/><rect class="cls-2" x="76.9" y="78.67" width="7.15" height="7.15" rx="3.58"/><rect class="cls-2" x="88.34" y="78.67" width="7.15" height="7.15" rx="3.58"/><path class="cls-1" d="M10.18,102.67H116.83a.76.76,0,0,1,.76.76v0a8.91,8.91,0,0,1-8.91,8.91H18.33a8.91,8.91,0,0,1-8.91-8.91v0A.76.76,0,0,1,10.18,102.67Z"/><path class="cls-1" d="M1472.13-594.21v12.4h-93.78v-12.4a7.82,7.82,0,0,1,7.82-7.83h9.77v6.78a6.86,6.86,0,0,0,6.86,6.86h44.69a6.86,6.86,0,0,0,6.86-6.86V-602h10A7.82,7.82,0,0,1,1472.13-594.21Z" transform="translate(-1361.8 624.18)"/><path class="cls-3" d="M1443.18-613.4v14.63a1.12,1.12,0,0,1-1.12,1.12h-33.83a1.12,1.12,0,0,1-1.12-1.12V-613.4a8.42,8.42,0,0,1,8.42-8.42h19.23A8.42,8.42,0,0,1,1443.18-613.4Z" transform="translate(-1361.8 624.18)"/><path class="cls-1" d="M1369-594.91v12.21h-1a3.72,3.72,0,0,1-3.72-3.72v-1h0a.71.71,0,0,0,.71-.71v-1.38a.71.71,0,0,0-.71-.71h0v-1a3.72,3.72,0,0,1,3.72-3.72Z" transform="translate(-1361.8 624.18)"/></svg>