<svg id="Calque_136" data-name="Calque 136" xmlns="http://www.w3.org/2000/svg" viewBox="0 0 1511.34 1511.34"><defs><style>.cls-1{font-size:165.25px;font-family:Heavitas;}.cls-1,.cls-4{fill:#fff;}.cls-2{letter-spacing:-0.03em;}.cls-3{letter-spacing:-0.02em;}.cls-5{fill:none;}</style></defs><text class="cls-1" transform="translate(186.29 1412.04)"><tspan class="cls-2">c</tspan><tspan class="cls-3" x="124.1" y="0">a</tspan><tspan x="249.86" y="0">lendrier</tspan></text><path class="cls-4" d="M2973.82-2106v-72.68a84.72,84.72,0,0,1,56.52-79.81v16.07a60.48,60.48,0,0,0,60.42,60.41,60.48,60.48,0,0,0,60.42-60.41v-20.83H3317v20.83a60.48,60.48,0,0,0,60.42,60.41,60.49,60.49,0,0,0,60.42-60.41v-20.83h179v20.83a60.48,60.48,0,0,0,60.42,60.41,60.48,60.48,0,0,0,60.42-60.41v-20.83H3916.8v20.83a60.48,60.48,0,0,0,60.42,60.41,60.48,60.48,0,0,0,60.42-60.41v-20.43a84.69,84.69,0,0,1,76.33,84.17V-2106Z" transform="translate(-2796.16 2498.71)"/><path class="cls-4" d="M3901.3-2247.74v5.33a76,76,0,0,0,75.92,75.91,76,76,0,0,0,75.92-75.91v-1.13a69.21,69.21,0,0,1,45.33,64.87v57.18H2989.32v-57.18a69.11,69.11,0,0,1,26.13-54.1,76,76,0,0,0,75.31,66.27,76,76,0,0,0,75.92-75.91v-5.33h134.84v5.33a76,76,0,0,0,75.92,75.91,76,76,0,0,0,75.92-75.91v-5.33h148v5.33a76,76,0,0,0,75.92,75.91,76,76,0,0,0,75.92-75.91v-5.33H3901.3m128.1-31h-7.26v36.33a45.05,45.05,0,0,1-44.92,44.91,45.05,45.05,0,0,1-44.92-44.91v-36.33H3722.25v36.33a45.05,45.05,0,0,1-44.92,44.91,45.05,45.05,0,0,1-44.92-44.91v-36.33h-210v36.33a45.05,45.05,0,0,1-44.92,44.91,45.05,45.05,0,0,1-44.92-44.91v-36.33H3135.68v36.33a45,45,0,0,1-44.92,44.91,45.05,45.05,0,0,1-44.92-44.91V-2278a100.08,100.08,0,0,0-87.52,99.29v88.18H4129.47v-88.18a100.07,100.07,0,0,0-100.07-100.07Z" transform="translate(-2796.16 2498.71)"/><path class="cls-4" d="M4062.15-2059.49a36.36,36.36,0,0,1,36.32,36.32v482.65a135.46,135.46,0,0,1-40,96.44,135.5,135.5,0,0,1-96.44,39.95H3125.72a135.5,135.5,0,0,1-96.45-39.95,135.5,135.5,0,0,1-39.95-96.44v-482.65a36.37,36.37,0,0,1,36.33-36.32h1036.5m0-31H3025.65a67.32,67.32,0,0,0-67.33,67.32v482.65a167.39,167.39,0,0,0,167.4,167.39h836.36a167.39,167.39,0,0,0,167.39-167.39v-482.65a67.32,67.32,0,0,0-67.32-67.32Z" transform="translate(-2796.16 2498.71)"/><path class="cls-4" d="M4098.47-2059.93v525.24a129.25,129.25,0,0,1-38.11,92,129.23,129.23,0,0,1-92,38.11H3119.44a129.25,129.25,0,0,1-92-38.11,129.3,129.3,0,0,1-38.11-92v-525.24H4098.47m31-31H2958.32v556.24a161.12,161.12,0,0,0,161.12,161.12h848.92a161.11,161.11,0,0,0,161.11-161.12v-556.24Z" transform="translate(-2796.16 2498.71)"/><rect class="cls-4" x="252.12" y="512.59" width="207.57" height="126.34" rx="28.73"/><rect class="cls-4" x="506.86" y="512.59" width="207.57" height="126.34" rx="28.73"/><rect class="cls-4" x="769.56" y="512.59" width="207.57" height="126.34" rx="28.73"/><rect class="cls-4" x="1035.8" y="512.59" width="207.57" height="126.34" rx="28.73"/><rect class="cls-4" x="252.12" y="696.02" width="207.57" height="126.34" rx="28.73"/><rect class="cls-4" x="506.86" y="696.02" width="207.57" height="126.34" rx="28.73"/><rect class="cls-4" x="769.56" y="696.02" width="207.57" height="126.34" rx="28.73"/><rect class="cls-4" x="1035.8" y="696.02" width="207.57" height="126.34" rx="28.73"/><rect class="cls-4" x="252.12" y="868.51" width="207.57" height="126.34" rx="28.73"/><rect class="cls-4" x="506.86" y="868.51" width="207.57" height="126.34" rx="28.73"/><rect class="cls-4" x="769.56" y="868.51" width="207.57" height="126.34" rx="28.73"/><rect class="cls-4" x="1035.8" y="868.51" width="207.57" height="126.34" rx="28.73"/><path class="cls-4" d="M4003-2291.76v48.49a25.83,25.83,0,0,1-25.76,25.76,25.83,25.83,0,0,1-25.76-25.76v-48.49a25.83,25.83,0,0,1,25.76-25.76,25.68,25.68,0,0,1,18.19,7.57A25.66,25.66,0,0,1,4003-2291.76Z" transform="translate(-2796.16 2498.71)"/><path class="cls-4" d="M4003-2338.66v48.49a25.83,25.83,0,0,1-25.76,25.76,25.83,25.83,0,0,1-25.76-25.76v-48.49a25.83,25.83,0,0,1,25.76-25.76,25.68,25.68,0,0,1,18.19,7.57A25.68,25.68,0,0,1,4003-2338.66Z" transform="translate(-2796.16 2498.71)"/><path class="cls-4" d="M3703-2291.76v48.49a25.83,25.83,0,0,1-25.76,25.76,25.83,25.83,0,0,1-25.76-25.76v-48.49a25.83,25.83,0,0,1,25.76-25.76,25.68,25.68,0,0,1,18.19,7.57A25.66,25.66,0,0,1,3703-2291.76Z" transform="translate(-2796.16 2498.71)"/><path class="cls-4" d="M3703-2338.66v48.49a25.83,25.83,0,0,1-25.76,25.76,25.83,25.83,0,0,1-25.76-25.76v-48.49a25.83,25.83,0,0,1,25.76-25.76,25.68,25.68,0,0,1,18.19,7.57A25.68,25.68,0,0,1,3703-2338.66Z" transform="translate(-2796.16 2498.71)"/><path class="cls-4" d="M3403.53-2291.76v48.49a25.83,25.83,0,0,1-25.76,25.76,25.84,25.84,0,0,1-25.76-25.76v-48.49a25.84,25.84,0,0,1,25.76-25.76,25.68,25.68,0,0,1,18.19,7.57A25.66,25.66,0,0,1,3403.53-2291.76Z" transform="translate(-2796.16 2498.71)"/><path class="cls-4" d="M3403.53-2338.66v48.49a25.83,25.83,0,0,1-25.76,25.76,25.84,25.84,0,0,1-25.76-25.76v-48.49a25.84,25.84,0,0,1,25.76-25.76,25.68,25.68,0,0,1,18.19,7.57A25.68,25.68,0,0,1,3403.53-2338.66Z" transform="translate(-2796.16 2498.71)"/><path class="cls-4" d="M3116.41-2291.76v48.49a25.83,25.83,0,0,1-25.76,25.76,25.84,25.84,0,0,1-25.76-25.76v-48.49a25.84,25.84,0,0,1,25.76-25.76,25.68,25.68,0,0,1,18.19,7.57A25.66,25.66,0,0,1,3116.41-2291.76Z" transform="translate(-2796.16 2498.71)"/><path class="cls-4" d="M3116.41-2338.66v48.49a25.83,25.83,0,0,1-25.76,25.76,25.84,25.84,0,0,1-25.76-25.76v-48.49a25.84,25.84,0,0,1,25.76-25.76,25.68,25.68,0,0,1,18.19,7.57A25.68,25.68,0,0,1,3116.41-2338.66Z" transform="translate(-2796.16 2498.71)"/><rect class="cls-5" width="1511.34" height="1511.34" rx="22.73"/></svg>