<svg id="Calque_145" data-name="Calque 145" xmlns="http://www.w3.org/2000/svg" viewBox="0 0 1511.34 1514.07"><defs><style>.cls-1,.cls-5{fill:none;}.cls-2{font-size:178.37px;font-family:Heavitas;}.cls-2,.cls-6{fill:#fff;}.cls-3{letter-spacing:-0.05em;}.cls-4{letter-spacing:-0.04em;}.cls-5{stroke:#fff;stroke-miterlimit:10;stroke-width:13px;}</style></defs><rect class="cls-1" width="1511.34" height="1511.34" rx="22.73"/><text class="cls-2" transform="translate(165.44 1251.86)">creer son <tspan x="-165.44" y="214.05">profil </tspan><tspan class="cls-3" x="579.26" y="214.05">a</tspan><tspan class="cls-4" x="710.9" y="214.05">u</tspan><tspan x="844.14" y="214.05">teur</tspan></text><circle class="cls-5" cx="755.67" cy="593.67" r="408.24"/><path class="cls-6" d="M-1899.84-2773.72c-225.47,0-408.24,182.78-408.24,408.24s182.77,408.24,408.24,408.24S-1491.6-2140-1491.6-2365.48-1674.38-2773.72-1899.84-2773.72Zm195.48,436.32a42.25,42.25,0,0,1-42.12,42.12h-83.16v83.16a42.25,42.25,0,0,1-42.12,42.12h-56.16a42.24,42.24,0,0,1-42.12-42.12v-83.16h-83.16a42.24,42.24,0,0,1-42.12-42.12v-56.16a42.24,42.24,0,0,1,42.12-42.12H-1970v-83.16a42.24,42.24,0,0,1,42.12-42.12h56.16a42.25,42.25,0,0,1,42.12,42.12v83.16h83.16a42.25,42.25,0,0,1,42.12,42.12Z" transform="translate(2715.99 2959.15)"/><path class="cls-5" d="M-1704.36-2393.56v56.16a42.25,42.25,0,0,1-42.12,42.12h-83.16v83.16a42.25,42.25,0,0,1-42.12,42.12h-56.16a42.24,42.24,0,0,1-42.12-42.12v-83.16h-83.16a42.24,42.24,0,0,1-42.12-42.12v-56.16a42.24,42.24,0,0,1,42.12-42.12H-1970v-83.16a42.24,42.24,0,0,1,42.12-42.12h56.16a42.25,42.25,0,0,1,42.12,42.12v83.16h83.16A42.25,42.25,0,0,1-1704.36-2393.56Z" transform="translate(2715.99 2959.15)"/></svg>