<svg id="Calque_187" data-name="Calque 187" xmlns="http://www.w3.org/2000/svg" viewBox="0 0 223.59 294.3"><defs><style>.cls-1,.cls-2{fill:none;stroke:#fff;stroke-miterlimit:10;stroke-width:6px;}.cls-1{stroke-linecap:round;}.cls-3{font-size:34.99px;font-family:EMINOR-BlackItalic, EMINOR;font-weight:800;font-style:italic;}.cls-3,.cls-4,.cls-5{fill:#fff;}.cls-5{font-size:29.98px;font-family:Boldfinger;}.cls-6{fill:#a2c617;}</style></defs><path class="cls-1" d="M-516-3321.8H-620.77a17.93,17.93,0,0,1-17.87-17.87v-97" transform="translate(664.21 3543.34)"/><path class="cls-1" d="M-638.64-3501.26v-21.23a17.91,17.91,0,0,1,17.87-17.85h83.44a2.06,2.06,0,0,1,2.06,2.06v50.34a2.07,2.07,0,0,0,2.06,2.06h51a2.06,2.06,0,0,1,2.06,2.06v71" transform="translate(664.21 3543.34)"/><path class="cls-2" d="M-481.25-3485.88H-534.8a.47.47,0,0,1-.47-.47v-52.87a.47.47,0,0,1,.8-.33l53.55,52.87A.47.47,0,0,1-481.25-3485.88Z" transform="translate(664.21 3543.34)"/><rect class="cls-2" x="3" y="54.32" width="103.49" height="41.69" rx="6.68"/><text class="cls-3" transform="translate(26.06 87.02)">PDF</text><path class="cls-4" d="M-451.41-3345.86c2.44,0,3.85,2.4,2.39,4.09l-13.79,16-14.9,17.27a3.29,3.29,0,0,1-4.79,0l-14.91-17.27-13.78-16c-1.46-1.69-.06-4.09,2.39-4.09H-500v-52.52c0-3.83,3.61-6.93,8.06-6.93h23.63c4.45,0,8.05,3.1,8.05,6.93v52.52Z" transform="translate(664.21 3543.34)"/><rect class="cls-4" x="136.32" y="240.99" width="73.21" height="9.31" rx="3.11"/><text class="cls-5" transform="translate(7.89 288.68)">FICHE D’ARRET</text><rect class="cls-6" x="-479.03" y="-3403.14" width="14.71" height="75.69" rx="5.28" transform="translate(-2017.62 2759.31) rotate(48.55)"/><rect class="cls-6" x="-510.49" y="-3374.51" width="14.71" height="39.65" rx="5.28" transform="translate(-2436.75 -1992.73) rotate(138.55)"/></svg>