<svg id="Calque_134" data-name="Calque 134" xmlns="http://www.w3.org/2000/svg" viewBox="0 0 473.8 202.79"><defs><style>.cls-1{font-size:69.28px;font-family:Heavitas;}.cls-1,.cls-3,.cls-5{fill:#fff;}.cls-2{letter-spacing:-0.04em;}.cls-3{font-size:75.83px;font-family:ImprintMT-Shadow, Imprint MT Shadow;}.cls-4,.cls-6{fill:none;stroke:#fff;stroke-miterlimit:10;}.cls-4{stroke-width:1.04px;}.cls-5{font-size:15.16px;font-family:NSimSun;}.cls-6{stroke-linecap:round;stroke-width:4px;}</style></defs><text class="cls-1" transform="translate(10.38 172.86)">Le Suppo<tspan class="cls-2" x="366.64" y="0">r</tspan><tspan x="413.62" y="0">t</tspan></text><text class="cls-3" transform="translate(15.48 82.53)">EDITOR</text><path class="cls-4" d="M1316.06-519.39h-99.39a3.1,3.1,0,0,1-3-4l11.14-35a3.1,3.1,0,0,1,3-2.16h77.76a3.1,3.1,0,0,1,3,2.21l10.49,35A3.09,3.09,0,0,1,1316.06-519.39Z" transform="translate(-858.36 610.39)"/><rect class="cls-4" x="375.65" y="55.62" width="7.32" height="7.32" rx="3.66"/><rect class="cls-4" x="387.36" y="55.62" width="7.32" height="7.32" rx="3.66"/><rect class="cls-4" x="398.5" y="55.62" width="7.32" height="7.32" rx="3.66"/><rect class="cls-4" x="410.2" y="55.62" width="7.32" height="7.32" rx="3.66"/><rect class="cls-4" x="421.59" y="55.62" width="7.32" height="7.32" rx="3.66"/><rect class="cls-4" x="433.29" y="55.62" width="7.32" height="7.32" rx="3.66"/><rect class="cls-4" x="366.17" y="66.47" width="15.02" height="7.83" rx="3.92"/><rect class="cls-4" x="385.89" y="66.47" width="7.83" height="7.83" rx="3.92"/><rect class="cls-4" x="397.82" y="66.47" width="7.83" height="7.83" rx="3.92"/><rect class="cls-4" x="410.35" y="66.47" width="7.83" height="7.83" rx="3.92"/><rect class="cls-4" x="422.54" y="66.47" width="7.83" height="7.83" rx="3.92"/><rect class="cls-4" x="435.07" y="66.47" width="15.34" height="7.83" rx="3.92"/><rect class="cls-4" x="370.81" y="77.48" width="8.41" height="8.41" rx="4.2"/><rect class="cls-4" x="384.26" y="77.48" width="8.41" height="8.41" rx="4.2"/><rect class="cls-4" x="397.06" y="77.48" width="8.41" height="8.41" rx="4.2"/><rect class="cls-4" x="410.51" y="77.48" width="8.41" height="8.41" rx="4.2"/><rect class="cls-4" x="423.59" y="77.48" width="8.41" height="8.41" rx="4.2"/><rect class="cls-4" x="437.04" y="77.48" width="8.41" height="8.41" rx="4.2"/><path class="cls-4" d="M353.82,95.07H462a0,0,0,0,1,0,0v0a9.67,9.67,0,0,1-9.67,9.67H363.5a9.67,9.67,0,0,1-9.67-9.67v0a0,0,0,0,1,0,0Z"/><path class="cls-4" d="M1313.1-577.22v12.4h-93.79v-12.4a7.82,7.82,0,0,1,7.83-7.83h9.76v6.78a6.86,6.86,0,0,0,6.86,6.86h44.7a6.86,6.86,0,0,0,6.85-6.86V-585h10A7.83,7.83,0,0,1,1313.1-577.22Z" transform="translate(-858.36 610.39)"/><path class="cls-4" d="M1246.42-592.75a2.08,2.08,0,0,1,.61-1.48,2.11,2.11,0,0,1,1.49-.62h20a2.1,2.1,0,0,1,2.1,2.1,2.1,2.1,0,0,1-.61,1.49,2.1,2.1,0,0,1-1.49.61h-20A2.1,2.1,0,0,1,1246.42-592.75Z" transform="translate(-858.36 610.39)"/><path class="cls-4" d="M1246.42-600.26a2.08,2.08,0,0,1,.61-1.48,2.11,2.11,0,0,1,1.49-.62h20a2.1,2.1,0,0,1,2.1,2.1,2.1,2.1,0,0,1-.61,1.49,2.1,2.1,0,0,1-1.49.61h-20A2.1,2.1,0,0,1,1246.42-600.26Z" transform="translate(-858.36 610.39)"/><path class="cls-4" d="M1240.56-609.86v29.48a4.75,4.75,0,0,0,4.75,4.75h41.6a4.75,4.75,0,0,0,4.74-4.75v-29.48Zm6.47,8.12a2.11,2.11,0,0,1,1.49-.62h20a2.1,2.1,0,0,1,2.1,2.1,2.1,2.1,0,0,1-.61,1.49,2.1,2.1,0,0,1-1.49.61h-20a2.1,2.1,0,0,1-2.1-2.1A2.08,2.08,0,0,1,1247-601.74Zm0,7.51a2.11,2.11,0,0,1,1.49-.62h20a2.1,2.1,0,0,1,2.1,2.1,2.1,2.1,0,0,1-.61,1.49,2.1,2.1,0,0,1-1.49.61h-20a2.1,2.1,0,0,1-2.1-2.1A2.08,2.08,0,0,1,1247-594.23Zm38.35,10.67a2.1,2.1,0,0,1-1.49.61h-35.37a2.1,2.1,0,0,1-2.1-2.1,2.08,2.08,0,0,1,.61-1.48,2.11,2.11,0,0,1,1.49-.62h35.37a2.1,2.1,0,0,1,2.1,2.1A2.1,2.1,0,0,1,1285.38-583.56Z" transform="translate(-858.36 610.39)"/><path class="cls-4" d="M1246.42-592.75a2.08,2.08,0,0,1,.61-1.48,2.11,2.11,0,0,1,1.49-.62h20a2.1,2.1,0,0,1,2.1,2.1,2.1,2.1,0,0,1-.61,1.49,2.1,2.1,0,0,1-1.49.61h-20A2.1,2.1,0,0,1,1246.42-592.75Z" transform="translate(-858.36 610.39)"/><path class="cls-4" d="M1246.42-600.26a2.08,2.08,0,0,1,.61-1.48,2.11,2.11,0,0,1,1.49-.62h20a2.1,2.1,0,0,1,2.1,2.1,2.1,2.1,0,0,1-.61,1.49,2.1,2.1,0,0,1-1.49.61h-20A2.1,2.1,0,0,1,1246.42-600.26Z" transform="translate(-858.36 610.39)"/><path class="cls-4" d="M1270.59-600.26a2.1,2.1,0,0,1-.61,1.49,2.1,2.1,0,0,1-1.49.61h-20a2.1,2.1,0,0,1-2.1-2.1,2.08,2.08,0,0,1,.61-1.48,2.11,2.11,0,0,1,1.49-.62h20A2.1,2.1,0,0,1,1270.59-600.26Z" transform="translate(-858.36 610.39)"/><path class="cls-4" d="M1270.59-592.75a2.1,2.1,0,0,1-.61,1.49,2.1,2.1,0,0,1-1.49.61h-20a2.1,2.1,0,0,1-2.1-2.1,2.08,2.08,0,0,1,.61-1.48,2.11,2.11,0,0,1,1.49-.62h20A2.1,2.1,0,0,1,1270.59-592.75Z" transform="translate(-858.36 610.39)"/><path class="cls-4" d="M1286-585a2.1,2.1,0,0,1-.61,1.49,2.1,2.1,0,0,1-1.49.61h-35.37a2.1,2.1,0,0,1-2.1-2.1,2.08,2.08,0,0,1,.61-1.48,2.11,2.11,0,0,1,1.49-.62h35.37A2.1,2.1,0,0,1,1286-585Z" transform="translate(-858.36 610.39)"/><path class="cls-4" d="M1216.9-577.92v12.21h-1a3.72,3.72,0,0,1-3.73-3.72v-1h0a.71.71,0,0,0,.71-.71v-1.38a.71.71,0,0,0-.71-.71h0v-1a3.72,3.72,0,0,1,3.73-3.72Z" transform="translate(-858.36 610.39)"/><rect class="cls-4" x="416.18" y="5.48" width="14.25" height="14.25" rx="7.13"/><text class="cls-5" transform="translate(419.73 17.92)">S</text><line class="cls-6" x1="2" y1="200.79" x2="471.8" y2="200.79"/></svg>