<svg id="ico_droit_penal" data-name="ico droit penal" xmlns="http://www.w3.org/2000/svg" viewBox="0 0 1317.6 1317.6"><defs><style>.cls-1,.cls-6{fill:none;}.cls-2{font-size:109.49px;fill:#fff;font-family:Heavitas;letter-spacing:0.03em;}.cls-3{letter-spacing:0em;}.cls-4{letter-spacing:0.01em;}.cls-5{letter-spacing:0.03em;}.cls-6{stroke:#fff;stroke-miterlimit:10;stroke-width:17px;}</style></defs><rect class="cls-1" width="1317.6" height="1317.6" rx="12"/><text class="cls-2" transform="translate(241.81 1134.31) scale(1.01 1)">dro<tspan class="cls-3" x="266.4" y="0">i</tspan><tspan x="303.73" y="0">t Pén</tspan><tspan class="cls-4" x="668.13" y="0">a</tspan><tspan class="cls-5" x="755.07" y="0">l</tspan></text><rect class="cls-6" x="341.1" y="409.94" width="599.47" height="340.41" rx="27.36"/><circle class="cls-6" cx="646.34" cy="550.53" r="81.33"/><path class="cls-6" d="M2951.26-2112.22v71H2739.39v-71a27.44,27.44,0,0,1,27.36-27.36H2923.9A27.44,27.44,0,0,1,2951.26-2112.22Z" transform="translate(-2199.48 2791.52)"/><line class="cls-6" x1="387.28" y1="409.95" x2="387.28" y2="751.35"/><line class="cls-6" x1="470.62" y1="409.95" x2="470.62" y2="751.35"/><line class="cls-6" x1="544.92" y1="409.95" x2="544.92" y2="751.35"/><line class="cls-6" x1="628.27" y1="409.95" x2="628.27" y2="751.35"/><line class="cls-6" x1="711.61" y1="409.95" x2="711.61" y2="751.35"/><line class="cls-6" x1="794.95" y1="409.95" x2="794.95" y2="751.35"/><line class="cls-6" x1="870.26" y1="409.95" x2="870.26" y2="751.35"/><rect class="cls-6" x="254.73" y="300.52" width="757.11" height="83.34" rx="29.39"/><rect class="cls-6" x="2454.21" y="-2015.06" width="757.11" height="83.34" rx="32.63" transform="translate(3466.05 -1155.27) rotate(180)"/></svg>