<svg id="ico_RJ" data-name="ico RJ" xmlns="http://www.w3.org/2000/svg" viewBox="0 0 1317.6 1317.6"><defs><style>.cls-1{fill:none;}.cls-2{font-size:109.49px;font-family:Heavitas;letter-spacing:0.05em;}.cls-2,.cls-8{fill:#fff;}.cls-3{letter-spacing:0.03em;}.cls-4{letter-spacing:0.01em;}.cls-5{letter-spacing:0em;}.cls-6{letter-spacing:0.03em;}.cls-7{letter-spacing:0.02em;}.cls-8{stroke:#fff;stroke-miterlimit:10;stroke-width:2px;}</style></defs><rect class="cls-1" width="1317.6" height="1317.6" rx="12"/><text class="cls-2" transform="translate(151 1134.31) scale(1.01 1)">r<tspan class="cls-3" x="84.09" y="0">aisonn</tspan><tspan class="cls-4" x="577.58" y="0">e</tspan><tspan class="cls-3" x="653.46" y="0">me</tspan><tspan class="cls-5" x="842.23" y="0">n</tspan><tspan class="cls-6" x="934.2" y="0">t</tspan><tspan class="cls-3"><tspan x="165.28" y="131.39">juri</tspan><tspan class="cls-7" x="448.76" y="131.39">d</tspan><tspan x="537.34" y="131.39">ique</tspan></tspan></text><path class="cls-8" d="M-11.11-2204.17h218a10.61,10.61,0,0,1,10.6,10.6,112.48,112.48,0,0,1-33.13,79.69,112.48,112.48,0,0,1-79.69,33.13H91.11a112.52,112.52,0,0,1-79.69-33.13,112.48,112.48,0,0,1-33.13-79.69,10.61,10.61,0,0,1,10.6-10.6ZM195.63-2183H.11a91.53,91.53,0,0,0,26.31,54.1,91.32,91.32,0,0,0,64.69,26.92h13.52a91.35,91.35,0,0,0,64.7-26.92A91.52,91.52,0,0,0,195.63-2183Z" transform="translate(780.96 2799.44)"/><path class="cls-8" d="M18.31-2189.63a10.57,10.57,0,0,1-13.74,5.88,10.57,10.57,0,0,1-5.88-13.75l89.37-222.61a10.58,10.58,0,0,1,13.75-5.88,10.58,10.58,0,0,1,5.88,5.88l89.37,222.61a10.58,10.58,0,0,1-5.88,13.75,10.58,10.58,0,0,1-13.75-5.88L97.87-2387.79Z" transform="translate(780.96 2799.44)"/><path class="cls-8" d="M-450.4-2204.17h218a10.61,10.61,0,0,1,10.6,10.6A112.48,112.48,0,0,1-255-2113.88a112.52,112.52,0,0,1-79.69,33.13h-13.52a112.5,112.5,0,0,1-79.69-33.13A112.48,112.48,0,0,1-461-2193.57a10.61,10.61,0,0,1,10.6-10.6Zm206.74,21.2H-439.18a91.57,91.57,0,0,0,26.3,54.1,91.35,91.35,0,0,0,64.7,26.92h13.52a91.36,91.36,0,0,0,64.7-26.92A91.57,91.57,0,0,0-243.66-2183Z" transform="translate(780.96 2799.44)"/><path class="cls-8" d="M-421-2189.63a10.58,10.58,0,0,1-13.75,5.88,10.58,10.58,0,0,1-5.88-13.75l89.38-222.61a10.57,10.57,0,0,1,13.74-5.88,10.55,10.55,0,0,1,5.88,5.88l89.37,222.61a10.57,10.57,0,0,1-5.88,13.75,10.57,10.57,0,0,1-13.74-5.88l-79.56-198.16Z" transform="translate(780.96 2799.44)"/><path class="cls-8" d="M-335.83-2407.19a10.59,10.59,0,0,1-14.58-3.39,10.6,10.6,0,0,1,3.4-14.58c27.47-17.05,58.61-30.34,91.79-39.88a478.89,478.89,0,0,1,107.63-17.53,10.57,10.57,0,0,1,11.06,10.06,10.59,10.59,0,0,1-10.07,11.06,457,457,0,0,0-102.83,16.79c-31.35,9-60.67,21.5-86.4,37.47Zm238.91-54.26A10.58,10.58,0,0,1-107-2472.51a10.58,10.58,0,0,1,11.06-10.06A479,479,0,0,1,11.69-2465c33.17,9.53,64.3,22.82,91.77,39.87a10.6,10.6,0,0,1,3.4,14.58,10.59,10.59,0,0,1-14.58,3.39c-25.73-16-55-28.46-86.39-37.47A457.41,457.41,0,0,0-96.92-2461.45Z" transform="translate(780.96 2799.44)"/><path class="cls-8" d="M-147.12-2546.58h50.69a10.6,10.6,0,0,1,10.6,10.6v506.87a10.61,10.61,0,0,1-10.6,10.6h-50.69a10.61,10.61,0,0,1-10.6-10.6V-2536a10.6,10.6,0,0,1,10.6-10.6Zm40.09,21.2h-29.49v485.67H-107Z" transform="translate(780.96 2799.44)"/><path class="cls-8" d="M-258.21-2039.71H14.66a88.46,88.46,0,0,1,62.68,26.06A88.48,88.48,0,0,1,103.4-1951a10.59,10.59,0,0,1-10.6,10.6H-336.35a10.59,10.59,0,0,1-10.6-10.6,88.48,88.48,0,0,1,26.06-62.68,88.46,88.46,0,0,1,62.68-26.06Zm272.87,21.2H-258.21a67.3,67.3,0,0,0-47.69,19.85,67.56,67.56,0,0,0-19,37.09H81.36a67.56,67.56,0,0,0-19-37.09A67.3,67.3,0,0,0,14.66-2018.51Z" transform="translate(780.96 2799.44)"/></svg>