<svg id="ico_science_po" data-name="ico science po" xmlns="http://www.w3.org/2000/svg" viewBox="0 0 1317.6 1317.6"><defs><style>.cls-1,.cls-4{fill:none;}.cls-2{font-size:109.49px;fill:#fff;font-family:Heavitas;letter-spacing:0.03em;}.cls-3{letter-spacing:0em;}.cls-4{stroke:#fff;stroke-miterlimit:10;stroke-width:23px;}.cls-5{fill:#ec1c24;}</style></defs><rect class="cls-1" width="1317.6" height="1317.6" rx="12"/><text class="cls-2" transform="translate(328.24 1143.02) scale(1.01 1)">sciences <tspan x="-32.41" y="131.39">pol</tspan><tspan class="cls-3" x="210.67" y="131.39">i</tspan><tspan x="248" y="131.39">tiques</tspan></text><circle class="cls-4" cx="616.79" cy="567.03" r="428.74"/><ellipse class="cls-4" cx="616.79" cy="567.03" rx="47.14" ry="428.74"/><ellipse class="cls-4" cx="616.79" cy="567.03" rx="161.62" ry="428.74"/><ellipse class="cls-4" cx="616.79" cy="567.03" rx="303.03" ry="428.74"/><circle class="cls-4" cx="616.79" cy="567.03" r="428.74"/><ellipse class="cls-4" cx="616.79" cy="567.03" rx="428.74" ry="47.14"/><ellipse class="cls-4" cx="616.79" cy="567.03" rx="428.74" ry="161.62"/><ellipse class="cls-4" cx="616.79" cy="567.03" rx="428.74" ry="303.03"/><path class="cls-5" d="M-2665.68-2329.67a20.55,20.55,0,0,1-.28,11.48,39.36,39.36,0,0,1-4.9,10.2,94.35,94.35,0,0,1-14.61,16.75c-10.83,10.06-22.81,18.67-35,26.76s-24.92,15.49-37.74,22.59-25.82,13.85-38.93,20.36c-26.23,13-52.91,25.07-79.81,36.57s-54.07,22.4-81.39,32.87c-54.68,20.82-110,39.91-165.73,57.72s-112,34-168.49,49.19-113.33,29.37-170.57,41.94-115,22.87-173.39,29.84c-14.6,1.7-29.22,3.25-43.88,4.53s-29.35,2.29-44.09,2.93-29.52,1-44.35.69a397.34,397.34,0,0,1-44.62-3,193.29,193.29,0,0,1-22.4-4.19,115.42,115.42,0,0,1-11.18-3.42,68.11,68.11,0,0,1-11-5.08,38.48,38.48,0,0,1-10.23-8.28,25.72,25.72,0,0,1-3.89-6.12,22.31,22.31,0,0,1-1.86-7.21,27.47,27.47,0,0,1,2.48-13.51,49.22,49.22,0,0,1,6.47-10.43,107.19,107.19,0,0,1,16.39-16,205.62,205.62,0,0,1,18.09-13q9.32-6,18.92-11.41c6.42-3.56,12.89-7,19.45-10.26l1.15,2c-6.09,4-12.16,8.05-18.09,12.26s-11.8,8.47-17.46,12.95-11.17,9.12-16.32,14a98.3,98.3,0,0,0-13.66,15.71,40.42,40.42,0,0,0-4.47,8.46,15.76,15.76,0,0,0-1,7.87,11.25,11.25,0,0,0,3.34,6.18,25.86,25.86,0,0,0,7.13,4.87,60.19,60.19,0,0,0,9.1,3.45c3.2,1,6.54,1.72,9.93,2.38a196.68,196.68,0,0,0,20.82,2.65c7.05.55,14.18.82,21.32.91s14.32,0,21.5-.18c14.36-.44,28.76-1.3,43.16-2.5s28.79-2.65,43.16-4.37,28.76-3.55,43.11-5.62c57.42-8.23,114.66-18.35,171.78-29.33s114.05-23.38,170.56-37.45,112.75-29.39,168.59-46,111.37-34.34,166.25-53.89q41.19-14.6,81.82-30.67c27.06-10.76,53.9-22.1,80.29-34.37,13.19-6.14,26.28-12.52,39.17-19.24s25.6-13.79,37.95-21.43,24.39-15.79,35.24-25.3a90.85,90.85,0,0,0,14.59-15.74,37.15,37.15,0,0,0,4.84-9.33,18.15,18.15,0,0,0,.56-10.1Z" transform="translate(3925.22 2799.64)"/></svg>