<svg id="ico_hds" data-name="ico hds" xmlns="http://www.w3.org/2000/svg" viewBox="0 0 1317.6 1317.6"><defs><style>.cls-1,.cls-7{fill:none;}.cls-2{font-size:109.49px;fill:#fff;font-family:Heavitas;letter-spacing:0.03em;}.cls-3{letter-spacing:-0.03em;}.cls-4{letter-spacing:0.02em;}.cls-5{letter-spacing:0em;}.cls-6{letter-spacing:0.03em;}.cls-7{stroke:#fff;stroke-linecap:round;stroke-miterlimit:10;stroke-width:20px;}</style></defs><rect class="cls-1" width="1317.6" height="1317.6" rx="12"/><text class="cls-2" transform="translate(207.43 1134.31) scale(1.01 1)">hi<tspan class="cls-3" x="132.05" y="0">s</tspan><tspan class="cls-4" x="203.33" y="0">t</tspan><tspan x="273.3" y="0">oire </tspan><tspan class="cls-5" x="610.32" y="0">d</tspan><tspan class="cls-6" x="696.6" y="0">es </tspan><tspan x="151.87" y="131.39">sources</tspan></text><path class="cls-7" d="M-1116-2255.36a21.14,21.14,0,0,1,0,36.63l-173,99.89L-1462-2019a21.16,21.16,0,0,1-31.73-18.32h0a21.15,21.15,0,0,0-21.15-21.15h-455.83a21.15,21.15,0,0,1-21.15-21.16v-298.91a21.16,21.16,0,0,1,21.15-21.16h455.83a21.15,21.15,0,0,0,21.15-21.15v-16a21.15,21.15,0,0,1,31.73-18.32l173,99.87Z" transform="translate(2346.74 2800.12)"/><line class="cls-7" x1="356.59" y1="259.51" x2="356.59" y2="368.16"/><line class="cls-7" x1="470.34" y1="259.51" x2="470.34" y2="368.16"/><line class="cls-7" x1="670.67" y1="259.51" x2="670.67" y2="368.16"/><line class="cls-7" x1="801.81" y1="259.51" x2="801.81" y2="368.16"/><rect class="cls-7" x="213.56" y="405.94" width="106.96" height="334.87" rx="8.75"/><rect class="cls-7" x="142.26" y="405.94" width="34.38" height="334.87" rx="4.46"/></svg>