<svg id="ico_droit_constit" data-name="ico droit constit" xmlns="http://www.w3.org/2000/svg" viewBox="0 0 1317.6 1317.6"><defs><style>.cls-1,.cls-7{fill:none;}.cls-2{font-size:109.49px;fill:#fff;font-family:Heavitas;letter-spacing:0.03em;}.cls-3{letter-spacing:0em;}.cls-4{letter-spacing:0.03em;}.cls-5{letter-spacing:-0.03em;}.cls-6{letter-spacing:-0.01em;}.cls-7{stroke:#fff;stroke-miterlimit:10;stroke-width:17px;}</style></defs><rect class="cls-1" width="1317.6" height="1317.6" rx="12"/><text class="cls-2" transform="translate(448.54 1134.31) scale(1.01 1)">dro<tspan class="cls-3" x="266.4" y="0">i</tspan><tspan class="cls-4" x="303.73" y="0">t </tspan><tspan x="-373.38" y="131.39">con</tspan><tspan class="cls-5" x="-94.49" y="131.39">s</tspan><tspan x="-23.21" y="131.39">t</tspan><tspan class="cls-3" x="48.5" y="131.39">i</tspan><tspan x="85.84" y="131.39">t</tspan><tspan class="cls-6" x="157.56" y="131.39">u</tspan><tspan x="242.97" y="131.39">tionnel</tspan></text><text class="cls-2" transform="translate(549.92 342.19) scale(1.01 1)">C.C</text><rect class="cls-7" x="217.12" y="394.72" width="871.43" height="64.42" rx="27.8"/><rect class="cls-7" x="217.12" y="869.44" width="871.43" height="64.42" rx="27.8"/><path class="cls-7" d="M4634.7-2396.8H4068c-28.12,0-38.46-37-14.42-51.57L4337-2620.3a27.82,27.82,0,0,1,28.85,0l283.31,171.92C4673.17-2433.78,4662.83-2396.8,4634.7-2396.8Z" transform="translate(-3698.53 2791.52)"/><rect class="cls-7" x="338.34" y="459.17" width="67.82" height="410.71" rx="7.06"/><rect class="cls-7" x="487.54" y="459.17" width="67.82" height="410.71" rx="7.06"/><rect class="cls-7" x="629.95" y="459.17" width="67.82" height="410.71" rx="7.06"/><rect class="cls-7" x="757.11" y="459.17" width="67.82" height="410.71" rx="7.06"/><rect class="cls-7" x="899.52" y="459.17" width="67.82" height="410.71" rx="7.06"/></svg>