<svg id="ico_droit_civil" data-name="ico droit civil" xmlns="http://www.w3.org/2000/svg" viewBox="0 0 1317.6 1317.6"><defs><style>.cls-1,.cls-6{fill:none;}.cls-2{font-size:109.49px;fill:#fff;font-family:Heavitas;letter-spacing:0.03em;}.cls-3{letter-spacing:0em;}.cls-4{letter-spacing:0.01em;}.cls-5{letter-spacing:0.03em;}.cls-6{stroke:#fff;stroke-miterlimit:10;stroke-width:18px;}</style></defs><rect class="cls-1" width="1317.6" height="1317.6" rx="12"/><text class="cls-2" transform="translate(280.06 1134.31) scale(1.01 1)">Dro<tspan class="cls-3" x="266.4" y="0">i</tspan><tspan x="303.73" y="0">t ci</tspan><tspan class="cls-4" x="546.59" y="0">v</tspan><tspan class="cls-5" x="638.46" y="0">il</tspan></text><path class="cls-6" d="M1311.38-2400c7.06-22.59-4.74-47.16-26.23-54.59l-86.6-29.93c-21.49-7.43-44.86,5-51.93,27.56l-3.26,10.41a4.34,4.34,0,0,0,2.73,5.4l156.54,54.12a4.35,4.35,0,0,0,5.57-2.81Z" transform="translate(-709.16 2799.56)"/><path class="cls-6" d="M1098.58-2170.94l86.61,29.94c21.49,7.43,44.86-5,51.92-27.57l4.11-13.14a8.57,8.57,0,0,0-5.38-10.67l-148.53-51.35a8.58,8.58,0,0,0-11,5.55l-4,12.65C1065.29-2202.93,1077.09-2178.37,1098.58-2170.94Z" transform="translate(-709.16 2799.56)"/><path class="cls-6" d="M1294.88-2363.22a2.23,2.23,0,0,1,1.4,2.79L1251.08-2216h0a2.23,2.23,0,0,1-2.87,1.46l-158.41-54.76a2.24,2.24,0,0,1-1.41-2.79l45.21-144.48a2.26,2.26,0,0,1,2.88-1.45Z" transform="translate(-709.16 2799.56)"/><path class="cls-6" d="M1763.19-2162.62l-473.64-151.11-16.33,52.19,463.9,198.16S1800.61-2099.17,1763.19-2162.62Z" transform="translate(-709.16 2799.56)"/><path class="cls-6" d="M1296.93-2089.4c0-15.43-10.36-28-23-28H1039.79c-12.66,0-23,12.62-23,28v35.06h280.17Z" transform="translate(-709.16 2799.56)"/><path class="cls-6" d="M1337-2045H979c-9.78,0-17.78,8.42-17.78,18.7s8,18.7,17.78,18.7h358c9.78,0,17.79-8.41,17.79-18.7S1346.74-2045,1337-2045Z" transform="translate(-709.16 2799.56)"/></svg>