<svg id="Calque_115" data-name="Calque 115" xmlns="http://www.w3.org/2000/svg" viewBox="0 0 210.94 210.94"><defs><style>.cls-1{fill:#c1272d;stroke-width:24px;}.cls-1,.cls-5{stroke:#ed1c24;stroke-linejoin:round;}.cls-2{fill:#f2f2f2;}.cls-3{fill:gray;}.cls-4{fill:#fff;stroke:gray;stroke-miterlimit:10;stroke-width:3.75px;}.cls-5{fill:none;stroke-width:9px;}</style></defs><circle class="cls-1" cx="105.47" cy="105.47" r="93.47"/><rect class="cls-2" x="42.33" y="18.8" width="129.14" height="173.72" rx="12"/><rect class="cls-3" x="54.16" y="34.05" width="108.11" height="9.03" rx="4.51"/><rect class="cls-3" x="54.16" y="61.35" width="108.11" height="9.03" rx="4.51"/><rect class="cls-3" x="54.16" y="88.21" width="108.11" height="9.03" rx="4.51"/><rect class="cls-3" x="54.16" y="117.28" width="61.21" height="9.03" rx="3.4"/><rect class="cls-3" x="54.16" y="146.56" width="61.21" height="9.03" rx="3.4"/><path class="cls-4" d="M993.17-761.65l-5.3,5.3a1,1,0,0,1-1.43.18L943.7-798.93a.87.87,0,0,1-.18-.31L941.23-807a1.31,1.31,0,0,1,1.51-1.49l7.59,2.46a.75.75,0,0,1,.28.18l42.75,42.77A1,1,0,0,1,993.17-761.65Z" transform="translate(-801.3 935.98)"/><line class="cls-4" x1="142.68" y1="136.85" x2="149.29" y2="130.23"/><line class="cls-4" x1="179.99" y1="175.84" x2="187.48" y2="168.36"/><line class="cls-5" x1="32.58" y1="174.52" x2="183.62" y2="47.7"/></svg>