<svg id="Calque_114" data-name="Calque 114" xmlns="http://www.w3.org/2000/svg" viewBox="0 0 280 280"><defs><style>.cls-1,.cls-2,.cls-4{fill:none;}.cls-1,.cls-2,.cls-3{stroke:#fff;stroke-miterlimit:10;}.cls-1,.cls-2{stroke-width:13px;}.cls-2,.cls-3{stroke-linecap:round;}.cls-3{fill:#fff;stroke-width:4.77px;}</style></defs><circle class="cls-1" cx="145.29" cy="84.42" r="54"/><path class="cls-2" d="M871.27-642.23V-644a43.18,43.18,0,0,1,43.18-43.18H990.1A43.17,43.17,0,0,1,1033.27-644v37.82" transform="translate(-806.98 843.65)"/><path class="cls-3" d="M936.8-624v5.32a1.84,1.84,0,0,1-1.84,1.84H860.88a1.83,1.83,0,0,0-1.83,1.84v7.24a1.84,1.84,0,0,1-3.08,1.36l-6.45-5.9-8-7.36a1.83,1.83,0,0,1,0-2.71l8-7.36,6.45-5.9a1.84,1.84,0,0,1,3.08,1.35v6.6a1.83,1.83,0,0,0,1.83,1.84H935A1.84,1.84,0,0,1,936.8-624Z" transform="translate(-806.98 843.65)"/><rect class="cls-4" width="280" height="280"/></svg>