<svg id="Calque_129" data-name="Calque 129" xmlns="http://www.w3.org/2000/svg" viewBox="0 0 400.29 265.54"><defs><style>.cls-1{fill:#e6e6e6;}.cls-2{fill:#999;}.cls-3{fill:#b3b3b3;}</style></defs><rect class="cls-1" width="400.29" height="265.54" rx="34.35"/><path class="cls-2" d="M850.11-2572.61c-5.26-1.16-9.33-2.66-17.44-4.37-9.11-1.92-15.55-3.27-23.45-3-11.87.45-16.84,4.26-24.44,5.94a35.73,35.73,0,0,1-10.62.7l23.19-40.17a16.84,16.84,0,0,1,29.16,0Z" transform="translate(-535.09 2664.5)"/><path class="cls-3" d="M909.43-2419.36h-195a16.83,16.83,0,0,1-14.57-25.25L748.6-2529l25.56-44.26a35.73,35.73,0,0,0,10.62-.7c7.6-1.68,12.57-5.49,24.44-5.94,7.9-.3,14.34,1,23.45,3,8.11,1.71,12.18,3.21,17.44,4.37L875.26-2529,924-2444.61A16.83,16.83,0,0,1,909.43-2419.36Z" transform="translate(-535.09 2664.5)"/><path class="cls-2" d="M749.48-2539.55c-4.13-.91-7.32-2.09-13.68-3.43-7.15-1.51-12.2-2.57-18.39-2.33-9.31.35-13.21,3.34-19.17,4.66a28.24,28.24,0,0,1-8.33.55l18.19-31.51a13.21,13.21,0,0,1,22.87,0Z" transform="translate(-535.09 2664.5)"/><path class="cls-3" d="M796-2419.36H643.06a13.2,13.2,0,0,1-11.43-19.8l38.23-66.23,20-34.71a28.24,28.24,0,0,0,8.33-.55c6-1.32,9.86-4.31,19.17-4.66,6.19-.24,11.24.82,18.39,2.33,6.36,1.34,9.55,2.52,13.68,3.43l19.72,34.16,38.23,66.23A13.2,13.2,0,0,1,796-2419.36Z" transform="translate(-535.09 2664.5)"/><circle class="cls-3" cx="68.7" cy="51.85" r="35.01"/></svg>