<svg id="Calque_157" data-name="Calque 157" xmlns="http://www.w3.org/2000/svg" viewBox="0 0 465.6 210.72"><defs><style>.cls-1{fill:#fff;stroke:#fff;stroke-linecap:round;stroke-miterlimit:10;stroke-width:12px;}</style></defs><path class="cls-1" d="M1027.26-2224.5a64.72,64.72,0,0,0-19.08,45.86,65.14,65.14,0,0,0,65,64.94h82.11v34.42H1056.6c-54.65,0-99.36-44.71-99.36-99.36a99.05,99.05,0,0,1,29.19-70.17A99.05,99.05,0,0,1,1056.6-2278h98.64v34.42h-82.11A64.71,64.71,0,0,0,1027.26-2224.5Z" transform="translate(-951.24 2284)"/><path class="cls-1" d="M1410.84-2178.64c0,54.65-44.72,99.36-99.36,99.36h-98.64v-34.42h82.1a65.14,65.14,0,0,0,65-64.94,65.14,65.14,0,0,0-65-64.94h-82.1V-2278h98.64C1366.12-2278,1410.84-2233.29,1410.84-2178.64Z" transform="translate(-951.24 2284)"/><rect class="cls-1" x="144.6" y="77.14" width="176.4" height="54.99" rx="27.5"/></svg>