<svg id="Calque_196" data-name="Calque 196" xmlns="http://www.w3.org/2000/svg" viewBox="0 0 1226.83 930.58"><defs><style>.cls-1{fill:none;stroke:#f1f1f1;stroke-miterlimit:10;stroke-width:27px;}.cls-2{fill:#f1f1f1;}</style></defs><path class="cls-1" d="M3067.05-5357.57c-12.05,12.95-27.2,20.85-44.29,20.85h-578c-17.09,0-32.24-7.9-44.26-20.81,22.64-73.26,163.22-129.67,333.27-129.67S3044.38-5430.84,3067.05-5357.57Z" transform="translate(-2133.74 6021.52)"/><path class="cls-1" d="M3031.23-5274.84h-599a105.9,105.9,0,0,1-64.86-21.75,107.65,107.65,0,0,1-28-139.05l299.52-518.77A106.14,106.14,0,0,1,2731.7-6008a106.1,106.1,0,0,1,92.83,53.61l299.52,518.77a107.57,107.57,0,0,1-27.93,139h0A105.88,105.88,0,0,1,3031.23-5274.84ZM2731.7-5945.45a44.17,44.17,0,0,0-38.63,22.32l-299.52,518.77c-12.91,22.36-3.86,46.12,11.75,58a43.87,43.87,0,0,0,26.89,8.91h599a43.85,43.85,0,0,0,26.89-8.93l0,0c15.6-11.88,24.62-35.62,11.7-58l-299.52-518.77A44.17,44.17,0,0,0,2731.7-5945.45Z" transform="translate(-2133.74 6021.52)"/><path class="cls-2" d="M2436.13-5216.9h97v25.52h-97Zm27.27,100.26h69.77v25.53h-97v-75.62h60.63v25.53H2463.4Z" transform="translate(-2133.74 6021.52)"/><path class="cls-2" d="M2586.83-5190.68h-38v-26.4h106.37v26.4h-38.07v99.57h-30.32Z" transform="translate(-2133.74 6021.52)"/><path class="cls-2" d="M2779-5091.29h-30.31v-54.18l-47.65,15v39.2H2670.9V-5216.9H2701v55.31l47.65-15.15v-40.16H2779Z" transform="translate(-2133.74 6021.52)"/><path class="cls-2" d="M2860.37-5090.94a69.53,69.53,0,0,1-26.57-5,66.73,66.73,0,0,1-20.91-13.77,62.19,62.19,0,0,1-13.42-19.77,62.23,62.23,0,0,1-4.79-24.31v-.34a62,62,0,0,1,4.79-24.4,66,66,0,0,1,13.59-20,63.77,63.77,0,0,1,21.08-13.85,68.32,68.32,0,0,1,26.57-5.05,68.38,68.38,0,0,1,26.75,5.05,63.72,63.72,0,0,1,20.73,13.67,61.71,61.71,0,0,1,13.5,19.86,62.1,62.1,0,0,1,4.79,24.4v.35a62.22,62.22,0,0,1-4.79,24.3,66.77,66.77,0,0,1-13.76,20.12,63.25,63.25,0,0,1-20.82,13.77A69.64,69.64,0,0,1,2860.37-5090.94Zm.34-25.7a36.79,36.79,0,0,0,13.94-2.61,32.12,32.12,0,0,0,11-7.93,33.44,33.44,0,0,0,7.32-11.93,39.94,39.94,0,0,0,2.69-14.64v-.34a39.89,39.89,0,0,0-2.69-14.81,34.74,34.74,0,0,0-7.5-11.94,36,36,0,0,0-11.23-8,33.22,33.22,0,0,0-13.85-2.88,33.74,33.74,0,0,0-13.94,2.88,29.87,29.87,0,0,0-10.89,7.84,36.9,36.9,0,0,0-7.49,11.76,39.73,39.73,0,0,0-2.7,14.81v.35a41.05,41.05,0,0,0,2.7,14.8,37.73,37.73,0,0,0,7.49,11.94,33.16,33.16,0,0,0,11.24,7.93A34.83,34.83,0,0,0,2860.71-5116.64Z" transform="translate(-2133.74 6021.52)"/><path class="cls-2" d="M2993.21-5091.11a83.81,83.81,0,0,1-28.31-5,78,78,0,0,1-25.35-15.33l17.16-20.56a88.45,88.45,0,0,0,18.38,11.94,44.41,44.41,0,0,0,18.73,3.92q7.75,0,11.94-2.79a9.39,9.39,0,0,0,4.26-8.28v-.35a11.62,11.62,0,0,0-.87-4.79,11,11,0,0,0-3.39-3.57,42,42,0,0,0-7.32-3.22,92.73,92.73,0,0,0-10.54-3.23l-1.75-.52A129.88,129.88,0,0,1,2969-5148a45,45,0,0,1-13.24-7.14,29.45,29.45,0,0,1-8.36-10.37,36.6,36.6,0,0,1-2.88-15.33v-.35a37,37,0,0,1,3-15.15,34,34,0,0,1,9.15-11.94,43.75,43.75,0,0,1,14.2-7.93,59.14,59.14,0,0,1,18-2.61,76.21,76.21,0,0,1,25.53,4.1,73.45,73.45,0,0,1,21.6,12.1l-15,21.61a102.75,102.75,0,0,0-17.34-9.67,38.85,38.85,0,0,0-15.16-3.22q-7.23,0-10.71,2.87a8.7,8.7,0,0,0-3.75,7.32v.35a9.41,9.41,0,0,0,1.31,5.22,9.57,9.57,0,0,0,3.74,3.75,42,42,0,0,0,7.85,3.22c2.26.7,4.93,1.45,8,2.27l4.79,1.3a127.41,127.41,0,0,1,17,5.66,51.57,51.57,0,0,1,12.63,7.5,28.49,28.49,0,0,1,7.84,10.36,35,35,0,0,1,2.52,13.94v.35a37.32,37.32,0,0,1-3.39,16.2,32.52,32.52,0,0,1-9.41,12.11,43.84,43.84,0,0,1-14.81,7.67A64.37,64.37,0,0,1,2993.21-5091.11Z" transform="translate(-2133.74 6021.52)"/><path class="cls-1" d="M3061.09-5819a16.93,16.93,0,0,1-14.23-7.73,16.93,16.93,0,0,1,5-23.43l184.2-119.28a16.93,16.93,0,0,1,23.42,5,16.92,16.92,0,0,1-5,23.42l-184.2,119.29A16.9,16.9,0,0,1,3061.09-5819Z" transform="translate(-2133.74 6021.52)"/><path class="cls-1" d="M3056.77-5727.92a16.92,16.92,0,0,1-14.23-7.74,16.92,16.92,0,0,1,5-23.42l273.38-177a16.94,16.94,0,0,1,23.42,5,16.93,16.93,0,0,1-5,23.42l-273.38,177A16.82,16.82,0,0,1,3056.77-5727.92Z" transform="translate(-2133.74 6021.52)"/><path class="cls-1" d="M3141.62-5694.61a16.93,16.93,0,0,1-14.23-7.73,17,17,0,0,1,5-23.43L3316.61-5845a16.93,16.93,0,0,1,23.42,5,16.93,16.93,0,0,1-5,23.42l-184.21,119.29A16.87,16.87,0,0,1,3141.62-5694.61Z" transform="translate(-2133.74 6021.52)"/><path class="cls-1" d="M2433.23-5833.38a16.85,16.85,0,0,1-9.19-2.72l-184.21-119.29a16.92,16.92,0,0,1-5-23.42,16.94,16.94,0,0,1,23.42-5l184.21,119.29a16.94,16.94,0,0,1,5,23.42A16.91,16.91,0,0,1,2433.23-5833.38Z" transform="translate(-2133.74 6021.52)"/><path class="cls-1" d="M2437.55-5742.32a16.85,16.85,0,0,1-9.19-2.72l-273.39-177a16.94,16.94,0,0,1-5-23.42,16.92,16.92,0,0,1,23.42-5l273.39,177a17,17,0,0,1,5,23.43A16.94,16.94,0,0,1,2437.55-5742.32Z" transform="translate(-2133.74 6021.52)"/><path class="cls-1" d="M2352.69-5709a16.87,16.87,0,0,1-9.19-2.72L2159.29-5831a17,17,0,0,1-5-23.43,16.94,16.94,0,0,1,23.42-5l184.21,119.29a16.93,16.93,0,0,1,5,23.42A16.91,16.91,0,0,1,2352.69-5709Z" transform="translate(-2133.74 6021.52)"/></svg>