<?xml version="1.0" encoding="utf-8"?>
<!-- Generator: Adobe Illustrator 25.2.1, SVG Export Plug-In . SVG Version: 6.00 Build 0)  -->
<svg version="1.1" id="Calque_1" xmlns="http://www.w3.org/2000/svg" xmlns:xlink="http://www.w3.org/1999/xlink" x="0px" y="0px"
	 viewBox="0 0 299.8 56" style="enable-background:new 0 0 299.8 56;" xml:space="preserve">
<style type="text/css">
	.st0{fill:none;}
	.st1{fill:#A6192E;}
	.st2{fill:#25282A;}
</style>
<g>
	<path class="st0" d="M6.7,3h64v50h-64V3z"/>
	<path class="st1" d="M33.5,40.9c0.2,0.2,0.9,1.2,1.2,1.5 M69.4,40.1c0,0-7.3,9.4-19.3,8.7l0-41c0,0,5.1,1.8,8.6,2.8
		c1.8,0.6,3.7,0.7,5.6,0.3c0,0,2.1-2.2,3.7-4l-0.1-0.8c0,0-1.7,0.7-5.2,0.2c-3.7-0.8-7.4-1.7-11-2.8l-11.2,8.7
		c2.1,3.4,3.5,7.3,4,11.3L44,11.6l4.6-3.3l0.1,40.5c-4.3-0.5-8.4-2.1-11.8-4.7c-1.3,1.3-2.7,2.6-4.3,3.6c4.1,3.5,9.3,5.4,14.7,5.2
		c13.8,0,22.9-12.1,22.9-12.1L69.4,40.1z M34.5,42.2c0.7,0.7,1.5,1.4,2.4,2c3.2-3.2,7.4-9.4,7.8-13.6c0.2-2.4,0.1-4.8-0.3-7.1
		l-0.2,6.9c0,0-2.2,3.1-3.2,4.5s-3.9,4.6-3.9,4.6l1-4.5c-0.6,1.7-3.1,5.1-4.6,6c-9.6-12.4-1.9-24.6,0.7-28.1c-0.4-0.5-0.9-1-1.4-1.4
		c-16.1,17.3-5.6,30.8-2.5,34.1C31.9,44.6,33.3,43.5,34.5,42.2L34.5,42.2z M40.1,6.1C39,6.7,38,7.2,37,7.9c0.3,0.3,0.7,0.7,1,1.1
		c0.8-0.7,1.7-1.4,2.7-2C40.7,7,40.2,6.3,40.1,6.1L40.1,6.1z M38,13.9l2.3-1.8C39.7,11,38.9,10,38,9c-1.4,1.2-2.7,2.5-3.8,3.9
		c2.1,2.2,3.6,6.4,3.8,11L38,13.9z M38,23.9l0,11C39.2,31.8,39.1,27.8,38,23.9L38,23.9z M30.3,45.5C21.5,50.7,11.5,45,11.5,45
		L7.9,50c0,0,9.9,7.8,24.7-2.2C31.8,47.1,31,46.3,30.3,45.5L30.3,45.5z M6.7,11.4l0.5,0.4c6.8-3.7,17.2-8.2,25.7-0.4
		c1.3-1.3,2.6-2.4,4.1-3.5c-1.9-1.6-4.1-2.9-6.4-3.7C22.1,1.1,12.8,4.3,6.7,11.4L6.7,11.4z"/>
	<g>
		<path class="st2" d="M109,21.3c1.1,0.8,1.9,1.9,2.3,3.4h-1.5c-0.4-1-1-1.8-1.9-2.4c-0.9-0.6-1.9-0.9-3.2-0.9c-1,0-1.9,0.2-2.7,0.7
			s-1.4,1.2-1.9,2.1c-0.5,0.9-0.7,1.9-0.7,3.1s0.2,2.2,0.7,3.1s1.1,1.6,1.9,2c0.8,0.5,1.7,0.7,2.7,0.7c1.3,0,2.4-0.3,3.2-0.9
			c0.9-0.6,1.5-1.4,1.9-2.4h1.5c-0.5,1.4-1.2,2.6-2.3,3.4s-2.5,1.2-4.2,1.2c-1.3,0-2.4-0.3-3.5-0.9S99.5,32.1,99,31
			c-0.6-1.1-0.8-2.3-0.8-3.7c0-1.4,0.3-2.6,0.8-3.7c0.6-1.1,1.3-1.9,2.4-2.6c1-0.6,2.2-0.9,3.5-0.9C106.5,20.1,107.9,20.5,109,21.3z
			"/>
		<path class="st2" d="M123.8,21c1,0.6,1.9,1.5,2.4,2.6c0.6,1.1,0.9,2.3,0.9,3.7c0,1.4-0.3,2.6-0.9,3.7c-0.6,1.1-1.4,2-2.4,2.6
			s-2.2,0.9-3.5,0.9s-2.5-0.3-3.5-0.9s-1.9-1.5-2.5-2.6c-0.6-1.1-0.9-2.3-0.9-3.7c0-1.4,0.3-2.6,0.9-3.7c0.6-1.1,1.4-1.9,2.5-2.6
			s2.2-0.9,3.5-0.9S122.8,20.4,123.8,21z M117.5,22.1c-0.8,0.5-1.5,1.2-1.9,2.1c-0.5,0.9-0.7,1.9-0.7,3.1s0.2,2.2,0.7,3.1
			c0.5,0.9,1.1,1.6,1.9,2.1c0.8,0.5,1.7,0.7,2.8,0.7s2-0.2,2.8-0.7c0.8-0.5,1.5-1.2,1.9-2.1c0.5-0.9,0.7-1.9,0.7-3.1
			s-0.2-2.2-0.7-3.1c-0.5-0.9-1.1-1.6-1.9-2.1c-0.8-0.5-1.7-0.7-2.8-0.7S118.3,21.6,117.5,22.1z"/>
		<path class="st2" d="M131,20.3v8.5c0,1.5,0.3,2.6,1,3.3c0.7,0.7,1.6,1.1,2.7,1.1s2-0.4,2.7-1.1c0.6-0.7,1-1.8,1-3.3v-8.5h1.4v8.5
			c0,1.9-0.5,3.3-1.4,4.3c-0.9,0.9-2.2,1.4-3.7,1.4s-2.8-0.5-3.7-1.4c-0.9-0.9-1.4-2.4-1.4-4.3v-8.5H131z"/>
		<path class="st2" d="M150.3,34.4l-3.9-5.9h-2.3v5.9h-1.4V20.3h4.3c1.6,0,2.8,0.4,3.5,1.1c0.8,0.7,1.2,1.8,1.2,3
			c0,1.2-0.3,2.1-1,2.8s-1.6,1.1-2.9,1.2l4,5.9H150.3z M144.2,27.4h2.8c2.3,0,3.4-1,3.4-2.9c0-2-1.1-3-3.4-3h-2.8V27.4z"/>
		<path class="st2" d="M170.1,31.1c-0.6,1.1-1.4,1.9-2.5,2.4c-1.1,0.6-2.5,0.8-4,0.8h-4.3V20.3h4.3c2.4,0,4.2,0.6,5.5,1.9
			c1.3,1.2,1.9,3,1.9,5.2C171,28.7,170.7,30,170.1,31.1z M168,31.6c1-1,1.6-2.4,1.6-4.3c0-1.8-0.5-3.3-1.6-4.3s-2.6-1.5-4.5-1.5
			h-2.7v11.6h2.7C165.5,33.1,167,32.6,168,31.6z"/>
		<path class="st2" d="M175,21.4v5.3h5.5v1.1H175v5.4h6.1v1.2h-7.5V20.3h7.5v1.1H175z"/>
		<path class="st2" d="M199.1,21.3c1.1,0.8,1.9,1.9,2.3,3.4H200c-0.4-1-1-1.8-1.9-2.4c-0.9-0.6-1.9-0.9-3.2-0.9
			c-1,0-1.9,0.2-2.7,0.7s-1.4,1.2-1.9,2.1c-0.5,0.9-0.7,1.9-0.7,3.1s0.2,2.2,0.7,3.1s1.1,1.6,1.9,2c0.8,0.5,1.7,0.7,2.7,0.7
			c1.3,0,2.4-0.3,3.2-0.9c0.9-0.6,1.5-1.4,1.9-2.4h1.5c-0.5,1.4-1.2,2.6-2.3,3.4s-2.5,1.2-4.2,1.2c-1.3,0-2.4-0.3-3.5-0.9
			s-1.8-1.5-2.4-2.5c-0.6-1.1-0.8-2.3-0.8-3.7c0-1.4,0.3-2.6,0.8-3.7c0.6-1.1,1.3-1.9,2.4-2.6c1-0.6,2.2-0.9,3.5-0.9
			C196.6,20.1,198,20.5,199.1,21.3z"/>
		<path class="st2" d="M212.2,30.9h-6.4l-1.3,3.4H203l5.2-13.8h1.6l5.2,13.8h-1.5L212.2,30.9z M211.7,29.8l-2.8-7.6l-2.8,7.6H211.7z
			"/>
		<path class="st2" d="M225.1,32.6c-0.3,0.6-0.8,1-1.4,1.4c-0.6,0.4-1.4,0.5-2.3,0.5c-0.9,0-1.7-0.2-2.4-0.5
			c-0.7-0.3-1.3-0.8-1.7-1.4c-0.4-0.6-0.7-1.2-0.7-1.9h1.5c0.1,0.4,0.2,0.8,0.5,1.2c0.3,0.4,0.6,0.8,1.1,1c0.5,0.3,1.1,0.4,1.7,0.4
			c0.9,0,1.6-0.2,2-0.7c0.5-0.5,0.7-1.1,0.7-1.8c0-0.6-0.2-1.1-0.5-1.5c-0.3-0.4-0.7-0.7-1.2-0.9c-0.5-0.2-1.1-0.4-1.9-0.7
			c-0.9-0.3-1.6-0.6-2.1-0.8s-1-0.6-1.4-1.1c-0.4-0.5-0.6-1.2-0.6-2c0-1.1,0.4-1.9,1.1-2.6c0.7-0.7,1.8-1,3.1-1c1.3,0,2.4,0.3,3.2,1
			c0.8,0.7,1.2,1.5,1.4,2.4h-1.5c-0.1-0.6-0.4-1.1-1-1.6c-0.5-0.5-1.2-0.7-2.1-0.7c-0.8,0-1.5,0.2-2,0.6c-0.5,0.4-0.7,1-0.7,1.8
			c0,0.6,0.2,1.1,0.5,1.5c0.3,0.4,0.7,0.7,1.1,0.9c0.4,0.2,1.1,0.4,1.8,0.7c0.9,0.3,1.6,0.6,2.2,0.8c0.6,0.3,1,0.7,1.4,1.2
			c0.4,0.5,0.6,1.2,0.6,2.1C225.5,31.4,225.4,32,225.1,32.6z"/>
		<path class="st2" d="M236.2,32.6c-0.3,0.6-0.8,1-1.4,1.4c-0.6,0.4-1.4,0.5-2.3,0.5c-0.9,0-1.7-0.2-2.4-0.5
			c-0.7-0.3-1.3-0.8-1.7-1.4c-0.4-0.6-0.7-1.2-0.7-1.9h1.5c0.1,0.4,0.2,0.8,0.5,1.2c0.3,0.4,0.6,0.8,1.1,1c0.5,0.3,1.1,0.4,1.7,0.4
			c0.9,0,1.6-0.2,2-0.7c0.5-0.5,0.7-1.1,0.7-1.8c0-0.6-0.2-1.1-0.5-1.5c-0.3-0.4-0.7-0.7-1.2-0.9c-0.5-0.2-1.1-0.4-1.9-0.7
			c-0.9-0.3-1.6-0.6-2.1-0.8s-1-0.6-1.4-1.1c-0.4-0.5-0.6-1.2-0.6-2c0-1.1,0.4-1.9,1.1-2.6c0.7-0.7,1.8-1,3.1-1c1.3,0,2.4,0.3,3.2,1
			c0.8,0.7,1.2,1.5,1.4,2.4h-1.5c-0.1-0.6-0.4-1.1-1-1.6c-0.5-0.5-1.2-0.7-2.1-0.7c-0.8,0-1.5,0.2-2,0.6c-0.5,0.4-0.7,1-0.7,1.8
			c0,0.6,0.2,1.1,0.5,1.5c0.3,0.4,0.7,0.7,1.1,0.9c0.4,0.2,1.1,0.4,1.8,0.7c0.9,0.3,1.6,0.6,2.2,0.8c0.6,0.3,1,0.7,1.4,1.2
			c0.4,0.5,0.6,1.2,0.6,2.1C236.7,31.4,236.5,32,236.2,32.6z"/>
		<path class="st2" d="M247.4,30.9h-6.4l-1.3,3.4h-1.5l5.2-13.8h1.6l5.2,13.8h-1.5L247.4,30.9z M246.9,29.8l-2.8-7.6l-2.8,7.6H246.9
			z"/>
		<path class="st2" d="M260.4,20.3v1.1h-4v13h-1.4v-13h-4v-1.1H260.4z"/>
		<path class="st2" d="M263.7,20.3v14.1h-1.4V20.3H263.7z"/>
		<path class="st2" d="M276.6,21c1,0.6,1.9,1.5,2.4,2.6c0.6,1.1,0.9,2.3,0.9,3.7c0,1.4-0.3,2.6-0.9,3.7c-0.6,1.1-1.4,2-2.4,2.6
			s-2.2,0.9-3.5,0.9s-2.5-0.3-3.5-0.9s-1.9-1.5-2.5-2.6c-0.6-1.1-0.9-2.3-0.9-3.7c0-1.4,0.3-2.6,0.9-3.7c0.6-1.1,1.4-1.9,2.5-2.6
			s2.2-0.9,3.5-0.9S275.6,20.4,276.6,21z M270.3,22.1c-0.8,0.5-1.5,1.2-1.9,2.1c-0.5,0.9-0.7,1.9-0.7,3.1s0.2,2.2,0.7,3.1
			c0.5,0.9,1.1,1.6,1.9,2.1c0.8,0.5,1.7,0.7,2.8,0.7s2-0.2,2.8-0.7c0.8-0.5,1.5-1.2,1.9-2.1c0.5-0.9,0.7-1.9,0.7-3.1
			s-0.2-2.2-0.7-3.1c-0.5-0.9-1.1-1.6-1.9-2.1c-0.8-0.5-1.7-0.7-2.8-0.7S271.2,21.6,270.3,22.1z"/>
		<path class="st2" d="M293.1,34.4h-1.4l-7.7-11.8v11.8h-1.4V20.3h1.4l7.7,11.8V20.3h1.4V34.4z"/>
	</g>
</g>
</svg>
