<svg id="Calque_139" data-name="Calque 139" xmlns="http://www.w3.org/2000/svg" viewBox="0 0 1511.34 1511.34"><defs><style>.cls-1{fill:none;}.cls-2,.cls-3,.cls-4{fill:#fff;}.cls-2,.cls-3{stroke:#fff;stroke-miterlimit:10;}.cls-2{stroke-width:1.6px;}.cls-3{stroke-width:1.75px;}.cls-4{font-size:165.25px;font-family:Heavitas;}.cls-5{letter-spacing:-0.03em;}.cls-6{letter-spacing:0em;}</style></defs><rect class="cls-1" width="1511.34" height="1511.34" rx="22.73"/><polygon class="cls-2" points="958.23 721.57 675.67 805.25 462.92 611.37 462.92 868.25 228.09 937.8 228.09 56.22 462.92 270.2 958.23 721.57"/><polygon class="cls-2" points="1259.45 51.06 1259.45 632.36 1024.62 701.9 1024.62 51.06 1259.45 51.06"/><path class="cls-3" d="M-1068.73-1632.12A137.25,137.25,0,0,1-1206-1494.87a137.25,137.25,0,0,1-137.25-137.25,136.74,136.74,0,0,1,15.87-64.13A137.25,137.25,0,0,1-1206-1769.37a137.11,137.11,0,0,1,113.45,60A136.65,136.65,0,0,1-1068.73-1632.12Z" transform="translate(2351.98 2651.07)"/><text class="cls-4" transform="translate(68.89 1421.8)">E<tspan class="cls-5" x="112.87" y="0">N</tspan><tspan class="cls-6" x="246.22" y="0">T Na</tspan><tspan class="cls-5" x="673.72" y="0">n</tspan><tspan class="cls-6" x="807.08" y="0">terre</tspan></text></svg>