<svg id="Calque_195" data-name="Calque 195" xmlns="http://www.w3.org/2000/svg" viewBox="0 0 927.9 1128.41"><defs><style>.cls-1{fill:none;stroke:#f1f1f1;stroke-miterlimit:10;stroke-width:27px;}</style></defs><circle class="cls-1" cx="469.42" cy="305.72" r="62.24"/><circle class="cls-1" cx="742.85" cy="305.72" r="62.24"/><path class="cls-1" d="M4002.38-6237.16v0h-.45Z" transform="translate(-3395.68 6250.66)"/><path class="cls-1" d="M4309.5-6159.14a91.11,91.11,0,0,1-44.87,78.55,90.63,90.63,0,0,1-46.31,12.63l-2.38,0-81.37-1.07h0c-3.61-.32-7.25-.48-10.94-.48q-3.82,0-7.59.24a122.15,122.15,0,0,0-113.65,106.93c-.18,1.48-.33,3-.45,4.45-.13-1.49-.28-3-.46-4.45a122.15,122.15,0,0,0-113.65-106.93q-3.77-.24-7.59-.24c-3.69,0-7.33.16-10.94.48h0l-81.37,1.07-2.38,0a90.63,90.63,0,0,1-46.31-12.63,91.11,91.11,0,0,1-44.87-78.55H3804a316,316,0,0,1,62.15-42.57,313.84,313.84,0,0,1,135.3-35.42h.91a313.84,313.84,0,0,1,135.3,35.42,316,316,0,0,1,62.15,42.57Z" transform="translate(-3395.68 6250.66)"/><path class="cls-1" d="M4001.93-6237.14h-.46v0Z" transform="translate(-3395.68 6250.66)"/><path class="cls-1" d="M4310.08-5800.26a630.31,630.31,0,0,1-15.15,137.76c-55.52,248.13-257.84,440.83-511,482.16a407.59,407.59,0,0,0,102.59-271,409.31,409.31,0,0,0-14.71-109.09q.28,7.71.29,15.49c0,164.33-96.88,306-236.64,371.11a407.48,407.48,0,0,1-172.52,38.05,411.25,411.25,0,0,1-48.39-2.84l30.68-79.64L3631-5700.68l42.32-109.87,22.7-58.93a484.82,484.82,0,0,0,138.05,152.18h0a480,480,0,0,0,166.34,76.17h0c130.77-31.65,240.74-116.58,305.62-230.51A632.33,632.33,0,0,1,4310.08-5800.26Z" transform="translate(-3395.68 6250.66)"/><path class="cls-1" d="M3959.91-5867.12a42,42,0,0,1,42-42,42,42,0,0,1,42,42c0,23.2-42,101.07-42,101.07S3959.91-5843.92,3959.91-5867.12Z" transform="translate(-3395.68 6250.66)"/></svg>