<svg id="Calque_110" data-name="Calque 110" xmlns="http://www.w3.org/2000/svg" viewBox="0 0 209.53 250.3"><defs><style>.cls-1,.cls-2{fill:none;stroke:#fff;stroke-miterlimit:10;stroke-width:6px;}.cls-1{stroke-linecap:round;}.cls-3{font-size:34.99px;font-family:EMINOR-BlackItalic, EMINOR;font-weight:800;font-style:italic;}.cls-3,.cls-4{fill:#fff;}</style></defs><path class="cls-1" d="M-1126.41-4994.65h-104.78a17.92,17.92,0,0,1-17.87-17.87v-97" transform="translate(1274.62 5216.19)"/><path class="cls-1" d="M-1249.06-5174.1v-21.23a17.92,17.92,0,0,1,17.87-17.86h83.44a2.07,2.07,0,0,1,2.07,2.07v50.33a2.06,2.06,0,0,0,2.06,2.06h51a2.07,2.07,0,0,1,2.07,2.06v71" transform="translate(1274.62 5216.19)"/><path class="cls-2" d="M-1091.66-5158.73h-53.56a.46.46,0,0,1-.46-.47v-52.87a.46.46,0,0,1,.79-.33l53.56,52.87A.47.47,0,0,1-1091.66-5158.73Z" transform="translate(1274.62 5216.19)"/><rect class="cls-2" x="3" y="54.32" width="103.49" height="41.69" rx="6.68"/><text class="cls-3" transform="translate(26.06 87.02)">PDF</text><path class="cls-4" d="M-1073-5018.7c2.45,0,3.86,2.4,2.4,4.09l-13.79,16-14.9,17.28a3.29,3.29,0,0,1-4.79,0l-14.91-17.28-13.78-16c-1.46-1.69-.06-4.09,2.39-4.09h8.82v-52.53c0-3.82,3.61-6.93,8.06-6.93h23.63c4.45,0,8.05,3.11,8.05,6.93v52.53Z" transform="translate(1274.62 5216.19)"/><rect class="cls-4" x="136.32" y="240.99" width="73.21" height="9.31" rx="3.11"/></svg>