<svg id="Calque_182" data-name="Calque 182" xmlns="http://www.w3.org/2000/svg" viewBox="0 0 407.19 407.42"><defs><style>.cls-1{fill:none;}.cls-1,.cls-2{stroke:#4d4d4d;stroke-miterlimit:10;stroke-width:17px;}.cls-2{fill:#666;}</style></defs><path class="cls-1" d="M-629.81-1311h-.1C-737.48-1311-825-1223.27-825-1115.74a194.1,194.1,0,0,0,37.14,114.5l-24.31,72.43,75-24a193.45,193.45,0,0,0,107.33,32.22c107.57,0,195-87.72,195-195.21S-522.24-1311-629.81-1311Zm113.52,275.81c-4.71,13.29-23.39,24.3-38.29,27.52-10.2,2.16-23.51,3.9-68.33-14.67-57.34-23.74-94.26-82-97.13-85.73s-23.17-30.82-23.17-58.81,14.21-41.59,20-47.44c4.7-4.8,12.48-7,20-7,2.41,0,4.58.12,6.53.22,5.73.24,8.61.58,12.39,9.62,4.71,11.34,16.17,39.31,17.54,42.19s2.78,6.77.82,10.54-3.44,5.64-6.31,9-5.61,5.85-8.49,9.41c-2.63,3.09-5.61,6.41-2.29,12.13s14.77,24.29,31.65,39.31c21.78,19.37,39.43,25.56,45.75,28.19,4.71,2,10.31,1.49,13.75-2.17,4.37-4.7,9.76-12.5,15.25-20.17,3.9-5.51,8.82-6.19,14-4.24s33.14,15.59,38.87,18.44,9.52,4.24,10.91,6.66S-511.59-1048.45-516.29-1035.15Z" transform="translate(833.46 1319.46)"/><path class="cls-2" d="M-516.29-1035.15c-4.71,13.29-23.39,24.3-38.29,27.52-10.2,2.16-23.51,3.9-68.33-14.67-57.34-23.74-94.26-82-97.13-85.73s-23.17-30.82-23.17-58.81,14.21-41.59,20-47.44c4.7-4.8,12.48-7,20-7,2.41,0,4.58.12,6.53.22,5.73.24,8.61.58,12.39,9.62,4.71,11.34,16.17,39.31,17.54,42.19s2.78,6.77.82,10.54-3.44,5.64-6.31,9-5.61,5.85-8.49,9.41c-2.63,3.09-5.61,6.41-2.29,12.13s14.77,24.29,31.65,39.31c21.78,19.37,39.43,25.56,45.75,28.19,4.71,2,10.31,1.49,13.75-2.17,4.37-4.7,9.76-12.5,15.25-20.17,3.9-5.51,8.82-6.19,14-4.24s33.14,15.59,38.87,18.44,9.52,4.24,10.91,6.66S-511.59-1048.45-516.29-1035.15Z" transform="translate(833.46 1319.46)"/></svg>