<svg id="Calque_188" data-name="Calque 188" xmlns="http://www.w3.org/2000/svg" xmlns:xlink="http://www.w3.org/1999/xlink" viewBox="0 0 209.53 323.23"><defs><style>.cls-1,.cls-2{fill:none;stroke:#fff;stroke-miterlimit:10;stroke-width:6px;}.cls-1{stroke-linecap:round;}.cls-3{font-size:34.99px;font-family:EMINOR-BlackItalic, EMINOR;font-weight:800;font-style:italic;}.cls-3,.cls-4,.cls-6{fill:#fff;}.cls-5{fill:url(#New_Gradient_Swatch_copy_2);}.cls-6{font-size:29.98px;font-family:Boldfinger;}.cls-7{fill:url(#New_Gradient_Swatch_copy_2-2);}.cls-8{fill:url(#New_Gradient_Swatch_copy_2-3);}</style><linearGradient id="New_Gradient_Swatch_copy_2" x1="136.32" y1="245.64" x2="209.53" y2="245.64" gradientUnits="userSpaceOnUse"><stop offset="0" stop-color="#df191c"/><stop offset="1" stop-color="#bc1b24"/></linearGradient><linearGradient id="New_Gradient_Swatch_copy_2-2" x1="-671.3" y1="-3571.66" x2="-656.59" y2="-3571.66" gradientTransform="translate(45.49 153.01)" xlink:href="#New_Gradient_Swatch_copy_2"/><linearGradient id="New_Gradient_Swatch_copy_2-3" x1="-701.72" y1="-3571.66" x2="-626.03" y2="-3571.66" gradientTransform="translate(2953.26 -4082.47) rotate(-90)" xlink:href="#New_Gradient_Swatch_copy_2"/></defs><path class="cls-1" d="M-644-3370.73H-748.83a17.92,17.92,0,0,1-17.87-17.86v-97" transform="translate(792.26 3592.26)"/><path class="cls-1" d="M-766.7-3550.18v-21.23a17.91,17.91,0,0,1,17.87-17.85h83.44a2.06,2.06,0,0,1,2.06,2.06v50.33a2.07,2.07,0,0,0,2.07,2.06h51a2.07,2.07,0,0,1,2.07,2.07v71" transform="translate(792.26 3592.26)"/><path class="cls-2" d="M-609.3-3534.81h-53.56a.46.46,0,0,1-.47-.46v-52.87a.47.47,0,0,1,.8-.34l53.56,52.87A.47.47,0,0,1-609.3-3534.81Z" transform="translate(792.26 3592.26)"/><rect class="cls-2" x="3" y="54.32" width="103.49" height="41.69" rx="6.68"/><text class="cls-3" transform="translate(26.06 87.02)">PDF</text><path class="cls-4" d="M-589.76-3394.78c2.45,0,3.85,2.4,2.39,4.09l-13.78,16-14.91,17.28a3.29,3.29,0,0,1-4.79,0l-14.9-17.28-13.79-16c-1.46-1.69-.06-4.09,2.39-4.09h8.83v-52.52c0-3.83,3.6-6.93,8.05-6.93h23.63c4.45,0,8,3.1,8,6.93v52.52Z" transform="translate(792.26 3592.26)"/><rect class="cls-5" x="136.32" y="240.99" width="73.21" height="9.31" rx="3.11"/><text class="cls-6" transform="translate(14.57 281.63)">Écriture en <tspan x="45.97" y="35.98">cours</tspan></text><rect class="cls-7" x="-625.81" y="-3456.5" width="14.71" height="75.69" rx="5.28" transform="translate(-1979.17 2900.21) rotate(48.55)"/><rect class="cls-8" x="-625.76" y="-3456.44" width="14.71" height="75.69" rx="5.28" transform="translate(-2552.67 -1979.31) rotate(138.55)"/></svg>