<svg id="Calque_182" data-name="Calque 182" xmlns="http://www.w3.org/2000/svg" viewBox="0 0 1317.6 1317.6"><defs><style>.cls-1,.cls-8{fill:none;}.cls-1{stroke:#f1f1f1;stroke-miterlimit:10;stroke-width:20px;}.cls-2{font-size:102.66px;fill:#fff;font-family:Heavitas;letter-spacing:0.03em;}.cls-3{letter-spacing:0em;}.cls-4{letter-spacing:-0.03em;}.cls-5{letter-spacing:0.03em;}.cls-6{letter-spacing:0.05em;}.cls-7{letter-spacing:-0.08em;}</style></defs><path class="cls-1" d="M-173.6-1583.21a14.23,14.23,0,0,0,4.17-5.68c10.64-25.68,30.22-41.22,56-50a16.71,16.71,0,0,0,3.19-1.55,1.61,1.61,0,0,0-.84-3H-503.6a59,59,0,0,0-58.88,58.87v385.06a57.44,57.44,0,0,0,57.27,57.27h203.84c11-.68,21.47-3,31-10.42,4.43-3.45,10.24-5.15,15.4-7.65,19.38-9.41,39.05-18.27,58-28.52,9.1-4.92,17.47-11.76,25-19,14.83-14.24,29-29.22,43.11-44.2,2.65-2.8,4.24-6.61,6.35-10.51a1.6,1.6,0,0,0-.91-2.29c-8.3-2.61-14,.88-19.61,4.61-3.57,2.37-6.87,6.75-10.56,7.07-11.43.93-19,8.48-27.77,14a98.94,98.94,0,0,1-44.25,14.72c-15.67,1.49-31.45,3-46.77,6.37-8,1.75-15.67,6.71-22.6,11.5-9.82,6.76-19.08,14.37-29.56,22.6a1.61,1.61,0,0,1-2.53-1.76q6.18-19.35,10.71-33.47a1.65,1.65,0,0,1,.5-.74c16-13.7,33.87-18.7,52.31-22.11,8.64-1.6,17.35-2.79,26.08-3.71a101.54,101.54,0,0,0,56.51-24c4.75-4,9.11-8.2,11.13-14a1.61,1.61,0,0,0-2.6-1.74c-25.67,23.22-54.66,36.85-91.58,34a1.61,1.61,0,0,1-1.09-2.68l2.38-2.68a1.6,1.6,0,0,0-.24-2.35l-2.87-2.16a1.61,1.61,0,0,1,0-2.61c5.77-4,10.58-7.6,15.65-10.74,14.3-8.88,28.78-17.48,43.07-26.38,1.81-1.13,3.12-3.28,4.36-5.15,2.6-3.93,4.43-8.55,7.62-11.9,8-8.46,9.86-19,12.3-28.38a1.61,1.61,0,0,0-2.06-1.94c-14,4.54-27.39,9.09-41,13.13-7.8,2.31-14.47-.38-21.51-4.78-10.81-6.75-22.26-13.57-34.38-16.92-17.08-4.7-34.79-7.13-53.52-10.39a1.61,1.61,0,0,1-.15-3.14l10.79-3a1.61,1.61,0,0,0-.75-3.13c-10.05,2.14-20.05,6.06-31.07,9.93a1.62,1.62,0,0,1-1.81-2.52c11.42-14.79,23.55-23.49,40.37-23.07a508,508,0,0,1,57.19,4.2c10.87,1.51,22.67,1.76,31.5,11.54,3,3.34,10.88,3.71,16.28,3.09,4.75-.54,9.19-3.89,14.51-6.57a1.62,1.62,0,0,0,.9-1.44v-3.67a1.61,1.61,0,0,1,2.4-1.41c6.86,3.92,12.93,9.4,22.06,7.45a1.63,1.63,0,0,0,1.21-2c-2.26-8-7.69-13.37-12.76-18.79a69.82,69.82,0,0,1-17.07-32.66c-4.94-21.91-8.22-44.18-13-66.13-2.47-11.45-1.35-22.14,4.25-32C-199.82-1549.31-191.38-1569.55-173.6-1583.21Zm-187.29,383.84-.15-.16a1.6,1.6,0,0,1,.09-2.28l9.18-8.4a1.61,1.61,0,0,1,2.65,1.57c-1.45,6.36-6.5,7-9.62,9.45A1.58,1.58,0,0,1-360.89-1199.37Zm-55.63,11.15-.38-.37a1.6,1.6,0,0,1-.32-1.89c4.65-9.09,8-19.3,14.56-26.74,11.11-12.67,36.28-19.18,56.4-14.8a1.61,1.61,0,0,1,.5,3L-414.58-1188A1.62,1.62,0,0,1-416.52-1188.22ZM-323.7-1273c7-5.39,9-5.54,13.68-1.42a1.61,1.61,0,0,1-.86,2.8l-11.63,1.5A1.61,1.61,0,0,1-323.7-1273Zm-29.06-88.33c-.37,2.26-.66,4-.87,5.32a1.6,1.6,0,0,0,.89,1.71c9.2,4.41,18.07,8.78,27.08,12.88,3.87,1.77,8.05,2.84,12.05,4.32,16.11,5.93,32.33,11.65,48.29,18,4.35,1.73,8.24,4.63,12.23,7.27l-.77,6.57c-10,3.6-19.95,7.59-30.19,10.31-16.55,4.4-33.36,7.77-50.11,11.38-2.17.46-5.13.57-6.83-.54-10.19-6.64-19.56-1.58-28.55,2.22-10.94,4.61-21.31,10.62-32,15.94-2.1,1-4.28,1.92-6.81,3a1.62,1.62,0,0,1-2.18-1.88c2-8,7.51-12.45,12.61-17.39,10.65-10.3,20.95-21,32.24-32.39a1.61,1.61,0,0,0-.46-2.6l-7.18-3.33a1.61,1.61,0,0,1-.54-2.51l6.86-8a1.61,1.61,0,0,0-.91-2.62l-7.63-1.52a1.61,1.61,0,0,1-1.21-2.11c4.06-11.37,10-20,21.67-25.67A1.61,1.61,0,0,1-352.76-1361.3Zm-5.28-31.59c-7.16,6-12.95,13.69-18.82,21.05-5.51,6.93-10.54,14.25-16.64,22.74a1.62,1.62,0,0,1-2.9-.64c-.14-.79-.29-1.54-.44-2.34a1.61,1.61,0,0,0-2.39-1.11c-19.21,11.21-34.93,26.23-51.21,40.8a1.61,1.61,0,0,1-2.52-1.91c5.79-11.86,10.15-24.39,22.46-32.44,9.84-6.44,17.43-16.23,26.54-23.91,14.21-11.93,28.58-23.71,43.41-34.86,7-5.28,15.15-5.93,24.2-3.78a1.62,1.62,0,0,1,.42,3C-344.33-1401.59-351.84-1398-358-1392.89Z" transform="translate(719.67 1878.43)"/><path class="cls-1" d="M407.61-1582.57v383.09a57.44,57.44,0,0,1-55.8,57.25H272.76q-61.35,0-122.69,0-17,0-33.94.08c-1.17,0-2.3,0-3.42-.08a58.16,58.16,0,0,1-21.3-5.47c-17.82-8.11-36.13-15.32-54.61-21.84-9.71-3.4-13.65-9.14-13.95-19-.79-26.31,7.76-48.78,26.25-67.57,8.73-8.87,19.05-12.54,31.27-10.61,13.24,2.08,26.44,4.48,39.68,6.48,5.64.85,11.46,1.91,17.07,1.4,18.76-1.76,28.92-15.75,24.84-34.21-1.11-5-1.61-8.78,2.29-13,8-8.71,8.47-9.64,1.68-19.46a3.6,3.6,0,0,1,.88-4.94c7-5.13,9.51-10.83,4.6-19.85-4.24-7.76-2.09-10.71,6.19-14,1.33-.53,2.78-.73,4.13-1.25,11.06-4.2,14-10.6,8.35-21.16-4.47-8.43-10.22-16.16-15.42-24.21-3.9-6-8.67-11.68-11.48-18.18-2.54-5.91-4.93-13.07-3.94-19.12,2.65-16.11.64-31.45-3.81-46.78-3.2-11-5.8-22.31-10.12-32.89-3.19-7.85-2.94-12.86,4-18.62,7.43-6.21,7.53-9.13.77-16a3.6,3.6,0,0,0-4.84-.25L143-1561a3.58,3.58,0,0,1-4.64-.08l-26.15-23a3.58,3.58,0,0,1,2.32-6.28h.08c16.43.15,22.55-22.83,12.12-32.19A153.09,153.09,0,0,0,112.22-1634c-1.41-1-2.87-1.9-4.33-2.84a3.58,3.58,0,0,1,1.94-6.59H346.76A61,61,0,0,1,407.61-1582.57Z" transform="translate(719.67 1878.43)"/><text class="cls-2" transform="translate(463.38 1034.2) scale(1.01 1)">dro<tspan class="cls-3" x="249.76" y="0">i</tspan><tspan x="284.77" y="0">t </tspan><tspan x="-253.87" y="123.19">ADMINI</tspan><tspan class="cls-4" x="183.65" y="123.19">S</tspan><tspan class="cls-5" x="250.48" y="123.19">T</tspan><tspan class="cls-6" x="317.72" y="123.19">R</tspan><tspan class="cls-7" x="396.56" y="123.19">A</tspan><tspan x="468.52" y="123.19">TIF</tspan></text><rect class="cls-8" width="1317.6" height="1317.6" rx="12"/></svg>