<svg id="Calque_137" data-name="Calque 137" xmlns="http://www.w3.org/2000/svg" viewBox="0 0 1511.34 1511.34"><defs><style>.cls-1{font-size:165.25px;font-family:Heavitas;}.cls-1,.cls-3{fill:#fff;}.cls-2{fill:none;}.cls-3{fill-rule:evenodd;}</style></defs><text class="cls-1" transform="translate(438.97 1412.04)">profil</text><rect class="cls-2" width="1511.34" height="1511.34" rx="22.73"/><path class="cls-3" d="M2125.08-1660.49c10.68-181.69,81-278.82,277.5-313.12,3.89-36.74,22.48-56.85,56.42-59.44l2.39-61.83c-29-28.32-38.7-57.94-33.95-88.21-27-24.64-45.18-54.68-53.18-91.22-15.13-63.78-3.45-78.48,20.54-70.7-13.62-53.6-20.54-108.95-15.13-167.32,16-57.93,44.53-96.84,102-92.31,18.38-33.51,51-28.1,83-38-5.84,6-6.48,12.32-2.81,19,57.28-22.7,109.82-2.38,138.78-2.81-8.21,6.91-12.53,14.48-10.8,23.13,105.71,5.4,140.73,94.25,114.14,255.74,38.7-8.64,17.29,89.28-38.05,167.11,2.6,40.86-11.67,67.45-32.64,88.42l1.51,59.23c32.22,3.46,50.16,23.35,53.83,59.23,196.51,34.3,266.83,131.43,277.51,313.12A66.39,66.39,0,0,1,3000-1590.1H2191.3A66.39,66.39,0,0,1,2125.08-1660.49Z" transform="translate(-1839.96 2760.28)"/></svg>