<svg id="Calque_147" data-name="Calque 147" xmlns="http://www.w3.org/2000/svg" xmlns:xlink="http://www.w3.org/1999/xlink" viewBox="0 0 205.44 197.1"><defs><style>.cls-1{stroke:#fff;stroke-miterlimit:10;stroke-width:10px;fill:url(#Dégradé_sans_nom_69);}</style><linearGradient id="Dégradé_sans_nom_69" x1="91.4" y1="-1695.1" x2="91.4" y2="-1882.2" gradientUnits="userSpaceOnUse"><stop offset="0" stop-color="#cc3f16"/><stop offset="0.44" stop-color="#9a0a00"/><stop offset="1" stop-color="#400900"/></linearGradient></defs><path class="cls-1" d="M103.23-1873.61l14.54,44.75a12.45,12.45,0,0,0,11.84,8.6h47c12.06,0,17.07,15.42,7.32,22.51L145.9-1770.1a12.45,12.45,0,0,0-4.52,13.91l14.54,44.75c3.73,11.46-9.39,21-19.14,13.91l-38.07-27.66a12.43,12.43,0,0,0-14.62,0L46-1697.53c-9.75,7.08-22.87-2.45-19.14-13.91l14.54-44.75a12.45,12.45,0,0,0-4.52-13.91l-38.07-27.65c-9.75-7.09-4.74-22.51,7.32-22.51h47a12.45,12.45,0,0,0,11.84-8.6l14.54-44.75C83.29-1885.07,99.51-1885.07,103.23-1873.61Z" transform="translate(11.32 1887.2)"/></svg>